<svg width="69" height="70" viewBox="0 0 69 70" fill="none" xmlns="http://www.w3.org/2000/svg">
<path d="M32 40V29L42 34.5L32 40Z" fill="white"/>
<path fill-rule="evenodd" clip-rule="evenodd" d="M23.501 25.072C19.675 27.282 18.364 32.172 20.573 36.002C21.322 37.302 22.3801 38.302 23.5991 38.982L23.001 39.332C19.175 41.542 17.864 46.4321 20.073 50.2621C22.282 54.0821 27.175 55.402 31.001 53.192L46.59 44.192C50.416 41.982 51.7271 37.082 49.5181 33.262C48.7691 31.962 47.7111 30.952 46.4921 30.272L47.09 29.932C50.916 27.722 52.2271 22.832 50.0181 19.002C47.8091 15.175 42.916 13.864 39.09 16.073L23.501 25.072ZM32.3901 39.782L41.3901 34.582L32.3901 29.382V39.782Z" fill="#FF0000"/>
</svg>
