<svg width="70" height="70" viewBox="0 0 70 70" fill="none" xmlns="http://www.w3.org/2000/svg">
<g clip-path="url(#clip0_81_567)">
<path d="M53.2431 25.7938C53.0282 24.9853 52.6048 24.2475 52.0152 23.6541C51.4256 23.0608 50.6905 22.6326 49.8835 22.4126C46.9126 21.6138 35.0376 21.6138 35.0376 21.6138C35.0376 21.6138 23.1626 21.6138 20.1917 22.4126C19.3847 22.6326 18.6496 23.0608 18.06 23.6541C17.4704 24.2475 17.047 24.9853 16.8321 25.7938C16.0376 28.7776 16.0376 35.0001 16.0376 35.0001C16.0376 35.0001 16.0376 41.2226 16.8321 44.2065C17.047 45.0149 17.4704 45.7527 18.06 46.3461C18.6496 46.9395 19.3847 47.3676 20.1917 47.5876C23.1626 48.3865 35.0376 48.3865 35.0376 48.3865C35.0376 48.3865 46.9126 48.3865 49.8835 47.5876C50.6905 47.3676 51.4256 46.9395 52.0152 46.3461C52.6048 45.7527 53.0282 45.0149 53.2431 44.2065C54.0376 41.2226 54.0376 35.0001 54.0376 35.0001C54.0376 35.0001 54.0376 28.7776 53.2431 25.7938Z" fill="#FF0302"/>
<path d="M31.1514 40.6503V29.3496L41.0832 35L31.1514 40.6503Z" fill="#FEFEFE"/>
</g>
<defs>
<clipPath id="clip0_81_567">
<rect width="38" height="38" fill="white" transform="translate(16 16)"/>
</clipPath>
</defs>
</svg>
