<svg width="24" height="24" viewBox="0 0 24 24" fill="none" xmlns="http://www.w3.org/2000/svg">
<path d="M12.001 6.36035C12.026 6.36035 17.0068 6.36131 18.2549 6.69922C18.9438 6.88275 19.4864 7.42845 19.6699 8.12305C20.0008 9.37134 20 11.9646 20 11.999C20 11.999 20.0001 14.6194 19.667 15.876C19.4835 16.5677 18.9409 17.1125 18.252 17.2988C17.0037 17.6348 11.998 17.6348 11.998 17.6348C11.9894 17.6348 6.9913 17.6345 5.74414 17.2988C5.05519 17.1153 4.51263 16.5706 4.3291 15.876C3.99597 14.6194 3.99609 11.999 3.99609 11.999C3.99611 11.9646 3.99835 9.37116 4.33203 8.12012C4.51556 7.42835 5.05812 6.88264 5.74707 6.69629C6.99582 6.36041 12.001 6.36035 12.001 6.36035ZM10.3633 14.3799L14.5479 11.999L10.3633 9.61914V14.3799Z" fill="currentColor"/>
</svg>
