<svg width="14" height="14" viewBox="0 0 14 14" fill="none" xmlns="http://www.w3.org/2000/svg">
<path d="M7.00488 0C7.55717 2.41411e-08 8.00488 0.447715 8.00488 1V5.99512H13C13.5523 5.99512 14 6.44283 14 6.99512C14 7.5474 13.5523 7.99512 13 7.99512H8.00488V13C8.00488 13.5523 7.55717 14 7.00488 14C6.4526 14 6.00488 13.5523 6.00488 13V7.99512H1C0.447715 7.99512 0 7.5474 0 6.99512C0 6.44283 0.447715 5.99512 1 5.99512H6.00488V1C6.00488 0.447715 6.4526 -2.41411e-08 7.00488 0Z" fill="currentColor"/>
</svg>
