<svg width="18" height="20" viewBox="0 0 18 20" fill="none" xmlns="http://www.w3.org/2000/svg">
<path d="M8.94995 0.00146484C8.67748 -0.0122226 8.40024 0.0843756 8.19214 0.29248L0.292725 8.19189C-0.0977039 8.58232 -0.0975113 9.21541 0.292725 9.60596C0.683249 9.99648 1.31626 9.99648 1.70679 9.60596L7.99976 3.31299V19.0005C7.99981 19.5526 8.44761 20.0004 8.99976 20.0005C9.55201 20.0005 9.9997 19.5527 9.99976 19.0005V3.4126L16.1921 9.60596C16.5827 9.99648 17.2157 9.99648 17.6062 9.60596C17.9967 9.21543 17.9967 8.58242 17.6062 8.19189L9.70679 0.29248C9.49881 0.084651 9.22219 -0.0121029 8.94995 0.00146484Z" fill="currentColor"/>
</svg>
