<svg width="40" height="40" viewBox="0 0 40 40" fill="none" xmlns="http://www.w3.org/2000/svg">
<path d="M23.7328 26.8078L21.2031 25.1366L31.2206 9.96891C31.6801 9.27213 32.6193 9.08026 33.3211 9.53973C34.0179 9.9992 34.2098 10.9383 33.7503 11.6402L23.7328 26.8078Z" stroke="currentColor" stroke-width="1.5" stroke-linejoin="round"/>
<path d="M21.4201 25.0558L19.6327 26.9038L19.5469 30.4735L22.7985 28.9941L23.7932 26.6261" stroke="currentColor" stroke-width="1.5" stroke-linejoin="round"/>
<path d="M29.8318 12.0795L33.2197 14.3162C33.9064 14.7707 34.0983 15.6997 33.6439 16.3864L29.7358 22.304" stroke="currentColor" stroke-width="1.5" stroke-linejoin="round"/>
<path d="M27.2064 26.6917V33.7605H6V7H27.2064V12.0491" stroke="currentColor" stroke-width="1.5" stroke-miterlimit="10"/>
<path d="M23.6718 10.5344H9.53418V13.059H23.6718V10.5344Z" stroke="currentColor" stroke-width="1.5" stroke-linejoin="round"/>
<path d="M9.0293 16.5934H12.5637" stroke="currentColor" stroke-width="1.5" stroke-linejoin="round"/>
<path d="M9.0293 19.6229H19.1276" stroke="currentColor" stroke-width="1.5" stroke-linejoin="round"/>
<path d="M15.0884 30.731H18.1179" stroke="currentColor" stroke-width="1.5" stroke-linejoin="round"/>
</svg>
