<svg width="22" height="22" viewBox="0 0 22 22" fill="none" xmlns="http://www.w3.org/2000/svg">
<path d="M21.6724 0.292981C22.0629 0.683506 22.0629 1.31667 21.6724 1.70719L12.3964 10.9831L21.506 20.0927C21.8965 20.4832 21.8965 21.1164 21.506 21.5069C21.1154 21.8973 20.4822 21.8974 20.0917 21.5069L10.9822 12.3974L1.87339 21.5062C1.48286 21.8967 0.849697 21.8967 0.459173 21.5062C0.0687688 21.1157 0.0686892 20.4825 0.459173 20.092L9.56801 10.9831L0.292754 1.70789C-0.0975466 1.31739 -0.0975713 0.684149 0.292754 0.293672C0.683219 -0.0967934 1.31643 -0.0966755 1.70697 0.293672L10.9822 9.56892L20.2582 0.292981C20.6486 -0.0975028 21.2818 -0.0974222 21.6724 0.292981Z" fill="currentColor"/>
</svg>
