<svg width="21" height="21" viewBox="0 0 21 21" fill="none" xmlns="http://www.w3.org/2000/svg">
<path d="M2.33333 21C1.69167 21 1.14236 20.7715 0.685417 20.3146C0.228472 19.8576 0 19.3083 0 18.6667V2.33333C0 1.69167 0.228472 1.14236 0.685417 0.685417C1.14236 0.228472 1.69167 0 2.33333 0H18.6667C19.3083 0 19.8576 0.228472 20.3146 0.685417C20.7715 1.14236 21 1.69167 21 2.33333V18.6667C21 19.3083 20.7715 19.8576 20.3146 20.3146C19.8576 20.7715 19.3083 21 18.6667 21H2.33333ZM4.66667 16.3333H16.3333C16.5667 16.3333 16.7417 16.2264 16.8583 16.0125C16.975 15.7986 16.9556 15.5944 16.8 15.4L13.5917 11.1125C13.475 10.9569 13.3194 10.8792 13.125 10.8792C12.9306 10.8792 12.775 10.9569 12.6583 11.1125L9.625 15.1667L7.46667 12.2792C7.35 12.1236 7.19444 12.0458 7 12.0458C6.80556 12.0458 6.65 12.1236 6.53333 12.2792L4.2 15.4C4.04444 15.5944 4.025 15.7986 4.14167 16.0125C4.25833 16.2264 4.43333 16.3333 4.66667 16.3333Z" fill="currentColor"/>
</svg>
