<svg width="24" height="24" viewBox="0 0 24 24" fill="none" xmlns="http://www.w3.org/2000/svg">
<path fill-rule="evenodd" clip-rule="evenodd" d="M13.087 4.44233C14.8726 2.58628 17.825 2.58628 19.6106 4.44233C21.3961 6.29838 21.3961 9.36746 19.6106 11.2235L16.352 14.6108C14.8011 16.3565 12.2773 16.4482 10.5386 15.2433C9.93104 14.8223 9.76687 13.969 10.1719 13.3375C10.5769 12.7059 11.3978 12.5353 12.0053 12.9563C12.7963 13.5045 13.8521 13.3833 14.4186 12.7356C14.4327 12.7194 14.4472 12.7037 14.462 12.6882L17.7408 9.27993C18.4937 8.49729 18.4937 7.16855 17.7408 6.38591C17.0149 5.63129 15.8005 5.60427 15.0396 6.30486L14.9104 6.50629C14.5054 7.13783 13.6845 7.30849 13.077 6.88746C12.4695 6.46643 12.3053 5.61316 12.7103 4.98162L12.9219 4.65179C12.9702 4.57648 13.0255 4.50633 13.087 4.44233Z" fill="currentColor"/>
<path fill-rule="evenodd" clip-rule="evenodd" d="M7.61321 9.36485C9.17037 7.89975 11.5668 7.51514 13.4208 8.95427C14.0049 9.40769 14.1233 10.2654 13.6852 10.8699C13.2471 11.4745 12.4184 11.597 11.8343 11.1436C11.1581 10.6188 10.1855 10.6644 9.41994 11.3638L6.17332 14.8323L6.1586 14.8478C5.40569 15.627 5.40569 16.95 6.1586 17.7292C6.91151 18.5084 8.18977 18.5084 8.94267 17.7292L9.87754 18.6968L8.94267 17.7292L9.25998 17.4008C9.7763 16.8664 10.6134 16.8665 11.1297 17.4008C11.646 17.9352 11.646 18.8016 11.1297 19.3359L10.8124 19.6643C9.02688 21.5123 6.0744 21.5123 4.28886 19.6643C2.50601 17.8191 2.50333 14.7698 4.28082 12.921L7.55296 9.42525C7.57242 9.40446 7.59251 9.38432 7.61321 9.36485Z" fill="currentColor"/>
</svg>
