<svg width="40" height="40" viewBox="0 0 40 40" fill="none" xmlns="http://www.w3.org/2000/svg">
<path d="M28 17.12V29.6914" stroke="#1148AD" stroke-width="1.5" stroke-linejoin="round" stroke-dasharray="3 3"/>
<path d="M17.7144 19.9772H23.4286" stroke="#1148AD" stroke-width="1.5" stroke-linejoin="round"/>
<path d="M17.7144 23.9772H23.4286" stroke="#1148AD" stroke-width="1.5" stroke-linejoin="round"/>
<path d="M6.28564 27.9772H23.4285" stroke="#1148AD" stroke-width="1.5" stroke-linejoin="round"/>
<path d="M29.7656 14.8342C29.7656 15.9542 28.8628 16.8628 27.7485 16.8628C26.6342 16.8628 25.7313 15.9542 25.7313 14.8342H3.42847V32.5485H25.7313C25.7313 31.4285 26.6342 30.5199 27.7485 30.5199C28.8628 30.5199 29.7656 31.4285 29.7656 32.5485H34.857V14.8342H29.7656Z" stroke="#1148AD" stroke-width="1.5" stroke-linejoin="round"/>
<path d="M14.857 19.4058H7.42847V23.9772H14.857V19.4058Z" stroke="#1148AD" stroke-width="1.5" stroke-linejoin="round"/>
<path d="M29.6056 12.7428L26.5428 5.71423L22.8685 7.31423C23.2227 8.11995 22.857 9.0628 22.0513 9.41137C21.2456 9.75995 20.3142 9.38852 19.9599 8.58281L9.42847 13.1771" stroke="#1148AD" stroke-width="1.5" stroke-linejoin="round"/>
</svg>
