<svg width="40" height="40" viewBox="0 0 40 40" fill="none" xmlns="http://www.w3.org/2000/svg">
<path d="M20.1695 11.7081L22.6413 16.7183L28.1636 17.52L24.1666 21.4168L25.1074 26.9225L20.1695 24.3227L15.2261 26.9225L16.1669 21.4168L12.1699 17.52L17.6978 16.7183L20.1695 11.7081Z" stroke="currentColor" stroke-width="1.5" stroke-linejoin="round"/>
<path d="M12.5376 14.9703L10.7562 11.3685L8.97477 14.9703L5 15.5493L7.87809 18.355L7.19893 22.3131L10.7562 20.4426L12.3984 22.0904" stroke="currentColor" stroke-width="1.5" stroke-linejoin="round"/>
<path d="M27.9243 14.9313L29.7447 11.2516L31.5595 14.9313L35.6178 15.5214L32.6785 18.3828L33.3743 22.4299L29.7447 20.5205L27.9243 22.313" stroke="currentColor" stroke-width="1.5" stroke-linejoin="round"/>
<path d="M20.0308 5V7.78345" stroke="currentColor" stroke-width="1.5" stroke-linejoin="round"/>
<path d="M14.1855 6.94836L15.4715 9.60934" stroke="currentColor" stroke-width="1.5" stroke-linejoin="round"/>
<path d="M25.876 6.94836L24.6123 9.4646" stroke="currentColor" stroke-width="1.5" stroke-linejoin="round"/>
<path d="M33.5304 31.1923C25.2469 36.2693 14.8089 36.2693 6.52539 31.1923L9.39236 30.2125L8.97484 27.2008C15.7609 31.3593 24.3005 31.3593 31.0865 27.2008L30.4853 30.0344L33.5304 31.1978V31.1923Z" stroke="currentColor" stroke-width="1.5" stroke-linejoin="round"/>
</svg>
