<svg width="40" height="40" viewBox="0 0 40 40" fill="none" xmlns="http://www.w3.org/2000/svg">
<path d="M29.4661 11.2675H28.7023L25.667 10.3993C24.4333 10.0468 23.1147 10.1708 21.9723 10.7453L20.3796 11.5416C19.8182 11.8223 19.3874 12.3054 19.172 12.8929L17.031 18.7873C16.8612 19.2573 17.2072 19.7534 17.7098 19.7534H18.4474C19.5375 19.7534 20.5493 19.1659 21.0911 18.2194L23.0429 14.8054" stroke="currentColor" stroke-width="1.5" stroke-linejoin="round"/>
<path d="M11.3389 10.7975C11.7697 11.2283 12.3833 11.4241 12.9904 11.3262L15.0792 10.9803C15.7972 10.8628 16.5283 10.8628 17.2398 10.9803L20.6538 11.4437" stroke="currentColor" stroke-width="1.5" stroke-linejoin="round"/>
<path d="M9.51116 24.7927L10.3663 23.5329C10.9015 22.7496 10.6992 21.679 9.90936 21.1438C9.12605 20.6085 8.05551 20.8109 7.52025 21.6007L6.66513 22.8605C6.12987 23.6438 6.33221 24.7144 7.12205 25.2496C7.90537 25.7849 8.9759 25.5825 9.51116 24.7927Z" stroke="currentColor" stroke-width="1.5" stroke-linejoin="round"/>
<path d="M11.7763 27.6323L14.0283 24.3228C14.5636 23.5395 14.3612 22.4689 13.5714 21.9337C12.7881 21.3984 11.7176 21.6008 11.1823 22.3906L8.93027 25.7001C8.395 26.4834 8.59735 27.554 9.38719 28.0892C10.1705 28.6245 11.241 28.4221 11.7763 27.6323Z" stroke="currentColor" stroke-width="1.5" stroke-linejoin="round"/>
<path d="M14.5442 29.7015L16.4568 26.8294C16.9855 26.0395 16.7701 24.969 15.9802 24.4403C15.1904 23.9115 14.1199 24.1269 13.5911 24.9168L11.6785 27.7889C11.1498 28.5788 11.3652 29.6493 12.1551 30.178C12.9449 30.7068 14.0154 30.4914 14.5442 29.7015Z" stroke="currentColor" stroke-width="1.5" stroke-linejoin="round"/>
<path d="M17.8796 30.9353L18.7217 29.669C19.2504 28.8791 19.035 27.8086 18.2452 27.2799C17.4553 26.7511 16.3848 26.9665 15.8561 27.7564L15.014 29.0227C14.4853 29.8126 14.7007 30.8831 15.4905 31.4119C16.2804 31.9406 17.3509 31.7252 17.8796 30.9353Z" stroke="currentColor" stroke-width="1.5" stroke-linejoin="round"/>
<path d="M19.1782 29.8059L20.7057 30.6871C21.5282 31.1637 22.5791 30.883 23.0556 30.054C23.5321 29.2315 23.2515 28.1805 22.4224 27.704C22.4159 27.704 24.1458 28.6179 24.1458 28.6179C24.9682 29.0944 26.0192 28.8137 26.4957 27.9847C26.9722 27.1622 26.6915 26.1113 25.8625 25.6348L27.5858 26.5486C28.4083 27.0251 29.4592 26.7445 29.9357 25.9154C30.4123 25.093 30.1316 24.042 29.3026 23.5655L31.0259 24.4794C31.8483 24.9559 32.8993 24.6752 33.3758 23.8462C33.8523 23.0237 33.5716 21.9728 32.7426 21.4962L22.7684 15.7389" stroke="currentColor" stroke-width="1.5" stroke-linejoin="round"/>
<path d="M29.8447 23.9246L24.3354 20.478" stroke="currentColor" stroke-width="1.5" stroke-linejoin="round"/>
<path d="M26.8552 26.2484L22.2075 23.3436" stroke="currentColor" stroke-width="1.5" stroke-linejoin="round"/>
<path d="M22.9321 28.0631L20.4712 26.5226" stroke="currentColor" stroke-width="1.5" stroke-linejoin="round"/>
<path d="M31.9243 8.6793L28.8462 10.6267L35.5504 21.2236L38.6286 19.2762L31.9243 8.6793Z" stroke="currentColor" stroke-width="1.5" stroke-linejoin="round"/>
<path d="M2 18.5968L5.07812 20.5442L11.7824 9.94732L8.70425 7.99991L2 18.5968Z" stroke="currentColor" stroke-width="1.5" stroke-linejoin="round"/>
</svg>
