<svg width="21" height="23" viewBox="0 0 21 23" fill="none" xmlns="http://www.w3.org/2000/svg">
<path fill-rule="evenodd" clip-rule="evenodd" d="M15.6414 0.0356386C16.1864 -0.0360936 16.7402 0.000829061 17.2712 0.143061C17.8023 0.285348 18.3008 0.530154 18.7371 0.86474C19.1734 1.19957 19.5402 1.61791 19.8152 2.09423C20.0901 2.5705 20.2688 3.09685 20.3406 3.64208C20.4122 4.18708 20.3754 4.74099 20.2332 5.27197C20.0908 5.80298 19.8461 6.3016 19.5115 6.73779C19.1767 7.17403 18.7582 7.53995 18.282 7.81494C17.8057 8.08988 17.2794 8.26854 16.7341 8.34033C16.1889 8.41205 15.6344 8.3762 15.1033 8.23388C14.5723 8.09154 14.0746 7.84584 13.6384 7.51122C13.4702 7.38212 13.3129 7.23972 13.1667 7.0874L8.19311 9.95849C8.18718 9.96191 8.18053 9.96399 8.17456 9.96728C8.19574 10.0331 8.21521 10.0996 8.23315 10.1665C8.37545 10.6976 8.41226 11.2522 8.34057 11.7974C8.31006 12.029 8.25844 12.2566 8.19018 12.479C8.1912 12.4796 8.1921 12.4804 8.19311 12.481L13.1667 15.352C13.313 15.1996 13.4701 15.0574 13.6384 14.9282C14.0747 14.5935 14.5722 14.3469 15.1033 14.2046C15.6344 14.0623 16.1889 14.0274 16.7341 14.0991C17.2794 14.1709 17.8057 14.3495 18.282 14.6245C18.7581 14.8995 19.1767 15.2645 19.5115 15.7007C19.8461 16.1369 20.0908 16.6354 20.2332 17.1665C20.3755 17.6976 20.4123 18.2522 20.3406 18.7974C20.2687 19.3425 20.0901 19.869 19.8152 20.3452C19.5402 20.8214 19.1733 21.2389 18.7371 21.5737C18.3008 21.9084 17.8023 22.1541 17.2712 22.2964C16.7402 22.4386 16.1864 22.4755 15.6414 22.4038C15.0963 22.332 14.5706 22.1532 14.0945 21.8784C13.6182 21.6034 13.1998 21.2366 12.865 20.8003C12.5303 20.364 12.2847 19.8656 12.1423 19.3345C12.0001 18.8034 11.9642 18.2497 12.0359 17.7046C12.0636 17.4942 12.1079 17.2864 12.1667 17.0835L7.19311 14.2124C7.1837 14.207 7.17494 14.2005 7.16577 14.1948C7.03177 14.3304 6.88885 14.4572 6.73706 14.5737C6.30081 14.9084 5.80232 15.1541 5.27124 15.2964C4.74022 15.4386 4.18639 15.4755 3.64135 15.4038C3.09632 15.332 2.57061 15.1532 2.09448 14.8784C1.61819 14.6034 1.1998 14.2366 0.864986 13.8003C0.530273 13.364 0.284652 12.8656 0.14233 12.3345C8.65592e-05 11.8034 -0.0358271 11.2497 0.0358848 10.7046C0.107676 10.1593 0.28627 9.63306 0.561275 9.15673C0.836266 8.6805 1.20214 8.26299 1.63842 7.92822C2.07466 7.59349 2.57217 7.34695 3.10327 7.20458C3.63442 7.06226 4.18894 7.02739 4.73413 7.09912C5.27941 7.17091 5.80567 7.34951 6.28198 7.62451C6.59063 7.80275 6.87477 8.01905 7.12768 8.26806C7.14876 8.25363 7.17063 8.24005 7.19311 8.22705L12.1667 5.35497C12.1079 5.15221 12.0636 4.94514 12.0359 4.73486C11.9641 4.18962 11.999 3.63521 12.1414 3.104C12.2837 2.57295 12.5304 2.07537 12.865 1.63915C13.1998 1.2028 13.6182 0.836035 14.0945 0.561029C14.5706 0.286219 15.0963 0.107401 15.6414 0.0356386ZM16.4734 16.0815C16.1886 16.0441 15.8983 16.0629 15.6208 16.1372C15.3436 16.2116 15.084 16.3404 14.8562 16.5151C14.6283 16.6901 14.4364 16.9079 14.2927 17.1567C14.1491 17.4055 14.0558 17.6805 14.0183 17.9653C13.9809 18.25 13.9997 18.5395 14.074 18.8169C14.1483 19.0945 14.277 19.3555 14.4519 19.5835C14.6268 19.8113 14.8457 20.0024 15.0945 20.146C15.3431 20.2894 15.6175 20.3819 15.9021 20.4194C16.1868 20.4569 16.4763 20.439 16.7537 20.3647C17.0312 20.2904 17.2923 20.1617 17.5203 19.9868C17.7481 19.8119 17.9401 19.594 18.0837 19.3452C18.2273 19.0965 18.3196 18.8213 18.3572 18.5366C18.3946 18.2518 18.3759 17.9616 18.3015 17.6841C18.2271 17.4068 18.0983 17.1472 17.9236 16.9194C17.7487 16.6916 17.5307 16.4996 17.282 16.356C17.0333 16.2124 16.7581 16.1191 16.4734 16.0815ZM4.47338 9.08154C4.18859 9.04409 3.89831 9.06285 3.62085 9.1372C3.3436 9.21158 3.08395 9.34041 2.8562 9.51513C2.62826 9.69006 2.43638 9.9079 2.29272 10.1567C2.14908 10.4055 2.05583 10.6805 2.01831 10.9653C1.98086 11.25 1.9997 11.5395 2.07397 11.8169C2.14835 12.0945 2.27696 12.3555 2.4519 12.5835C2.62679 12.8113 2.84574 13.0024 3.09448 13.146C3.34308 13.2894 3.61755 13.3819 3.9021 13.4194C4.18676 13.4569 4.4763 13.439 4.75366 13.3647C5.03118 13.2904 5.2923 13.1617 5.52026 12.9868C5.7481 12.8119 5.94012 12.594 6.08374 12.3452C6.2273 12.0965 6.31964 11.8213 6.35717 11.5366C6.39464 11.2518 6.37587 10.9616 6.30151 10.6841C6.22715 10.4068 6.09833 10.1472 5.92358 9.91943C5.74872 9.69155 5.5307 9.49961 5.28198 9.35595C5.03326 9.21241 4.75809 9.11905 4.47338 9.08154ZM15.9021 2.01904C15.6176 2.05653 15.343 2.14912 15.0945 2.29247C14.8457 2.43612 14.6268 2.62806 14.4519 2.85595C14.2771 3.08381 14.1484 3.34418 14.074 3.62158C13.9997 3.89887 13.9809 4.18851 14.0183 4.47314C14.0558 4.75787 14.1492 5.03299 14.2927 5.28173C14.4364 5.5306 14.6282 5.74937 14.8562 5.92431C15.084 6.09902 15.3436 6.22788 15.6208 6.30224C15.8983 6.37659 16.1886 6.39535 16.4734 6.3579C16.758 6.32039 17.0333 6.22699 17.282 6.08349C17.5307 5.93984 17.7487 5.74787 17.9236 5.52001C18.0984 5.2921 18.2271 5.03185 18.3015 4.75439C18.3758 4.47692 18.3947 4.18664 18.3572 3.90185C18.3196 3.61738 18.2271 3.34276 18.0837 3.09423C17.9401 2.84552 17.7481 2.62752 17.5203 2.45263C17.2923 2.27769 17.0312 2.14908 16.7537 2.0747C16.4763 2.00044 16.1868 1.98157 15.9021 2.01904Z" fill="currentColor"/>
</svg>
