<svg width="40" height="40" viewBox="0 0 40 40" fill="none" xmlns="http://www.w3.org/2000/svg">
<path d="M11.0342 7.42859V5.0343C11.0342 4.14859 11.7542 3.42859 12.6399 3.42859H28.2856C29.1713 3.42859 29.8913 4.14859 29.8913 5.0343V7.42859" stroke="#1148AD" stroke-width="1.5" stroke-linejoin="round"/>
<path d="M29.8913 14.8572V34.9657C29.8913 35.8515 29.1713 36.5715 28.2856 36.5715H12.6399C11.7542 36.5715 11.0342 35.8515 11.0342 34.9657V14.8572" stroke="#1148AD" stroke-width="1.5" stroke-linejoin="round"/>
<path d="M11.0342 33.7144H29.8913" stroke="#1148AD" stroke-width="1.5" stroke-linejoin="round"/>
<path d="M18.4629 5.71436H21.8915" stroke="#1148AD" stroke-width="1.5" stroke-linejoin="round"/>
<path d="M9.94857 8H30.56L32.5714 11.9429H8L9.94857 8Z" stroke="#1148AD" stroke-width="1.5" stroke-linejoin="round"/>
<path d="M8 11.9429C8 13.2972 9.10285 14.4 10.4571 14.4C11.8114 14.4 12.9143 13.2972 12.9143 11.9429" stroke="#1148AD" stroke-width="1.5" stroke-linejoin="round"/>
<path d="M17.8286 11.9429C17.8286 13.2971 16.7257 14.4 15.3714 14.4C14.0172 14.4 12.9143 13.2971 12.9143 11.9429L13.2172 7.66858" stroke="#1148AD" stroke-width="1.5" stroke-linejoin="round"/>
<path d="M22.8056 11.9429C22.8056 13.4686 21.4171 14.6628 19.8399 14.3486C18.6799 14.1143 17.8914 13.0286 17.8914 11.8514V8" stroke="#1148AD" stroke-width="1.5" stroke-linejoin="round"/>
<path d="M27.3772 11.9429C27.3772 13.4686 25.9886 14.6628 24.4115 14.3486C23.2515 14.1143 22.4629 13.0286 22.4629 11.8514V8" stroke="#1148AD" stroke-width="1.5" stroke-linejoin="round"/>
<path d="M32.5713 11.9429C32.5713 13.2971 31.4685 14.4 30.1142 14.4C28.7599 14.4 27.657 13.2971 27.657 11.9429L27.0056 7.88" stroke="#1148AD" stroke-width="1.5" stroke-linejoin="round"/>
<path d="M14.4629 20.5714H17.1543L18.3657 25.7143H22.8629L24.2343 22.8571H19.6057" stroke="#1148AD" stroke-width="1.5" stroke-linejoin="round"/>
<path d="M18.7485 29.1429C19.2219 29.1429 19.6056 28.7591 19.6056 28.2857C19.6056 27.8123 19.2219 27.4286 18.7485 27.4286C18.2751 27.4286 17.8914 27.8123 17.8914 28.2857C17.8914 28.7591 18.2751 29.1429 18.7485 29.1429Z" fill="#1148AD"/>
<path d="M22.1772 29.1429C22.6506 29.1429 23.0344 28.7591 23.0344 28.2857C23.0344 27.8123 22.6506 27.4286 22.1772 27.4286C21.7038 27.4286 21.3201 27.8123 21.3201 28.2857C21.3201 28.7591 21.7038 29.1429 22.1772 29.1429Z" fill="#1148AD"/>
</svg>
