<svg width="24" height="19" viewBox="0 0 24 19" fill="none" xmlns="http://www.w3.org/2000/svg">
<path d="M11.6667 11.55L13.4167 12.8917C13.6306 13.0667 13.8639 13.0715 14.1167 12.9062C14.3694 12.741 14.4472 12.5222 14.35 12.25L13.65 10.0333L15.6042 8.51667C15.8181 8.34167 15.8764 8.12292 15.7792 7.86042C15.6819 7.59792 15.4972 7.46667 15.225 7.46667H12.95L12.2208 5.22083C12.1236 4.94861 11.9389 4.8125 11.6667 4.8125C11.3944 4.8125 11.2097 4.94861 11.1125 5.22083L10.3833 7.46667H8.07917C7.80694 7.46667 7.62708 7.59792 7.53958 7.86042C7.45208 8.12292 7.51528 8.34167 7.72917 8.51667L9.625 10.0333L8.925 12.2792C8.82778 12.5514 8.89583 12.7701 9.12917 12.9354C9.3625 13.1007 9.59583 13.0958 9.82917 12.9208L11.6667 11.55ZM2.33333 18.6667C1.69167 18.6667 1.14236 18.4382 0.685417 17.9812C0.228472 17.5243 0 16.975 0 16.3333V12.3958C0 12.1819 0.0680556 11.9972 0.204167 11.8417C0.340278 11.6861 0.515278 11.5889 0.729167 11.55C1.19583 11.3944 1.57986 11.1125 1.88125 10.7042C2.18264 10.2958 2.33333 9.83889 2.33333 9.33333C2.33333 8.82778 2.18264 8.37083 1.88125 7.9625C1.57986 7.55417 1.19583 7.27222 0.729167 7.11667C0.515278 7.07778 0.340278 6.98056 0.204167 6.825C0.0680556 6.66944 0 6.48472 0 6.27083V2.33333C0 1.69167 0.228472 1.14236 0.685417 0.685417C1.14236 0.228472 1.69167 0 2.33333 0H21C21.6417 0 22.191 0.228472 22.6479 0.685417C23.1049 1.14236 23.3333 1.69167 23.3333 2.33333V6.27083C23.3333 6.48472 23.2653 6.66944 23.1292 6.825C22.9931 6.98056 22.8181 7.07778 22.6042 7.11667C22.1375 7.27222 21.7535 7.55417 21.4521 7.9625C21.1507 8.37083 21 8.82778 21 9.33333C21 9.83889 21.1507 10.2958 21.4521 10.7042C21.7535 11.1125 22.1375 11.3944 22.6042 11.55C22.8181 11.5889 22.9931 11.6861 23.1292 11.8417C23.2653 11.9972 23.3333 12.1819 23.3333 12.3958V16.3333C23.3333 16.975 23.1049 17.5243 22.6479 17.9812C22.191 18.4382 21.6417 18.6667 21 18.6667H2.33333Z" fill="currentColor"/>
</svg>
