<svg width="24" height="24" viewBox="0 0 24 24" fill="none" xmlns="http://www.w3.org/2000/svg">
<path d="M18.1125 10.0625C18.3847 9.8875 18.5208 9.64444 18.5208 9.33333C18.5208 9.02222 18.3847 8.77917 18.1125 8.60417L12.425 4.95833C12.1333 4.76389 11.8368 4.74931 11.5354 4.91458C11.234 5.07986 11.0833 5.3375 11.0833 5.6875V12.9792C11.0833 13.3292 11.234 13.5868 11.5354 13.7521C11.8368 13.9174 12.1333 13.9028 12.425 13.7083L18.1125 10.0625ZM7 18.6667C6.35833 18.6667 5.80903 18.4382 5.35208 17.9813C4.89514 17.5243 4.66667 16.975 4.66667 16.3333V2.33333C4.66667 1.69167 4.89514 1.14236 5.35208 0.685417C5.80903 0.228472 6.35833 0 7 0H21C21.6417 0 22.191 0.228472 22.6479 0.685417C23.1049 1.14236 23.3333 1.69167 23.3333 2.33333V16.3333C23.3333 16.975 23.1049 17.5243 22.6479 17.9813C22.191 18.4382 21.6417 18.6667 21 18.6667H7ZM2.33333 23.3333C1.69167 23.3333 1.14236 23.1049 0.685417 22.6479C0.228472 22.191 0 21.6417 0 21V5.83333C0 5.50278 0.111806 5.22569 0.335417 5.00208C0.559028 4.77847 0.836111 4.66667 1.16667 4.66667C1.49722 4.66667 1.77431 4.77847 1.99792 5.00208C2.22153 5.22569 2.33333 5.50278 2.33333 5.83333V21H17.5C17.8306 21 18.1076 21.1118 18.3312 21.3354C18.5549 21.559 18.6667 21.8361 18.6667 22.1667C18.6667 22.4972 18.5549 22.7743 18.3312 22.9979C18.1076 23.2215 17.8306 23.3333 17.5 23.3333H2.33333Z" fill="currentColor"/>
</svg>
