<svg width="76" height="104" viewBox="0 0 76 104" fill="none" xmlns="http://www.w3.org/2000/svg">
<g clip-path="url(#clip0_32_610)">
<path d="M50.0309 84.1328C50.1956 83.3811 50.456 82.5533 50.6471 81.9705C50.6603 81.9572 50.6603 81.944 50.6603 81.9307C51.0722 82.3976 51.4973 82.8513 51.9356 83.2785C51.2511 83.4351 50.6039 83.7254 50.0309 84.1328ZM49.9386 81.0664C49.4094 80.8654 48.8466 80.7687 48.2811 80.7817C47.6879 80.7817 47.0947 80.8711 46.607 80.987C47.1079 80.3545 47.9317 79.9935 49.0653 79.9141C49.3487 80.3147 49.6453 80.6889 49.9386 81.0664ZM27.1185 36.0275C27.1185 36.0275 27.4777 35.8288 28.5718 35.7295C28.5718 35.7295 28.3905 36.7494 27.8007 36.8388C27.2207 36.9183 27.0658 36.3388 27.1185 36.0275ZM27.827 88.802C27.827 88.802 22.0602 88.802 19.0219 83.6394C15.9705 78.467 18.0564 74.8707 18.0564 74.8707C18.0564 74.8707 12.0062 77.8974 11.2186 80.679C10.5761 82.9308 11.9931 87.3681 13.8582 89.8351C18.6232 96.1103 26.3969 96.9746 26.3969 96.9746C26.3969 96.9746 25.1743 92.6167 27.827 88.802ZM12.919 83.2785C12.7426 83.1332 12.5978 82.9528 12.4939 82.7486C12.4131 82.6055 12.3665 82.4454 12.3579 82.281C12.3493 82.1166 12.379 81.9524 12.4445 81.8016C12.5961 81.4141 13.0212 81.0267 13.6012 80.7419C14.8369 80.1227 15.6476 80.4571 15.9705 81.0664C16.0564 81.2248 16.1006 81.4026 16.099 81.583L15.4795 81.7784C15.4896 81.6505 15.4584 81.5228 15.3905 81.4141C15.1961 81.0399 14.7479 80.8843 13.8582 81.338C13.0476 81.7519 12.8927 82.1658 13.0344 82.4374L13.1003 82.54L13.9241 82.1129L13.7923 81.8546L14.3195 81.583L14.7216 82.3579L12.919 83.2785ZM13.0212 84.1957L16.2012 82.0499L16.4846 82.646L15.1994 83.4341C14.8105 83.6659 14.4382 83.8712 14.0394 84.1063L14.0526 84.1196C14.4909 83.9639 14.8896 83.848 15.3279 83.7057L16.7778 83.2652L16.9986 83.7189L15.7497 84.5567C15.3773 84.8051 15.0313 85.0369 14.6062 85.2852V85.2951C15.0676 85.113 15.4564 84.9706 15.8683 84.8315L17.2853 84.3116L17.5391 84.868L13.8846 86.0071L13.6143 85.411L14.6458 84.6991C14.9424 84.507 15.3147 84.2752 15.7135 84.0401L15.7003 84.0269C15.262 84.1693 14.8633 84.3116 14.5041 84.4044L13.2914 84.7521L13.0212 84.1957ZM15.519 87.2224L14.7479 87.6231L14.3723 87.1462L17.8225 85.411L18.2739 86.0204L15.6212 88.802L15.262 88.3218L15.8683 87.6893L15.519 87.2224ZM16.2901 87.3019L16.8569 86.7323C17.025 86.5634 17.2952 86.3018 17.4896 86.1363L17.4765 86.123C17.2557 86.2389 16.9097 86.4475 16.7185 86.5502L16.0199 86.9244L16.2901 87.3019ZM16.1385 89.345L18.7649 86.6032L19.1768 87.0005L18.5046 88.4245C18.3629 88.696 18.1454 89.1629 17.9773 89.4609L17.9905 89.4742C18.2476 89.1629 18.6726 88.6596 19.1636 88.1529L19.7403 87.5569L20.1292 87.9344L17.5028 90.6762L17.0909 90.2756L17.7335 88.8914C17.8884 88.5801 18.1059 88.1397 18.3003 87.845L18.2871 87.8317C18.0301 88.1165 17.6445 88.5569 17.1173 89.1099L16.5241 89.7192L16.1385 89.345ZM19.7173 92.2028C19.4909 92.1613 19.2756 92.0734 19.0846 91.9445C18.9474 91.8576 18.8321 91.7401 18.7475 91.6011C18.6629 91.4621 18.6114 91.3054 18.5969 91.1432C18.531 90.7292 18.7386 90.1729 19.1109 89.6431C19.8952 88.5039 20.7718 88.4145 21.3386 88.802C21.5297 88.9311 21.6483 89.0868 21.701 89.1894L21.2463 89.653C21.1943 89.533 21.1038 89.4339 20.9893 89.3715C20.6432 89.1397 20.1654 89.2291 19.6118 90.0438C19.0977 90.7921 19.1768 91.2458 19.4075 91.4015C19.4569 91.4412 19.4965 91.4544 19.5228 91.4677L20.0369 90.7027L19.7931 90.5471L20.1391 90.0438L20.8476 90.5338L19.7173 92.2028ZM22.3535 89.4477L22.9203 89.7325L21.7637 92.0339C21.2727 93.0174 20.7981 92.9678 20.3994 92.7591C20.3014 92.7106 20.2132 92.6444 20.1391 92.5638L20.462 92.0339C20.5147 92.0737 20.5642 92.1134 20.6268 92.1498C20.7981 92.2293 20.9629 92.2293 21.1837 91.7889L22.3535 89.4477ZM23.9353 90.1464L23.1411 92.4743C22.9467 92.9909 23.0356 93.2128 23.1773 93.2625C23.3586 93.3287 23.5267 93.226 23.7178 92.683L24.5317 90.3418L25.1084 90.5603L24.3505 92.7591C24.0275 93.6764 23.5662 94.0771 22.973 93.8718C22.3403 93.6532 22.2777 93.0572 22.5875 92.1498L23.3586 89.9378L23.9353 90.1464Z" fill="#9C2130"/>
<path d="M27.5534 73.3804C26.6143 74.7547 25.6487 74.6884 25.6487 74.6884C26.2155 74.2745 26.6274 73.7281 26.9108 73.2281C26.5616 73.1585 26.2098 73.1021 25.8563 73.0592C24.9534 74.301 24.0439 74.2215 24.0439 74.2215C24.5316 73.8738 24.8908 73.4202 25.1742 72.9797C24.7793 72.9491 24.3838 72.927 23.9879 72.9135C23.1772 73.8208 22.4457 73.7712 22.4457 73.7712C22.7785 73.5129 23.0751 73.2148 23.3058 72.9036H22.9334C22.3798 72.9036 21.7998 72.9168 21.1836 72.9433C20.658 73.3909 20.1595 73.8697 19.6908 74.3772C18.8976 75.273 18.4336 76.4147 18.376 77.6124C18.7385 77.0561 19.3053 76.3309 20.0632 75.917C20.0632 75.917 19.035 77.119 18.4287 78.9834C18.4551 79.2284 18.5045 79.4867 18.544 79.7218C18.8538 79.1754 19.5096 78.1655 20.4751 77.6257C20.4751 77.6257 19.4338 78.8675 18.8143 80.7417C18.8802 80.9239 18.9296 81.0795 18.979 81.2451C19.2756 80.7153 19.9478 79.6291 20.9529 79.0728C20.9529 79.0728 19.9478 80.2649 19.3283 82.0862C19.704 82.9141 20.0368 83.434 20.0368 83.434C20.2312 79.4867 24.6832 77.119 28.3904 75.0626C28.8946 74.7778 29.7942 74.0559 27.5534 73.3804Z" fill="#9C2130"/>
<path d="M21.5296 79.0232C21.5201 78.9086 21.4751 78.7998 21.4011 78.712C21.3482 78.643 21.2804 78.5872 21.2027 78.5487C21.125 78.5103 21.0396 78.4902 20.953 78.4901C20.8575 78.4921 20.7642 78.5196 20.6827 78.5696C20.5773 78.6226 20.485 78.6855 20.3862 78.7517C20.6827 78.2716 20.9134 78 20.9134 78C21.0001 77.8974 21.0489 77.7678 21.0513 77.6332C21.0537 77.4985 21.0096 77.3672 20.9266 77.2616C20.8714 77.1956 20.8022 77.1429 20.7241 77.1074C20.6459 77.0718 20.5609 77.0544 20.4751 77.0563C20.3815 77.0597 20.2896 77.0823 20.2049 77.1225C20.0435 77.2132 19.8893 77.3161 19.7436 77.4304C20.139 76.7052 20.5015 76.2913 20.5015 76.2781C20.5874 76.1757 20.6356 76.0467 20.638 75.9128C20.6404 75.779 20.5969 75.6483 20.5147 75.5429C20.458 75.4786 20.3885 75.4268 20.3108 75.3909C20.2331 75.3549 20.1488 75.3357 20.0632 75.3343C19.9696 75.3378 19.8777 75.3603 19.793 75.4005L19.5491 75.5562C19.704 75.2714 19.8951 75.0131 20.1159 74.7647C20.4883 74.3508 20.9134 73.9369 21.4143 73.513C21.5955 73.4998 21.7768 73.4998 21.9415 73.4865C21.8723 73.6311 21.8593 73.7965 21.9053 73.9501C21.9811 74.1819 22.2118 74.3409 22.4688 74.3409C22.836 74.3286 23.1946 74.2262 23.5134 74.0428C23.475 74.1646 23.475 74.2953 23.5134 74.417C23.5892 74.6488 23.8232 74.8045 24.067 74.8045C24.2318 74.8045 24.6338 74.7647 25.1215 74.5064C25.0823 74.6247 25.0823 74.7525 25.1215 74.8707C25.2006 75.1025 25.4313 75.2681 25.6751 75.2681C25.9585 75.2681 26.8614 75.1687 27.7743 74.0561C28.1367 74.1852 28.3015 74.3011 28.3773 74.3641C28.2947 74.4391 28.2041 74.5046 28.1071 74.5594L27.7611 74.7548C25.5466 75.98 23.1608 77.3145 21.5296 79.0232ZM5.95267 58.7109C5.95267 58.7109 9.04368 56.9293 8.81301 54.2007C8.81301 54.2007 7.44874 55.5054 4.62796 57.0949C3.16154 57.9227 1.7841 59.0884 0.920727 60.7176C1.27269 60.4435 1.69156 60.2697 2.1334 60.2143C2.1334 60.2143 1.17776 60.7441 0.393477 61.9594C0.304504 62.2574 0.215539 62.5819 0.149632 62.9197C0.548365 62.3998 1.15469 61.8038 1.95216 61.6746C1.95216 61.6746 0.729598 62.4793 0.00792376 64.1582C-0.0052575 64.4827 -0.00525217 64.8205 0.0211103 65.1682C0.251782 64.5854 0.831764 63.4595 1.88626 63.1482C1.88626 63.1482 0.498928 64.3271 0.162806 66.5391C0.228713 66.8769 0.29133 67.2246 0.380303 67.5855C0.380303 67.5855 2.83861 58.6347 8.73722 62.221C8.73722 62.221 9.20844 58.7903 5.95267 58.7109Z" fill="#9C2130"/>
<path d="M2.27518 62.7243C2.22381 62.6738 2.163 62.6341 2.09626 62.6074C2.02952 62.5807 1.95818 62.5675 1.88634 62.5687C1.8501 62.5687 1.81054 62.5687 1.771 62.5819C2.05439 62.3104 2.24882 62.168 2.262 62.168C2.4795 62.0124 2.58164 61.7276 2.47949 61.4825C2.44088 61.3728 2.36955 61.2776 2.2752 61.2101C2.18086 61.1425 2.06808 61.1058 1.95224 61.105H1.88634C2.18292 60.8467 2.4037 60.7176 2.4037 60.7176C2.51853 60.6536 2.60803 60.5519 2.65721 60.4295C2.7064 60.3072 2.71229 60.1716 2.67392 60.0454C2.6471 59.9608 2.60182 59.8833 2.54139 59.8186C2.48095 59.7538 2.40689 59.7035 2.32462 59.6712C2.99357 58.883 3.85694 58.1976 4.91144 57.6015C6.00015 56.9931 7.0461 56.3104 8.04198 55.5583C7.43564 57.1611 5.68583 58.2075 5.65947 58.2208C5.55287 58.2834 5.46989 58.3798 5.4234 58.4947C5.37692 58.6097 5.36954 58.7369 5.40244 58.8566C5.43488 58.9778 5.5046 59.0857 5.60164 59.1648C5.69869 59.2438 5.81811 59.2901 5.94287 59.297C6.7008 59.3069 7.26759 59.542 7.63996 59.9824C7.9629 60.3566 8.1046 60.8467 8.15733 61.2739C7.50344 60.9684 6.79244 60.8059 6.07138 60.7971C4.47645 60.7971 3.22752 61.6382 2.27518 62.7243ZM49.3488 79.3179C47.9845 79.3577 46.0403 79.7849 45.5756 81.881C45.5756 81.881 48.3437 80.7551 50.1067 81.7783C50.1067 81.7783 49.0917 84.6593 49.296 85.7355C49.296 85.7355 50.1989 83.848 53.1845 83.6659C51.7437 82.3697 50.4566 80.9107 49.3488 79.3179Z" fill="#9C2130"/>
<path d="M50.0177 84.1195C50.1849 83.3912 50.395 82.6736 50.6471 81.9704C50.6471 81.9439 50.6471 81.9306 50.6602 81.9207C51.0722 82.3843 51.4841 82.838 51.9223 83.2651C51.2388 83.4245 50.5921 83.7146 50.0177 84.1195ZM49.9287 81.0531C49.4011 80.8588 48.8429 80.7624 48.281 80.7683C47.6747 80.7683 47.0815 80.8577 46.5938 80.9736C47.0947 80.3411 47.9185 79.9802 49.0653 79.9007C49.3487 80.3014 49.6321 80.6888 49.9287 81.0531ZM59.4917 87.4177C59.7619 87.5071 60.0321 87.5965 60.3023 87.676C60.0014 88.4462 59.5991 89.1723 59.1061 89.835C54.3543 96.1102 46.5675 96.9745 46.5675 96.9745C46.5675 96.9745 47.79 92.6167 45.1505 88.8019C45.1505 88.8019 50.5713 88.8019 53.6721 84.0798C53.916 84.2851 54.1763 84.4937 54.4202 84.6758L54.4597 84.7122L55.1155 85.1792C54.7012 85.9581 54.0997 86.6206 53.3657 87.1064C53.3657 87.1064 54.6904 86.7951 55.824 85.6593C55.8899 85.6825 55.9525 85.7355 56.0019 85.7587C56.0283 85.7752 56.0547 85.7984 56.081 85.8116C56.2853 85.9309 56.493 86.06 56.6973 86.1759C56.3513 86.8084 55.8075 87.4806 55.0133 88.0104C55.0133 88.0104 56.3249 87.7025 57.4585 86.5766L57.6496 86.6527C57.6891 86.6792 57.7287 86.6925 57.7649 86.719C57.9725 86.8216 58.1768 86.9011 58.3845 86.9905C58.0351 87.6528 57.4848 88.3615 56.6478 88.9045C56.6478 88.9045 58.0747 88.5668 59.2347 87.325L59.35 87.3647C59.3895 87.3912 59.4521 87.4045 59.4917 87.4177ZM49.7079 93.8717L50.3142 93.6631L49.7969 92.1266L50.5218 91.8948L50.3142 91.2855L49.6057 91.5305L49.2828 90.5702L50.0407 90.3152L49.8364 89.6794L48.459 90.1463L49.7079 93.8717ZM53.1844 91.6067C53.1095 91.6849 53.0227 91.7508 52.9274 91.802C52.5781 91.9842 52.1398 91.802 51.718 90.9609C51.2798 90.0933 51.3951 89.6165 51.718 89.4476C51.8122 89.3967 51.9176 89.3705 52.0245 89.3714L51.8334 88.7621C51.7543 88.7356 51.5862 88.7621 51.3819 88.8648C50.8151 89.1628 50.4559 89.9907 51.1249 91.3119C51.6389 92.2921 52.3738 92.8485 53.1185 92.461C53.2773 92.3895 53.418 92.2831 53.5305 92.1497L53.1844 91.6067ZM5.98236 68.0921C5.85055 68.9067 5.94282 69.3339 6.22622 69.3836C6.50961 69.4233 6.70074 68.9067 6.80619 68.1948C6.90505 67.5755 6.89517 66.9927 6.58541 66.9397C6.31519 66.9 6.09769 67.3404 5.98236 68.0921ZM11.0769 68.4034H11.2087C11.5053 68.4133 11.6964 68.1716 11.6964 67.8603C11.7096 67.549 11.5943 67.3305 11.2845 67.3139C11.2318 67.3139 11.1527 67.3139 11.1198 67.3272L11.0769 68.4034ZM14.3228 68.4928C14.3492 68.5061 14.3887 68.506 14.4381 68.506C14.7841 68.4928 14.939 68.2478 14.9258 67.91C14.9258 67.5987 14.7973 67.3537 14.4777 67.3537C14.4118 67.3537 14.3459 67.3669 14.2964 67.3934L14.3228 68.4928ZM16.679 68.3637L16.8075 68.3504C17.1041 68.3372 17.2688 68.0921 17.2556 67.7808C17.2457 67.4696 17.1139 67.2643 16.7943 67.2643C16.7417 67.2656 16.6895 67.2746 16.6394 67.2907L16.679 68.3637ZM20.5773 69.6717C20.6037 69.6717 20.6564 69.6717 20.6926 69.6816C21.0288 69.6816 21.3253 69.3472 21.3253 68.3637C21.3253 67.6252 21.1441 67.1848 20.719 67.1715C20.6828 67.1715 20.63 67.1715 20.5905 67.1848L20.5773 69.6717ZM40.4645 102.978C40.5568 102.952 40.6326 102.912 40.7348 102.862C41.3543 102.604 42.2308 102.266 42.8866 102.24C43.8389 102.203 45.3844 103.561 45.9611 104.001C45.536 103.405 44.1718 101.852 44.2146 100.895C44.2476 100.233 44.5837 99.3554 44.8407 98.7362C44.8803 98.6435 44.9198 98.5541 44.9725 98.4779C45.3054 97.65 45.5261 96.7824 45.6019 95.9149C45.3449 96.9745 44.4057 99.1501 43.1041 99.5641C42.3462 99.8091 41.3279 99.1998 40.9292 98.9283C41.1994 99.3289 41.8057 100.352 41.5586 101.127C41.1467 102.435 38.9882 103.366 37.9304 103.624C38.7938 103.548 39.6506 103.326 40.4645 102.978Z" fill="#9C2130"/>
<path d="M43.8785 101.892C43.5782 101.752 43.2535 101.673 42.9228 101.66H42.8602C42.5637 101.67 42.2308 101.736 41.842 101.839C41.9543 101.671 42.042 101.489 42.1023 101.296C42.2146 100.913 42.218 100.505 42.1122 100.12C42.3102 100.172 42.514 100.198 42.7185 100.197C42.9112 100.201 43.1031 100.17 43.2853 100.107C43.479 100.053 43.6618 99.9656 43.8258 99.8488C43.7236 100.236 43.661 100.571 43.6445 100.869C43.6313 101.193 43.7269 101.531 43.8785 101.892ZM28.005 90.4576C28.0445 90.3781 28.084 90.2887 28.1203 90.1993C28.3905 89.5635 28.7266 88.6959 28.753 88.0369C28.7892 87.0666 27.425 85.5268 27.0032 84.9341C27.5799 85.3613 29.1254 86.7322 30.0777 86.6925C30.7368 86.666 31.61 86.3282 32.2262 86.06C33.1133 85.6505 34.0623 85.393 35.0339 85.2983C33.9925 85.5533 31.8275 86.4971 31.4024 87.8051C31.1586 88.5667 31.7649 89.6032 32.0351 89.9906C31.6496 89.7191 30.6181 89.1231 29.8602 89.3582C28.5586 89.7853 27.6194 91.9576 27.3624 93.0041C27.4513 92.1398 27.6589 91.2755 28.005 90.4576Z" fill="#9C2130"/>
<path d="M29.1385 89.0735C29.2539 88.6861 29.3033 88.3483 29.3198 88.0503C29.3234 87.7011 29.2479 87.3558 29.099 87.0403C29.3936 87.1781 29.7133 87.2536 30.0382 87.2622H30.1041C30.4006 87.2489 30.7335 87.1959 31.119 87.08C31.0129 87.2506 30.9267 87.4328 30.862 87.6231C30.7542 88.0125 30.7497 88.4235 30.8488 88.8152C30.465 88.7167 30.0628 88.7167 29.679 88.8152C29.4906 88.8828 29.3096 88.9693 29.1385 89.0735ZM28.005 98.4648L28.1203 98.7363C28.3905 99.3555 28.7266 100.236 28.753 100.895C28.7892 101.856 27.425 103.405 27.0032 103.988C27.5799 103.558 29.1254 102.19 30.0777 102.24C30.7368 102.266 31.61 102.604 32.2262 102.862C32.3317 102.902 32.4207 102.952 32.4965 102.978C33.3104 103.326 34.1705 103.548 35.0339 103.624C33.9925 103.366 31.8275 102.432 31.4024 101.114C31.1586 100.352 31.7649 99.329 32.0351 98.9284C31.6496 99.1999 30.6181 99.8092 29.8602 99.5642C28.5586 99.1502 27.6194 96.9746 27.3624 95.9149C27.4513 96.7825 27.6589 97.6501 28.005 98.4648Z" fill="#9C2130"/>
<path d="M29.0991 101.892C29.254 101.528 29.3298 101.193 29.3199 100.869C29.302 100.522 29.2411 100.18 29.1387 99.8488C29.3034 99.9647 29.5011 100.054 29.6791 100.107C29.8603 100.173 30.0515 100.197 30.2459 100.197C30.4502 100.197 30.6578 100.157 30.8621 100.12C30.753 100.505 30.753 100.912 30.8621 101.296C30.928 101.491 31.017 101.67 31.1224 101.839C30.7892 101.743 30.4468 101.683 30.1009 101.66H30.0383C29.7128 101.673 29.3933 101.751 29.0991 101.892ZM40.4647 85.9408L40.7349 86.06C41.3544 86.3315 42.2309 86.666 42.8867 86.6925C43.8391 86.7322 45.3846 85.3613 45.9612 84.9341C45.5361 85.5169 44.1719 87.0666 44.2246 88.0369C44.251 88.6859 44.5739 89.5767 44.8441 90.186C44.8804 90.2854 44.9331 90.3781 44.9595 90.4576C45.3055 91.2722 45.5263 92.1398 45.6021 93.0074C45.345 91.9576 44.4058 89.7853 43.1174 89.3582C42.3463 89.1098 41.3149 89.7224 40.9293 89.9906C41.1995 89.6032 41.8058 88.5667 41.5587 87.8051C41.1369 86.4971 38.9884 85.5533 37.9306 85.3083C38.7939 85.3844 39.6507 85.593 40.4647 85.9408Z" fill="#9C2130"/>
<path d="M43.8259 89.0735C43.6562 88.9669 43.4749 88.8802 43.2855 88.8152C42.9017 88.7165 42.4994 88.7165 42.1156 88.8152C42.1939 88.5236 42.2112 88.2189 42.1664 87.9202C42.1216 87.6216 42.0156 87.3355 41.8553 87.08C42.1811 87.1841 42.5189 87.2454 42.8604 87.2622H42.9263C43.2229 87.2622 43.5425 87.1827 43.8786 87.0403C43.7272 87.3553 43.6483 87.7005 43.6479 88.0503C43.6578 88.3483 43.7237 88.6861 43.8259 89.0735ZM34.6221 94.4678C34.6221 95.6434 33.4885 97.2859 32.6284 98.3489C33.6697 97.468 35.3042 96.3421 36.474 96.3289H36.4872C37.6472 96.3421 39.2948 97.468 40.3493 98.3489C39.4761 97.2892 38.3392 95.6434 38.3392 94.4678C38.3557 93.289 39.4761 91.6465 40.3493 90.5868C39.2948 91.4644 37.6472 92.5903 36.4872 92.5903H36.474C35.3042 92.5903 33.6697 91.4644 32.6284 90.5868C33.4885 91.6465 34.6221 93.289 34.6221 94.4678Z" fill="#9C2130"/>
<path d="M34.688 96.2626C34.9846 95.6566 35.1889 95.0374 35.1889 94.4678C35.1889 93.8983 34.9813 93.2757 34.688 92.6565C35.2911 92.9545 35.9073 93.1598 36.4741 93.1731C37.1043 93.1295 37.7184 92.9535 38.2766 92.6565C37.98 93.2757 37.7757 93.8983 37.7757 94.4678C37.7757 95.0242 37.9833 95.6566 38.2766 96.2659C37.7249 95.966 37.1137 95.7929 36.4873 95.7593C35.8577 95.7931 35.2434 95.9628 34.688 96.2626ZM21.3749 18.3444C21.8659 15.225 23.5894 13.6852 23.5894 13.6852C23.6817 12.7282 24.4396 10.3738 24.4396 10.3738C24.9668 6.85702 23.1907 5.8073 23.1907 5.8073C19.691 8.75448 19.2132 16.5198 19.2132 16.5198C20.2941 16.7781 21.3749 18.3444 21.3749 18.3444ZM53.234 15.4601C53.3757 17.0099 52.3608 19.7385 52.3608 19.7385C53.4417 19.2882 55.32 19.5067 55.32 19.5067C55.32 19.5067 56.2987 18.3808 58.0485 14.7449C60.3025 10.0625 59.4919 8.33061 59.4919 8.33061C56.5425 8.39684 55.1025 11.9004 55.1025 11.9004C54.6115 13.5958 53.234 15.4601 53.234 15.4601ZM26.1532 15.8343C26.6013 12.5726 29.0201 11.0328 29.0201 11.0328C29.1519 8.64189 30.7732 6.23447 30.7732 6.23447C30.8753 4.03567 29.7945 2.7409 29.7945 2.7409C29.7945 2.7409 27.8502 3.3767 26.397 6.54575C24.9306 9.72473 24.143 13.7382 24.143 13.7382C25.1613 14.1256 26.1532 15.8343 26.1532 15.8343ZM16.7945 22.3248C17.0779 18.3047 18.6992 16.6357 18.6992 16.6357C19.0616 11.3043 17.0383 9.49293 17.0383 9.49293C16.2277 10.1155 15.506 11.2149 15.16 12.0295C13.7825 15.4072 14.0132 20.4406 14.0132 20.4406C15.5719 20.5929 16.7945 22.3248 16.7945 22.3248ZM12.7511 25.921C12.5468 22.03 13.397 20.9439 13.397 20.9439C12.8302 16.4801 10.1149 15.2648 10.1149 15.2648C8.19369 18.0563 9.66339 25.5071 9.66339 25.5071C11.2847 25.2223 12.7511 25.921 12.7511 25.921ZM57.6135 25.0435C57.5505 26.5524 56.9037 27.977 55.811 29.0139C56.7337 28.8847 57.7552 29.4676 57.7552 29.4676C57.7552 29.4676 61.6668 27.1396 63.7527 24.603C66.2736 21.5366 65.4761 19.4041 65.4761 19.4041C63.6736 19.3643 62.3621 20.9174 61.1263 22.093C59.9038 23.2586 57.6135 25.0435 57.6135 25.0435ZM62.7872 32.5969C60.5727 33.5804 57.4718 33.8651 57.4718 33.8651C57.9068 33.9678 58.2429 34.1632 58.2429 34.1632C57.8046 35.9348 56.2855 37.2031 56.2855 37.2031C56.2855 37.2031 59.2842 37.2792 62.9025 36.1169C66.7646 34.8851 67.2655 32.1068 67.2655 32.1068C66.5735 31.5869 65.0049 31.6001 62.7872 32.5969ZM58.3978 29.9974C58.1144 32.5836 55.2837 33.8784 55.2837 33.8784C55.2837 33.8784 59.4523 33.2691 63.1463 31.1233C66.8404 28.9609 66.9458 26.2323 66.9458 26.2323C66.0297 25.8183 64.6259 26.219 62.9552 27.3582C61.2812 28.4973 58.3978 29.9974 58.3978 29.9974ZM10.0358 30.812C9.04718 28.547 9.18557 26.8151 9.18557 26.8151C7.47201 22.391 4.56555 22.444 4.56555 22.444C3.5473 26.4906 6.9217 31.2922 6.9217 31.2922C8.10802 30.6166 10.0358 30.812 10.0358 30.812ZM55.8077 19.8544C55.9527 22.093 54.8191 23.9043 54.8191 23.9043C56.3646 23.9937 57.0731 24.4209 57.0731 24.4209C57.0731 24.4209 60.0586 21.4737 61.8612 18.5265C63.6505 15.586 62.863 13.3243 62.863 13.3243C62.1314 13.2845 60.9846 13.5561 60.0587 14.8873C59.1195 16.2085 57.4949 17.9404 57.4949 17.9404C56.9714 18.611 56.4058 19.2501 55.8077 19.8544ZM75.5302 73.3177C74.6931 71.9202 73.3684 72.4236 73.3684 72.4236C75.6092 73.98 73.7012 76.8477 70.2379 78.1822C67.1106 79.3975 62.685 79.2551 59.2711 77.2881C52.0873 73.1488 49.4774 66.9895 49.5268 65.3106C49.5927 63.6416 54.5489 63.0224 58.0485 62.9694C61.5646 62.9032 64.2931 64.3668 64.0097 66.1484C63.7263 67.9498 61.7327 67.8339 61.7327 67.8339C65.1268 69.6817 67.4072 67.3802 68.0135 65.3735C68.6298 63.3568 67.7927 59.2705 64.3459 58.1546C60.8957 57.032 57.2774 58.8169 54.2128 58.6612C51.0723 58.4791 49.1413 56.1379 49.1413 56.1379C49.1413 56.1379 49.9783 57.8731 48.3043 58.3764C46.6335 58.8831 44.5212 57.0982 44.5212 57.0982C44.5212 57.0982 45.2429 59.1016 43.414 59.1016C41.5719 59.1016 40.4812 57.8466 40.4812 57.8466C40.1055 59.2175 38.9489 59.1381 38.0196 58.6745C37.0046 58.1844 36.2302 57.2638 36.2302 57.2638C35.4591 62.6846 40.2999 66.7842 42.1915 67.9597C44.083 69.1386 45.4472 71.1818 48.2548 76.2284C51.9884 82.9407 57.8837 87.8681 65.2323 87.5204C71.0255 87.2621 70.8574 82.487 70.8574 82.487C69.4042 83.8348 63.3408 84.0534 57.4323 80.924C51.5337 77.7914 50.9174 74.2084 50.9174 74.2084C54.2655 80.03 67.0216 84.0534 71.7965 81.2088C76.5846 78.3477 76.3672 74.7151 75.5302 73.3177ZM6.70091 37.1766C7.52474 36.362 9.40307 36.4779 9.40307 36.4779C7.0634 34.9248 6.70091 32.5704 6.70091 32.5704C3.60002 29.2457 1.14172 30.3451 1.14172 30.3451C1.0099 34.3685 6.70091 37.1766 6.70091 37.1766ZM18.6332 52.9821C18.5574 52.5847 18.5443 51.8198 18.5443 51.8198C16.7154 52.8033 14.7876 52.4788 14.7876 52.4788C14.6441 52.1369 14.5187 51.7876 14.4119 51.4323C14.4119 51.4323 13.5749 52.0648 12.56 53.0086C11.5417 53.9523 11.7724 55.5054 11.7724 55.5054C15.7004 56.128 18.6332 52.9821 18.6332 52.9821ZM28.7268 54.8199C30.4766 51.3131 32.523 49.2832 34.5694 46.5811C36.629 43.8756 37.3111 40.9649 36.5532 39.3356C35.7952 37.6932 33.9268 37.5375 33.3238 36.4017C32.7174 35.2493 35.871 34.8751 35.871 34.8751C35.7162 33.2691 37.6835 32.2723 38.8698 31.9379C40.0429 31.5869 41.2523 30.2557 41.2523 30.2557C40.234 30.2557 38.4842 30.4875 37.0013 31.4081C35.5217 32.3121 33.4753 33.2293 31.9957 33.2293C30.5129 33.2293 28.9575 33.5009 28.9575 33.5009C28.651 32.2757 29.6396 30.9411 30.9676 30.1795C32.3055 29.4179 35.2285 28.1993 37.3902 25.3017C39.5519 22.391 39.1664 18.808 39.1664 18.808C39.1664 18.808 38.5996 20.4505 37.1957 21.5631C36.0094 22.4937 34.6221 22.3645 34.6221 22.3645C33.851 26.5171 30.2459 28.0436 28.1962 28.9212C26.1532 29.802 26.4234 31.1365 26.6804 31.5504C26.9506 31.9776 27.3625 33.1929 27.3625 33.4247C27.3625 33.6433 27.1417 33.8784 27.1417 33.8784C26.6013 34.1102 25.9225 34.6798 25.7017 35.1699C25.471 35.6765 25.2766 35.8686 24.746 36.1666C23.9782 36.5971 22.4459 36.6964 22.0208 38.1733C21.5825 39.6469 22.3537 40.1635 22.3537 40.1635C22.4855 39.6337 22.8183 39.1701 23.3587 38.8058C23.2816 38.9396 23.2418 39.0917 23.2434 39.2462C23.2434 39.7893 23.6817 40.2297 24.2089 40.2397C23.8102 40.6933 23.6948 41.1602 23.6948 41.1602C23.6948 41.1602 24.7757 40.5642 25.6621 40.0211C26.5651 39.4648 27.7481 39.3257 27.7481 39.3257C27.7231 38.8846 27.5513 38.4648 27.2604 38.1336C28.1732 38.4051 28.5851 39.0509 28.4961 39.6469C28.3643 40.5145 28.8026 41.3026 28.8026 41.3026C29.4089 40.4748 30.6974 39.7363 30.6974 39.7363C30.7468 38.6502 29.7055 37.4746 29.7055 37.4746C31.1324 37.7826 31.3927 39.2959 31.3927 39.2959C31.3927 39.2959 32.2165 39.3489 32.6383 40.3854C33.2974 41.9484 30.3975 44.73 27.9788 45.5976C25.56 46.4652 22.6107 46.3327 20.4094 45.2466C18.5443 44.3293 15.9179 39.8655 17.8621 34.693C19.8064 29.5305 26.8584 26.9177 29.0992 25.7521C31.3532 24.5765 31.429 23.4507 31.7387 17.3742C32.0353 11.291 35.8447 6.17155 37.3638 3.7244C38.8698 1.2938 38.0855 -0.000976562 38.0855 -0.000976562C34.1212 1.34678 30.6579 6.81728 30.1042 8.86044C29.6791 10.387 29.5506 10.7115 30.2459 12.7415C31.1851 15.4568 29.923 18.7948 29.923 18.7948C29.923 18.7948 30.1438 17.0629 30.0548 15.0197C29.9625 12.9733 29.1783 11.7315 29.1783 11.7315C28.2127 12.3937 27.5306 13.4137 27.1417 14.5396C26.0213 17.7086 26.0477 21.7055 26.0477 21.7055C25.1481 20.1823 25.9983 16.7781 25.9983 16.7781C25.7544 15.6655 23.8992 14.2548 23.8992 14.2548C23.3192 14.7449 22.7425 15.692 22.4327 16.543C21.0817 20.2319 22.0472 24.0467 22.0472 24.0467C20.8741 23.3612 21.2365 19.52 21.2365 19.52C20.8213 17.8775 19.0847 17.1523 19.0847 17.1523C18.4158 17.8378 18.0566 18.7948 17.7995 19.7021C16.6923 23.6328 17.8226 27.6959 17.8226 27.6959C16.6791 26.8416 16.7154 23.5036 16.7154 23.5036C15.8916 21.4075 14.0132 21.1492 14.0132 21.1492C13.2421 22.9705 13.2158 25.0302 13.5387 26.6727C14.0791 29.2987 15.506 31.0968 15.506 31.0968C13.654 30.4113 12.9587 27.1628 12.9587 27.1628C12.2239 25.6759 9.7392 26.1693 9.7392 26.1693C9.7392 26.1693 9.48216 28.1993 10.7443 30.8882C12.0064 33.5804 14.2966 34.5374 14.2966 34.5374C11.8383 34.4711 10.3719 31.5107 10.3719 31.5107C8.80002 31.0703 7.28088 31.9379 7.28088 31.9379C7.19191 32.5704 7.73234 34.2559 9.13615 35.5076C11.054 37.2527 13.9242 38.0806 13.9242 38.0806C12.0459 38.4316 10.3455 37.1534 10.3455 37.1534C7.34679 36.7229 6.6383 38.2362 6.6383 38.2362C6.82943 39.7264 8.13108 40.5543 10.0489 41.0841C11.9668 41.6272 14.3625 41.4715 14.3625 41.4715C12.8302 42.3126 10.3587 41.7927 10.3587 41.7927C8.52981 42.2067 7.91359 43.9419 7.91359 43.9419C8.83628 45.1969 9.95668 45.5181 11.2451 45.4552C13.3706 45.3658 15.6213 44.2266 15.6213 44.2266C14.7085 45.6506 12.326 45.985 12.326 45.985C11.5154 47.293 11.1957 48.9322 11.1957 48.9322C14.3493 50.3694 18.0038 46.5811 18.0038 46.5811C17.9379 48.0149 14.9392 49.3494 14.9392 49.3494C14.6327 50.7965 15.16 52.0118 15.16 52.0118C19.6647 52.1675 21.5298 47.8858 21.5298 47.8858C21.7869 49.5051 19.1111 51.535 19.1111 51.535C18.9035 52.2966 19.4208 53.5384 19.4208 53.5384C21.2728 53.7205 22.3537 52.7238 22.3537 52.7238C23.0226 50.4356 24.4659 49.1011 25.6127 48.1971C27.0923 47.0314 29.2672 46.3095 29.2672 46.3095C29.2672 46.3095 24.0409 48.9719 23.0226 53.6941C22.0472 58.297 23.7575 59.8136 25.4282 61.1315C26.7298 62.168 28.2127 63.6416 28.2127 63.6416C28.1073 63.2012 27.6954 62.1813 27.5932 60.8997C27.4315 58.8082 27.8226 56.7108 28.7268 54.8199ZM25.1876 39.5045C25.2008 39.4151 25.214 39.339 25.214 39.2462C25.2152 39.0269 25.1435 38.8133 25.0105 38.6394C24.8774 38.4655 24.6904 38.3411 24.4791 38.2859C24.8416 38.1866 25.2634 38.0938 25.7281 38.0442C26.0905 38.0044 26.4201 38.0044 26.7068 38.0309C26.6409 38.6369 25.8698 39.0906 25.1876 39.5045ZM28.9311 35.703C28.9311 35.703 28.8421 37.0872 27.8898 37.2527C26.9374 37.4349 26.6804 36.5673 26.72 36.1666C26.72 36.1666 26.3311 36.309 26.0741 36.5673C26.0741 36.5673 25.817 35.7394 27.3362 35.5209C28.8421 35.299 29.2277 35.299 30.0153 34.9513C30.0153 34.9513 29.666 35.5209 28.9311 35.703ZM43.2328 85.3349C43.2328 85.3349 43.503 85.0633 43.3119 84.507C42.9757 83.6262 40.5438 82.3976 39.8221 81.636C39.1004 80.8744 38.7281 81.0135 38.4183 77.9603C38.0987 74.9204 37.9932 73.3938 37.3506 71.6619C37.0672 70.9102 36.8629 70.3175 37.0672 69.5923C37.2748 68.8671 41.3017 68.4532 41.3017 68.4532C34.9681 64.1085 34.4409 58.6215 35.8183 55.0782C36.0259 55.31 36.217 55.5816 36.4115 55.9061C37.5187 57.9261 39.0873 58.0022 39.0873 58.0022C39.7068 56.9028 38.7149 54.8564 38.4183 53.4755C38.1119 52.1046 38.5996 51.482 38.5996 51.482C38.5996 51.482 38.7314 53.098 39.7331 55.0385C41.0315 57.5221 42.8472 57.4989 42.8472 57.4989C44.0434 56.7869 42.2046 53.8762 41.8323 52.6311C41.4698 51.3926 41.7927 50.876 41.7927 50.876C41.7927 50.876 42.6824 53.6676 44.6102 55.5054C46.0272 56.8499 47.4178 56.3598 47.4178 56.3598C48.3702 54.7703 46.3864 52.9457 45.5757 51.8827C44.7651 50.823 44.8541 49.9289 44.8541 49.9289C44.8541 49.9289 45.668 51.1972 47.6617 53.0483C49.6718 54.8961 51.9126 54.6908 51.9126 54.6908C52.3608 52.9457 50.2749 51.237 49.2204 50.3197C48.1659 49.3991 48.0209 48.5083 48.0209 48.5083C48.0209 48.5083 49.5268 49.9819 51.5864 51.1972C54.5851 52.9457 56.4635 52.1311 56.4635 52.1311C56.7897 50.3429 53.557 48.8693 52.2586 48.1077C50.957 47.3295 50.8548 46.6572 50.8548 46.6572C50.8548 46.6572 53.8008 48.3527 57.083 48.7435C60.3552 49.1408 61.4723 47.707 61.4723 47.707C60.7902 46.1274 58.1012 45.6473 56.1076 45.3393C54.1106 45.0413 53.5965 44.124 53.5965 44.124C54.1238 44.2002 58.8723 44.6671 61.7689 43.9551C64.6688 43.2431 65.4498 41.2132 65.4498 41.2132C65.3608 40.9284 64.794 40.0609 61.9765 40.6437C59.1557 41.2265 54.6774 41.1205 54.6774 41.1205C54.6774 41.1205 55.0498 41.7927 54.8586 42.455C54.8586 42.455 54.1897 43.5809 52.631 43.7597C52.631 43.7597 52.8485 44.6406 52.4498 45.3128C52.4498 45.3128 51.9093 46.2069 50.0804 46.1539C50.0804 46.1539 50.1595 46.8261 49.8629 47.4222C49.8629 47.4222 48.6404 48.0944 47.4442 47.9653C47.4442 47.9653 47.0158 48.8925 46.6072 49.2965C46.6072 49.2965 45.2923 49.621 44.574 49.3627C44.574 49.3627 43.849 50.2568 43.2855 50.4985C43.2855 50.4985 42.4221 50.7469 41.4961 50.3197C41.4961 50.3197 40.5932 51.0946 39.977 51.3131C39.977 51.3131 39.4497 51.3794 38.6753 50.7965H38.6655C40.4021 48.2997 41.2786 46.3327 41.2786 46.3327C43.068 46.5413 43.8259 46.2334 43.7238 45.985C43.6183 45.7532 43.9544 45.3658 43.9544 45.3658C46.0898 45.432 46.6072 44.783 46.5413 44.4584C46.4754 44.1604 46.683 43.8127 46.683 43.8127C49.4378 43.5014 49.4378 42.455 49.2961 42.1835C49.1544 41.9119 49.283 41.3788 49.283 41.3788C51.3821 41.2364 51.9489 39.4515 51.4711 38.935C51.1646 38.6005 50.9833 37.8885 50.9833 37.8885C50.9833 37.8885 52.051 38.4051 54.5357 37.6567C57.0072 36.8918 57.7783 34.3685 57.7783 34.3685C56.4536 33.8916 55.063 34.448 53.4021 34.5109C51.7545 34.5771 51.3689 34.4976 51.3689 34.4976C51.3689 34.4976 53.6361 34.3552 55.6297 33.1532C57.6234 31.9379 57.8574 30.0735 57.8574 30.0735C56.8655 29.4146 55.4617 29.4676 55.4617 29.4676C52.2323 31.6663 51.1646 31.2392 51.1646 31.2392C57.3664 28.7556 57.1093 25.0567 57.1093 25.0567C55.8736 24.3944 54.4204 24.4739 54.4204 24.4739C54.4204 24.4739 54.2259 25.017 52.3608 26.4011C50.4923 27.7853 49.9651 27.5535 49.9651 27.5535C49.9651 27.5535 52.7463 25.8713 54.0183 24.0103C55.1783 22.3148 55.2705 20.169 55.2705 20.169C54.1915 19.9748 53.0805 20.0719 52.051 20.4505C49.797 23.7487 48.0868 24.1262 48.0868 24.1262C48.0868 24.1262 50.5055 21.7055 51.4974 20.0498C52.4761 18.3941 52.6936 15.9105 52.6936 15.9105C52.6936 15.9105 51.4348 15.7449 50.0178 16.9039C48.5877 18.0563 46.94 20.7618 46.94 20.7618C47.0454 19.3246 48.0604 17.9404 49.4906 16.5562C50.9076 15.1853 52.6706 15.1489 52.6706 15.1489C52.6706 15.1489 53.9557 12.8838 54.8455 9.23464C55.8736 4.95295 54.4698 3.41644 54.4698 3.41644C52.4893 4.07541 51.4974 6.98617 50.2847 10.8407C49.0918 14.6687 43.8127 22.5201 43.2064 23.348C42.6034 24.1759 40.9557 25.7786 43.0416 26.8813C45.1276 27.9807 46.6072 30.9014 46.6566 34.1632C46.7225 37.4084 44.0863 40.7198 41.1732 41.7166C38.2634 42.7001 37.6077 42.0411 37.6077 42.0411C37.5187 44.8591 34.5958 47.9255 32.8064 50.2005C31.017 52.4655 28.908 54.9888 28.5719 59.5553C28.2259 64.1218 31.6366 67.0723 34.0421 69.7612C36.4477 72.4633 36.5532 77.2384 36.6553 78.7253C36.7575 80.2121 36.4246 81.4936 35.38 82.0499C34.3519 82.6063 31.8672 82.9142 30.7995 83.3679C29.7319 83.8083 30.0779 84.4673 30.0779 84.4673C28.74 85.4375 29.7055 86.9244 29.7055 86.9244C29.834 85.6462 30.7336 85.1693 30.7336 85.1693C31.5344 85.8912 34.6617 84.3646 35.2416 84.0269C35.8348 83.6792 37.377 83.1858 37.6868 83.1228C37.9932 83.0566 39.1664 83.5368 39.9012 83.9904C40.6196 84.4408 41.1369 85.1031 41.5851 85.5799C42.0366 86.0601 42.4485 85.9309 42.4485 85.9309C43.5425 86.5899 43.4536 87.0668 43.4536 87.0668C43.8885 87.0303 43.8259 86.2654 43.6447 85.8912C43.4536 85.5038 43.2328 85.3349 43.2328 85.3349ZM19.177 54.161C18.8936 53.8364 18.854 53.5252 18.854 53.5252C18.3498 54.1212 17.4898 54.9756 17.4898 54.9756C16.1519 56.1776 17.9907 57.2009 17.9907 57.2009C18.9562 57.2373 20.2051 56.681 20.9894 56.2174C21.7638 55.7637 22.0439 56.5419 22.0439 56.5419C21.7638 55.4392 22.2647 53.3695 22.2647 53.3695C20.9004 54.4722 19.177 54.161 19.177 54.161ZM9.39319 41.5477C5.76175 40.19 6.11105 38.0806 6.11105 38.0806C1.99191 36.5673 0.410156 38.3786 0.410156 38.3786C2.12042 41.7033 7.74553 42.8027 7.74553 42.8027C8.02893 42.2729 9.39319 41.5477 9.39319 41.5477ZM10.9749 47.4752C11.0672 47.0314 11.6076 46.0513 11.6076 46.0513C8.17062 46.1407 7.29407 44.0313 7.29407 44.0313C3.53741 43.9419 2.53234 45.9188 2.53234 45.9188C2.53234 45.9188 3.29026 47.4089 5.65959 47.6805C8.0421 47.952 10.9749 47.4719 10.9749 47.4719M14.3493 49.5912C11.6076 50.2005 10.6026 49.3726 10.6026 49.3726C10.6026 48.8064 10.8332 48.1971 10.8332 48.1971C6.95794 48.9852 6.68773 51.9357 6.68773 51.9357C6.68773 51.9357 7.42259 52.8033 9.83146 52.3893C11.3901 52.1041 12.9017 51.6026 14.323 50.8992C14.234 50.5118 14.3493 49.5912 14.3493 49.5912Z" fill="#9C2130"/>
<path d="M64.5236 86.9641C56.1304 86.9641 51.0325 80.0564 48.7423 75.9436C45.8853 70.7811 44.5078 68.7246 42.4878 67.4829C40.4117 66.1914 36.7869 62.774 36.721 58.5188C37.0176 58.7638 37.3768 58.9989 37.7623 59.191C38.2533 59.4394 38.7278 59.5553 39.1529 59.5553C39.4503 59.5638 39.745 59.4969 40.0099 59.3609C40.2748 59.2249 40.5014 59.0242 40.6688 58.7771C41.2389 59.191 42.178 59.6712 43.4138 59.6712C44.2771 59.6712 44.7154 59.3069 44.9296 58.9989C45.0786 58.7785 45.1724 58.5252 45.2031 58.2605C45.8721 58.6479 46.7717 59.0354 47.6746 59.0354C47.9436 59.0366 48.2116 59.0032 48.4721 58.936C49.2564 58.6877 49.6057 58.2207 49.7572 57.8598C49.8057 57.7704 49.8412 57.6745 49.8627 57.575C50.8019 58.3002 52.2815 59.1281 54.1763 59.2307C54.3279 59.244 54.4728 59.244 54.6244 59.244C55.758 59.244 56.9048 59.0354 58.1273 58.8036L58.2295 58.7903C59.3367 58.585 60.5988 58.3631 61.8346 58.3631C62.698 58.3631 63.4559 58.4691 64.1644 58.7009C67.318 59.7208 68.0001 63.4727 67.4729 65.2079C67.061 66.5656 65.8615 67.9365 64.1248 67.9365C63.9436 67.9365 63.7524 67.9233 63.558 67.8968C63.8327 67.7068 64.065 67.4615 64.2403 67.1765C64.4156 66.8914 64.53 66.5729 64.5763 66.2411C64.6242 65.8999 64.5959 65.5522 64.4933 65.2234C64.3906 64.8946 64.2164 64.5929 63.9831 64.3403C62.955 63.1382 60.7669 62.3865 58.2427 62.3865H58.0351C55.3329 62.4263 49.0389 62.8005 48.9631 65.3006C48.8972 67.2378 51.6916 73.5792 58.9907 77.7914C60.9448 78.9173 63.3669 79.5398 65.812 79.5398C67.4729 79.5398 69.0678 79.255 70.4452 78.7252C72.9563 77.755 74.6962 76.0595 74.8873 74.3905C74.9386 74.0005 74.8898 73.6039 74.7456 73.2381C74.8675 73.3439 74.9681 73.472 75.0422 73.6156C75.3618 74.1455 75.5958 75.129 75.2992 76.3178C75.0027 77.4702 74.1129 79.1656 71.5129 80.7154C70.5606 81.2717 69.1831 81.5697 67.5256 81.5697C62.0026 81.5697 53.9291 78.298 51.4214 73.9269C51.37 73.8388 51.2962 73.766 51.2076 73.716C51.1191 73.6659 51.0188 73.6404 50.9172 73.6421C50.8513 73.6421 50.7887 73.6521 50.7261 73.6653C50.5993 73.7143 50.4929 73.8054 50.4246 73.9234C50.3563 74.0414 50.3301 74.1794 50.3504 74.3144C50.3768 74.47 51.0853 78.2053 57.1717 81.4273C60.2363 83.0698 63.792 84.0003 66.9193 84.0003C68.2044 84.0003 69.3248 83.8348 70.1487 83.5367C69.8422 84.7918 68.7712 86.7952 65.2057 86.9508C64.975 86.9641 64.7575 86.9641 64.5236 86.9641ZM42.6657 85.3978C42.6106 85.3695 42.5503 85.3529 42.4885 85.3489C42.4268 85.3449 42.3648 85.3537 42.3066 85.3746C42.2538 85.3746 42.1517 85.3481 41.9968 85.1924L41.7661 84.9209C41.3542 84.4672 40.8665 83.9109 40.1943 83.497C39.5517 83.0963 38.3423 82.54 37.7623 82.54C37.6865 82.54 37.6338 82.5532 37.5712 82.5665C37.2351 82.6426 35.6138 83.136 34.958 83.5235C34.378 83.8712 32.3811 84.7785 31.4024 84.7785C31.1849 84.7785 31.119 84.7388 31.119 84.7388C31.0147 84.6397 30.8769 84.5841 30.7334 84.5831C30.7103 84.5831 30.6972 84.5964 30.6675 84.5964C30.6972 84.454 30.684 84.3381 30.5917 84.2222C30.5917 84.156 30.7235 84.0268 31.0201 83.8977C31.4551 83.7155 32.2163 83.5334 32.9479 83.3678C33.9661 83.136 35.0074 82.9042 35.65 82.5532C36.7968 81.9439 37.3636 80.573 37.2351 78.6855C37.2199 78.5609 37.2067 78.4362 37.1955 78.3113C37.0934 76.4337 36.833 72.0361 34.467 69.3836C34.1572 69.0359 33.8244 68.6882 33.4883 68.324C31.3134 65.9828 28.8551 63.3303 29.1385 59.6049C29.4614 55.3762 31.3661 52.9456 33.0632 50.8097L33.2576 50.5514C33.5278 50.2137 33.8376 49.8395 34.1474 49.4653C35.7423 47.5248 37.6865 45.1439 38.0984 42.8027C38.2401 42.8159 38.3818 42.8292 38.5466 42.8292C39.2946 42.8292 40.247 42.6338 41.3674 42.2596C44.6627 41.1337 47.2891 37.5011 47.2363 34.1466C47.1704 30.7093 45.6019 27.5899 43.3116 26.3746C42.8997 26.1561 42.6526 25.9209 42.6031 25.6626C42.501 25.1726 43.0546 24.4871 43.4138 24.0202C43.5027 23.9043 43.595 23.7884 43.6708 23.699C44.2376 22.9075 49.6024 14.9402 50.8282 11.0095C51.9091 7.55568 52.812 4.98269 54.2389 4.13827C54.5355 4.77407 54.9606 6.30064 54.2784 9.10544C53.8291 11.0063 53.1681 12.8503 52.3078 14.6024C51.1002 14.7595 49.9738 15.2988 49.0916 16.1423C47.3385 17.8377 46.4784 19.2881 46.3631 20.722C46.3571 20.8491 46.3924 20.9747 46.4638 21.0799C46.5351 21.185 46.6386 21.264 46.7585 21.3048C46.8244 21.3313 46.8771 21.3313 46.9398 21.3313C47.0379 21.3323 47.1347 21.3079 47.2208 21.2603C47.3068 21.2128 47.3791 21.1437 47.4308 21.0597C47.4439 21.0333 49.0389 18.4338 50.3636 17.3476C51.0227 16.8277 51.6158 16.6092 52.0376 16.5297C51.9091 17.3476 51.6125 18.7318 50.9963 19.7517C50.0703 21.318 47.7142 23.699 47.6878 23.7255C47.6012 23.8137 47.5446 23.9273 47.5263 24.0498C47.5079 24.1724 47.5287 24.2977 47.5856 24.4076C47.6845 24.5897 47.8822 24.7056 48.0865 24.7056C48.1261 24.7056 48.1755 24.6924 48.215 24.6924C48.4095 24.6427 50.1593 24.1891 52.41 20.9306C52.7066 20.8246 53.4151 20.6326 54.2257 20.6326C54.3674 20.6326 54.5091 20.6458 54.6541 20.6458C54.5486 21.3412 54.2784 22.6227 53.5436 23.6857C52.3573 25.4176 49.7078 27.0336 49.6683 27.0634C49.5808 27.1159 49.5094 27.1915 49.4617 27.282C49.4141 27.3726 49.3921 27.4744 49.3981 27.5767C49.4035 27.6838 49.4392 27.7872 49.5011 27.8746C49.563 27.962 49.6484 28.0298 49.7474 28.0701C49.8133 28.0966 49.9121 28.1363 50.0802 28.1363C50.6865 28.1363 51.5631 27.7058 52.6934 26.868C53.8929 25.9872 54.4597 25.4044 54.7299 25.0434C55.1023 25.0567 55.8239 25.1328 56.5192 25.4176C56.4006 26.2984 55.6559 28.8185 50.9568 30.7093C50.8502 30.7517 50.7582 30.8244 50.692 30.9185C50.6259 31.0126 50.5885 31.124 50.5844 31.2391C50.5844 31.4709 50.7393 31.6795 50.9469 31.769C51.0227 31.7954 51.1775 31.8451 51.4445 31.8451C52.1299 31.8451 53.4151 31.5239 55.6427 30.0371C55.9393 30.0503 56.6082 30.1033 57.2014 30.3715C56.8785 31.3393 56.2137 32.1546 55.3329 32.663C54.1016 33.3627 52.7373 33.7937 51.3291 33.928C51.1909 33.937 51.0605 33.9953 50.9614 34.0924C50.8622 34.1896 50.801 34.3192 50.7887 34.4578C50.7821 34.5977 50.8248 34.7354 50.9091 34.8468C50.9935 34.9582 51.1142 35.0362 51.25 35.0671C51.3061 35.0671 51.5466 35.1069 52.232 35.1069C52.578 35.1069 52.9768 35.1069 53.4282 35.0804C53.9846 35.0488 54.539 34.988 55.0891 34.8983C55.6163 34.8221 56.1073 34.7426 56.572 34.7426C56.7235 34.7426 56.8653 34.7559 56.9938 34.7691C56.6214 35.4811 55.8239 36.6467 54.3674 37.0971C53.6398 37.3356 52.8817 37.4672 52.1167 37.4878C51.8155 37.5006 51.5143 37.4603 51.227 37.3686C51.1282 37.3227 51.0182 37.3067 50.9106 37.3226C50.8029 37.3385 50.7021 37.3855 50.6206 37.458C50.5385 37.5259 50.477 37.6156 50.4432 37.7169C50.4094 37.8182 50.4047 37.927 50.4295 38.0309C50.469 38.1733 50.6602 38.9084 51.0457 39.3223C51.0589 39.3621 51.0853 39.5806 50.9172 39.8919C50.7755 40.137 50.3405 40.733 49.2465 40.7992C49.1226 40.8089 49.0049 40.8577 48.9102 40.9386C48.8155 41.0194 48.7487 41.1283 48.7192 41.2496C48.6797 41.4052 48.5742 41.9881 48.7687 42.4152C48.7687 42.5444 48.3831 43.0345 46.6201 43.2431C46.5319 43.2492 46.4466 43.2772 46.3718 43.3246C46.2971 43.372 46.2352 43.4373 46.1917 43.5146C46.0183 43.7971 45.9376 44.1273 45.9611 44.4584C45.8194 44.5743 45.3448 44.7962 44.264 44.7962H43.9674C43.888 44.794 43.809 44.8088 43.7357 44.8396C43.6624 44.8704 43.5965 44.9166 43.5423 44.975C43.3349 45.1884 43.1959 45.4595 43.1436 45.7532C42.8817 45.8102 42.614 45.8358 42.3461 45.8293C42.0495 45.8293 41.7002 45.8028 41.341 45.7631H41.2751C41.0444 45.7631 40.8401 45.8956 40.7479 46.1009C40.7347 46.1141 39.8746 48.0546 38.2006 50.462C38.1392 50.553 38.1052 50.6598 38.1029 50.7697C38.1006 50.8796 38.1299 50.9878 38.1874 51.0813L38.1479 51.121C38.082 51.1972 37.5053 51.9985 37.8513 53.6046C37.9436 53.992 38.0721 54.4192 38.2138 54.8729C38.4708 55.6875 38.7806 56.6809 38.7015 57.33C38.2533 57.1611 37.5152 56.7339 36.9121 55.6345C36.725 55.2924 36.4959 54.9753 36.23 54.6907C36.1777 54.6333 36.1141 54.5874 36.0431 54.556C35.9722 54.5247 35.8956 54.5085 35.8181 54.5086H35.7192C35.6212 54.5274 35.5294 54.5705 35.4522 54.6342C35.3751 54.6978 35.315 54.7799 35.2776 54.8729C33.887 58.5055 34.4176 63.7575 39.8087 68.0524C36.7704 68.516 36.5925 69.1916 36.5266 69.4366C36.2695 70.3175 36.487 71.0261 36.81 71.8672C37.3768 73.3706 37.5185 74.7415 37.7656 77.2251L37.8414 78.0265C38.1248 80.7021 38.4708 81.1425 39.1266 81.7519L39.41 82.0366C39.7329 82.3711 40.2997 82.7585 40.9027 83.1725C41.5849 83.6394 42.6295 84.3381 42.7712 84.7123C42.8371 84.8679 42.8074 84.9441 42.7943 84.9706C42.7446 85.0296 42.7075 85.0983 42.6854 85.1724C42.6633 85.2464 42.6566 85.321 42.6657 85.3978ZM27.1448 61.8435C26.7035 61.439 26.2474 61.0513 25.7773 60.6811C24.3108 59.5155 22.65 58.2075 23.5892 53.8265C24.5316 49.4256 29.4746 46.8526 29.524 46.8261C29.6517 46.758 29.7498 46.6451 29.7997 46.5088C29.8495 46.3725 29.8476 46.2225 29.7942 46.0876C29.7498 45.9842 29.6762 45.8962 29.5825 45.8344C29.4888 45.7726 29.3791 45.7397 29.267 45.7399C29.2011 45.7399 29.1517 45.7399 29.0857 45.7664C29.0726 45.7664 29.01 45.7896 28.9078 45.8326C30.684 44.975 32.447 43.359 33.05 41.9616C33.3466 41.2893 33.3861 40.6933 33.1686 40.1635C33.0543 39.8599 32.8784 39.5836 32.652 39.3522C32.4257 39.1207 32.1538 38.9391 31.8538 38.819C31.6627 38.2494 31.1321 37.1898 29.8206 36.9182C29.7811 36.905 29.7448 36.905 29.7053 36.905C29.6057 36.905 29.508 36.9313 29.4218 36.9813C29.3356 37.0313 29.264 37.1032 29.2143 37.1898C29.1519 37.2941 29.1247 37.4158 29.1366 37.5368C29.1484 37.6579 29.1988 37.7719 29.2802 37.862C29.4845 38.0938 30.0019 38.7925 30.104 39.4283C29.7377 39.6595 29.3896 39.9185 29.0627 40.2032C29.0372 40.0497 29.0372 39.8931 29.0627 39.7396C29.1615 39.0641 28.8551 38.2892 28.0082 37.8223C28.9078 37.6567 29.3065 36.8023 29.4482 36.1268C30.1172 35.8453 30.45 35.3254 30.5027 35.2625C30.5651 35.1559 30.5924 35.0322 30.5805 34.909C30.5687 34.7859 30.5184 34.6697 30.4368 34.5771C30.3841 34.5166 30.3193 34.4679 30.2466 34.4342C30.1739 34.4006 30.095 34.3827 30.015 34.3817C29.9349 34.3793 29.8555 34.3976 29.7844 34.4347C29.2143 34.6797 28.8946 34.7327 27.9653 34.8486C27.761 34.885 27.5172 34.9148 27.247 34.9512C26.9351 34.993 26.631 35.08 26.344 35.2095C26.6232 34.873 26.9703 34.5999 27.3623 34.4082C27.4333 34.381 27.4959 34.3352 27.5435 34.2757C27.6325 34.1896 27.939 33.8518 27.939 33.4247C27.939 33.0107 27.4381 31.6795 27.1679 31.2391C27.1144 31.1412 27.0823 31.033 27.0738 30.9216C27.0653 30.8103 27.0805 30.6983 27.1184 30.5934C27.247 30.153 27.6951 29.7523 28.43 29.441H28.4564C30.4368 28.5866 34.0913 27.0236 35.0865 22.934C35.98 22.8776 36.8363 22.5535 37.5448 22.0035C37.9172 21.7187 38.227 21.4074 38.484 21.0829C38.2856 22.4805 37.7505 23.8082 36.9253 24.9507C35.1755 27.2919 32.9215 28.484 31.4287 29.2721C31.1453 29.4278 30.9015 29.5569 30.684 29.686C29.267 30.5007 28.0049 32.0405 28.4036 33.6333C28.4695 33.8916 28.7002 34.0704 28.9572 34.0704C28.9968 34.0704 29.0231 34.0704 29.0627 34.0572C29.0726 34.0572 30.5785 33.7989 31.9955 33.7989C33.6168 33.7989 35.8049 32.8154 37.301 31.8849C37.9605 31.4952 38.6765 31.2114 39.4232 31.0437C39.1972 31.1855 38.9548 31.299 38.7015 31.3815C37.1955 31.8219 35.5116 32.8419 35.304 34.3684C34.5065 34.5108 33.195 34.8618 32.793 35.6102C32.7118 35.7759 32.6719 35.9588 32.6765 36.1433C32.6811 36.3279 32.7301 36.5085 32.8193 36.6699C33.1686 37.3189 33.7849 37.6964 34.3912 38.0541C35.0602 38.4581 35.6896 38.8323 36.0257 39.5707C36.7342 41.084 35.9466 43.8259 34.121 46.23C33.5806 46.9552 33.0269 47.6407 32.4865 48.2997C30.9674 50.164 29.524 51.9356 28.2257 54.5583C27.2657 56.5395 26.8515 58.7429 27.0262 60.9394C27.0525 61.2607 27.0954 61.5587 27.1448 61.8435ZM42.6427 56.8895C42.2044 56.8134 41.1103 56.4359 40.2371 54.7702C39.7414 53.8258 39.3966 52.8089 39.2155 51.7568C39.5121 51.8694 39.7593 51.8959 39.9109 51.8959H39.924C40.0031 51.8959 40.0427 51.8826 40.0427 51.8826C40.0866 51.8801 40.1298 51.8711 40.1712 51.8562C40.4678 51.7568 40.8006 51.5482 41.0939 51.3396C41.0708 51.7038 41.1103 52.1807 41.2916 52.8032C41.3904 53.1642 41.5981 53.6046 41.8287 54.1212C42.1385 54.8331 42.8602 56.4226 42.6427 56.8895ZM18.1585 56.618C17.9278 56.4624 17.6049 56.1776 17.5785 55.906C17.5521 55.7637 17.6576 55.5948 17.8619 55.4027C17.9015 55.363 18.3134 54.9623 18.7253 54.5219C18.7253 54.5219 18.7385 54.5219 18.7385 54.5351C18.8274 54.6378 18.9428 54.7007 19.0713 54.7172C19.0976 54.7305 19.3679 54.7835 19.7534 54.7835C20.2312 54.7835 20.8475 54.704 21.4802 54.4722C21.435 54.8151 21.4042 55.1598 21.3879 55.5054C21.143 55.5205 20.9054 55.5955 20.6959 55.7239C19.9709 56.1544 18.9428 56.6048 18.1585 56.618ZM46.775 55.8663C46.1034 55.8535 45.464 55.5751 44.9955 55.0914C43.6576 53.8099 42.8338 51.9886 42.501 51.1475H42.6657C42.9268 51.1514 43.1873 51.1202 43.4401 51.0548C43.4665 51.0415 43.4896 51.0415 43.506 51.0283C43.8036 50.8842 44.0762 50.6931 44.3134 50.462C44.3925 50.8991 44.5968 51.535 45.124 52.2337C45.2657 52.4125 45.4338 52.6078 45.6019 52.8297C46.541 53.9258 47.3385 54.9888 47.032 55.8564C46.9661 55.8663 46.8804 55.8663 46.775 55.8663ZM12.8036 55.0153C12.6487 55.0153 12.4807 55.002 12.3258 54.9888C12.339 54.5583 12.4576 53.8894 12.9453 53.4357C13.3968 53.0085 13.8087 52.6608 14.1316 52.4025C14.181 52.5184 14.2305 52.6343 14.2832 52.737C14.3623 52.9026 14.5139 53.0218 14.6951 53.0483C14.7347 53.0483 15.0576 53.0979 15.5585 53.0979C16.1879 53.0979 17.0908 53.0218 18.0168 52.684C18.0168 52.7105 18.0168 52.7502 18.03 52.7767C17.4105 53.3463 15.3937 55.0153 12.8036 55.0153ZM51.3917 54.1079C50.1429 54.0016 48.9654 53.4781 48.047 52.6211C47.1687 51.8252 46.3596 50.9556 45.6282 50.0216C46.2082 49.9951 46.7223 49.866 46.7486 49.866C46.8513 49.8402 46.9448 49.7863 47.0189 49.7103C47.21 49.515 47.4044 49.2335 47.5593 48.9586C47.701 49.3726 48.047 50.0613 48.8445 50.7568L48.9862 50.876C49.8232 51.6111 51.3159 52.8926 51.3917 54.1079ZM19.8457 52.9953H19.8193C19.6996 52.6241 19.6384 52.2364 19.6381 51.8462C20.307 51.3031 22.3666 49.4785 22.0832 47.7963C22.0639 47.6743 22.006 47.5618 21.9182 47.4753C21.8304 47.3889 21.7173 47.3331 21.5955 47.3162H21.5164C21.4073 47.316 21.3005 47.3479 21.2092 47.4079C21.1179 47.4679 21.046 47.5534 21.0023 47.6539C20.9364 47.8096 19.3415 51.3296 15.5717 51.4422C15.4662 51.0813 15.3509 50.4488 15.4563 49.7368C16.3461 49.3097 18.5045 48.1076 18.5836 46.6175C18.5836 46.3724 18.4518 46.1539 18.2343 46.0611C18.1624 46.0265 18.0833 46.0095 18.0036 46.0115C17.8619 46.0115 17.707 46.0777 17.5917 46.1936C17.5785 46.2035 15.1466 48.6871 12.7245 48.6871C12.4339 48.6874 12.1447 48.6484 11.8644 48.5712C12.0061 48.0679 12.2764 47.24 12.6883 46.5015C13.3968 46.3592 15.2487 45.8691 16.0989 44.5379C16.17 44.4326 16.2035 44.3062 16.1939 44.1793C16.1844 44.0524 16.1323 43.9325 16.0462 43.8391C15.9922 43.7793 15.9267 43.7312 15.8536 43.6976C15.7805 43.664 15.7014 43.6457 15.6211 43.6438C15.5315 43.6458 15.4436 43.6685 15.3641 43.71C15.3377 43.7199 13.2023 44.7962 11.2186 44.8856H10.9615C9.94656 44.8856 9.19853 44.5743 8.5823 43.8623C8.76399 43.5026 9.018 43.1847 9.32828 42.9288C9.63856 42.6729 9.99834 42.4845 10.3848 42.3755C10.6551 42.4285 11.2976 42.5179 12.0556 42.5179C13.1002 42.5179 13.9734 42.3358 14.6424 41.9748C14.7518 41.9107 14.8373 41.8123 14.8859 41.6947C14.9344 41.5771 14.9433 41.4467 14.9111 41.3236C14.879 41.2004 14.8076 41.0913 14.7079 41.0127C14.6082 40.9342 14.4857 40.8906 14.359 40.8887H14.3227C14.3227 40.8887 14.013 40.9151 13.5253 40.9151C12.6224 40.9151 11.324 40.8489 10.2036 40.541C8.38788 40.0211 7.46191 39.3488 7.24112 38.3653C7.44872 38.1335 8.01552 37.6534 9.32705 37.6534C9.58409 37.6534 9.8543 37.6666 10.1245 37.7064C10.5233 37.9647 11.7722 38.7164 13.2551 38.7164C13.5121 38.7164 13.7823 38.6899 14.0262 38.6369C14.1523 38.6162 14.2674 38.5519 14.3516 38.4553C14.4358 38.3586 14.4838 38.2355 14.4875 38.107C14.495 37.9778 14.4586 37.8498 14.3844 37.744C14.3102 37.6381 14.2025 37.5607 14.0789 37.5242C14.0525 37.5242 11.3108 36.7096 9.50829 35.0804C8.42743 34.1101 7.94961 32.8948 7.86064 32.2988C8.19346 32.1564 8.77343 31.9643 9.4292 31.9643C9.62362 31.9643 9.81805 31.9776 9.996 32.014C10.4343 32.7756 11.927 35.0407 14.2832 35.1069H14.2964C14.4275 35.1048 14.5542 35.0592 14.6567 34.9771C14.7593 34.895 14.8319 34.7811 14.8632 34.6532C14.8889 34.5215 14.868 34.385 14.8043 34.2671C14.7405 34.1492 14.6378 34.0574 14.5139 34.0075C14.504 33.9942 12.4049 33.0902 11.2581 30.6431C10.6555 29.4096 10.3261 28.0596 10.2926 26.6859C10.416 26.6693 10.5404 26.6604 10.6649 26.6594C11.2976 26.6594 12.0951 26.7919 12.4181 27.3581C12.5466 27.9144 13.3407 30.9013 15.3015 31.6398C15.3674 31.6663 15.43 31.6663 15.5058 31.6663C15.5954 31.6671 15.684 31.6465 15.7642 31.6062C15.8444 31.5659 15.9139 31.507 15.9671 31.4345C16.0397 31.3333 16.0769 31.2108 16.0727 31.0861C16.0685 30.9615 16.0233 30.8417 15.944 30.7457C15.9309 30.7225 14.593 29.0138 14.102 26.5567C13.7773 24.9913 13.8671 23.3676 14.3623 21.8479C14.8632 22.03 15.6738 22.5102 16.1516 23.6062C16.1516 24.4341 16.2406 27.229 17.4895 28.1595C17.5917 28.2257 17.707 28.2621 17.8224 28.2621C17.9377 28.2621 18.053 28.239 18.1585 28.1628C18.2542 28.0942 18.3264 27.9976 18.3654 27.8861C18.4043 27.7747 18.408 27.6539 18.376 27.5402C18.3628 27.5005 17.2951 23.5798 18.3496 19.8577C18.5045 19.2881 18.7615 18.4834 19.2262 17.8775C19.6776 18.1357 20.3993 18.7053 20.6563 19.5696C20.5641 20.6723 20.4092 23.7619 21.7636 24.55C21.8605 24.6072 21.9722 24.634 22.0843 24.6269C22.1965 24.6198 22.304 24.5792 22.393 24.5103C22.4837 24.4416 22.552 24.3471 22.589 24.2392C22.626 24.1312 22.63 24.0146 22.6006 23.9043C22.6006 23.8778 21.6977 20.2054 22.9598 16.7383C23.1904 16.129 23.5661 15.4833 23.9385 15.0296C24.5184 15.5363 25.2138 16.2581 25.4049 16.7913C25.2401 17.5529 24.6601 20.4637 25.5598 22.0035C25.6619 22.1856 25.8563 22.2883 26.0475 22.2883C26.1 22.2858 26.152 22.2769 26.2023 22.2618C26.3257 22.2312 26.4352 22.1596 26.5129 22.0586C26.5907 21.9576 26.6322 21.8332 26.6307 21.7055C26.6307 21.6657 26.6011 17.7748 27.6721 14.7349C27.9334 13.9426 28.3784 13.2242 28.9704 12.6387C29.178 13.1553 29.4318 13.9832 29.4845 15.0428C29.5636 17.0098 29.356 18.7186 29.356 18.7318C29.3387 18.8715 29.3727 19.0128 29.4515 19.1292C29.5304 19.2456 29.6487 19.3291 29.7844 19.3643C29.8338 19.3643 29.8733 19.3775 29.9228 19.3775C30.1534 19.3775 30.3742 19.2351 30.45 19.0033C30.5159 18.8609 31.778 15.4336 30.7861 12.5593C30.1666 10.7612 30.2325 10.5161 30.6049 9.17167L30.6576 9.01603C31.1453 7.21791 34.1572 2.34016 37.7096 0.763916C37.7623 1.25401 37.6601 2.14809 36.8759 3.42962L36.2563 4.37338C34.4538 7.16493 31.4452 11.8109 31.1717 17.3344C30.8619 23.4274 30.7466 24.242 28.8419 25.2355C28.4491 25.4418 28.0502 25.6362 27.6457 25.8183C24.647 27.229 19.0713 29.8417 17.3314 34.4976C15.2751 39.9581 18.0794 44.7432 20.1653 45.7664C21.467 46.3989 22.9993 46.7499 24.5942 46.7499C25.7146 46.7499 26.8482 46.5678 27.8632 46.2433C26.9379 46.6328 26.0644 47.1367 25.2632 47.7433C24.0538 48.7037 22.5874 50.0845 21.8525 52.3893C21.5955 52.5681 20.9002 52.9953 19.8457 52.9953ZM8.60537 51.9356C8.16412 51.9518 7.7249 51.868 7.3202 51.6906C7.48497 51.068 8.06494 49.6971 10.0487 49.0116C10.0335 49.1325 10.0247 49.2541 10.0224 49.3759C10.0224 49.5547 10.1014 49.7103 10.2431 49.8262C10.3091 49.8792 10.9879 50.3958 12.507 50.3958C12.8926 50.3958 13.2913 50.3561 13.7164 50.2932V50.5514C12.4455 51.1436 11.1061 51.5741 9.72907 51.833C9.32704 51.8992 8.95467 51.9323 8.60866 51.9323M55.2439 51.7403C54.5223 51.7403 53.3524 51.5614 51.8696 50.6938C50.7719 50.0378 49.7381 49.2794 48.7818 48.4288C49.5398 48.25 50.1066 47.9387 50.1461 47.9255C50.2444 47.8672 50.3244 47.7823 50.3768 47.6804C50.4427 47.548 50.4822 47.4354 50.5317 47.3062C50.7393 47.6539 51.1644 48.1208 51.9618 48.5977C52.153 48.7136 52.3869 48.8427 52.644 48.9719C53.738 49.5812 55.6691 50.6541 55.8997 51.6873C55.6817 51.7216 55.4647 51.7393 55.2439 51.7403ZM58.1768 48.2368C57.8571 48.2368 57.4946 48.2103 57.1486 48.1705C54.8946 47.899 52.7593 46.9685 51.7542 46.4784C52.5649 46.1803 52.8878 45.7002 52.9405 45.6108C53.1178 45.3067 53.2227 44.9656 53.247 44.614C53.5436 44.9783 54.318 45.6604 56.0282 45.9055C57.3035 46.1042 59.8508 46.4883 60.7405 47.5877C60.355 47.8592 59.5542 48.2368 58.1768 48.2368ZM7.28065 47.187C6.71386 47.187 6.18661 47.1638 5.72197 47.1109C4.2951 46.9453 3.54706 46.2962 3.22742 45.9187C3.62286 45.4816 4.66747 44.6273 6.95771 44.6008C7.34656 45.2101 8.40106 46.3989 10.6913 46.6075L10.5364 46.9552C9.45761 47.1061 8.36987 47.1835 7.28065 47.187ZM57.5869 43.7762C56.3512 43.7762 55.2176 43.71 54.4827 43.6438C54.8287 43.4045 55.1224 43.0969 55.3461 42.7398C55.4788 42.4125 55.5143 42.0537 55.4483 41.7066H55.5537C57.1091 41.7066 60.0189 41.6404 62.0916 41.2099C62.6848 41.084 63.212 41.0178 63.6635 41.0178C64.2797 41.0178 64.6257 41.1503 64.7839 41.2628C64.4873 41.7827 63.6108 42.9053 61.627 43.3987C60.6252 43.6438 59.2609 43.7762 57.5869 43.7762ZM7.51132 42.1702C6.38103 41.8854 2.6738 40.8224 1.15137 38.521C1.48749 38.3157 2.12019 38.0574 3.0956 38.0574C3.83046 38.0574 4.65429 38.1965 5.54402 38.4945C5.61981 39.2064 6.07128 40.5641 8.15722 41.6404C7.92654 41.7927 7.70575 41.9748 7.51132 42.1702ZM24.6964 39.9317C24.6428 39.8533 24.5723 39.7882 24.4901 39.7411C24.408 39.6941 24.3162 39.6664 24.2219 39.6601C24.1682 39.6606 24.1151 39.6501 24.0656 39.6293C24.0161 39.6085 23.9714 39.5779 23.9341 39.5391C23.8968 39.5004 23.8677 39.4545 23.8487 39.4041C23.8296 39.3538 23.8209 39.3 23.8231 39.2462C23.8231 39.1932 23.8363 39.1303 23.8594 39.0641C23.9166 38.9516 23.935 38.8233 23.9118 38.6992C23.8885 38.5752 23.8249 38.4624 23.7309 38.3786C23.6302 38.2837 23.4964 38.2325 23.3585 38.2362C23.242 38.2299 23.1273 38.2664 23.0356 38.3388C22.8242 38.4741 22.6304 38.6354 22.4589 38.819C22.4785 38.6532 22.5115 38.4893 22.5577 38.3289C22.7785 37.5673 23.3717 37.3024 24.235 36.9944C24.5184 36.8918 24.7887 36.8023 25.0193 36.6732C25.2006 36.5672 25.3555 36.4646 25.4807 36.3752C25.4807 36.554 25.5202 36.6964 25.5334 36.7394C25.5603 36.8331 25.6113 36.9179 25.6813 36.9854C25.7514 37.0529 25.8379 37.1005 25.9321 37.1235C25.9849 37.1368 26.0376 37.1368 26.0738 37.1368C26.1678 37.1364 26.2604 37.1137 26.344 37.0706C26.4089 37.1803 26.4827 37.2845 26.5648 37.3818L26.6307 37.4481C26.5121 37.4348 26.3968 37.4348 26.2814 37.4348C25.6134 37.446 24.9501 37.5508 24.3108 37.7461C24.1919 37.7823 24.0877 37.8559 24.0136 37.956C23.9394 38.0562 23.8992 38.1776 23.8989 38.3024C23.9032 38.4286 23.9483 38.5498 24.0274 38.6479C24.1065 38.7459 24.2153 38.8153 24.3372 38.8455C24.4242 38.8701 24.501 38.9218 24.5567 38.9933C24.6124 39.0647 24.644 39.1522 24.647 39.2429C24.647 39.2727 24.647 39.3091 24.6338 39.3488C24.6086 39.443 24.6071 39.5419 24.6296 39.6367C24.652 39.7316 24.6976 39.8193 24.7623 39.8919L24.6964 39.9317ZM26.924 38.9084C26.9462 38.8606 26.9763 38.8169 27.013 38.7793C27.0286 38.8091 27.0418 38.8401 27.0525 38.872L26.924 38.9084ZM57.6495 36.5672C58.0878 35.9977 58.5656 35.2095 58.7963 34.2923V34.2658C59.9299 34.1002 61.6138 33.7359 63.0176 33.1134C64.4478 32.4809 65.4133 32.3385 65.9669 32.3385C66.2239 32.3385 66.4151 32.365 66.5699 32.4147C66.2734 33.1531 65.3606 34.7327 62.721 35.5738C61.0726 36.0938 59.3716 36.427 57.6495 36.5672ZM6.63807 36.4911C5.54402 35.8818 1.96531 33.6697 1.72146 30.7854C1.87797 30.7568 2.0369 30.7435 2.19599 30.7457C3.0989 30.7457 4.51259 31.1232 6.17343 32.8551C6.28877 33.3485 6.70068 34.7426 7.93643 36.0109C7.48826 36.0904 7.02362 36.2427 6.63807 36.4911ZM57.7286 32.7392C58.3338 32.0737 58.7473 31.2552 58.9248 30.3715C59.6729 29.9741 61.8577 28.782 63.2615 27.8217C64.7048 26.8548 65.6176 26.6461 66.135 26.6461C66.1858 26.6444 66.2367 26.6488 66.2866 26.6594C66.0954 27.4475 65.3869 29.143 62.8627 30.6166C61.2446 31.5333 59.5203 32.2463 57.7286 32.7392ZM7.12577 30.5669C6.41728 29.4278 4.55213 26.0633 5.01677 23.0764C5.80106 23.2718 7.4619 24.0069 8.60866 26.9044C8.59548 27.3184 8.61855 28.5866 9.18534 30.2159C8.48414 30.2167 7.78801 30.3353 7.12577 30.5669ZM57.7286 28.8085C57.4851 28.7052 57.2353 28.6179 56.9806 28.5469C57.4716 27.8515 58.0351 26.7753 58.1669 25.3282C58.7601 24.8745 60.4835 23.4903 61.5281 22.5068C61.6851 22.359 61.8389 22.2077 61.9895 22.0532C62.9122 21.1359 63.881 20.1921 65.0146 20.01C65.0805 20.6955 64.9618 22.2221 63.301 24.242C61.6138 26.2951 58.6151 28.2489 57.7286 28.8085ZM12.161 25.0931C11.6061 24.9445 11.0349 24.8667 10.4606 24.8613C10.3453 24.8613 10.2431 24.8613 10.1245 24.8745C9.76533 22.7155 9.30068 18.2649 10.3189 16.0661C11.0274 16.5827 12.3785 17.9271 12.8036 20.8246C12.5598 21.2915 12.1215 22.5168 12.161 25.0931ZM56.9443 23.7387C56.5463 23.5821 56.1299 23.4774 55.7053 23.4274C56.1623 22.3703 56.3947 21.2288 56.3874 20.0762C56.7367 19.712 57.521 18.8841 57.9461 18.3046C58.1669 18.0563 59.6333 16.48 60.5198 15.225C61.1788 14.2945 61.8972 13.9964 62.4146 13.917C62.5299 14.6455 62.5793 16.2482 61.3699 18.2252C59.9431 20.5663 57.7121 22.934 56.941 23.7354M16.356 21.0068C15.8473 20.5314 15.241 20.1742 14.5798 19.9603C14.5534 18.6788 14.6061 14.8872 15.7002 12.2513C15.9309 11.6685 16.4087 10.8936 16.9755 10.3207C17.4632 11.0724 18.3397 12.9103 18.1321 16.4138C17.7598 16.8807 16.7679 18.3278 16.356 21.0068ZM53.2338 18.9371C53.504 18.0198 53.8533 16.6622 53.827 15.6257C54.1763 15.1091 55.2044 13.5693 55.6394 12.0957C55.7712 11.7976 56.9312 9.31405 59.0533 8.94979C59.1192 9.66176 59.0401 11.3672 57.5375 14.4998C56.2721 17.139 55.412 18.4338 55.066 18.9106C54.795 18.8933 54.5236 18.8845 54.2521 18.8841C53.8797 18.8841 53.5304 18.8974 53.2338 18.9371ZM21.0683 17.0761C20.705 16.6939 20.282 16.374 19.816 16.129C19.9742 14.5793 20.6827 9.13193 23.2036 6.57218C23.6023 7.03579 24.1922 8.11201 23.8857 10.2479C23.7836 10.5691 23.2036 12.4036 23.0487 13.4136C22.6533 13.8275 21.6318 15.0429 21.0683 17.0761ZM25.8794 14.4501C25.5706 14.0545 25.2026 13.7093 24.7887 13.4269C25.0325 12.3275 25.7674 9.27431 26.9108 6.79073C27.85 4.73433 29.01 3.8303 29.5899 3.47929C29.8601 3.94289 30.2325 4.85023 30.2193 6.05228C29.8569 6.60861 28.6738 8.61534 28.4695 10.7214C27.2582 11.6789 26.3545 12.9768 25.8794 14.4501Z" fill="#9C2130"/>
<path d="M27.1053 36.0109C27.1053 36.0109 27.4678 35.8189 28.5585 35.7129C28.5585 35.7129 28.3938 36.7494 27.8006 36.8255C27.2075 36.9183 27.0526 36.3222 27.1053 36.0109Z" fill="#9C2130"/>
<path d="M27.1053 36.0109C27.1053 36.0109 27.4678 35.8189 28.5586 35.7129C28.5586 35.7129 28.3938 36.7494 27.8007 36.8255C27.2075 36.9183 27.0526 36.3222 27.1053 36.0109ZM48.5611 98.7727C48.3435 98.7731 48.128 98.8166 47.9271 98.9007C47.7261 98.9848 47.5437 99.1079 47.39 99.2629C47.0798 99.5759 46.906 99.9999 46.9069 100.442C46.9078 100.883 47.0832 101.307 47.3947 101.618C47.7062 101.93 48.1281 102.105 48.5677 102.104C49.0073 102.103 49.4286 101.927 49.7388 101.614C50.0491 101.301 50.2228 100.877 50.222 100.435C50.2211 99.9933 50.0456 99.5699 49.7342 99.2582C49.4227 98.9464 49.0007 98.7718 48.5611 98.7727ZM48.5611 101.786C48.3846 101.785 48.2099 101.749 48.0472 101.68C47.8845 101.611 47.7369 101.511 47.6129 101.385C47.3623 101.13 47.2227 100.785 47.2249 100.427C47.2271 100.068 47.3708 99.7256 47.6245 99.4738C47.8782 99.222 48.221 99.0818 48.5776 99.084C48.9346 99.0862 49.2762 99.2308 49.5271 99.486C49.778 99.7412 49.9177 100.086 49.9155 100.445C49.9133 100.804 49.7694 101.147 49.5154 101.399C49.2614 101.651 48.9181 101.788 48.5611 101.786ZM48.95 100.455V100.442C49.0503 100.405 49.137 100.338 49.1988 100.251C49.2606 100.163 49.2945 100.059 49.296 99.9516C49.2987 99.8733 49.2839 99.7954 49.2525 99.7237C49.2211 99.6521 49.174 99.5885 49.1147 99.5376C48.973 99.435 48.7687 99.382 48.4722 99.382C48.2415 99.382 48.0207 99.4085 47.879 99.435V101.375H48.3305V100.597H48.4623C48.6402 100.611 48.7292 100.677 48.7819 100.922C48.8096 101.077 48.8526 101.229 48.9104 101.375H49.3718C49.3355 101.296 49.2729 101.038 49.207 100.819C49.1675 100.637 49.0752 100.508 48.95 100.455ZM48.4985 100.276H48.3338V99.733C48.3568 99.733 48.4194 99.7197 48.5249 99.7197C48.7292 99.7197 48.8445 99.8092 48.8445 99.9913C48.8445 100.17 48.716 100.276 48.4985 100.276ZM30.4896 71.195C30.1799 73.407 29.847 74.0031 29.847 74.0031C29.847 74.0031 29.333 71.7911 20.7454 72.2447C10.7046 72.7746 1.47438 73.6786 1.16792 68.5326C1.16792 68.5326 1.10201 66.9001 2.58491 64.4695C3.1484 63.5754 3.89644 62.7608 4.82243 62.3601C5.10582 63.3303 6.26577 64.986 10.7968 64.8436C17.1897 64.6251 30.5028 63.5787 30.605 68.4134C30.605 68.4134 30.6445 70.1486 30.4896 71.195ZM6.68757 66.3437C5.91647 66.2278 5.4024 67.006 5.2607 67.9763C5.119 68.9465 5.30024 69.8505 6.11089 69.9797C6.77984 70.0691 7.33016 69.6055 7.52788 68.2577C7.64321 67.4564 7.55094 66.4762 6.68757 66.3437ZM6.57223 66.9398C6.89517 66.9928 6.89517 67.5756 6.8029 68.1981C6.68757 68.9068 6.50633 69.4101 6.22623 69.3737C5.94283 69.334 5.85386 68.9068 5.96919 68.0922C6.08453 67.3305 6.30202 66.9001 6.57223 66.9398ZM7.94967 66.5656L7.77173 68.7776C7.70583 69.6717 7.94968 70.2115 8.69442 70.2678C9.37984 70.3307 9.76539 69.8506 9.84119 68.9333L10.0092 66.7345L9.32712 66.6815L9.13599 68.9995C9.09644 69.5393 8.94157 69.6684 8.73726 69.6552C8.55602 69.6452 8.41431 69.4763 8.45385 68.9465L8.64499 66.6153L7.94967 66.5656ZM10.319 70.3406L11.011 70.3671L11.067 68.9333H11.1659C11.3999 68.9465 11.502 69.0757 11.5548 69.5293C11.5943 69.9168 11.6569 70.2777 11.6964 70.3804L12.4313 70.4069C12.3338 70.0857 12.2644 69.7566 12.2237 69.4234C12.171 69.0492 12.0589 68.8174 11.8118 68.6982C11.9823 68.6236 12.1277 68.5011 12.2306 68.3454C12.3335 68.1897 12.3895 68.0075 12.3918 67.8206C12.4049 67.5094 12.3522 67.2643 12.1347 67.059C11.9139 66.8371 11.5811 66.7709 11.1956 66.761C10.9253 66.761 10.6551 66.7709 10.4376 66.8106L10.319 70.3406ZM11.1165 67.3272C11.156 67.314 11.2186 67.304 11.2845 67.314C11.5943 67.3272 11.7096 67.5458 11.6964 67.8604C11.6833 68.1683 11.502 68.4035 11.1956 68.4035L11.0769 68.3902L11.1165 67.3272ZM13.6539 70.4069L14.3459 70.3936L14.3228 69.0624H14.4645C14.6253 69.0624 14.7845 69.0302 14.9327 68.9677C15.0809 68.9051 15.2153 68.8135 15.3279 68.6982C15.4296 68.5802 15.5069 68.4429 15.555 68.2945C15.6031 68.1461 15.6211 67.9894 15.608 67.8339C15.608 67.5359 15.5091 67.2378 15.2883 67.0557C15.0577 66.8371 14.7347 66.7842 14.3228 66.7974C14.0526 66.7974 13.7956 66.8371 13.6011 66.8769L13.6539 70.4069ZM14.2965 67.3935C14.3469 67.3657 14.4038 67.352 14.4612 67.3537C14.7842 67.3537 14.916 67.5855 14.9259 67.91C14.9259 68.2478 14.7743 68.4929 14.425 68.5061C14.3854 68.5061 14.3492 68.5061 14.3228 68.4929L14.2965 67.3935ZM16.0759 70.3539L16.7679 70.3307L16.702 68.8935H16.8075C17.0382 68.8803 17.1535 68.9962 17.2326 69.4499C17.3084 69.8373 17.3973 70.2016 17.4501 70.291L18.1717 70.2645C18.059 69.9524 17.9687 69.6325 17.9015 69.3075C17.8093 68.92 17.6807 68.6982 17.4402 68.6121C17.6066 68.5243 17.7429 68.3884 17.8316 68.2219C17.9203 68.0555 17.9573 67.8661 17.9378 67.6782C17.9279 67.367 17.862 67.1352 17.6313 66.953C17.3875 66.7477 17.0513 66.708 16.6658 66.7212C16.4139 66.7336 16.1637 66.768 15.9178 66.8239L16.0759 70.3539ZM16.6262 67.2908C16.6796 67.2739 16.7351 67.265 16.791 67.2643C17.1041 67.2643 17.2458 67.4696 17.2556 67.7677C17.2688 68.0922 17.1041 68.3372 16.8075 68.3505L16.6757 68.3637L16.6262 67.2908ZM18.4683 66.6682L18.5573 70.2512L19.2493 70.2247L19.1636 66.6418L18.4683 66.6682ZM19.8688 70.2016C20.0105 70.2115 20.2313 70.238 20.4356 70.238C20.9398 70.238 21.299 70.1353 21.5297 69.9035C21.8526 69.632 22.0338 69.1121 22.047 68.3902C22.047 67.6915 21.8921 67.2113 21.5824 66.9398C21.3517 66.7212 21.042 66.6153 20.5938 66.6153C20.3203 66.6153 20.0633 66.6418 19.882 66.6815L19.8688 70.2016ZM20.5773 67.1881C20.63 67.1716 20.6696 67.1716 20.719 67.1716C21.1309 67.1716 21.3254 67.6253 21.3254 68.3637C21.3122 69.3472 21.0288 69.6684 20.6927 69.6684C20.6564 69.6684 20.6037 69.6684 20.5641 69.6552L20.5773 67.1881ZM24.0934 68.1683L23.2696 68.1319L23.319 67.304L24.1692 67.3537L24.2088 66.7477L22.6632 66.6682L22.4688 70.238L24.0802 70.3307L24.1165 69.7214L23.1938 69.6684L23.2432 68.7114L24.0539 68.7512L24.0934 68.1683Z" fill="#9C2130"/>
</g>
<defs>
<clipPath id="clip0_32_610">
<rect width="76" height="104" fill="white"/>
</clipPath>
</defs>
</svg>
