<svg width="23" height="24" viewBox="0 0 23 24" fill="none" xmlns="http://www.w3.org/2000/svg">
<g clip-path="url(#clip0_52_571)">
<path d="M21.4477 5.68638L20.6833 5.73588L20.6122 5.73984C19.3463 5.79782 18.1918 5.00052 17.8049 3.80117C17.7366 3.58974 17.7047 3.3783 17.7094 3.17189C17.7119 3.06559 17.7246 2.95867 17.7472 2.85443L17.8449 2.40847L17.4281 2.0775C16.4498 1.30342 14.3922 0.00530118 11.6078 0C8.82066 0.00530118 6.76276 1.30342 5.7845 2.07745C5.78428 2.07745 5.36469 2.41109 5.36469 2.41109L5.46521 2.85438C5.48801 2.95867 5.50097 3.06553 5.50355 3.17183C5.508 3.37825 5.47587 3.58968 5.40765 3.80111C5.02085 5.00085 3.86611 5.79782 2.60021 5.73984L1.76965 5.68984V6.66185C1.76965 7.61065 1.86578 10.961 3.11592 14.2198C4.57594 18.0243 7.06656 21.0912 10.5199 23.3348C10.7592 23.4902 11.0015 23.6407 11.2468 23.7862L11.6062 24.0001L11.9661 23.7862C12.2113 23.6406 12.4537 23.4901 12.6931 23.3348C16.1459 21.0912 18.637 18.0243 20.0968 14.2198C21.3471 10.961 21.4446 7.61065 21.4446 6.66185L21.4477 5.68638Z" fill="#FABF00"/>
<path d="M11.6063 0.724609C9.06725 0.729129 7.18505 1.88825 6.22229 2.64933C8.34501 6.6179 10.7495 16.4308 10.9037 22.7237C11.1349 22.8743 11.3691 23.02 11.6063 23.1608C11.8435 23.0201 12.0778 22.8744 12.3091 22.7237C12.4633 16.4308 14.8679 6.6179 16.9905 2.64933C16.0281 1.88819 14.1457 0.729129 11.6063 0.724609Z" fill="#DC5310"/>
<path d="M20.7317 6.45854C20.7027 6.46038 20.6739 6.4625 20.6446 6.46356C19.0553 6.5365 17.6075 5.51471 17.1276 4.02697C17.0324 3.73167 16.9902 3.4386 16.9964 3.15535C17 2.99682 17.019 2.8442 17.0513 2.69755C17.0317 2.68142 17.0109 2.66541 16.9905 2.64928C14.8678 6.61786 12.4632 16.4308 12.3091 22.7237C15.63 20.5664 18.0263 17.6207 19.4326 13.9565C20.592 10.9347 20.7317 7.7623 20.7317 6.66188C20.7317 6.626 20.7314 6.5918 20.7309 6.55915C20.7315 6.52383 20.7317 6.49035 20.7317 6.45854ZM6.16134 2.69749C6.19442 2.84789 6.21285 3.00123 6.21637 3.15529C6.2228 3.43854 6.18056 3.73161 6.08548 4.02692C5.60553 5.51465 4.15765 6.53644 2.56805 6.46351C2.53911 6.46245 2.51005 6.46033 2.48132 6.45849C2.48132 6.49029 2.4816 6.52377 2.4816 6.55904C2.4816 6.59168 2.48132 6.62589 2.48132 6.66177C2.48132 7.76219 2.62073 10.9346 3.78035 13.9564C5.18621 17.6206 7.5828 20.5663 10.9036 22.7236C10.7495 16.4307 8.34497 6.61774 6.22225 2.64917C6.20176 2.66535 6.18106 2.68142 6.16134 2.69749Z" fill="#00615A"/>
<path d="M10.5368 16.2915V15.7879H11.2248V15.0396L11.6094 15.2549V16.6364L12.0963 17.1461H13.6356L14.1222 16.6364V13.6498L13.6532 13.1746H12.0778L11.6117 13.6477L11.2116 13.1738H8.62817L9.14883 13.8914V17.146H11.0714L10.5368 16.2915Z" fill="#002928"/>
<path d="M15.6829 13.0888C15.6829 13.0888 15.8941 11.5096 16.0511 10.3294V12.6468L16.5771 13.296L18.2344 13.7296C18.2344 13.7296 18.9615 13.2926 18.9647 13.291V13.9429L22.3755 15.5157L23.0001 7.30831H18.536L18.6649 7.59446C18.52 7.47125 18.3503 7.32616 18.3503 7.32616H16.6339L16.4267 7.50886L16.4528 7.31612H10.5725L9.94177 7.741V7.30055L6.6864 7.29419C6.6864 7.29419 6.93676 8.12067 6.94395 8.14562V10.8847C6.75116 9.62972 6.39375 7.3082 6.39375 7.3082H4.36578C4.36578 7.3082 4.6586 8.1493 4.67255 8.18875C4.6681 8.22117 4.37429 10.3044 4.18463 11.652V10.3252L4.20094 10.3234C4.20094 10.3234 4.19501 10.3205 4.18468 10.3158V8.02977L3.62443 7.30814H0.872024L0 8.11487L0.876419 14.9009L1.92058 15.3788L3.90736 14.2095L7.10181 13.1755L9.94177 12.755V12.3536L10.5919 12.8125H12.1523L12.8499 12.3204V9.70405L13.1823 12.7983L15.6829 13.0888Z" fill="#002928"/>
<path d="M13.8333 15.5611V16.3708L13.5133 16.7065H12.2186L11.898 16.3708V13.6252L12.1973 13.3214H13.5338L13.8333 13.6252V14.8863L13.2028 14.5233V13.8742H12.5311V16.1329H13.201V15.2083L13.8333 15.5611ZM11.0765 13.3206H9.19336L9.43746 13.6634V16.7042H10.3693L10.069 16.2267V15.3615H10.9364V14.8054H10.069V13.8746H10.765V14.3061L11.3976 14.6641V13.7126L11.0765 13.3206Z" fill="#EFEFF0"/>
<path d="M6.06755 7.5267H4.89804C4.89804 7.5267 5.05481 7.97713 5.06129 7.99521C5.05816 8.01502 4.29319 13.4428 4.29319 13.4428L5.53059 13.0638C5.53059 13.0638 5.30621 12.682 5.29456 12.6623C5.29583 12.6396 5.32692 12.1241 5.33005 12.0706C5.37877 12.0606 5.89651 11.9514 5.9605 11.938C5.97275 12.0109 6.11655 12.9016 6.11655 12.9016L7.07849 12.5896C7.07849 12.5896 6.8072 12.2616 6.79397 12.2458C6.79084 12.2237 6.06755 7.5267 6.06755 7.5267ZM5.8434 11.2332C5.78814 11.2424 5.47148 11.2954 5.39794 11.3069C5.40645 11.2232 5.57079 9.61777 5.62391 9.091C5.67757 9.6147 5.83691 11.1717 5.8434 11.2332ZM8.86945 7.92524V9.78919C8.75102 9.38608 8.20137 7.5127 8.20137 7.5127H7.19603C7.19603 7.5127 7.3205 7.92289 7.32385 7.93445V12.5678L8.20752 12.4385C8.20752 12.4385 8.01417 12.0276 8.00692 12.0118V9.546L8.88384 12.3774L9.56202 12.2763V7.51906H8.74388C8.74394 7.51906 8.86555 7.91425 8.86945 7.92524ZM15.0424 7.5267C15.0424 7.5267 15.1611 7.91369 15.1653 7.9292C15.1642 7.94287 15.0261 9.31688 14.9761 9.81759C14.9186 9.2892 14.7276 7.53217 14.7276 7.53217H14.2582L13.982 9.77758C13.9318 9.27548 13.7566 7.52665 13.7566 7.52665H12.8235C12.8235 7.52665 13.0484 7.90599 13.0569 7.9205L13.5278 12.3052L14.1599 12.38C14.1599 12.38 14.3928 10.8965 14.4516 10.5213C14.5079 10.8996 14.736 12.4437 14.736 12.4437L15.3593 12.5114L16.0206 7.52665H15.0424V7.5267ZM22.5506 7.5267H21.2402C21.2402 7.5267 21.4272 8.24191 21.4309 8.2538C21.4301 8.26591 21.2918 10.7565 21.2664 11.2106C21.1648 10.7503 20.454 7.52665 20.454 7.52665H19.1201C19.1201 7.52665 19.337 8.00866 19.3442 8.02423V13.5495L20.2995 13.9975L20.1813 13.3675C20.1813 13.3675 20.1821 10.645 20.1821 10.0753C20.3084 10.6585 21.1078 14.3556 21.1078 14.3556L22.0384 14.7884L22.5911 7.52665H22.5506V7.5267ZM16.7686 7.54724L16.4307 7.8513V12.359L16.7953 12.8087L18.1752 13.1699L18.6195 12.9027V7.89472L18.2089 7.54724H16.7686ZM17.2245 8.28963H17.7749V12.2668C17.7037 12.2535 17.2763 12.1752 17.2253 12.1666L17.2245 8.28963ZM11.0786 11.557V8.24331H11.663V9.04362L12.4702 9.49377V7.81598L12.0576 7.54188H10.6878L10.2737 7.81598V11.9707L10.7131 12.2814H12.0303L12.4701 11.9707V9.74259L11.0913 9.74153L11.3996 10.4389H11.6626V11.557H11.0786V11.557ZM3.80439 10.1915V8.00024L3.43725 7.5267H1.022L0.400879 8.10113L1.22649 14.4915L1.89819 14.7987L3.59402 13.801L3.80444 13.203V10.4592L1.9317 10.6367L2.45774 11.5379L2.87365 11.4781V13.1833C2.7104 13.2533 2.18167 13.4798 2.10708 13.5116C2.09989 13.4029 1.78263 8.55876 1.77746 8.47427H2.87705V9.59137L3.80439 10.1915Z" fill="#EFEFF0"/>
<path d="M8.42574 18.4089H8.14325V18.3094C8.14325 18.2462 8.14061 18.2067 8.13523 18.1909C8.12979 18.1749 8.11738 18.1667 8.09761 18.1667C8.08052 18.1667 8.06882 18.1738 8.06262 18.187C8.05668 18.2007 8.05355 18.2357 8.05355 18.292V18.8204C8.05355 18.8696 8.05668 18.9026 8.06262 18.9181C8.06882 18.9336 8.08102 18.9415 8.09914 18.9415C8.11941 18.9415 8.13287 18.9326 8.1399 18.9149C8.1471 18.8973 8.15078 18.8628 8.15078 18.8114V18.6806H8.09607V18.5139H8.42574V19.1047H8.24772L8.22152 19.0259C8.20235 19.0602 8.17769 19.0858 8.14896 19.1029C8.11991 19.1197 8.08574 19.1278 8.04581 19.1278C7.99942 19.1281 7.95373 19.1163 7.91316 19.0934C7.87196 19.0697 7.8406 19.0407 7.81934 19.0065C7.79864 18.9735 7.78488 18.9364 7.77892 18.8978C7.7737 18.8599 7.77112 18.8031 7.77112 18.7274V18.3999C7.77112 18.2949 7.77683 18.2183 7.78771 18.1704C7.79913 18.1229 7.83099 18.0795 7.88383 18.0395C7.937 18 8.00516 17.98 8.08887 17.98C8.17148 17.98 8.23992 17.9974 8.29485 18.0319C8.34923 18.0664 8.38449 18.1075 8.40086 18.1546C8.41745 18.2025 8.42574 18.2712 8.42574 18.3612V18.4089ZM8.95233 18.2078C8.96474 18.2191 8.97073 18.2417 8.97073 18.2767V18.3373C8.97073 18.3863 8.96452 18.4147 8.9515 18.4233C8.93903 18.4323 8.91706 18.4365 8.88543 18.4365V18.1914C8.91789 18.1914 8.94019 18.197 8.95233 18.2078ZM8.60299 19.1048H8.88548V18.608C8.92431 18.608 8.94815 18.6151 8.95727 18.6293C8.96606 18.6436 8.97078 18.6798 8.97078 18.7391V19.1048H9.23196V18.8146C9.23196 18.7257 9.22938 18.6715 9.22499 18.6517C9.22037 18.6317 9.20818 18.6104 9.18895 18.5867C9.16951 18.5631 9.13249 18.544 9.07679 18.5301C9.1382 18.524 9.1794 18.5066 9.2006 18.4772C9.22142 18.4477 9.23196 18.3895 9.23196 18.3044C9.23196 18.2102 9.21746 18.1415 9.18736 18.0991C9.15759 18.0562 9.11953 18.0293 9.07229 18.0188C9.02538 18.0083 8.93546 18.0033 8.8026 18.0033H8.60299V19.1048ZM9.40993 18.0032H9.87955V18.2238H9.69269V18.4323H9.86741V18.6418H9.69269V18.8844H9.89927V19.1047H9.40998L9.40993 18.0032ZM10.2903 18.7117C10.2983 18.6143 10.3162 18.46 10.344 18.2481C10.3587 18.4324 10.3727 18.5868 10.3863 18.7117H10.2903ZM10.1278 18.0032L9.98452 19.1047H10.2761L10.2917 18.9073H10.395L10.4106 19.1047H10.6977L10.5358 18.0032H10.1278ZM11.3058 18.0032V18.2238H11.139V19.1047H10.8561V18.2238H10.6891V18.0032H11.3058ZM12.3893 18.0032V18.7398C12.3893 18.823 12.3868 18.8817 12.3813 18.9154C12.3762 18.9491 12.3604 18.9839 12.3337 19.0196C12.3073 19.0552 12.2725 19.082 12.2295 19.1004C12.1866 19.1188 12.1355 19.1278 12.0772 19.1278C12.0122 19.1278 11.9551 19.1173 11.9054 19.0954C11.8559 19.0733 11.8189 19.0452 11.7942 19.0104C11.7699 18.9754 11.7551 18.9386 11.7509 18.8995C11.7463 18.8609 11.7437 18.7793 11.7437 18.655V18.0031H12.0262V18.8293C12.0262 18.8772 12.029 18.9082 12.0342 18.9212C12.0391 18.9346 12.0498 18.9414 12.0651 18.9414C12.0829 18.9414 12.0944 18.9338 12.0993 18.9194C12.1045 18.9045 12.1071 18.8695 12.1071 18.8148V18.0031H12.3893V18.0032ZM13.1974 18.0032V19.1047H12.9496L12.8021 18.6042V19.1047H12.5671V18.0032H12.804L12.9617 18.4994V18.0032H13.1974ZM13.6604 18.0032V19.1047H13.3779V18.0032H13.6604ZM14.2031 18.7925C14.2031 18.8575 14.2002 18.8983 14.1951 18.9154C14.1899 18.9329 14.1777 18.9415 14.1591 18.9415C14.1407 18.9415 14.129 18.9339 14.1236 18.9192C14.1189 18.9041 14.1163 18.8647 14.1163 18.8007V18.2865C14.1163 18.2299 14.1202 18.1957 14.128 18.1844C14.1355 18.1725 14.1464 18.1668 14.161 18.1668C14.178 18.1668 14.1895 18.1738 14.1949 18.1883C14.2003 18.2026 14.2031 18.2352 14.2031 18.2866V18.7925H14.2031ZM14.4856 18.46C14.4856 18.3465 14.483 18.267 14.4773 18.222C14.472 18.1762 14.4546 18.1326 14.427 18.0958C14.3991 18.0572 14.362 18.0285 14.3159 18.0089C14.2698 17.9894 14.2174 17.98 14.1599 17.98C14.0985 17.98 14.0453 17.9905 13.9992 18.0108C13.9531 18.0311 13.9168 18.0603 13.8901 18.0984C13.8633 18.1354 13.8466 18.1789 13.8417 18.2246C13.8367 18.2707 13.8337 18.3493 13.8337 18.4599V18.6482C13.8337 18.7616 13.8368 18.8409 13.8422 18.8867C13.8471 18.932 13.8641 18.974 13.8919 19.0123C13.9205 19.0512 13.9591 19.0813 14.0036 19.0991C14.0495 19.1184 14.1019 19.1278 14.1599 19.1278C14.2207 19.1278 14.2742 19.1176 14.3205 19.0974C14.3662 19.077 14.4029 19.0477 14.4299 19.0097C14.4566 18.9717 14.4723 18.9296 14.4778 18.8835C14.4831 18.8375 14.4856 18.7591 14.4856 18.6482V18.46H14.4856ZM15.2894 18.0032V19.1047H15.0419L14.8944 18.6042V19.1047H14.6592V18.0032H14.8963L15.0538 18.4994V18.0032H15.2894ZM10.6158 20.5506V20.7389H10.0221V20.5817C10.198 20.2884 10.3022 20.107 10.3354 20.0373C10.3685 19.968 10.3854 19.9135 10.3854 19.8743C10.3854 19.8443 10.3799 19.8224 10.3704 19.8074C10.3601 19.7927 10.345 19.7851 10.3245 19.7851C10.3038 19.7851 10.2885 19.7933 10.2782 19.8098C10.2683 19.8261 10.2634 19.8588 10.2634 19.9072V20.0123H10.0221V19.9717C10.0221 19.9103 10.0247 19.8613 10.0309 19.8256C10.0375 19.79 10.0527 19.755 10.0773 19.7206C10.1018 19.6862 10.1348 19.6591 10.173 19.6421C10.2121 19.6245 10.2592 19.6157 10.3139 19.6157C10.4212 19.6157 10.5023 19.6426 10.5572 19.6969C10.6127 19.7511 10.6402 19.8197 10.6402 19.9027C10.6402 19.9659 10.6246 20.0324 10.5938 20.1031C10.5627 20.1731 10.4717 20.3223 10.3203 20.5506H10.6158ZM11.1584 20.4634C11.1584 20.5175 11.1553 20.5522 11.1488 20.5677C11.1426 20.5827 11.1294 20.5906 11.1094 20.5906C11.0892 20.5906 11.076 20.584 11.0703 20.5708C11.0643 20.558 11.061 20.5192 11.061 20.4553V19.9176C11.061 19.8606 11.0646 19.8245 11.0709 19.8089C11.0776 19.7929 11.0905 19.7849 11.1108 19.7849C11.1311 19.7849 11.1444 19.7926 11.1499 19.8073C11.1556 19.8224 11.1584 19.8587 11.1584 19.9176L11.1584 20.4634ZM11.4165 19.8271C11.4085 19.7898 11.3924 19.7547 11.3694 19.7245C11.3458 19.6942 11.3109 19.6684 11.2639 19.6471C11.217 19.626 11.1639 19.6156 11.1051 19.6156C11.032 19.6156 10.9701 19.631 10.919 19.6612C10.868 19.6915 10.8338 19.732 10.8167 19.7826C10.7993 19.8326 10.791 19.9082 10.791 20.0098V20.3946C10.791 20.4724 10.7961 20.5289 10.8068 20.5644C10.8178 20.6 10.8358 20.634 10.8613 20.6666C10.8864 20.6987 10.9206 20.7224 10.9637 20.7375C11.0061 20.753 11.06 20.7603 11.125 20.7603C11.174 20.7603 11.2183 20.7532 11.2577 20.7388C11.2973 20.7244 11.3326 20.6997 11.3599 20.6672C11.3881 20.634 11.4063 20.5985 11.4153 20.5603C11.4242 20.522 11.4288 20.461 11.4288 20.3776V20.0098C11.4287 19.9261 11.4246 19.8654 11.4165 19.8271ZM11.962 20.4634C11.962 20.5175 11.9589 20.5522 11.9527 20.5677C11.9465 20.5827 11.9332 20.5906 11.913 20.5906C11.8928 20.5906 11.8801 20.584 11.8739 20.5708C11.8679 20.558 11.8648 20.5192 11.8648 20.4553V19.9176C11.8648 19.8606 11.8682 19.8245 11.8744 19.8089C11.8809 19.7929 11.8943 19.7849 11.9144 19.7849C11.9351 19.7849 11.9483 19.7926 11.954 19.8073C11.9589 19.8224 11.962 19.8587 11.962 19.9176L11.962 20.4634ZM12.2199 19.8271C12.2119 19.7898 12.1958 19.7547 12.1727 19.7245C12.1497 19.6942 12.1147 19.6684 12.0675 19.6471C12.0209 19.626 11.968 19.6156 11.9087 19.6156C11.8356 19.6156 11.7736 19.631 11.7223 19.6612C11.6715 19.6915 11.6373 19.732 11.6202 19.7826C11.6028 19.8326 11.5945 19.9082 11.5945 20.0098V20.3946C11.5945 20.4724 11.5998 20.5289 11.6106 20.5644C11.621 20.6 11.6391 20.634 11.6647 20.6666C11.6902 20.6987 11.7244 20.7224 11.7671 20.7375C11.8099 20.753 11.8638 20.7603 11.9288 20.7603C11.9775 20.7603 12.022 20.7532 12.0612 20.7388C12.1008 20.7243 12.1361 20.6996 12.1635 20.6672C12.1916 20.634 12.21 20.5985 12.219 20.5603C12.2278 20.522 12.2325 20.461 12.2325 20.3776V20.0098C12.2326 19.9261 12.2279 19.8654 12.2199 19.8271ZM12.9131 20.1146C12.953 20.1312 12.9835 20.1554 13.0051 20.1878C13.0268 20.2205 13.0372 20.2976 13.0372 20.4198C13.0372 20.5082 13.029 20.5743 13.0118 20.6164C12.995 20.6586 12.9618 20.6928 12.9131 20.7201C12.8641 20.7467 12.7983 20.7604 12.7156 20.7604C12.6352 20.7604 12.5715 20.7475 12.5249 20.7217C12.478 20.6957 12.4442 20.6615 12.4238 20.619C12.4036 20.5764 12.3935 20.5056 12.3935 20.4058C12.3935 20.3393 12.3989 20.2815 12.4084 20.2326C12.4188 20.1833 12.4508 20.1439 12.504 20.1147C12.4706 20.0987 12.446 20.0726 12.4289 20.0367C12.4126 20.0012 12.4041 19.9557 12.4041 19.9007C12.4041 19.8057 12.4297 19.7343 12.4816 19.6869C12.5333 19.6395 12.6101 19.6158 12.7129 19.6158C12.8313 19.6158 12.9136 19.6411 12.9589 19.6914C13.0043 19.7419 13.0268 19.8135 13.0268 19.9078C13.0268 19.9671 13.0195 20.0099 13.0045 20.0363C12.9898 20.0628 12.9595 20.0888 12.9131 20.1146ZM12.7607 19.8774C12.7607 19.8401 12.7578 19.8153 12.7514 19.8032C12.7451 19.7913 12.7327 19.785 12.7148 19.785C12.6972 19.785 12.6853 19.7916 12.6793 19.8045C12.6731 19.8179 12.67 19.8419 12.67 19.8775V19.9612C12.67 19.9944 12.6734 20.0173 12.6806 20.0301C12.6873 20.0428 12.6995 20.0492 12.7161 20.0492C12.7336 20.0492 12.7456 20.0431 12.7518 20.0304C12.758 20.018 12.7607 19.9922 12.7607 19.9532L12.7607 19.8774ZM12.767 20.336C12.767 20.2939 12.7631 20.2655 12.7543 20.2521C12.746 20.2381 12.7325 20.2313 12.7143 20.2313C12.6964 20.2313 12.6837 20.2379 12.6757 20.251C12.6677 20.2645 12.664 20.2926 12.664 20.336V20.4785C12.664 20.5262 12.6685 20.5567 12.677 20.5704C12.6858 20.5841 12.6995 20.5906 12.7182 20.5906C12.7377 20.5906 12.7509 20.5839 12.7571 20.5699C12.7638 20.5564 12.767 20.525 12.767 20.4764V20.336Z" fill="#FABF00"/>
<path d="M13.8598 1.83248L13.6035 1.48785L12.9336 1.49186L12.2948 1.40186H11.8872L11.5728 1.44605L11.3048 1.49789L10.8195 1.84381L10.8091 1.71535L11.011 1.49025L10.5782 1.48785L10.3219 1.83248L10.5093 2.21372L10.3312 2.84138L10.5438 3.74018L11.1224 4.21299L11.3245 4.48028L11.6793 3.56875L11.926 4.54523H12.3401L12.231 4.8517H11.9139L11.4083 4.63027L11.677 4.95856L11.9525 5.04226H12.2294L12.5045 4.95856L13.0595 4.21299L13.6538 3.74018L13.851 2.84138L13.6721 2.21372L13.8598 1.83248ZM11.3445 3.26943L11.3149 3.14271L11.6122 3.20911L11.6425 3.46842L11.3445 3.26943ZM12.812 3.27072L12.5143 3.47004L12.5446 3.21045L12.8416 3.14416L12.812 3.27072Z" fill="#FABF00"/>
<path d="M8.1972 5.77964L9.27032 6.25825L8.98113 6.68134L13.7001 6.68162L13.2295 6.40573L13.4133 6.20351L14.0425 6.68112H14.4095L13.8756 6.31673L14.1215 6.17901L14.6186 6.68156H14.9239L14.466 5.90675L13.2205 5.23289L11.1033 5.50771L10.0006 4.84897L10.0322 4.78525L11.0963 5.18406L11.1317 5.14802L10.0993 4.10999L9.73033 3.22508L10.1963 2.47656L8.74922 2.28516L7.28223 2.8304C7.55401 3.5484 7.96689 4.9935 8.1972 5.77964Z" fill="#FABF00"/>
</g>
<defs>
<clipPath id="clip0_52_571">
<rect width="23" height="24" fill="white"/>
</clipPath>
</defs>
</svg>
