<svg width="76" height="90" viewBox="0 0 76 90" fill="none" xmlns="http://www.w3.org/2000/svg">
<g clip-path="url(#clip0_32_537)">
<mask id="mask0_32_537" style="mask-type:luminance" maskUnits="userSpaceOnUse" x="-52" y="-72" width="173" height="247">
<path d="M-51.3442 -71.4478H120.942V174.158H-51.3442V-71.4478Z" fill="white"/>
</mask>
<g mask="url(#mask0_32_537)">
<path d="M75.0899 67.4297V64.4274C74.8428 64.4607 74.6179 64.4865 74.397 64.5131L74.3996 67.4358C74.6278 67.4358 74.8588 67.4297 75.0899 67.4297Z" fill="#231F20"/>
<path d="M70.7816 49.4967V35.6583C70.7816 34.3268 70.8846 33.6943 71.0994 32.3567C70.8672 32.5347 70.639 32.7031 70.4108 32.8721L70.4073 32.9075C70.1902 34.2122 70.0954 34.8092 70.0884 36.0954V64.7708C70.3387 64.7643 70.5668 64.7506 70.7816 64.7439V49.4967Z" fill="#231F20"/>
<path d="M15.7355 38.9909C15.4971 38.8576 15.2646 38.731 15.0452 38.6096V47.4532C15.2765 47.5155 15.5029 47.5769 15.7355 47.6392V38.9909Z" fill="#231F20"/>
<path d="M8.5683 37.4446C8.4903 37.4113 8.41405 37.3788 8.33431 37.3522C8.13118 37.2929 7.97694 37.2996 7.85762 37.3759C7.70599 37.468 7.60122 37.6838 7.54709 38.0145V38.0241L7.54389 38.0297C7.51042 38.1241 7.48103 38.4616 7.47754 39.0001V43.1821C7.48103 44.8947 7.60704 45.3736 7.71501 45.5926C8.34479 46.8405 9.82726 47.8817 11.2539 48.8878C12.2736 49.6062 13.2375 50.2837 13.9327 51.0406C15.3916 52.7947 15.3768 54.9218 15.3666 56.8001V62.7619C15.3666 64.3981 15.3681 65.939 14.2767 66.9743C13.7561 67.4173 12.9849 67.655 12.0673 67.781C13.2968 67.6869 14.3506 67.4646 14.9924 66.9234C16.0881 65.8887 16.0569 64.3323 16.0537 62.6502V57.2992C16.0587 55.3148 16.1954 53.0663 14.6408 51.2304C12.9497 49.4202 9.49288 47.9589 8.41405 45.8622C8.27378 45.5865 8.16959 45.0216 8.16639 43.4602V39.3612C8.16639 38.8165 8.20073 38.4849 8.24177 38.3852C8.31831 37.897 8.50543 37.6861 8.75368 37.6455C8.69532 37.5754 8.63345 37.5084 8.5683 37.4446Z" fill="#231F20"/>
<path d="M7.4584 64.0224C7.42639 63.7443 7.42639 63.1139 7.42639 62.5765V53.9482C7.19677 53.9069 6.96541 53.8686 6.73608 53.83V62.5324C6.73608 63.0224 6.73608 63.6905 6.76693 63.9835C6.84347 64.6881 7.14381 64.9566 7.56899 65.1463C7.68249 65.1852 7.81054 65.2177 7.94907 65.2346C8.02532 65.2142 8.10011 65.1937 8.16647 65.1668C7.78115 64.963 7.52476 64.6642 7.4584 64.0224Z" fill="#231F20"/>
<path d="M23.4408 49.0885C23.0165 49.2402 22.9612 49.6654 22.9612 50.0966C22.9612 50.1741 22.9612 50.2633 22.9638 50.3393L22.967 50.5498V54.4485C23.2007 54.4751 23.4289 54.4959 23.6556 54.5193V50.6563C23.6524 50.1332 23.5566 49.4203 24.1133 49.166C24.0705 49.1333 24.0241 49.1055 23.9751 49.0832C23.7763 49.0651 23.5866 49.0651 23.4408 49.0885Z" fill="#231F20"/>
<path d="M23.6556 63.2943V56.7054C23.4291 56.6869 23.2007 56.67 22.967 56.6516V63.2709L22.9638 63.8922C22.9612 64.0642 22.9612 64.2264 22.9612 64.3662C22.9612 65.6317 23.061 65.8474 24.0473 65.8887C24.0723 65.8767 24.0941 65.8682 24.1133 65.8562C23.5674 65.6317 23.6524 64.9984 23.6556 63.2943Z" fill="#231F20"/>
<path d="M30.4989 62.9422C30.4989 65.2646 30.4989 65.9625 30.166 66.4806L30.15 66.516C29.9664 66.8236 29.6669 67.3347 28.6399 67.6666C28.4664 67.7174 28.238 67.7613 27.958 67.7964C28.5249 67.7552 29.0444 67.6873 29.3858 67.5929C30.4224 67.259 30.6919 66.7499 30.8697 66.4479C31.1852 65.9476 31.1878 65.2886 31.1878 62.9606V58.6002C30.957 58.5952 30.7271 58.5868 30.4989 58.5803V62.9422Z" fill="#231F20"/>
<path d="M30.5016 52.1211L30.499 52.6506V57.3265C30.7272 57.3326 30.9568 57.3385 31.1876 57.3499V52.6974C31.1893 51.0796 31.3305 49.9908 30.3387 49.1095C29.7246 48.5896 29.0462 48.3373 27.6787 48.0452C28.5922 48.2902 29.1266 48.5478 29.623 48.9765C30.5267 49.7966 30.5182 50.7691 30.5016 52.1211Z" fill="#231F20"/>
<path d="M45.2787 51.2898V64.6078C45.2787 65.7145 45.274 66.9624 43.4959 67.6395C43.3087 67.7018 43.0529 67.7612 42.7244 67.803C43.4592 67.7492 43.9388 67.6723 44.2362 67.5661C45.9146 66.927 45.9646 65.8007 45.9646 64.5993V51.236C45.9646 50.1033 45.9102 49.0147 44.2362 48.5744C43.9609 48.5153 43.5398 48.4852 42.9173 48.482C43.1545 48.4969 43.3442 48.5238 43.49 48.5592C45.274 49.0416 45.2752 50.2334 45.2787 51.2898Z" fill="#231F20"/>
<path d="M38.1038 51.319V64.9311C38.107 65.7381 38.3631 65.9779 38.8881 66.0366C38.9634 66.0048 39.0371 65.9597 39.0927 65.9071C38.8942 65.7346 38.7941 65.4296 38.7914 64.9311C38.7914 61.0827 38.7897 54.9391 38.7914 51.3158C38.7941 50.8219 38.8942 50.5351 39.0927 50.3632C39.0331 50.3144 38.9661 50.2757 38.8942 50.2486C38.357 50.3073 38.1096 50.5383 38.1038 51.319Z" fill="#231F20"/>
<path d="M54.2074 64.5875V49.5558C54.2074 48.4532 54.2417 47.6457 54.4196 46.9451C54.1896 46.9954 53.96 47.0509 53.7307 47.0948L53.7278 47.1167C53.5573 47.7962 53.5171 48.5714 53.5171 49.6772V64.6024C53.5258 65.4538 53.7863 65.7146 54.3005 65.7737C54.3858 65.7383 54.4609 65.6906 54.5237 65.6319C54.3226 65.448 54.2121 65.1316 54.2074 64.5875Z" fill="#231F20"/>
<path d="M61.4469 67.5271H62.127C61.7435 66.7146 61.6014 65.3558 61.5974 64.3749V47.9205C61.6006 46.6515 61.6326 45.6939 61.774 44.865C61.5427 44.939 61.3119 45.0162 61.0846 45.0925V45.1077C60.9379 45.9387 60.905 46.9059 60.905 48.1009V64.3983C60.905 65.3743 61.0468 66.7026 61.4309 67.4946L61.4469 67.5271Z" fill="#231F20"/>
<path d="M37.3025 41.8933V42.3603C36.9845 42.3249 36.1414 42.3041 35.4214 42.286V43.6971C36.0028 43.7088 36.8995 43.7269 37.1128 43.7149V44.1854C36.8995 44.164 36.0028 44.1383 35.4214 44.1266V46.5274C35.4214 46.6487 35.4414 46.7818 35.4962 46.9385L33.6287 46.9011C33.7035 46.756 33.736 46.6078 33.736 46.492V42.2807C33.7366 42.1206 33.6998 41.9626 33.6287 41.8194L37.3025 41.8933Z" fill="#B4921F"/>
<path d="M42.4355 41.8544V43.8178L40.9932 43.8415V43.3658C40.9932 43.0608 41.0368 42.348 40.7074 42.2535C40.5997 42.2216 40.3986 42.2181 40.2365 42.2708C39.9848 42.3629 40.0162 42.6111 40.0162 42.8216V45.9329C40.0162 46.2317 39.9848 46.4744 40.1967 46.5335C40.2924 46.5689 40.5997 46.5753 40.7266 46.5268C40.9725 46.444 40.9402 46.2519 40.9402 45.9031V44.883L42.4355 44.8593V46.0952C42.4355 46.3583 42.4562 46.6127 42.1678 46.7727C41.8808 46.9382 41.5127 46.977 40.5025 46.9917L40.0514 47.0004C38.9249 47.0186 38.3315 46.9382 38.3315 46.3616V42.7032C38.3315 42.6313 38.3123 42.1795 38.6612 41.9991C39.181 41.7392 40.9932 41.7986 41.4152 41.8123L42.4355 41.8544Z" fill="#B4921F"/>
<path d="M17.1562 39.5858V40.3191C21.6828 41.981 26.5962 43.0643 31.7956 43.5488V42.869C26.5872 42.3784 21.6735 41.2717 17.1562 39.5858Z" fill="#B4921F"/>
<path d="M44.1948 42.8572V43.5347C50.5714 42.9247 56.5351 41.3961 61.7668 39.062V38.3112C56.5587 40.6801 50.5924 42.2333 44.1948 42.8572Z" fill="#B4921F"/>
<path d="M7.17304 70.296H7.65119V73.3871C7.65119 73.5459 7.65119 73.6435 7.68815 73.762H6.85175C6.8989 73.6351 6.91374 73.5459 6.91374 73.3871V71.0852H6.5293V70.7279C6.82672 70.686 6.99464 70.6688 7.17304 70.296Z" fill="#B4921F"/>
<path d="M15.1501 71.7034V70.9318C15.1501 70.704 15.1501 70.6268 15.0721 70.571C15.0133 70.5321 14.9379 70.5505 14.9001 70.5651C14.816 70.6008 14.7953 70.6978 14.7953 70.9233V71.4882C14.7953 71.5619 14.7953 71.7692 14.8011 71.7949C14.8261 71.958 14.9245 71.9899 15.0232 71.9665C15.0953 71.9496 15.1501 71.8788 15.1501 71.7034ZM14.0779 72.5732H14.8011V72.9402C14.8011 73.227 14.7924 73.4343 14.8908 73.4834C14.9189 73.4953 14.9493 73.5009 14.9798 73.5C15.0103 73.4991 15.0403 73.4917 15.0677 73.4782C15.1719 73.4279 15.1643 73.1916 15.1643 72.9893V72.2481C14.9603 72.3218 14.4376 72.375 14.2196 72.2241C14.0928 72.1384 14.0779 71.9765 14.0779 71.8399V70.9318C14.0779 70.6601 14.0887 70.4789 14.1649 70.3698C14.2767 70.2031 14.7423 70.2271 14.8689 70.2271H15.1163C15.2606 70.2271 15.6742 70.2186 15.8008 70.3631C15.8893 70.4613 15.873 70.6148 15.873 70.8932V73.1346C15.873 73.2676 15.8919 73.5369 15.7464 73.6855C15.5886 73.8419 15.1643 73.8089 14.9984 73.8089H14.7732C14.6082 73.8089 14.2857 73.8004 14.1649 73.6735C14.068 73.5697 14.0779 73.3989 14.0779 73.1174V72.5732Z" fill="#B4921F"/>
<path d="M22.5339 72.2715V73.2183C22.5339 73.3417 22.5281 73.4159 22.6195 73.4718C22.6532 73.4902 22.7461 73.4902 22.7824 73.4718C22.8889 73.4195 22.884 73.3028 22.884 73.2063V72.2654C22.884 72.1654 22.884 72.0911 22.7897 72.0493C22.7327 72.0169 22.6413 72.035 22.6061 72.0613C22.5237 72.118 22.5339 72.1944 22.5339 72.2715ZM22.5339 70.8049V71.4555C22.5339 71.5824 22.5281 71.6564 22.6195 71.7119C22.6532 71.7274 22.7461 71.7274 22.7824 71.7119C22.8889 71.6628 22.884 71.5435 22.884 71.4458V70.7929C22.884 70.6976 22.884 70.6269 22.7897 70.5824C22.7327 70.5526 22.6413 70.5652 22.6061 70.5976C22.5237 70.6538 22.5339 70.7274 22.5339 70.8049ZM23.3141 71.8455C23.5761 71.9493 23.6203 72.0139 23.6203 72.2865V73.106C23.6203 73.3417 23.6497 73.6028 23.4291 73.7244C23.2035 73.8455 22.2202 73.842 21.992 73.7148C21.7991 73.5908 21.8197 73.2914 21.8197 73.0876V72.3508C21.8197 72.0827 21.7991 71.9762 22.0994 71.8569C21.8317 71.7923 21.8157 71.6628 21.8157 71.4081V70.914C21.8157 70.7359 21.7991 70.4813 21.926 70.3631C22.0819 70.2032 22.4486 70.2248 22.6337 70.2248H22.7461C22.8596 70.2248 23.336 70.2014 23.5039 70.3716C23.6279 70.5082 23.6055 70.7982 23.6055 70.938V71.4406C23.6055 71.68 23.5833 71.7713 23.3141 71.8455Z" fill="#B4921F"/>
<path d="M31.0553 71.9079C31.3204 72.0056 31.3614 72.0912 31.3614 72.3751V73.1175C31.3614 73.2421 31.3766 73.6029 31.2366 73.7415C31.1248 73.842 30.9816 73.8336 30.6816 73.8336H30.1793C29.9322 73.8336 29.7288 73.8239 29.6374 73.7175C29.5466 73.6078 29.5629 73.3926 29.5629 73.1698V72.4254H30.2867V72.9403C30.2867 73.2038 30.2724 73.3991 30.3842 73.4634C30.4136 73.4836 30.4712 73.4956 30.5402 73.4634C30.633 73.4105 30.6214 73.2184 30.6214 72.9696V72.5669C30.6214 72.3728 30.633 72.2213 30.5268 72.1266C30.4854 72.0968 30.3944 72.0912 30.2206 72.0912V71.7714C30.353 71.7714 30.5076 71.781 30.5754 71.712C30.633 71.6532 30.6214 71.5179 30.6214 71.2895V70.8696C30.6214 70.7834 30.6048 70.7126 30.521 70.6538C30.4854 70.6334 30.3944 70.6269 30.3388 70.6538C30.2014 70.7246 30.218 70.8223 30.218 70.9702V71.5059H29.5655V70.2957C29.5655 70.2957 30.2942 70.2656 30.3757 70.2656C30.7197 70.2656 31.1053 70.2369 31.2689 70.4287C31.378 70.5623 31.3614 70.7664 31.3614 70.9907V71.3968C31.3614 71.6006 31.3556 71.7035 31.2395 71.8199C31.1895 71.869 31.1247 71.8999 31.0553 71.9079Z" fill="#B4921F"/>
<path d="M44.884 73.1416H45.515C45.7655 73.1416 45.8482 73.1416 46.0408 73.1176V73.7617H44.1082V73.1445L44.7749 72.346C45.0601 72.0144 45.2004 71.8556 45.2443 71.5826C45.2664 71.4346 45.2824 70.9522 45.2458 70.8104C45.2257 70.7431 45.2018 70.6838 45.1122 70.6539C45.0843 70.6439 45.0544 70.6408 45.0251 70.6448C44.9957 70.6489 44.9678 70.6601 44.9437 70.6773C44.8249 70.7665 44.8398 71.0326 44.8398 71.2776V71.591H44.1731V70.3633C44.3715 70.3314 44.7618 70.2873 44.9501 70.2841C45.3278 70.2724 45.7053 70.2572 45.87 70.4291C46.0007 70.5557 45.9963 70.8522 45.9963 71.0177V71.308C45.9963 71.8401 45.9655 71.8401 45.4844 72.4255L44.884 73.1416Z" fill="#B4921F"/>
<path d="M52.9842 70.8309C52.9842 70.6686 52.9563 70.5979 52.8076 70.5979C52.6513 70.5979 52.6158 70.6686 52.6158 70.8309V73.2659C52.6158 73.4282 52.6513 73.499 52.8076 73.499C52.9563 73.499 52.9842 73.4282 52.9842 73.2659V70.8309ZM53.7057 73.1969C53.7057 73.4835 53.6981 73.5697 53.6009 73.6858C53.4935 73.8124 53.3291 73.8337 52.8029 73.8337C52.3306 73.8337 52.1688 73.8124 52.0748 73.7481C51.8905 73.608 51.9071 73.4077 51.9071 73.1969V70.8932C51.9071 70.6836 51.8905 70.4792 52.0748 70.3432C52.1688 70.2725 52.3306 70.257 52.8029 70.257C53.3291 70.257 53.4935 70.2725 53.6009 70.402C53.6981 70.5169 53.7057 70.6128 53.7057 70.8932V73.1969Z" fill="#B4921F"/>
<path d="M60.7216 70.8309C60.7216 70.6686 60.6948 70.5979 60.5461 70.5979C60.3901 70.5979 60.3592 70.6686 60.3592 70.8309V73.2659C60.3592 73.4282 60.3901 73.499 60.5461 73.499C60.6948 73.499 60.7216 73.4282 60.7216 73.2659V70.8309ZM61.4471 73.1969C61.4471 73.4835 61.4398 73.5697 61.3371 73.6858C61.2355 73.8124 61.0705 73.8337 60.5461 73.8337C60.0708 73.8337 59.9102 73.8124 59.8162 73.7481C59.6291 73.608 59.6483 73.4077 59.6483 73.1969V70.8932C59.6483 70.6836 59.6291 70.4792 59.8162 70.3432C59.9102 70.2725 60.0708 70.257 60.5461 70.257C61.0705 70.257 61.2355 70.2725 61.3371 70.402C61.4398 70.5169 61.4471 70.6128 61.4471 70.8932V73.1969Z" fill="#B4921F"/>
<path d="M67.6181 72.3106H68.2764V71.0261L67.6181 72.3106ZM68.2496 70.2958H69.0575C69.0301 70.3958 69.0255 70.47 69.0255 70.5917V72.3106H69.3654V72.86H69.0135V73.4784C69.0135 73.5699 69.0089 73.6527 69.0374 73.7617H68.2365C68.2732 73.6676 68.2848 73.5699 68.2848 73.4635V72.86H67.2458V72.3106L68.2496 70.2958Z" fill="#B4921F"/>
<path d="M36.8584 73.5051L37.8886 72.6268L38.9104 73.5051L38.4509 72.2157L39.5521 71.5417L38.2358 71.547L37.8886 70.3313L37.5397 71.547L36.2266 71.5417L37.3234 72.2157L36.8584 73.5051Z" fill="#B4921F"/>
<path d="M0.844482 75.951V77.2355H6.76943V77.2588C14.4478 80.4526 16.3773 85.7118 17.1901 88.7842H58.6299C59.4453 85.7118 61.3722 80.4526 69.0532 77.2588V77.2355H74.9624V75.951H0.844482Z" fill="#B4921F"/>
<path d="M73.3916 67.4626V64.5581C71.8875 64.7472 71.0139 64.8145 69.087 64.8838V36.6663C69.087 35.4094 69.1903 34.8123 69.401 33.5635C67.2739 35.0956 65.2391 36.412 63.1199 37.6336C63.3684 38.3049 63.4717 38.7224 63.4717 39.751V64.9157C63.47 66.0487 63.3684 66.5723 63.1199 67.5129C66.6058 67.5015 69.931 67.4831 73.3916 67.4626Z" fill="#D91920"/>
<path d="M1.3005 46.2202C1.82056 47.5918 2.80975 48.7345 4.9869 50.6362C5.21506 50.8403 5.43304 51.0323 5.65364 51.2244C7.49669 52.7127 8.64012 53.375 9.01758 55.5462C9.08364 55.9573 9.12497 56.8558 9.12497 57.8026V62.2831C9.12497 63.6413 9.12497 64.4658 8.45328 65.0219C8.3782 65.0781 8.27692 65.1254 8.16604 65.1669C8.09498 65.1939 8.02238 65.2167 7.94865 65.2351C7.52172 65.3327 6.97838 65.3269 6.61489 65.1909C6.14692 64.9804 5.83756 64.6798 5.76102 63.9456C5.73018 63.6582 5.72726 63.0226 5.72726 62.4705V53.6618C4.09712 53.3678 2.47075 53.0531 0.848543 52.7177V67.5066C2.471 67.6581 5.78634 67.8318 7.10846 67.835C9.59148 67.8385 12.1333 67.9116 13.2933 66.9067C14.3916 65.8596 14.3602 64.2801 14.3593 62.5682V57.1424C14.3619 55.1144 14.4946 52.8068 12.9435 50.899C11.2535 49.0213 7.79703 47.4889 6.71907 45.303C6.57647 45.0165 6.47229 44.4302 6.46879 42.7981V38.5088C6.46879 37.9389 6.5075 37.5866 6.54271 37.4822C6.65883 36.7343 6.99758 36.6042 7.42597 36.7343C7.87648 36.8823 8.29031 37.1691 8.56795 37.4448C8.63303 37.5086 8.6949 37.5757 8.75333 37.6457C8.75682 37.6509 8.76672 37.6606 8.76992 37.6691C9.47245 38.6281 9.47827 39.7842 9.47827 40.8818V45.8001C10.9875 46.3019 12.5084 46.7674 14.0398 47.1962V38.1246C10.1962 35.8913 5.84484 32.8248 4.6336 31.9435C3.44069 31.0769 2.471 30.698 1.84239 31.0287C1.35783 31.2243 1.03887 31.9134 0.93003 32.9815C0.834283 34.0572 0.848543 35.1849 0.848543 35.6788V40.3073C0.84767 43.3189 0.811874 44.8361 1.3005 46.2202Z" fill="#D91920"/>
<path d="M22.4925 48.7817C22.8708 48.7097 23.5861 48.8287 23.9747 49.0211C24.0273 49.0445 24.0762 49.0737 24.1129 49.1006V49.1039C24.6135 49.5185 24.6091 49.805 24.6091 50.6714V54.6227C23.7081 54.5429 22.856 54.4572 21.9608 54.3595V50.3374C21.9549 49.7746 21.849 49.003 22.4925 48.7817ZM17.2226 65.9305C17.3326 66.2708 17.8175 67.2199 18.6707 67.5129C19.7158 67.8167 21.4497 67.8737 22.7366 67.8754C22.9194 67.8789 23.0899 67.8789 23.2692 67.8789C23.7349 67.8789 26.6096 67.8971 27.6887 67.5927C28.7279 67.2588 28.9957 66.743 29.1738 66.4363C29.4904 65.939 29.4904 65.2732 29.4904 62.9282V58.5512C27.8371 58.4889 26.2566 58.4266 24.6091 58.3351C24.6091 59.4111 24.6135 62.3812 24.6135 63.4104C24.6135 65.0995 24.6795 65.6431 24.1129 65.9425C24.0919 65.9542 24.0697 65.9638 24.0468 65.9711C24.0358 65.9814 24.0226 65.9888 24.0081 65.9928C23.8993 66.0217 23.5535 66.0486 23.3388 66.0451C21.7928 66.0185 21.9549 65.7077 21.9608 63.3276V56.5808C24.4673 56.7876 26.9777 56.9445 29.4904 57.0515V52.3453C29.4948 50.7067 29.6362 49.6033 28.6424 48.686C27.7699 47.9206 26.7682 47.6864 23.8321 47.0811C23.4491 47.0004 23.0815 46.9241 22.704 46.8384C20.7219 46.4037 19.1728 46.1642 18.6707 46.2233C18.1335 46.3531 17.8597 46.5423 17.5742 46.8557C17.0768 47.5209 17.0809 48.234 17.0809 50.2784V63.2504C17.0768 64.7557 17.0439 65.3559 17.2226 65.9305Z" fill="#D91920"/>
<path d="M38.2581 50.1623C38.511 50.1623 38.7203 50.1825 38.894 50.2483C38.9691 50.2781 39.0369 50.3158 39.0925 50.3632C39.2855 50.5296 39.3905 50.8132 39.3917 51.3102V64.9308C39.387 65.4363 39.2855 65.7343 39.0925 65.9068C39.0322 65.9616 38.963 66.0055 38.8879 66.0366C38.7156 66.1074 38.5084 66.1278 38.2581 66.1278C37.4721 66.1226 37.1007 65.9086 37.0952 64.9308V51.3134C37.1054 50.3492 37.4764 50.1655 38.2581 50.1623ZM32.2124 64.5905C32.2112 65.2057 32.0678 66.4746 33.4167 67.3682C34.1524 67.7909 36.221 67.8787 38.2581 67.8787C40.7074 67.8787 41.9664 67.764 42.5406 67.5687C44.2183 66.9302 44.2701 65.8091 44.2701 64.6191V51.3517C44.2701 50.2331 44.2139 49.1659 42.5406 48.6977C41.9608 48.5504 40.6931 48.5475 38.2581 48.5504C36.209 48.5592 34.1439 48.5173 33.4167 48.8963C32.0652 49.648 32.2112 50.8807 32.2124 51.4079V64.5905Z" fill="#D91920"/>
<path d="M47.4184 64.7084C47.4216 65.6551 47.4821 66.4279 48.689 67.2674C50.0551 68.0948 53.9455 68.2375 55.1628 66.9066C55.2274 67.1039 55.2921 67.2966 55.3584 67.4896C55.3642 67.51 55.3715 67.5273 55.3776 67.5489H55.7944C57.3574 67.5419 58.8638 67.5369 60.4301 67.5334C60.0427 66.7317 59.9039 65.3914 59.8966 64.4274V48.3318C59.9016 47.1043 59.9353 46.188 60.0779 45.3921C58.241 45.9622 56.4908 46.4423 54.6696 46.8675C54.7714 47.4824 54.8436 48.2964 54.8436 49.151V64.5701C54.8389 65.1133 54.7333 65.4382 54.5238 65.6317C54.4583 65.692 54.3827 65.74 54.3005 65.7736C54.1312 65.8475 53.9222 65.8718 53.6777 65.8733C52.9563 65.8803 52.5192 65.6929 52.5102 64.6192V49.8285C52.5131 48.7604 52.5471 47.9742 52.7223 47.297C50.9084 47.6754 49.0806 47.9829 47.2429 48.2189C47.3518 48.7665 47.4155 49.4946 47.4184 50.2633V64.7084Z" fill="#D91920"/>
<path d="M33.9392 85.481H41.906V77.2353H33.9392V85.481Z" fill="#D91920"/>
<path d="M18.0039 77.2353V82.346C18.652 83.3977 19.168 84.4541 19.569 85.481H25.9692V77.2353H18.0039Z" fill="#D91920"/>
<path d="M49.8782 77.2353V85.481H56.2822C56.6765 84.4541 57.1974 83.3977 57.8467 82.346V77.2353H49.8782Z" fill="#D91920"/>
<path d="M5.96737 28.2101C6.39252 28.5829 6.82526 28.9469 7.26534 29.3018C8.1224 29.9916 9.01614 30.6418 9.93024 31.2626L10.033 31.3336C10.2626 31.4903 10.4966 31.6471 10.7309 31.8006C10.8187 31.8576 10.9087 31.9134 10.9974 31.9725C11.3533 32.1944 11.7069 32.419 12.0704 32.6348C12.103 32.6561 12.1365 32.6763 12.1703 32.6938C12.4875 32.8811 12.8075 33.0637 13.13 33.2415C19.0431 36.5603 25.8766 38.6246 33.1088 39.2603C32.5222 38.835 31.9931 38.3348 31.535 37.7723C29.663 37.5494 27.8048 37.2218 25.9691 36.791C23.2047 36.1425 20.5366 35.2706 18.0038 34.1853C15.1599 32.9631 12.4913 31.4754 10.033 29.7337V19.7282C13.7779 17.8522 16.3336 15.2263 18.0038 12.5346C18.6193 11.5407 19.1432 10.4924 19.5689 9.40281H25.9622V9.39082C25.9622 7.98005 25.3574 7.16078 24.5312 6.76313C26.5186 6.76664 27.3885 8.3698 27.4638 9.3455C28.1702 8.19788 29.3287 7.24001 29.7449 6.10438H17.1901C16.3773 9.17474 14.4478 14.433 6.76943 17.63V27.1598C4.44241 25.1104 2.4553 22.8716 0.844482 20.4817V22.7471C2.31677 24.6821 4.02537 26.5127 5.96737 28.2101Z" fill="#B4921F"/>
<path d="M69.0532 27.1632V17.6302C61.3722 14.4329 59.4454 9.17493 58.6299 6.10457H46.0685C46.4797 7.23991 47.6391 8.19777 48.3478 9.34569C48.424 8.3697 49.3 6.76653 51.2816 6.76303C50.4553 7.16067 49.8489 7.97994 49.8489 9.39071V9.4027H56.2819C56.6766 10.4296 57.1975 11.4877 57.8465 12.5345C59.5161 15.2262 62.0698 17.8521 65.815 19.7281V29.7219C63.3582 31.4613 60.6845 32.9545 57.8465 34.1764C55.3102 35.262 52.6444 36.1369 49.878 36.7877C48.0714 37.2094 46.2437 37.5334 44.4026 37.7584C43.9446 38.3249 43.414 38.8281 42.8247 39.2549C49.8151 38.6301 56.4306 36.6632 62.1993 33.5226C64.4577 32.2952 66.592 30.8868 68.5631 29.3017C68.9919 28.9585 69.413 28.6056 69.8259 28.2433C71.774 26.5451 73.4884 24.7142 74.9625 22.7771V20.514C73.3531 22.8952 71.3718 25.1288 69.0532 27.1632Z" fill="#B4921F"/>
<path d="M52.0303 22.8955C52.0303 22.8955 51.8231 22.5142 51.496 22.0967C52.5294 21.3601 53.4345 19.8549 52.0085 16.5126C54.3667 20.6505 52.9692 22.2888 52.0303 22.8955ZM37.8726 11.3783C37.6025 11.3783 37.0348 11.4877 36.7146 11.6298C37.1084 11.0766 37.6605 10.0655 37.8726 9.36933C38.0795 10.0655 38.636 11.0766 39.0259 11.6298C38.7099 11.4877 38.1401 11.3783 37.8726 11.3783ZM23.7684 22.8955C22.8322 22.2888 21.4309 20.6505 23.7903 16.5126C22.3625 19.8549 23.2725 21.3601 24.301 22.0967C23.9748 22.5142 23.7684 22.8955 23.7684 22.8955ZM53.5259 14.7586C52.8379 13.2978 53.3859 11.1389 53.6702 10.9254C51.8316 11.621 51.5563 13.6051 51.6255 14.4867C51.01 13.2829 50.0447 11.7947 49.8779 9.94095C49.86 9.76216 49.8502 9.58264 49.8485 9.40295V9.39067C49.8485 7.9799 50.455 7.16093 51.2812 6.76328C49.2997 6.76679 48.4237 8.36966 48.3474 9.34565C47.6388 8.19773 46.4793 7.24017 46.0684 6.10453C45.9829 5.87033 45.9273 5.63116 45.9165 5.38C45.8979 5.00194 45.9802 3.9163 46.8812 3.35346C45.6581 3.56631 45.1497 4.37155 44.9553 5.20836C44.9189 5.37678 44.8866 5.5487 44.8746 5.7139C44.8611 5.84368 44.8538 5.97404 44.8528 6.10453C44.8461 6.18631 44.8444 6.26844 44.8479 6.35043C44.8746 7.54512 45.3545 8.63602 45.7655 9.40295C45.9829 9.80762 46.1866 10.1181 46.2881 10.3018C46.0002 10.0256 45.7366 9.72486 45.5003 9.40295C44.7923 8.43193 44.3621 7.29075 44.3269 6.14313C44.3112 6.13143 44.3007 6.11623 44.2859 6.10453C44.1506 5.98641 44.0237 5.86536 43.8997 5.74723C43.7254 5.57451 43.5581 5.39474 43.3983 5.20836C41.8882 3.45988 41.8497 1.92251 42.4367 0.819042C42.4341 0.82869 42.4283 0.834248 42.4236 0.840385C41.926 1.31902 41.6096 1.97251 41.442 2.61167C41.3441 2.96592 41.2936 3.3317 41.2918 3.69935C41.2918 8.31908 46.8504 9.61844 46.8504 13.9388C48.7077 13.9508 49.0907 15.3378 49.0759 15.8083C49.0599 16.3472 48.8064 17.062 48.0407 17.4562C49.4542 17.4562 49.9903 18.3936 49.9903 19.1248C49.9903 19.914 49.3704 20.5002 48.6169 20.5002C47.5136 20.5002 47.1254 19.5386 47.3242 19.0979C47.2637 19.4646 47.6495 20.15 48.3116 20.1213C49.1774 20.0827 49.3678 19.3816 49.35 19.0596C49.2866 17.8524 48.3323 17.6097 47.598 17.6398C46.9071 17.6655 46.1656 17.5711 45.9165 16.9471C46.3603 17.465 47.0489 17.412 47.4432 17.3284C47.798 17.2577 48.4929 16.7635 48.3885 15.8568C48.2502 14.6265 47.0078 14.2762 46.3661 14.3858C46.3661 9.46377 39.7625 8.12171 39.7625 5.27356C39.7625 4.53675 40.4479 3.83561 40.6071 3.67567C39.1779 4.4005 38.9706 5.47239 38.9706 6.14868C38.9706 10.2126 43.5938 11.4877 43.5938 14.2858C43.5938 15.439 42.9024 15.7995 42.5502 15.9714C42.6745 15.7966 42.7237 15.4574 42.7214 15.1843C42.712 14.3771 42.1221 13.7563 41.3783 13.6704C40.5777 13.5815 39.459 14.2762 39.5798 15.9179C39.624 16.5042 39.9654 17.6132 40.9077 18.2842C40.7137 18.5602 40.6103 18.8902 40.6117 19.2281C40.6117 19.3699 40.6324 19.5 40.6644 19.6304C40.3292 19.3075 39.9439 19.0418 39.5236 18.8436C39.9555 18.5386 40.2861 18.048 40.2861 18.048C39.693 17.5828 38.9287 16.7197 38.9287 15.3884C38.9287 13.6704 40.1892 12.9458 41.1562 13.0101C42.05 13.0724 42.8034 13.7177 42.9108 14.5694C43.1422 13.1262 41.5066 11.9309 40.2759 10.5237C38.9287 8.98162 38.0091 6.82234 39.069 4.86539C38.6831 5.21772 38.0679 6.14313 37.9029 6.69603C37.7408 6.14313 37.1226 5.21772 36.7402 4.86539C37.8004 6.82234 36.8817 8.98162 35.5302 10.5237C34.3009 11.9309 32.6671 13.1262 32.9013 14.5694C33.0087 13.7177 33.7578 13.0724 34.6513 13.0101C35.6183 12.9458 36.8817 13.6704 36.8817 15.3884C36.8817 16.7197 36.1134 17.5828 35.5243 18.048C35.5243 18.048 35.8558 18.5386 36.2822 18.8436C35.8629 19.0427 35.4783 19.3084 35.1431 19.6304C35.1771 19.5 35.199 19.3699 35.199 19.2281C35.1995 18.8896 35.0945 18.5596 34.8986 18.2842C35.8433 17.6132 36.1855 16.5042 36.2275 15.9179C36.3474 14.2762 35.2298 13.5815 34.4304 13.6704C33.6856 13.7563 33.1001 14.3771 33.0867 15.1843C33.0835 15.4574 33.1321 15.7966 33.2544 15.9714C32.9054 15.7995 32.218 15.439 32.218 14.2858C32.218 11.4877 36.8357 10.2126 36.8357 6.14868C36.8357 5.47239 36.6299 4.4005 35.2016 3.67567C35.3593 3.83561 36.0456 4.53675 36.0456 5.27356C36.0456 8.12171 29.4434 9.46377 29.4434 14.3858C28.8017 14.2762 27.5619 14.6265 27.4208 15.8568C27.3175 16.7635 28.0165 17.2577 28.3646 17.3284C28.763 17.412 29.4492 17.465 29.8907 16.9471C29.6448 17.5711 28.9015 17.6655 28.2068 17.6398C27.4796 17.6097 26.5227 17.8524 26.4595 19.0596C26.4435 19.3816 26.6356 20.0827 27.4973 20.1213C28.16 20.15 28.5482 19.4646 28.4848 19.0979C28.6824 19.5386 28.295 20.5002 27.1952 20.5002C26.4403 20.5002 25.8204 19.914 25.8204 19.1248C25.8204 18.3936 26.358 17.4562 27.768 17.4562C27.0055 17.062 26.7506 16.3472 26.7328 15.8083C26.7185 15.3378 27.0995 13.9508 28.9588 13.9388C28.9588 9.61844 34.5189 8.31908 34.5189 3.69935C34.5166 3.33162 34.4655 2.96583 34.3669 2.61167C34.2005 1.97807 33.883 1.33452 33.4002 0.852081C33.3911 0.842724 33.3821 0.830738 33.3719 0.819042C33.9592 1.92251 33.9164 3.45988 32.4063 5.20836C32.1731 5.47615 31.9254 5.73091 31.6645 5.97149C31.6176 6.01535 31.5734 6.05716 31.5248 6.10453C31.5097 6.11623 31.4969 6.13143 31.482 6.14313C31.45 7.29075 31.0155 8.43193 30.3101 9.40295C30.0739 9.72471 29.8107 10.0254 29.5231 10.3018C29.623 10.1181 29.8246 9.80762 30.0467 9.40295C30.4576 8.63602 30.9358 7.54512 30.9625 6.35043C30.9637 6.27295 30.9567 6.18699 30.9567 6.10453C30.9509 5.85863 30.9331 5.60747 30.8845 5.34754C30.8738 5.30046 30.8653 5.25544 30.8534 5.20836C30.6575 4.37155 30.1515 3.56631 28.9324 3.35346C29.8319 3.9163 29.9099 5.00194 29.8951 5.38C29.8805 5.63116 29.8246 5.87033 29.7446 6.10453C29.3284 7.24017 28.1699 8.19773 27.4636 9.34565C27.3882 8.36966 26.5183 6.76679 24.5309 6.76328C25.3571 7.16093 25.9619 7.9799 25.9619 9.39067V9.40295C25.959 11.5114 24.858 13.1701 24.1834 14.4867C24.2556 13.6051 23.9829 11.621 22.1375 10.9254C22.4259 11.1389 22.9725 13.2978 22.286 14.7586C20.9304 17.6398 19.2875 18.7251 19.4479 21.4142C19.5556 23.1703 20.6376 25.1053 23.0385 25.7828C22.937 28.2371 24.5283 29.4996 25.9689 29.9312C26.3655 30.0505 26.7494 30.1131 27.0879 30.1131C28.6809 30.1131 29.6096 29.2485 30.0115 28.8017C29.9067 29.3847 28.5837 31.0502 26.4654 30.6358C27.6123 32.0785 29.1337 32.1323 29.6701 32.1238C29.6657 32.2451 29.6608 32.3682 29.6608 32.4963C29.6575 34.4202 30.32 36.2854 31.535 37.7724C31.993 38.3349 32.522 38.8351 33.1086 39.2604C34.5208 40.2872 36.2201 40.8389 37.9634 40.8367C39.7093 40.8381 41.4108 40.2845 42.8244 39.2551C43.4137 38.8283 43.9442 38.3252 44.4023 37.7587C45.6089 36.2731 46.2664 34.4137 46.2631 32.4963C46.2631 32.3682 46.2599 32.2469 46.2553 32.1238C46.8682 32.1206 48.2738 31.9876 49.3468 30.6358C47.227 31.0502 45.9049 29.3847 45.8018 28.8017C46.2052 29.2485 47.133 30.1131 48.7266 30.1131C49.0718 30.1131 49.4702 30.0473 49.8779 29.9227C51.3089 29.4795 52.8726 28.2134 52.7739 25.7828C55.1743 25.1053 56.2563 23.1703 56.3625 21.4142C56.5202 18.7251 54.8818 17.6398 53.5259 14.7586Z" fill="#B4921F"/>
<path d="M23.0389 25.7829C20.638 25.1055 19.5556 23.1704 19.4483 21.4144C19.2879 18.7253 20.9307 17.6399 22.2863 14.7587C22.9726 13.298 22.4263 11.139 22.1379 10.9255C23.9833 11.6211 24.256 13.6053 24.1838 14.4868C24.8581 13.1702 25.959 11.5115 25.9622 9.40307H19.569C19.1432 10.4926 18.6194 11.5407 18.0039 12.5345V34.1853C20.5364 35.2709 23.2048 36.1428 25.9692 36.791V29.9313C24.5287 29.4997 22.9373 28.2372 23.0389 25.7829Z" fill="#D91920"/>
<path d="M51.6258 14.4869C51.5566 13.605 51.8319 11.6212 53.6703 10.9253C53.3862 11.139 52.8382 13.298 53.5259 14.7588C54.8818 17.64 56.5203 18.7253 56.3625 21.4141C56.2566 23.1705 55.1743 25.1052 52.7739 25.783C52.8726 28.2133 51.3092 29.4793 49.8779 29.9229V36.7878C52.6444 36.1373 55.3102 35.2625 57.8465 34.1768V12.5346C57.1975 11.4878 56.6762 10.4297 56.2819 9.40282H49.8779V9.94111C50.0447 11.7948 51.0103 13.2831 51.6258 14.4869Z" fill="#D91920"/>
<path d="M33.8436 19.4856C34.0232 19.4856 34.1699 19.3406 34.1699 19.1602C34.1699 18.9815 34.0232 18.8365 33.8436 18.8365C33.8008 18.8357 33.7582 18.8435 33.7183 18.8594C33.6784 18.8753 33.6421 18.899 33.6115 18.9291C33.5808 18.9592 33.5564 18.9951 33.5396 19.0348C33.5229 19.0745 33.5141 19.1171 33.5139 19.1602C33.5139 19.3406 33.6583 19.4856 33.8436 19.4856Z" fill="white"/>
<path d="M33.1457 20.8309C33.4693 20.8224 33.9157 20.7329 34.3159 20.4078C34.1637 20.4674 34.0019 20.4986 33.8386 20.4999C33.0927 20.4999 32.4862 19.8987 32.4862 19.1602C32.4862 19.0327 32.508 18.911 32.5435 18.7961C32.1995 18.7488 31.7942 18.5804 31.488 18.3225C31.4292 18.4491 31.3588 18.811 31.3614 19.1064C31.378 20.3335 32.492 20.8426 33.1457 20.8309Z" fill="white"/>
<path d="M41.9694 19.4856C42.0551 19.4856 42.1372 19.4514 42.1978 19.3905C42.2584 19.3297 42.2924 19.2471 42.2924 19.161C42.2924 19.075 42.2584 18.9924 42.1978 18.9316C42.1372 18.8707 42.0551 18.8365 41.9694 18.8365C41.9266 18.836 41.8842 18.8439 41.8445 18.8599C41.8049 18.8759 41.7687 18.8996 41.7382 18.9297C41.7077 18.9598 41.6834 18.9956 41.6668 19.0352C41.6501 19.0747 41.6414 19.1172 41.6411 19.1602C41.6411 19.3406 41.7863 19.4856 41.9694 19.4856Z" fill="white"/>
<path d="M44.4432 19.1064C44.4508 18.811 44.3812 18.4494 44.321 18.3225C44.021 18.5757 43.6567 18.7398 43.2689 18.7961C43.3024 18.911 43.3245 19.0327 43.3245 19.1604C43.3245 19.899 42.718 20.5002 41.9689 20.5002C41.7996 20.5002 41.6407 20.4639 41.4919 20.4078C41.8938 20.7329 42.3412 20.8224 42.6607 20.8309C43.3187 20.8426 44.4319 20.3335 44.4432 19.1064Z" fill="white"/>
<path d="M46.1159 21.7916C46.1159 21.7916 46.6537 20.7771 46.113 19.4084C46.3528 21.9197 44.1509 23.4717 41.9708 22.3776C42.0017 22.6288 42.0223 22.8922 42.0223 23.1735C42.0223 23.7349 41.8055 24.7915 40.7165 24.7915C40.3853 24.7915 40.0073 24.6249 39.7538 24.4188C39.7259 23.922 39.9994 22.7384 41.0564 23.1735C40.9103 22.8834 40.6074 22.7621 40.2925 22.7621C39.9482 22.7621 39.5775 23.0904 39.3929 23.6468C39.1528 24.3951 38.5833 24.9415 37.9046 24.9415C37.2245 24.9415 36.6599 24.3951 36.4149 23.6468C36.233 23.0904 35.862 22.7621 35.5191 22.7621C35.2054 22.7621 34.8992 22.8834 34.7564 23.1735C35.8136 22.7384 36.084 23.922 36.0572 24.4188C35.8026 24.6249 35.426 24.7915 35.0945 24.7915C34.0023 24.7915 33.7861 23.7349 33.7861 23.1735C33.7861 22.8922 33.8085 22.6288 33.8388 22.3776C31.6616 23.4717 29.4583 21.9197 29.6998 19.4084C29.155 20.7771 29.6923 21.7916 29.6923 21.7916C27.1411 21.561 26.012 23.4214 26.012 24.6164C26.012 25.8114 26.9898 26.5804 27.7904 26.6426C28.7828 26.7166 29.6661 25.9512 29.2819 24.8591C29.4143 25.9596 28.4909 26.1959 28.0421 26.1959C27.658 26.1959 26.7215 25.8553 26.7215 24.6401C26.7215 23.4278 28.0421 22.5226 29.2062 22.6054C31.0822 22.7355 32.1139 24.4746 31.9119 26.1079C32.0327 26.3292 32.8187 27.7104 34.3914 27.7104C36.2388 27.7104 36.6332 26.2494 37.9046 26.2494C39.1782 26.2494 39.5702 27.7104 41.4231 27.7104C42.9935 27.7104 43.7769 26.3292 43.9003 26.1079C43.6957 24.4746 44.7289 22.7355 46.6048 22.6054C47.766 22.5226 49.0913 23.4278 49.0913 24.6401C49.0913 25.8553 48.1519 26.1959 47.7695 26.1959C47.3216 26.1959 46.3985 25.9596 46.5312 24.8591C46.1456 25.9512 47.0303 26.7166 48.0224 26.6426C48.8221 26.5804 49.7991 25.8114 49.7991 24.6164C49.7991 23.4214 48.667 21.561 46.1159 21.7916Z" fill="white"/>
<path d="M35.1002 30.1212C34.7443 29.7741 34.6203 28.8575 35.3534 28.397C36.5413 28.0476 37.2718 27.1242 37.8413 27.0599C37.8413 27.5444 37.8399 29.2449 37.8399 29.2987C36.7919 29.8431 35.86 30.5258 34.9945 31.3901C34.9314 31.3667 32.795 30.6773 32.7228 30.6557C32.6756 30.3862 32.6515 30.1132 32.6506 29.8396C32.6506 29.3136 32.7362 28.8221 32.8261 28.3195C32.8261 28.3195 32.8392 28.2397 32.8494 28.1572C33.0231 28.2397 33.2161 28.311 33.4384 28.3666L33.4309 28.385C33.3075 28.9528 33.7973 30.1384 35.1002 30.1212Z" fill="white"/>
<path d="M42.3785 28.385C42.3785 28.385 42.375 28.3754 42.3739 28.3666C42.6518 28.2991 42.8893 28.1982 43.0941 28.0865C43.1131 28.1929 43.1334 28.3312 43.1334 28.3312C43.2158 28.8222 43.297 29.2987 43.297 29.8131C43.297 30.0859 43.272 30.3692 43.2158 30.6741C43.1454 30.6946 41.0491 31.3724 40.9877 31.3958C40.1505 30.5485 39.1843 29.8407 38.1255 29.2987V27.0956C38.6732 27.2877 39.3754 28.0801 40.4557 28.397C41.1888 28.8575 41.0622 29.7745 40.7075 30.1212C41.99 30.1385 42.5036 28.9529 42.3785 28.385Z" fill="white"/>
<path d="M35.993 34.996C35.9578 35.0431 34.6432 36.874 34.5987 36.9331C33.7172 36.7998 33.0647 36.4422 32.4396 36.0957L32.0697 35.8916C31.605 35.0745 31.3147 34.1692 31.2173 33.2332C31.235 33.1999 31.3707 32.9107 31.3707 32.9107C31.678 32.2537 31.9932 31.5733 32.6485 30.9324C32.7175 30.9558 34.8638 31.6473 34.9243 31.6687C35.1112 32.8368 35.463 33.9244 35.993 34.996Z" fill="white"/>
<path d="M36.2209 35.1665C37.3844 35.3566 38.5709 35.3558 39.7342 35.1641C39.7711 35.2135 40.9524 36.8585 40.9524 36.8585C40.9524 36.8585 41.0711 37.022 41.12 37.0863C40.721 37.9 40.185 38.4111 39.6681 38.9026L39.3768 39.1862C38.9292 39.2687 38.4452 39.3228 37.9749 39.3228C37.5012 39.3228 37.0154 39.2687 36.5387 39.171C36.5079 39.1388 36.2681 38.9049 36.2681 38.9049L35.544 38.1713C35.2286 37.8079 35.0062 37.4705 34.8252 37.098C34.8694 37.036 36.184 35.2203 36.2209 35.1665Z" fill="white"/>
<path d="M39.9624 34.996C40.497 33.9577 40.8558 32.8691 41.0599 31.6686C41.121 31.6473 43.2175 30.973 43.2897 30.9493C43.5176 31.171 43.7196 31.4182 43.8915 31.6861C44.1729 32.1025 44.3775 32.5405 44.5553 32.9364L44.7288 33.3074C44.6177 34.2273 44.3208 35.1147 43.8563 35.9152C43.8473 35.9129 43.5059 36.0956 43.5059 36.0956C42.8758 36.436 42.2248 36.7912 41.352 36.9246C41.3154 36.874 40.064 35.1375 39.9624 34.996Z" fill="white"/>
<path d="M31.6776 36.4441C31.6776 36.4441 31.6322 36.7994 31.6011 37.012C31.1863 36.4293 30.8527 35.7925 30.6095 35.119C30.331 34.3331 30.1896 33.501 30.175 32.6463C30.54 33.0577 30.8537 33.2831 30.9451 33.3422C31.0532 34.2752 31.348 35.1766 31.8118 35.9921L31.6776 36.4441Z" fill="white"/>
<path d="M37.975 40.3396C37.1907 40.3396 36.4148 40.2127 35.6689 39.9817C36.1913 39.751 36.5033 39.518 36.5682 39.4645C37.4965 39.6534 38.453 39.6534 39.3812 39.4645C39.445 39.518 39.7508 39.751 40.2761 39.9788C39.5318 40.2158 38.7559 40.3375 37.975 40.3396Z" fill="white"/>
<path d="M44.3438 37.0068C44.2862 36.4419 44.1628 36.0747 44.1343 35.9975C44.5941 35.1829 44.8875 34.2843 44.9972 33.3543C45.1342 33.2652 45.4302 33.0374 45.7701 32.6646C45.744 34.2238 45.2466 35.7382 44.3438 37.0068Z" fill="white"/>
<path d="M29.6702 32.1236C29.1341 32.1321 27.6124 32.0786 26.4654 30.6356C28.5838 31.0499 29.9071 29.3848 30.0116 28.8018C29.6097 29.2482 28.681 30.1128 27.0879 30.1128C26.7498 30.1128 26.3656 30.0503 25.9692 29.9313V36.791C27.8049 37.2218 29.6631 37.5493 31.5351 37.7722C30.3203 36.2851 29.6578 34.4199 29.6612 32.4961C29.6612 32.3683 29.6658 32.2449 29.6702 32.1236Z" fill="#231F20"/>
<path d="M10.0327 19.728V29.7335C12.4913 31.4753 15.16 32.9629 18.0039 34.1848V12.5341C16.3334 15.2261 13.7776 17.852 10.0327 19.728Z" fill="#231F20"/>
<path d="M65.815 29.722V19.7282C62.0698 17.8522 59.5157 15.2263 57.8464 12.5346V34.1765C60.6845 32.9546 63.3581 31.4614 65.815 29.722Z" fill="#231F20"/>
<path d="M48.7272 30.1131C47.1332 30.1131 46.2057 29.2486 45.8021 28.8021C45.9054 29.3851 47.2275 31.0503 49.3473 30.6359C48.274 31.9876 46.8684 32.1207 46.2558 32.1239C46.2601 32.2473 46.2633 32.3686 46.2633 32.4964C46.2633 34.4905 45.5672 36.3243 44.4028 37.7588C46.2439 37.5337 48.0716 37.2097 49.8782 36.7881V29.9231C49.4707 30.0474 49.0723 30.1131 48.7272 30.1131Z" fill="#231F20"/>
<path d="M37.9869 29.5531C39.0262 30.0826 39.9441 30.7516 40.7869 31.5846C40.5797 32.7828 40.2275 33.8629 39.7034 34.8766C38.544 35.0634 37.4145 35.0696 36.2635 34.886C35.7364 33.8494 35.3776 32.7349 35.2007 31.5846C36.0368 30.7484 36.9492 30.0826 37.9869 29.5531Z" fill="#231F20"/>
<path d="M31.4528 28.1717C31.9429 28.0363 32.3495 28.003 32.566 28.0009C32.5744 28.0033 32.5823 28.0073 32.5893 28.0126C32.5727 28.107 32.5465 28.267 32.5465 28.267C32.4569 28.7664 32.3655 29.2751 32.3655 29.84C32.3655 30.1181 32.3923 30.4146 32.4493 30.728C31.7666 31.3993 31.4467 32.0736 31.1138 32.7861L30.998 33.0259C30.6804 32.7875 30.3965 32.5067 30.1543 32.1914C30.2183 30.7583 30.667 29.3693 31.4528 28.1717Z" fill="#231F20"/>
<path d="M31.8462 37.3556C31.8607 37.3556 31.9431 36.5927 31.9431 36.5927C31.9431 36.5927 32.0124 36.3328 32.0476 36.208C32.1302 36.2501 32.3037 36.3477 32.3037 36.3477C32.9486 36.7053 33.6241 37.0746 34.5661 37.2161C34.7314 37.5597 34.9316 37.8734 35.202 38.205L35.9618 39.0125L36.071 39.1187C36.071 39.1187 36.2078 39.2456 36.2814 39.3195C36.1312 39.426 35.7782 39.6535 35.2421 39.8435C33.9098 39.3497 32.7396 38.4886 31.8462 37.3556Z" fill="#231F20"/>
<path d="M40.6856 39.8521C40.3247 39.7145 39.9812 39.5347 39.6621 39.3164C39.7288 39.2456 39.867 39.1103 39.867 39.1103C40.4368 38.5626 40.9668 38.0483 41.3777 37.2109C42.3107 37.0747 42.9876 36.7054 43.641 36.3478L43.9003 36.2048C43.964 36.4068 44.0743 36.8235 44.0871 37.3975C43.1983 38.4971 42.0211 39.3614 40.6856 39.8521Z" fill="#231F20"/>
<path d="M44.9252 33.0557L44.8147 32.8153C44.5647 32.2686 44.3438 31.8159 44.0135 31.3519C44.0135 31.3519 43.5528 30.8078 43.4957 30.742C43.5563 30.4145 43.5813 30.1096 43.5813 29.8166C43.5813 29.2839 43.5033 28.7967 43.4175 28.2874C43.4175 28.2874 43.3886 28.1187 43.3691 28.021H43.3869C43.5502 28.0243 43.9858 28.0479 44.542 28.2251C45.3059 29.4266 45.7317 30.8134 45.7742 32.2384C45.5305 32.5492 45.2447 32.8243 44.9252 33.0557Z" fill="#231F20"/>
<path d="M25.9692 85.481H33.9392V77.2353H25.9692V85.481Z" fill="#231F20"/>
<path d="M13.3672 77.2355C15.368 78.7779 16.8836 80.5442 18.0038 82.3462V77.2355H13.3672Z" fill="#231F20"/>
<path d="M57.8464 82.3457C58.9622 80.544 60.4787 78.7777 62.4839 77.2351H57.8464V82.3457Z" fill="#231F20"/>
<path d="M41.9062 85.481H49.8783V77.2353H41.9062V85.481Z" fill="#231F20"/>
</g>
</g>
<defs>
<clipPath id="clip0_32_537">
<rect width="76" height="90" fill="white"/>
</clipPath>
</defs>
</svg>
