<svg width="95" height="130" viewBox="0 0 95 130" fill="none" xmlns="http://www.w3.org/2000/svg">
<path d="M94.2439 65C94.2439 100.894 73.1479 130 47.1219 130C21.096 130 0 100.901 0 65C0 29.0987 21.096 0 47.1219 0C73.1479 0 94.2439 29.1063 94.2439 65Z" fill="#FFDB00"/>
<path d="M89.2297 65C89.2297 97.9357 70.3809 124.634 47.1295 124.634C23.8781 124.634 5.0293 97.9357 5.0293 65C5.0293 32.0643 23.8781 5.36572 47.1295 5.36572C70.3809 5.36572 89.2297 32.0643 89.2297 65Z" fill="#231916"/>
<mask id="mask0_77_975" style="mask-type:luminance" maskUnits="userSpaceOnUse" x="5" y="5" width="85" height="120">
<path d="M89.2297 65C89.2297 97.9357 70.3809 124.634 47.1295 124.634C23.8781 124.634 5.0293 97.9357 5.0293 65C5.0293 32.0643 23.8781 5.36572 47.1295 5.36572C70.3809 5.36572 89.2297 32.0643 89.2297 65Z" fill="white"/>
</mask>
<g mask="url(#mask0_77_975)">
<path d="M14.102 4.02808H4.96045V125.964H14.102V4.02808Z" fill="#004F9E"/>
<path d="M32.8972 4.02808H23.7556V125.964H32.8972V4.02808Z" fill="#004F9E"/>
<path d="M51.6926 4.02808H42.551V125.964H51.6926V4.02808Z" fill="#004F9E"/>
<path d="M70.4878 4.02808H61.3462V125.964H70.4878V4.02808Z" fill="#004F9E"/>
<path d="M89.2832 4.02808H80.1416V125.964H89.2832V4.02808Z" fill="#004F9E"/>
</g>
<path d="M39.6926 113.07L38.8212 112.986L38.9894 112.726L40.1206 110.945L40.1971 110.807C40.4952 110.28 40.8697 109.615 40.8697 109.026C40.8697 108.017 39.8531 107.475 38.9053 107.475C38.3397 107.475 37.7359 107.589 37.2467 107.78C37.2314 107.834 36.9715 108.69 36.8951 108.927C37.2696 108.659 37.7741 108.361 38.3321 108.361C38.7754 108.361 39.0811 108.652 39.0811 109.065C39.0811 109.439 38.8213 109.905 38.6684 110.188L37.9193 111.549C37.9193 111.549 36.597 113.719 36.49 113.888H40.9232C40.9461 113.819 41.2519 112.848 41.3207 112.649C40.7703 112.909 40.3041 113.07 39.6926 113.07Z" fill="#FFDB00"/>
<path d="M46.6864 110.7C46.6864 109.768 46.48 109.019 46.0597 108.43C45.6087 107.803 44.9743 107.475 44.2252 107.475C43.4227 107.475 42.6812 107.895 42.2379 108.606C41.894 109.202 41.7029 109.967 41.7029 110.769C41.7029 111.617 41.9169 112.435 42.2914 112.993C42.7118 113.62 43.4456 114.01 44.2023 114.01C44.959 114.01 45.6545 113.582 46.1132 112.902C46.587 112.175 46.6864 111.304 46.6864 110.693V110.7ZM44.1717 112.97C43.3386 112.97 43.2774 111.365 43.2774 110.876C43.2774 110.326 43.2927 109.691 43.4685 109.217C43.5985 108.866 43.866 108.491 44.2252 108.491C45.1119 108.491 45.1119 110.066 45.1119 110.578C45.1119 111.144 45.0431 112.978 44.1794 112.978L44.1717 112.97Z" fill="#FFDB00"/>
<path d="M52.4647 110.7C52.4647 109.76 52.2584 109.019 51.838 108.43C51.387 107.803 50.7526 107.475 50.0035 107.475C49.201 107.475 48.4596 107.895 48.0162 108.606C47.6723 109.195 47.4812 109.967 47.4812 110.769C47.4812 111.617 47.6952 112.435 48.0698 112.993C48.4901 113.62 49.2239 114.01 49.9806 114.01C50.7373 114.01 51.4329 113.582 51.8915 112.902C52.3654 112.183 52.4647 111.304 52.4647 110.693V110.7ZM49.9424 112.97C49.1322 112.97 49.0481 111.503 49.0481 110.876C49.0481 110.318 49.0634 109.684 49.2392 109.217C49.3691 108.866 49.629 108.491 49.9959 108.491C50.8825 108.491 50.8825 110.066 50.8825 110.578C50.8825 111.144 50.8137 112.978 49.95 112.978L49.9424 112.97Z" fill="#FFDB00"/>
<path d="M56.0649 110.303L55.8661 110.242L56.0649 110.188C56.684 110.02 57.0967 109.508 57.0967 108.919C57.0967 108.484 56.8139 108.063 56.34 107.788C55.9808 107.589 55.484 107.475 54.9795 107.475C54.475 107.475 53.9476 107.551 53.4508 107.666C53.4508 107.666 53.2215 108.438 53.168 108.629C53.4814 108.476 53.9553 108.277 54.3909 108.277C54.8725 108.277 55.3922 108.499 55.3922 109.118C55.3922 110.074 54.3298 110.074 53.9782 110.074H53.833V110.815H54.2304C54.6203 110.815 54.9948 110.838 55.3311 111.082C55.5986 111.296 55.7438 111.587 55.7438 111.946C55.7438 112.672 55.1859 113.2 54.4139 113.2C53.9629 113.2 53.4355 113.054 52.9922 112.833C53.0457 113.077 53.1986 113.742 53.1986 113.842V113.849C53.703 113.972 54.1922 114.033 54.6585 114.033C56.019 114.033 57.4865 113.383 57.4865 111.961C57.4865 111.159 56.9286 110.517 56.0725 110.326L56.0649 110.303Z" fill="#FFDB00"/>
<path d="M36.5433 79.5149C35.2363 81.487 31.8961 82.4882 31.8579 82.4959C29.7406 82.7863 25.7584 82.0679 25.7584 82.0679C21.371 81.9303 24.2832 80.6462 24.2832 80.6462C18.8946 80.8908 22.2959 79.5532 22.2959 79.5532C15.4321 80.3099 23.3278 77.2219 23.3278 77.2219C10.5785 78.9875 20.3162 75.976 20.3162 75.976C5.18218 75.334 17.1518 74.1569 17.1518 74.1569C4.41019 72.1161 10.8383 71.6575 10.8383 71.6575C3.43947 68.9517 13.1237 69.6778 13.1237 69.6778C8.59116 67.8969 7.02425 65.1987 7.02425 65.1987C5.99239 62.7375 8.16313 64.4955 8.16313 64.4955C9.28672 65.6726 11.8091 66.5669 11.8091 66.5669C7.53637 63.8076 6.3822 61.2318 6.3822 61.2318C5.96945 59.2139 7.44464 61.1783 7.44464 61.1783C9.70711 63.8688 14.0333 65.344 14.0333 65.344C6.93253 59.0075 6.68794 56.1489 6.68794 56.1489C6.80259 53.7106 8.38479 56.0113 8.38479 56.0113C11.0294 60.0394 12.474 60.2687 12.474 60.2687C6.9096 52.8316 7.44464 51.3793 7.44464 51.3793C8.35421 49.4379 9.26379 51.8685 9.26379 51.8685C12.2447 57.5323 14.5148 58.6941 14.5148 58.6941L11.8243 54.3221C8.61409 49.4991 8.7211 47.1219 8.7211 47.1219C8.73639 45.6391 9.7759 46.1894 9.7759 46.1894L9.27143 45.02C8.71346 42.6047 11.2282 43.5524 11.2282 43.5524L10.9453 42.8569C10.8536 37.002 13.032 36.7498 13.032 36.7498C14.9811 36.9026 14.2244 39.3256 14.2244 39.3256C13.8499 40.1511 13.8346 42.9486 13.8346 42.9486C15.7837 49.0175 26.5304 57.5018 26.5304 57.5018C33.8757 63.1121 39.0121 72.9339 39.0121 72.9339L40.3345 78.3837C40.3345 78.3837 37.9803 77.3518 36.5433 79.5149Z" fill="#FFDB00"/>
<path d="M36.3371 79.3773C35.0836 81.2653 31.8275 82.2436 31.7969 82.2513C29.7714 82.5264 25.8426 81.8232 25.8044 81.8156C24.0617 81.7621 23.6795 81.5251 23.6031 81.4563C23.7025 81.3723 23.8477 81.2653 23.8553 81.2576C23.8553 81.2576 24.0464 80.8372 25.3611 80.5697C25.3611 80.5697 28.2427 80.0958 29.1752 79.2932C29.1752 79.2932 30.6962 80.5085 34.0364 80.1493C34.0364 80.1493 34.7778 79.4538 35.6186 77.734C36.4594 76.0218 35.0377 72.7887 35.0377 72.7887C34.2046 70.6256 30.4593 65.3898 30.4593 65.3898C27.4325 60.9413 24.291 57.9985 24.291 57.9985C19.9342 53.7259 16.6934 51.3717 16.6934 51.3717C13.3991 48.6353 11.4194 43.3766 11.4194 43.3766C10.5175 40.9995 11.9239 38.1561 11.9239 38.1561C12.436 36.6427 13.4144 37.002 13.4144 37.002C14.515 37.323 14.1405 38.8899 14.1405 38.8899C13.8424 39.8071 13.5366 41.5957 13.5366 41.5957C13.2768 44.5461 16.9609 48.6582 16.9609 48.6582C19.0629 51.2647 26.8821 58.0368 26.8821 58.0368C33.0351 63.5936 35.7944 68.0115 35.7944 68.0115C37.3155 69.9988 38.225 71.7262 38.7754 73.0485C38.8671 72.9797 39.0123 72.9262 39.1499 72.8727C38.3091 70.9848 36.6428 68.0421 33.295 64.0292C33.295 64.0292 31.4911 61.377 24.6808 55.5221C24.6808 55.5221 17.7941 49.82 15.715 46.2964C15.715 46.2964 13.4067 43.6365 14.1558 40.3651C14.1558 40.3651 15.4399 37.5523 13.4602 36.6504C13.4602 36.6504 12.2984 36.0771 11.32 38.4772C11.32 38.4772 10.3952 40.5638 10.6321 42.9715C10.9455 43.5983 9.79135 43.0021 9.47797 43.262C9.47797 43.262 8.98115 43.5601 8.95822 44.1104C8.95822 44.1104 8.72891 44.7066 9.47797 45.8837C9.47797 45.8837 7.91106 45.5856 8.63719 48.8493C8.63719 48.8493 8.94293 49.9118 9.88307 51.4787L13.3991 57.3489C13.3991 57.3489 14.1711 58.526 13.1163 57.3489C13.1163 57.3489 10.5633 54.3526 9.19516 51.2494C9.19516 51.2494 8.98115 50.4697 8.09451 50.4239C8.09451 50.4239 6.66518 50.8213 7.49832 52.8545C7.49832 52.8545 8.83592 55.6597 11.1213 58.8623C11.1213 58.8623 12.0156 60.1387 10.892 58.9846L8.40024 55.7361C8.40024 55.7361 7.61297 54.5896 6.77218 54.9488C6.77218 54.9488 5.57216 56.3323 8.49961 60.0011C8.49961 60.0011 11.6334 63.5859 13.2768 64.8394C13.2768 64.8394 10.2729 64.205 7.08557 60.5973C7.08557 60.5973 5.93905 59.382 6.18364 60.9642C6.18364 60.9642 6.74925 63.3337 11.3888 66.3681C11.3888 66.3681 10.2882 66.0471 8.69834 64.6789C8.69834 64.6789 6.13014 62.4623 6.7034 64.8242C6.7034 64.8242 7.70469 67.614 12.4131 69.4867C12.4131 69.4867 3.49314 68.9975 10.3493 71.5198C10.3493 71.5198 3.98232 72.6511 16.8004 74.1874C16.8004 74.1874 7.62061 74.7683 15.4781 75.9683L19.6361 76.0753C19.6361 76.0753 12.0844 78.4525 19.2845 77.841L22.4413 77.3977C22.4413 77.3977 15.0118 80.478 21.7381 79.6907C21.7381 79.6907 18.7113 80.7378 23.8171 80.8678C23.8171 80.8678 23.1368 81.3646 22.9305 81.5786C22.9305 81.5786 22.9457 81.5786 22.9534 81.5786C22.8846 81.6245 22.877 81.6627 22.9763 81.6933C22.9075 81.6856 22.9075 81.6933 23.1903 81.7544C23.1903 81.7544 23.2056 81.7544 23.2209 81.7544C23.4196 81.999 23.9547 82.2513 25.7662 82.3048C25.8808 82.3277 29.2057 82.9239 31.3918 82.7863C31.4529 82.7863 31.5141 82.7863 31.5676 82.7863C31.5676 82.7863 31.5676 82.771 31.5752 82.771C31.6899 82.7634 31.7969 82.7481 31.9039 82.7328C31.9497 82.7252 35.3893 81.7086 36.7651 79.6448C38.0722 77.6881 40.1665 78.5595 40.2505 78.5977L40.4493 78.1391C40.4493 78.1391 37.8887 77.0537 36.3524 79.362L36.3371 79.3773ZM27.7229 78.7506C27.7229 78.7506 27.1573 78.3607 27.8911 78.0015L28.8236 77.7034C28.8236 77.7034 29.3815 77.6728 29.4198 77.6499C29.4198 77.6499 30.1612 77.39 30.9485 77.2907C30.9485 77.2907 31.6899 77.0384 32.0644 76.8397L32.5689 77.3442C32.5689 77.3442 31.7816 77.8716 30.5434 78.0856C30.5434 78.0856 29.565 78.4601 29.6338 78.4677C29.6338 78.4677 28.7471 79.362 27.7229 78.7582V78.7506ZM24.2069 72.246C24.2069 72.246 25.0401 73.0715 26.1637 73.5301C26.1331 73.5224 26.9204 73.9046 26.8974 73.897C27.0426 73.981 27.3484 74.0345 27.4936 74.1263C28.4261 74.3097 29.4045 74.4549 30.2223 74.6231C30.1612 74.7301 30.0236 75.0511 30.2453 75.4486C30.2453 75.4486 27.1649 75.9607 26.3089 74.7148C26.156 74.6995 25.9038 74.753 25.9038 74.753C25.9038 74.753 24.4744 74.7912 24.1764 73.3237C24.1764 73.3237 24.4209 73.0791 24.3674 72.995C24.2299 72.781 24.1534 72.5288 24.2146 72.2383L24.2069 72.246ZM27.7841 67.7822C26.5611 65.7032 30.5128 69.8994 30.5128 69.8994L31.2465 71.0154C30.3752 71.0612 30.5357 71.6421 30.8338 72.139C30.016 71.5122 28.793 70.6867 28.8083 70.7173L26.5917 69.265C24.849 67.2319 27.4248 68.3172 27.4248 68.3172C28.3955 68.8064 27.7764 67.7898 27.7764 67.7898L27.7841 67.7822ZM27.9751 70.5033C28.1586 70.6485 28.3344 70.6638 28.6783 71.0536C29.1217 71.451 30.2988 72.246 30.8338 72.6052C29.9013 72.4141 29.2287 73.0715 29.2287 73.0715C28.8083 72.8269 27.8987 72.3759 27.8987 72.3759C25.7662 71.2217 25.4146 70.4421 25.4146 70.4421C25.1165 70.0141 25.2694 69.6701 25.2694 69.6701C25.5675 69.0204 27.0197 69.8841 27.9599 70.5109L27.9751 70.5033ZM25.277 70.9007C25.277 70.9007 25.491 71.344 25.9649 71.6574C25.9649 71.6574 26.5152 72.0014 26.7598 72.2001L29.2134 73.3466C29.2134 73.3466 29.2669 73.9505 29.886 74.3173C29.3586 74.1798 26.8439 73.5377 26.9204 73.6065C26.0414 73.1555 23.8706 72.0243 24.2681 70.8549C24.2681 70.8549 24.6044 70.2281 25.2694 70.9007H25.277ZM25.3611 74.967L26.1025 75.0817C26.1025 75.0817 26.9662 75.8002 28.0516 75.7849C28.0516 75.7849 26.821 76.083 26.6146 76.2053C26.2019 76.2588 25.514 76.2206 24.956 75.6091C24.956 75.6091 24.505 74.8524 25.3687 74.967H25.3611ZM26.0796 76.4957L27.2108 76.3734C27.2108 76.3734 27.2261 76.3658 27.2414 76.3582C27.6235 76.1824 29.4809 75.762 30.4516 75.739C30.4516 75.739 31.3077 76.3581 31.5829 76.618C31.5829 76.618 30.6121 77.0919 29.5038 77.1148C29.351 77.1684 28.7471 77.3289 28.579 77.3747C28.5102 77.4359 27.7535 78.0779 26.156 77.176C26.156 77.176 24.8337 76.7097 26.0719 76.4957H26.0796ZM33.6925 79.7366C33.6925 79.7366 29.4198 80.0194 29.5344 79.0181C29.5344 79.0181 31.4223 78.2079 31.3918 78.1926L32.8899 77.6346C32.8899 77.6346 33.83 78.4372 34.3651 78.6359C34.3651 78.6359 34.5332 78.7047 34.6555 78.827C34.6555 78.827 34.2199 79.4385 33.6848 79.7442L33.6925 79.7366ZM35.3052 77.3518C35.2517 77.4741 35.0912 77.8181 35.1294 77.8257C35.1294 77.8257 35.0453 78.2461 34.9383 78.376C34.9383 78.376 34.0593 78.4372 33.4479 77.6499C33.4479 77.6499 32.8975 77.0002 32.5689 76.8397C32.5689 76.8397 34.4874 77.1148 35.2211 76.7633C35.2211 76.7633 35.4046 77.3289 35.3052 77.3518ZM35.4352 76.404C35.4352 76.404 32.0873 77.5352 30.6656 75.2881C30.6656 75.2881 30.2758 74.6537 30.9102 74.99C30.9102 74.99 32.202 75.762 33.9906 75.7085L35.504 75.7543C35.504 75.7543 35.5957 76.1671 35.4275 76.404H35.4352ZM35.3434 75.3569C35.3434 75.3569 33.4402 76.0448 30.444 74.4091C30.444 74.4091 28.8465 73.1708 30.0618 72.995C30.0618 72.995 30.979 72.7275 32.3243 73.5224C32.3243 73.5224 34.8161 74.6613 35.2899 74.7377C35.2899 74.7377 35.6798 75.0053 35.3434 75.3645V75.3569ZM35.2441 74.3479C35.2441 74.3479 32.3625 73.8129 31.2313 72.0625C31.2313 72.0625 30.5969 71.451 31.4759 71.3899C31.4759 71.3899 33.1574 71.1912 34.0058 71.4434C34.0058 71.4434 35.0301 73.4307 35.2441 74.3479ZM29.6414 64.8242L32.1332 68.4395C32.309 68.73 32.5459 69.265 32.5459 69.265C32.4848 69.2421 33.2415 69.8536 33.7995 71.1224L32.9587 70.9695L32.4695 70.9313L31.6211 70.916C31.1166 70.381 30.1153 69.0204 30.1459 69.0969C29.458 68.3172 28.1127 67.4382 27.9751 66.865C27.8529 66.3758 28.9153 66.9796 29.007 66.651C28.5331 64.7172 29.6261 64.8242 29.6261 64.8242H29.6414ZM9.42447 44.118C9.42447 44.118 9.99008 43.1549 11.1137 43.8505C11.1137 43.8505 12.9328 48.0391 14.4692 49.6519C14.4692 49.6519 16.6705 51.7997 18.9329 53.5653C18.9329 53.5653 22.3648 56.3705 23.8018 58.0826C23.8018 58.0826 24.1763 58.3807 25.5522 59.8406C25.5522 59.8406 28.5102 63.2114 29.3968 64.4802C29.3968 64.4802 28.6096 64.549 28.5331 65C28.5331 65 28.4032 65.9095 28.686 66.4064L27.3484 66.3452C27.3484 66.3452 21.9521 62.8521 22.0668 62.9821C22.0668 62.9821 20.3699 61.5451 18.6807 58.9616C18.6807 58.9616 18.4667 58.1743 18.3138 58.1514C18.3138 58.1514 14.0793 53.6112 12.1914 50.4162C12.1914 50.4162 10.357 46.9614 10.0436 46.4111C10.0436 46.4111 9.01936 44.5078 9.42447 44.1257V44.118ZM10.5786 51.8303C8.49961 48.406 9.01936 46.7703 9.01936 46.7703C9.24867 45.4021 9.95951 46.9614 9.95951 46.9614C10.3646 47.6952 11.771 50.5844 11.771 50.5844C14.3316 54.6813 17.9087 58.289 17.9087 58.289C18.1074 59.1145 20.2782 62.0649 20.2782 62.0649C20.2476 62.1413 21.0578 62.9744 22.3878 63.6929C22.3878 63.6929 24.0999 65.0076 27.1038 66.5134L27.0121 66.972C27.0121 66.972 27.035 67.3083 27.0809 67.3236C27.0809 67.3236 27.6312 67.9886 26.9586 67.7287C26.9586 67.7287 26.3853 67.3694 25.8961 67.5605C25.8961 67.5605 21.654 65.9172 19.6361 63.991L18.6425 62.5311L17.6718 61.3158C16.6934 60.6738 16.8004 60.5056 14.622 58.3884C13.8271 57.3871 10.5786 51.8226 10.5786 51.8226V51.8303ZM8.77477 54.5361C6.8104 51.257 8.15565 50.7755 8.15565 50.7755C8.82827 50.6685 9.43211 52.457 9.43211 52.457C11.8474 57.3641 16.2501 60.7884 16.2501 60.7884C17.9775 62.233 18.5202 63.5324 18.7036 63.6853L20.1865 65.2369L20.6833 65.5121C21.8222 66.2611 25.6974 67.8433 25.6974 67.8433C25.3687 68.065 25.7433 68.7376 25.7433 68.7376L25.7203 69.0434C20.3623 67.3389 18.2603 65.3821 18.2603 65.3821C17.4348 64.1974 17.4883 64.5261 16.5558 63.6318C15.6845 63.0585 13.9876 61.5451 13.9876 61.5451C11.9621 59.8865 8.78241 54.5361 8.78241 54.5361H8.77477ZM9.07287 59.9935C9.07287 59.9935 7.13143 58.0444 6.94799 55.6749C6.94799 55.6749 6.89448 54.4138 8.07158 55.8202C8.07158 55.8202 10.5481 60.1158 15.9978 63.6012L16.8004 64.4191C16.8004 64.4191 18.031 65.7872 18.3826 66.1847C18.4361 66.2076 18.482 66.2458 18.5278 66.2764C18.5278 66.2764 22.1126 68.5007 25.0324 69.1886C25.0324 69.1886 24.3827 69.4867 24.8795 70.2663C24.8795 70.2663 21.2336 70.1669 17.0144 66.9567C17.0144 66.9567 15.4093 65.7872 15.4322 65.8255C15.4322 65.8255 12.887 64.8012 9.06522 59.9935H9.07287ZM6.77218 61.5528C6.77218 61.5528 5.83968 59.6113 7.09321 60.9719C7.09321 60.9719 8.70598 63.0356 11.9468 64.6484C11.9468 64.6484 14.2781 65.6649 15.18 66.1694C15.18 66.1694 16.4641 67.1478 16.701 67.1783C16.701 67.1783 18.5355 68.8905 23.9394 70.4803C23.9394 70.4803 23.8018 71.2905 23.9394 71.7186C23.9394 71.7186 19.4756 70.9236 15.7838 68.1873C15.7838 68.1873 15.3252 68.0726 14.3774 67.5452C14.3774 67.5452 14.0564 67.4 13.9953 67.507C13.9953 67.507 9.1493 65.4356 6.77218 61.5528ZM7.1085 65.0535C7.1085 65.0535 6.55817 63.5171 7.64354 64.2433C7.64354 64.2433 11.4958 67.507 14.8666 68.0803C14.8666 68.0803 15.4704 68.4854 15.6462 68.4854C15.6462 68.4854 17.5036 69.6472 17.7864 69.7771C17.7864 69.7771 13.2386 69.4943 13.3303 69.586C13.3303 69.586 8.75184 67.9121 7.1085 65.0535ZM9.79136 71.0001C9.79136 71.0001 7.06263 69.8918 9.35567 69.8383L14.0793 69.93C14.0793 69.93 15.3099 70.1058 15.1571 69.9606C15.1571 69.9606 17.0068 70.3504 18.0234 70.1134L18.4132 70.0982C18.4132 70.0982 21.203 71.6192 23.9088 72.0243C23.9088 72.0243 23.7789 72.5593 23.9394 72.9568C23.9394 72.9568 22.319 72.9262 21.4553 72.995C21.4553 72.995 13.9494 72.8345 9.79136 70.9924V71.0001ZM10.8003 72.6511C10.8003 72.6511 8.20151 72.3835 11.1595 71.8562C11.1595 71.8562 13.6513 72.6205 17.366 72.9415C17.366 72.9415 21.4094 73.5454 23.84 73.3237L24.3292 74.3708C24.3292 74.3708 13.766 74.004 10.8003 72.6511ZM14.729 75.4944C14.729 75.4944 10.6398 74.9976 14.6144 74.753C14.6144 74.753 16.9686 74.3173 18.1839 74.2791C18.1839 74.2791 23.9623 74.5696 24.5738 74.7072C24.5738 74.7072 24.2375 74.8295 24.0541 75.1123C24.0541 75.1123 20.0183 76.1136 14.7367 75.5021L14.729 75.4944ZM18.2985 77.6193C14.9889 77.9021 19.338 76.5798 19.338 76.5798C21.6693 75.5785 24.3751 75.4868 24.3751 75.4868C24.4362 75.7772 25.0706 76.1823 25.2847 76.3046C25.1165 76.4116 24.9331 76.5645 24.9331 76.5645C23.3661 77.2677 18.2985 77.6193 18.2985 77.6193ZM20.1559 79.5225C17.924 79.5531 22.2808 77.9709 22.2808 77.9709C23.7101 77.3365 24.7037 76.9849 25.1471 76.832C25.3076 77.4588 27.0274 77.8945 27.0274 77.8945C26.5382 78.0856 24.2146 78.9569 24.2146 78.9569C23.0298 79.4232 20.1482 79.5302 20.1482 79.5302L20.1559 79.5225ZM22.5789 80.4398C22.5789 80.4398 20.1253 80.4703 22.5177 79.7213C22.5177 79.7213 25.7662 78.8193 27.2337 78.2002C27.2337 78.2002 27.142 79.2627 28.4261 79.2015C28.4261 79.2015 26.1407 80.7226 22.5789 80.4321V80.4398Z" fill="#004F9E"/>
<path d="M57.7005 79.5149C59.0075 81.487 62.3477 82.4882 62.386 82.4959C64.5032 82.7863 68.4854 82.0679 68.4854 82.0679C72.8728 81.9303 69.9683 80.6462 69.9683 80.6462C75.3569 80.8908 71.9479 79.5532 71.9479 79.5532C78.8117 80.3099 70.9237 77.2219 70.9237 77.2219C83.673 78.9875 73.9352 75.976 73.9352 75.976C89.0769 75.334 77.0996 74.1569 77.0996 74.1569C89.8413 72.1161 83.4131 71.6575 83.4131 71.6575C90.812 68.9517 81.1277 69.6778 81.1277 69.6778C85.6603 67.8969 87.2272 65.1987 87.2272 65.1987C88.2591 62.7375 86.0883 64.4955 86.0883 64.4955C84.9647 65.6726 82.4424 66.5669 82.4424 66.5669C86.7151 63.8076 87.8693 61.2318 87.8693 61.2318C88.282 59.2139 86.8068 61.1783 86.8068 61.1783C84.5443 63.8688 80.2182 65.344 80.2182 65.344C87.3189 59.0075 87.5635 56.1489 87.5635 56.1489C87.4489 53.7106 85.8667 56.0113 85.8667 56.0113C83.222 60.0394 81.7774 60.2687 81.7774 60.2687C87.3419 52.8316 86.8068 51.3793 86.8068 51.3793C85.8972 49.4379 84.9877 51.8685 84.9877 51.8685C82.0067 57.5323 79.7366 58.6941 79.7366 58.6941L82.4271 54.3221C85.6374 49.4991 85.5304 47.1219 85.5304 47.1219C85.5151 45.6391 84.4756 46.1894 84.4756 46.1894L84.98 45.02C85.538 42.6047 83.0233 43.5524 83.0233 43.5524L83.3061 42.8569C83.4055 37.002 81.2194 36.7498 81.2194 36.7498C79.2704 36.9026 80.0271 39.3256 80.0271 39.3256C80.4016 40.1511 80.4169 42.9486 80.4169 42.9486C78.4678 49.0175 67.7211 57.5018 67.7211 57.5018C60.3757 63.1121 55.2393 72.9339 55.2393 72.9339L53.917 78.3837C53.917 78.3837 56.2712 77.3518 57.7082 79.5149H57.7005Z" fill="#FFDB00"/>
<path d="M88.0604 60.9642C88.305 59.3897 87.1584 60.5973 87.1584 60.5973C83.9711 64.205 80.9749 64.8394 80.9749 64.8394C82.6182 63.5859 85.752 60.0011 85.752 60.0011C88.6795 56.3323 87.4795 54.9488 87.4795 54.9488C86.6387 54.5896 85.8514 55.7361 85.8514 55.7361L83.3596 58.9846C82.236 60.1387 83.1303 58.8623 83.1303 58.8623C85.4234 55.6597 86.7533 52.8545 86.7533 52.8545C87.5865 50.8213 86.1571 50.4239 86.1571 50.4239C85.2629 50.4621 85.0565 51.2494 85.0565 51.2494C83.6883 54.3526 81.1354 57.3489 81.1354 57.3489C80.0806 58.5183 80.8526 57.3489 80.8526 57.3489L84.3686 51.4787C85.3011 49.9118 85.6145 48.8493 85.6145 48.8493C86.3482 45.5932 84.7813 45.8837 84.7813 45.8837C85.5304 44.7142 85.3011 44.1104 85.3011 44.1104C85.2781 43.5601 84.7813 43.262 84.7813 43.262C84.4756 42.9944 83.3214 43.5983 83.6271 42.9715C83.8641 40.5562 82.9392 38.4772 82.9392 38.4772C81.9609 36.0771 80.7991 36.6504 80.7991 36.6504C78.8271 37.5523 80.1035 40.3651 80.1035 40.3651C80.8602 43.6365 78.5519 46.2964 78.5519 46.2964C76.4652 49.82 69.5861 55.5221 69.5861 55.5221C62.7758 61.377 60.9719 64.0292 60.9719 64.0292C57.6317 68.0421 55.9578 70.9848 55.117 72.8727C55.2546 72.9262 55.3998 72.9797 55.4916 73.0485C56.0419 71.7339 56.9515 69.9988 58.4649 68.0115C58.4649 68.0115 61.2165 63.5936 67.3772 58.0368C67.3772 58.0368 75.1964 51.2647 77.2984 48.6582C77.2984 48.6582 80.9902 44.5461 80.7226 41.5957C80.7226 41.5957 80.4169 39.8071 80.1112 38.8899C80.1112 38.8899 79.7366 37.323 80.8373 37.002C80.8373 37.002 81.8157 36.6504 82.3278 38.1561C82.3278 38.1561 83.7342 40.9995 82.8322 43.3766C82.8322 43.3766 80.8602 48.6353 77.5659 51.3717C77.5659 51.3717 74.3251 53.7259 69.9683 57.9986C69.9683 57.9986 66.8268 60.9413 63.8 65.3898C63.8 65.3898 60.0547 70.6256 59.2216 72.7887C59.2216 72.7887 57.7999 76.0142 58.6407 77.734C59.4738 79.4461 60.2229 80.1493 60.2229 80.1493C63.5631 80.5085 65.0841 79.2932 65.0841 79.2932C66.0243 80.1034 68.8982 80.5697 68.8982 80.5697C70.2129 80.8372 70.404 81.2576 70.404 81.2576C70.4193 81.2653 70.5568 81.3799 70.6638 81.4563C70.5874 81.5251 70.2052 81.7544 68.5007 81.8079C68.4243 81.8232 64.4956 82.5264 62.4471 82.2436C62.4471 82.2436 59.191 81.2653 57.9375 79.3773C56.4011 77.069 53.8635 78.1391 53.8406 78.1544L54.0393 78.613C54.131 78.5748 56.2253 77.6958 57.5247 79.6601C58.8929 81.7239 62.3401 82.7404 62.3707 82.7481C62.4777 82.7634 62.5923 82.771 62.707 82.7863C62.707 82.7863 62.707 82.7939 62.7146 82.8016C62.7758 82.8016 62.8446 82.8016 62.9134 82.8016C65.107 82.9392 68.409 82.343 68.5619 82.3201C70.3428 82.2666 70.8779 82.0143 71.0766 81.7697C71.0919 81.7697 71.1072 81.7697 71.1072 81.7697C71.3976 81.7086 71.39 81.7009 71.3212 81.7086C71.4205 81.6856 71.4129 81.6398 71.3441 81.5939C71.3518 81.5939 71.3594 81.5939 71.367 81.5939C71.153 81.3799 70.4804 80.8831 70.4804 80.8831C75.5862 80.7531 72.5594 79.706 72.5594 79.706C79.278 80.4933 71.8486 77.413 71.8486 77.413L75.0053 77.8563C82.2055 78.4677 74.6537 76.0906 74.6537 76.0906L78.8118 75.9836C86.6693 74.7836 77.4895 74.2027 77.4895 74.2027C90.3075 72.6664 83.9405 71.5351 83.9405 71.5351C90.7967 69.0128 81.8768 69.502 81.8768 69.502C86.5852 67.6217 87.5865 64.8394 87.5865 64.8394C88.1521 62.47 85.5915 64.6942 85.5915 64.6942C84.0017 66.0624 82.901 66.3834 82.901 66.3834C87.533 63.349 88.1062 60.9795 88.1062 60.9795L88.0604 60.9642ZM86.1724 55.8202C87.3495 54.4138 87.296 55.6749 87.296 55.6749C87.1126 58.0368 85.1711 59.9935 85.1711 59.9935C81.3494 64.8089 78.8041 65.8255 78.8041 65.8255C78.8194 65.7872 77.2219 66.9567 77.2219 66.9567C73.0027 70.1669 69.3568 70.2663 69.3568 70.2663C69.8536 69.4867 69.2039 69.1886 69.2039 69.1886C72.1237 68.5007 75.7085 66.2764 75.7085 66.2764C75.762 66.2458 75.8079 66.2153 75.8538 66.1847C76.2053 65.7872 77.436 64.4191 77.436 64.4191L78.2385 63.6012C83.6883 60.1158 86.1648 55.8202 86.1648 55.8202H86.1724ZM67.637 76.2053C67.4307 76.083 66.2001 75.7849 66.2001 75.7849C67.2854 75.7925 68.1491 75.0817 68.1491 75.0817L68.8906 74.967C69.7543 74.8524 69.3033 75.6091 69.3033 75.6091C68.7377 76.2129 68.0574 76.2588 67.637 76.2053ZM68.0803 77.176C66.4905 78.0779 65.7262 77.4359 65.665 77.3747C65.4969 77.3289 64.893 77.1607 64.7402 77.1148C63.6319 77.0919 62.6611 76.618 62.6611 76.618C62.9363 76.3582 63.7924 75.739 63.7924 75.739C64.7631 75.762 66.6204 76.1824 67.0026 76.3582L67.0332 76.3734L68.1721 76.4957C69.4027 76.7097 68.088 77.176 68.088 77.176H68.0803ZM68.3479 74.7607C68.3479 74.7607 68.0956 74.7072 67.9428 74.7225C67.0867 75.9683 64.0064 75.4562 64.0064 75.4562C64.2357 75.0511 64.0981 74.7377 64.0293 74.6307C64.8548 74.4626 65.8255 74.3173 66.758 74.1339C66.8956 74.0422 67.2014 73.981 67.3542 73.9046C67.3237 73.9122 68.1109 73.5301 68.088 73.5377C69.2116 73.0791 70.0371 72.2536 70.0371 72.2536C70.0906 72.5441 70.0141 72.7963 69.8842 73.0103C69.8307 73.0944 70.0753 73.339 70.0753 73.339C69.7772 74.8065 68.3479 74.7683 68.3479 74.7683V74.7607ZM66.8192 68.3096C66.8192 68.3096 69.395 67.2318 67.6523 69.2574L65.4357 70.7096C65.4357 70.7096 64.228 71.5046 63.4102 72.1313C63.7083 71.6421 63.8688 71.0612 62.9975 71.0077L63.7389 69.8918C63.7389 69.8918 67.6905 65.6955 66.4676 67.7745C66.4676 67.7745 65.8485 68.7911 66.8192 68.3019V68.3096ZM65.5733 71.0536C65.9249 70.6714 66.0931 70.6485 66.2765 70.5033C67.2166 69.8689 68.6689 69.0128 68.967 69.6625C68.967 69.6625 69.1199 70.0064 68.8294 70.4345C68.8294 70.4345 68.4778 71.2141 66.3453 72.3683C66.3453 72.3683 65.4357 72.8192 65.0153 73.0638C65.0153 73.0638 64.3427 72.4065 63.4102 72.5976C63.9529 72.2383 65.1223 71.4434 65.5657 71.0459L65.5733 71.0536ZM65.023 73.3466L67.4765 72.2001C67.7288 72.009 68.2714 71.6574 68.2714 71.6574C68.753 71.344 68.967 70.9007 68.967 70.9007C69.632 70.2357 69.9683 70.8549 69.9683 70.8549C70.3657 72.0243 68.2026 73.1479 67.316 73.6065C67.4001 73.5377 64.8777 74.1798 64.3503 74.3173C64.9695 73.9505 65.023 73.3466 65.023 73.3466ZM84.8043 52.457C84.8043 52.457 85.4081 50.6685 86.0807 50.7755C86.0807 50.7755 87.4336 51.257 85.4616 54.5361C85.4616 54.5361 82.2743 59.8865 80.2564 61.5451C80.2564 61.5451 78.5595 63.0585 77.6882 63.6318C76.7557 64.5261 76.8015 64.205 75.9837 65.3821C75.9837 65.3821 73.8741 67.3389 68.5237 69.0434L68.5007 68.7376C68.5007 68.7376 68.8753 68.065 68.5466 67.8433C68.5466 67.8433 72.4218 66.2611 73.5531 65.5121L74.0575 65.2369L75.5404 63.6853C75.7238 63.5324 76.2665 62.233 77.9939 60.7884C77.9939 60.7884 82.3966 57.3641 84.8119 52.457H84.8043ZM85.2246 46.7703C85.2246 46.7703 85.7444 48.4137 83.6654 51.8303C83.6654 51.8303 80.4093 57.3947 79.622 58.396C77.4512 60.5133 77.5506 60.6814 76.5722 61.3235L75.6015 62.5388L74.6079 63.9987C72.59 65.9248 68.3479 67.5682 68.3479 67.5682C67.8663 67.3771 67.2854 67.7363 67.2854 67.7363C66.6128 67.9962 67.1555 67.3312 67.1555 67.3312C67.1937 67.3236 67.2243 66.9796 67.2243 66.9796L67.1326 66.521C70.1364 65.0153 71.8486 63.7006 71.8486 63.7006C73.1785 62.9821 73.9964 62.149 73.9658 62.0725C73.9658 62.0725 76.1442 59.1221 76.3353 58.2966C76.3353 58.2966 79.9124 54.6966 82.473 50.592C82.473 50.592 83.8794 47.7028 84.2845 46.969C84.2845 46.969 84.9953 45.4098 85.217 46.778L85.2246 46.7703ZM68.6995 59.8483C70.0829 58.3884 70.4498 58.0903 70.4498 58.0903C71.8868 56.3781 75.3187 53.573 75.3187 53.573C77.5812 51.8074 79.7825 49.6595 79.7825 49.6595C81.3188 48.0468 83.138 43.8581 83.138 43.8581C84.2616 43.1626 84.8272 44.1257 84.8272 44.1257C85.2246 44.5002 84.2081 46.4111 84.2081 46.4111C83.8947 46.969 82.0602 50.4162 82.0602 50.4162C80.1723 53.6112 75.9378 58.1514 75.9378 58.1514C75.7773 58.182 75.5709 58.9616 75.5709 58.9616C73.8741 61.5451 72.1849 62.9821 72.1849 62.9821C72.3072 62.8522 66.9033 66.3452 66.9033 66.3452L65.5657 66.4064C65.8485 65.9095 65.7185 65 65.7185 65C65.6497 64.549 64.8548 64.4802 64.8548 64.4802C65.7415 63.2114 68.6995 59.8406 68.6995 59.8406V59.8483ZM61.6981 69.2727C61.6981 69.2727 61.935 68.7376 62.1108 68.4472L64.6026 64.8318C64.6026 64.8318 65.6956 64.7248 65.2217 66.6586C65.3211 66.9873 66.3759 66.3834 66.2536 66.8726C66.116 67.4459 64.7707 68.3172 64.0828 69.1045C64.1134 69.0281 63.1121 70.3886 62.6076 70.9236L61.7592 70.9389L61.27 70.9771L60.4292 71.13C60.9949 69.8689 61.7439 69.2574 61.6828 69.2727H61.6981ZM60.2382 71.4434C61.0942 71.1912 62.7681 71.3899 62.7681 71.3899C63.6471 71.451 63.0127 72.0625 63.0127 72.0625C61.8815 73.8129 58.9999 74.3479 58.9999 74.3479C59.2139 73.4307 60.2382 71.4434 60.2382 71.4434ZM58.9617 74.7301C59.4356 74.6537 61.9274 73.5148 61.9274 73.5148C63.2726 72.7199 64.1898 72.9874 64.1898 72.9874C65.4128 73.1632 63.8153 74.4014 63.8153 74.4014C60.8191 76.0371 58.9158 75.3492 58.9158 75.3492C58.5795 74.9976 58.9693 74.7225 58.9693 74.7225L58.9617 74.7301ZM58.74 75.7467L60.2534 75.7008C62.042 75.7543 63.3338 74.9823 63.3338 74.9823C63.9758 74.646 63.5784 75.2804 63.5784 75.2804C62.1567 77.5276 58.8088 76.3964 58.8088 76.3964C58.6407 76.1518 58.74 75.7467 58.74 75.7467ZM59.3133 78.376C59.1986 78.2461 59.1222 77.8257 59.1222 77.8257C59.1681 77.8257 59.0076 77.4817 58.9464 77.3518C58.8471 77.3289 59.0305 76.7633 59.0305 76.7633C59.7643 77.1149 61.6828 76.8397 61.6828 76.8397C61.3541 77.0002 60.8038 77.6499 60.8038 77.6499C60.1999 78.4295 59.3209 78.376 59.3209 78.376H59.3133ZM60.5592 79.7366C60.0241 79.4308 59.5885 78.8193 59.5885 78.8193C59.7108 78.6894 59.8789 78.6283 59.8789 78.6283C60.414 78.4295 61.3541 77.627 61.3541 77.627L62.8522 78.1849L64.7096 79.0104C64.8242 80.0117 60.5515 79.7289 60.5515 79.7289L60.5592 79.7366ZM64.6179 78.4601C64.679 78.4601 63.7083 78.0779 63.7083 78.0779C62.4777 77.8639 61.6828 77.3365 61.6828 77.3365L62.1872 76.832C62.5618 77.0308 63.3032 77.283 63.3032 77.283C64.0828 77.3824 64.8319 77.6423 64.8319 77.6423C64.8625 77.6652 65.4281 77.6958 65.4281 77.6958L66.3606 77.9939C67.0943 78.3531 66.5287 78.7429 66.5287 78.7429C65.5045 79.3467 64.6179 78.4525 64.6179 78.4525V78.4601ZM71.6728 80.4398C68.1186 80.7302 65.8255 79.2092 65.8255 79.2092C67.102 79.2703 67.0179 78.2079 67.0179 78.2079C68.4855 78.8193 71.7416 79.7289 71.7416 79.7289C74.1263 80.4703 71.6728 80.4474 71.6728 80.4474V80.4398ZM71.9632 77.9786C71.9632 77.9786 76.32 79.5608 74.0881 79.5302C74.0881 79.5302 71.2065 79.4232 70.0218 78.9569C70.0218 78.9569 67.6982 78.0932 67.209 77.8945C67.209 77.8945 68.9288 77.4664 69.0893 76.832C69.5326 76.9849 70.5263 77.3365 71.9556 77.9709L71.9632 77.9786ZM74.906 76.5875C74.906 76.5875 79.2551 77.9021 75.9455 77.627C75.9455 77.627 70.8779 77.2754 69.3109 76.5722C69.3109 76.5722 69.1275 76.4193 68.9594 76.3123C69.1657 76.19 69.8078 75.7849 69.8689 75.4944C69.8689 75.4944 72.5747 75.5862 74.906 76.5875ZM79.6373 74.753C83.6119 75.0053 79.5226 75.4944 79.5226 75.4944C74.241 76.1136 70.2052 75.1046 70.2052 75.1046C70.0218 74.8218 69.6855 74.6995 69.6855 74.6995C70.297 74.5543 76.0754 74.2715 76.0754 74.2715C77.2831 74.3097 79.6373 74.7454 79.6373 74.7454V74.753ZM83.4437 72.6511C80.4857 73.9963 69.9148 74.3708 69.9148 74.3708L70.404 73.3237C72.8346 73.5454 76.878 72.9415 76.878 72.9415C80.5927 72.6205 83.0845 71.8562 83.0845 71.8562C86.0425 72.3836 83.4437 72.6511 83.4437 72.6511ZM84.8883 69.8306C87.189 69.8841 84.4526 70.9924 84.4526 70.9924C80.2946 72.8345 72.7887 72.995 72.7887 72.995C71.925 72.9186 70.3046 72.9568 70.3046 72.9568C70.4651 72.5594 70.3352 72.0243 70.3352 72.0243C73.041 71.6192 75.8308 70.0982 75.8308 70.0982L76.2206 70.1134C77.2372 70.3427 79.0869 69.9606 79.0869 69.9606C78.9341 70.0982 80.1647 69.93 80.1647 69.93L84.8883 69.8383V69.8306ZM86.6005 64.2433C87.6935 63.5171 87.1355 65.0535 87.1355 65.0535C85.4922 67.9121 80.9137 69.586 80.9137 69.586C81.0131 69.4943 76.4576 69.7771 76.4576 69.7771C76.7404 69.6472 78.5977 68.4854 78.5977 68.4854C78.7736 68.4854 79.3774 68.0803 79.3774 68.0803C82.7482 67.507 86.6005 64.2433 86.6005 64.2433ZM80.2487 67.507C80.1876 67.4 79.8666 67.5452 79.8666 67.5452C78.9188 68.0726 78.4525 68.1873 78.4525 68.1873C74.7607 70.9313 70.297 71.7186 70.297 71.7186C70.4422 71.2905 70.297 70.4803 70.297 70.4803C75.7009 68.8905 77.5353 67.1783 77.5353 67.1783C77.7723 67.1478 79.0564 66.1694 79.0564 66.1694C79.9583 65.6649 82.2895 64.6484 82.2895 64.6484C85.5304 63.0356 87.1431 60.9719 87.1431 60.9719C88.4043 59.619 87.4642 61.5528 87.4642 61.5528C85.0871 65.428 80.2411 67.507 80.2411 67.507H80.2487Z" fill="#004F9E"/>
<path d="M60.7044 89.8565L60.628 89.7725C60.3452 89.4514 59.4509 89.0998 58.6636 89.1381C58.6483 89.1228 58.6407 89.1151 58.6254 89.0998C58.8088 88.2743 58.9388 87.4488 58.9617 86.6386C58.9617 85.7673 58.8394 84.8959 58.6407 84.0246C59.4356 84.0628 60.3299 83.7035 60.6127 83.3749C60.5898 83.3978 60.6738 83.3137 60.6738 83.3137C60.842 83.1456 61.2318 82.7558 61.0025 82.0755C60.7809 81.3952 60.2152 81.3035 60.0012 81.2729C60.0165 81.2729 59.8942 81.25 59.8942 81.25C59.4815 81.1583 58.5566 81.4029 57.9451 81.8997C57.9451 81.8997 57.9375 81.8997 57.9298 81.8997C57.2343 80.3175 56.2024 78.9035 54.8954 77.7646C55.5604 77.3365 56.0878 76.534 56.126 76.0907C56.126 76.1059 56.1413 75.9837 56.1413 75.9837C56.1413 76.0142 56.1642 75.7161 56.1642 75.7161C56.1642 75.3493 55.996 75.0359 55.6827 74.7989C55.1018 74.3785 54.5896 74.6384 54.3986 74.7378C54.4138 74.7301 54.2992 74.7836 54.2992 74.7836C53.917 74.9518 53.3208 75.6932 53.1145 76.4499C53.1145 76.4499 53.1068 76.4499 53.0915 76.4576C51.601 75.5862 49.9348 75.0588 48.2074 74.8983C48.2074 74.8983 48.2074 74.8932 48.2074 74.883C48.3602 74.4779 48.429 74.0651 48.429 73.8205C48.429 73.576 48.3984 73.1021 48.2303 72.8116C48.2456 72.8345 48.1844 72.7275 48.1844 72.7275C48.0927 72.5441 47.8328 72.032 47.1067 72.032C46.3806 72.032 46.1283 72.5517 46.029 72.7428C46.029 72.7275 45.9755 72.8422 45.9755 72.8422C45.815 73.1097 45.7844 73.576 45.7844 73.8282C45.7844 74.0651 45.8532 74.4703 45.9984 74.8677C45.9984 74.8677 45.9908 74.8906 45.9755 74.9059C44.2404 75.0741 42.5818 75.6244 41.1066 76.4958C40.9002 75.7314 40.2964 74.9824 39.8913 74.8142C39.9218 74.8295 39.8148 74.776 39.8148 74.776C39.6085 74.669 39.1193 74.4167 38.5307 74.8371C38.2097 75.0741 38.0415 75.3875 38.0415 75.7543L38.0721 76.0372L38.0874 76.1671C38.118 76.5722 38.6377 77.3671 39.3027 77.8028C39.3027 77.8028 39.3027 77.8181 39.3027 77.8257C38.0186 78.9722 36.9944 80.3939 36.3141 81.9838C35.7026 81.4869 34.7701 81.2424 34.3421 81.3341C34.3574 81.3341 34.2427 81.3494 34.2427 81.3494C34.0211 81.3876 33.4708 81.4717 33.2491 82.1519C33.0274 82.8475 33.4402 83.2526 33.5931 83.4055C33.5854 83.3978 33.6695 83.4819 33.6695 83.4819C33.937 83.7953 34.8313 84.1469 35.6262 84.1087C35.4351 84.9571 35.3205 85.7979 35.3205 86.6233C35.3205 87.4488 35.4428 88.3431 35.6415 89.2145C34.8542 89.1763 33.9599 89.5279 33.6695 89.8565L33.6007 89.933C33.4402 90.0858 33.0504 90.4833 33.272 91.1636C33.4937 91.8515 34.044 91.9356 34.281 91.9738C34.2657 91.9738 34.388 91.9967 34.388 91.9967C34.8007 92.0884 35.7256 91.8438 36.3371 91.347C36.3371 91.347 36.3447 91.347 36.3523 91.347C37.0479 92.9292 38.0798 94.3433 39.3792 95.4821C38.7142 95.9178 38.1868 96.7204 38.1486 97.156C38.1486 97.1255 38.1333 97.2478 38.1333 97.2478C38.1333 97.2325 38.1103 97.5306 38.1103 97.5306C38.1103 97.8975 38.2785 98.2185 38.5995 98.4478C39.1804 98.8682 39.6925 98.6083 39.8836 98.5089C39.8683 98.5166 39.983 98.4631 39.983 98.4631C40.3652 98.3026 40.9614 97.5611 41.1677 96.7968C41.1677 96.7968 41.1754 96.7968 41.1907 96.7892C42.6811 97.6605 44.3474 98.1879 46.0825 98.3484C46.0825 98.3484 46.0825 98.3484 46.0825 98.3561C45.9296 98.7612 45.8608 99.1739 45.8608 99.4185C45.8608 99.6631 45.8914 100.137 46.0595 100.427L45.9755 100.114L46.113 100.519C46.1971 100.695 46.457 101.207 47.1831 101.207C47.9093 101.207 48.1539 100.71 48.2609 100.504L48.3144 100.397C48.4749 100.129 48.4978 99.6631 48.4978 99.4109C48.4978 99.1586 48.429 98.7688 48.2838 98.3714C48.2838 98.3714 48.2914 98.3484 48.2991 98.3331C50.0418 98.165 51.7004 97.6223 53.1756 96.7509C53.382 97.5076 53.9782 98.2414 54.3756 98.4172C54.3451 98.4019 54.4674 98.4631 54.4674 98.4631C54.6508 98.5548 55.1629 98.8147 55.7438 98.3943C56.0572 98.165 56.2253 97.8516 56.2253 97.4847L56.1948 97.179L56.1795 97.0796C56.1413 96.6669 55.6215 95.8643 54.9642 95.4363C56.233 94.2974 57.2343 92.8681 57.9145 91.2553C57.9222 91.2553 57.9298 91.2553 57.9451 91.2553C58.5566 91.7598 59.4967 92.0043 59.9248 91.9126C59.9171 91.9126 60.0318 91.8897 60.0318 91.8897C60.2535 91.8515 60.7961 91.7674 61.0178 91.0871C61.2318 90.4069 60.842 90.0094 60.6815 89.8489L60.7044 89.8565ZM48.3144 94.305L48.5207 93.9534L48.3679 94.1216C48.3679 94.1216 48.322 94.0222 48.2914 93.9611C48.2914 93.8923 48.2914 93.7853 48.2914 93.7853L48.3144 92.3407V91.6451H48.2761V90.9037C48.3067 90.8425 48.3602 90.8196 48.3831 90.7432C48.3831 90.7126 48.4137 90.4986 48.4137 90.4986C48.4137 90.3228 48.3526 90.1546 48.2532 89.9941C48.2532 89.9941 48.2532 89.9483 48.2532 89.9406C48.2532 89.9406 48.2914 89.9941 48.2991 90.0018C48.3373 90.2463 48.4367 90.4757 48.6277 90.6285C48.6812 90.6744 48.7577 90.6667 48.8265 90.6973C48.8953 90.8043 49.0328 90.9954 49.2469 91.2935L49.2163 91.3164L50.5463 93.1432C50.5463 93.1432 50.5845 93.1432 50.5998 93.1432C50.6533 93.2808 50.7068 93.4184 50.7068 93.4184C50.7068 93.4184 50.745 93.4337 50.7985 93.4643C50.8291 93.5483 50.9131 93.6936 51.2112 94.1063C50.3246 94.6108 49.3692 94.9394 48.3755 95.0923V94.328C48.3755 94.328 48.3373 94.2974 48.3297 94.2974L48.3144 94.305ZM48.1997 79.2933C48.2303 79.2245 48.4137 78.8347 48.4137 78.8347L48.2761 79.0257C48.2761 79.0257 48.2532 78.9875 48.2456 78.9799C48.2456 78.9264 48.2456 78.7735 48.2456 78.7735C48.2456 78.7735 48.2456 78.4448 48.2532 78.1085C49.2698 78.2461 50.2405 78.5519 51.1424 79.0257C50.9743 79.255 50.6685 79.6754 50.6685 79.6754C50.6685 79.6754 50.6685 79.706 50.6685 79.7213C50.6609 79.7213 50.6151 79.7442 50.6151 79.7442C50.6151 79.7442 50.5615 79.8895 50.5004 80.0347C50.401 80.1188 50.2405 80.3251 49.5297 81.2959L49.4838 81.357L49.1093 81.8538C49.1093 81.8538 49.1399 81.8768 49.1475 81.8844C49.0023 82.0908 48.7118 82.4806 48.7118 82.4806C48.6583 82.5112 48.5895 82.5035 48.536 82.5417C48.4214 82.6411 48.3373 82.7634 48.2838 82.901C48.2991 82.8398 48.3067 82.7863 48.3067 82.7252L48.2761 82.4806C48.2532 82.3965 48.1997 82.3659 48.1539 82.3048C48.1539 82.1978 48.1615 81.7239 48.1691 81.5787H48.2074V79.3086C48.2074 79.3086 48.1844 79.2856 48.1691 79.2703L48.1997 79.2933ZM54.8113 87.8845L54.7502 87.8157C54.6508 87.7699 54.5056 87.7393 54.3374 87.7469C54.1845 87.6781 53.8712 87.5711 52.9387 87.2654L52.8622 87.2425L52.2737 87.0514C52.2737 87.0514 52.266 87.0896 52.2584 87.0973C52.0291 87.0208 51.6316 86.8909 51.5934 86.8756C51.5399 86.8221 51.5017 86.7533 51.4405 86.7151C51.303 86.6234 51.1424 86.5851 50.9666 86.5851C51.1272 86.5851 51.2877 86.5393 51.4176 86.4552C51.4864 86.4093 51.5323 86.3405 51.5858 86.2794C51.7157 86.2412 51.9221 86.18 52.2431 86.073L52.2584 86.1112C52.2584 86.1112 54.3068 85.4463 54.3603 85.431C54.5056 85.431 54.6279 85.4004 54.7196 85.3545C54.7196 85.3545 54.7502 85.324 54.7884 85.2857C54.8801 85.2857 55.0253 85.2475 55.6292 85.0564C55.7362 85.5991 55.805 86.1265 55.805 86.6233C55.7897 87.0743 55.7056 87.5788 55.5986 88.0909C55.3234 87.9992 54.8572 87.8539 54.8572 87.8539L54.8113 87.8845ZM50.7756 86.6386C50.7756 86.6386 50.7144 86.6081 50.6609 86.5928C50.6762 86.5928 50.6762 86.5928 50.6915 86.5851C50.6915 86.5851 50.745 86.5698 50.7908 86.5546C50.8367 86.5546 50.8826 86.6004 50.9284 86.6004C50.8826 86.6004 50.8291 86.6386 50.7832 86.6463L50.7756 86.6386ZM50.0571 84.5061C50.0571 84.5061 49.9959 84.5214 49.9654 84.529C49.9654 84.529 50.0036 84.4755 50.0112 84.4679C50.0418 84.4526 50.08 84.4602 50.1029 84.4373C50.0876 84.4526 50.0724 84.4832 50.0571 84.4985V84.5061ZM50.0494 88.7253C50.0494 88.7253 50.0265 88.6871 50.0036 88.6565C50.0036 88.6565 50.0724 88.6795 50.1029 88.6871C50.1182 88.7024 50.1259 88.7329 50.1488 88.7482C50.1182 88.7329 50.08 88.7329 50.0494 88.7177V88.7253ZM54.1081 83.0844L54.0928 83.1379C54.0699 83.1379 54.0011 83.1226 54.0011 83.1226C53.8635 83.1532 53.7794 83.2297 53.6877 83.3061C53.5348 83.329 53.2215 83.4207 52.2202 83.7494L52.1437 83.7723L51.5628 83.9558C51.5628 83.9558 51.5781 83.994 51.5781 84.0016C51.3488 84.0781 50.8979 84.2233 50.8826 84.231C50.8138 84.2157 50.7679 84.1774 50.6838 84.1851C50.4928 84.2004 50.3246 84.2768 50.1717 84.3915C50.3093 84.2845 50.4392 84.1622 50.508 83.994C50.508 83.9864 50.5463 83.8029 50.5615 83.7188C50.638 83.6195 50.7603 83.4513 50.9514 83.1914L50.9819 83.2144C50.9819 83.2144 52.3195 81.3723 52.3272 81.3647C52.4036 81.3035 52.4801 81.2424 52.5336 81.1506C52.5336 81.1506 52.5488 81.0971 52.5641 81.036C52.6329 80.9748 52.7552 80.8296 53.0686 80.4092C53.8024 81.1124 54.4062 81.9303 54.8572 82.8475C54.582 82.9392 54.1081 83.0921 54.1081 83.0921V83.0844ZM48.2532 83.0921C48.2456 83.1379 48.2303 83.1838 48.2226 83.2373C48.215 83.2449 48.2073 83.2602 48.1921 83.2755V83.2297C48.215 83.1838 48.2303 83.1456 48.2456 83.0997L48.2532 83.0921ZM51.4482 90.5521L51.0507 89.9941C51.0507 89.9941 51.0201 90.0171 51.0125 90.0247C50.8826 89.8489 50.6686 89.5508 50.6151 89.482C50.5998 89.3903 50.5692 89.2374 50.5692 89.2374C50.5004 89.0616 50.3704 88.9164 50.2099 88.8017C50.3552 88.9087 50.5157 88.9852 50.6915 89.0005C50.7832 89.0005 50.8367 88.9699 50.9131 88.947C51.0354 88.9928 51.2495 89.0693 51.6011 89.1839L51.5858 89.2221L53.7336 89.9177C53.7336 89.9177 53.7489 89.9177 53.7565 89.9024C53.8329 89.9559 53.8941 90.0247 54.0087 90.0553C54.0087 90.0553 54.0546 90.0476 54.1081 90.0323C54.1769 90.0858 54.3068 90.1393 54.7807 90.2999C54.3374 91.1941 53.7565 92.0044 53.0533 92.7076C52.9157 92.5241 52.6559 92.1572 52.6559 92.1572C52.6559 92.1572 52.6253 92.1572 52.61 92.1572C52.6023 92.1266 52.5871 92.0655 52.5871 92.0655C52.5183 91.9356 52.4113 91.8362 52.289 91.7598C52.2049 91.6069 52.0062 91.3241 51.4482 90.5521ZM46.0901 93.9458C46.0595 94.0146 45.8685 94.412 45.8685 94.412L46.006 94.2286C46.006 94.2286 46.029 94.2668 46.0366 94.2745C46.0366 94.3356 46.0366 94.4655 46.0366 94.4655C46.0366 94.4655 46.0366 94.7942 46.029 95.1229C45.0124 94.9929 44.0417 94.6796 43.1397 94.2057C43.3079 93.9687 43.6136 93.556 43.6136 93.556C43.6136 93.556 43.6136 93.5254 43.6136 93.5025C43.6213 93.5025 43.6748 93.4719 43.6748 93.4719C43.6748 93.4719 43.7283 93.3343 43.7818 93.1814C43.8812 93.105 44.034 92.9063 44.7525 91.9203L45.15 91.3699L45.1194 91.347C45.2646 91.1483 45.5627 90.7355 45.5627 90.7355C45.6239 90.705 45.6927 90.7126 45.7385 90.6744C45.8685 90.5674 45.9449 90.4222 45.9984 90.2616C45.9755 90.3381 45.9602 90.4145 45.9602 90.4986L45.9908 90.7432C46.0137 90.8273 46.0748 90.8655 46.113 90.9266C46.113 91.0489 46.1054 91.4999 46.0978 91.6451H46.0519V93.9076C46.0519 93.9076 46.0825 93.9305 46.0901 93.9458ZM41.6951 81.1888C41.7639 81.3111 41.8633 81.357 41.955 81.4258C42.0238 81.5557 42.1996 81.8233 42.834 82.6946L43.2391 83.2449L43.2697 83.222C43.3996 83.4055 43.6136 83.6959 43.6671 83.7647C43.6901 83.8641 43.7206 84.0246 43.7206 84.0246C43.7894 84.1927 43.9117 84.3303 44.0646 84.4373C43.9194 84.3303 43.7589 84.2539 43.5831 84.2386C43.4913 84.2386 43.4378 84.2692 43.369 84.2921C43.2467 84.2462 43.0327 84.1774 42.6964 84.0628L42.7117 84.0246L40.5486 83.329C40.5486 83.329 40.5333 83.329 40.5257 83.3443C40.4416 83.2908 40.3804 83.222 40.2658 83.1914C40.2658 83.1914 40.2199 83.1991 40.1664 83.2144C40.09 83.1609 39.9371 83.0997 39.3944 82.9163C39.8378 81.9914 40.434 81.1659 41.1601 80.4551C41.3282 80.692 41.6187 81.0895 41.6187 81.0895C41.6187 81.0895 41.6416 81.0895 41.6569 81.0895C41.6569 81.1124 41.7028 81.25 41.7028 81.25L41.6875 81.1812L41.6951 81.1888ZM45.9755 78.9417L45.7691 79.2933L45.922 79.1175C45.922 79.1175 45.9678 79.2168 45.9908 79.2703C45.9908 79.3391 45.9602 80.8984 45.9602 80.8984V81.5939H46.006V82.3354C45.9678 82.3965 45.9143 82.4194 45.899 82.4959C45.899 82.5188 45.8685 82.7328 45.8685 82.7328C45.8685 82.9086 45.9296 83.0768 46.029 83.2373C46.029 83.2373 46.029 83.2832 46.029 83.2908C46.029 83.2908 45.9907 83.2373 45.9831 83.2297C45.9449 82.9851 45.8455 82.7558 45.6621 82.6029C45.6009 82.557 45.5245 82.5647 45.4634 82.5341C45.3946 82.4271 45.257 82.236 45.0353 81.9303L45.0735 81.9073L43.7436 80.0805C43.7436 80.0805 43.7054 80.0805 43.6901 80.0805C43.6366 79.943 43.5831 79.8054 43.5831 79.8054C43.5831 79.8054 43.5448 79.7901 43.499 79.7672C43.4684 79.6754 43.3767 79.5302 43.0557 79.0793C43.9499 78.5977 44.913 78.2767 45.9296 78.1391V78.9187L45.9755 78.9493V78.9417ZM39.4785 85.3622L39.5473 85.431C39.6467 85.4768 39.7919 85.4998 39.9524 85.4921C40.1129 85.5609 40.434 85.6756 41.3512 85.9737L42.0009 86.1877C42.0009 86.1877 42.0085 86.1571 42.0162 86.1495C42.2378 86.2182 42.6429 86.3482 42.6888 86.3635C42.7423 86.417 42.7805 86.4858 42.8493 86.524C42.9869 86.6157 43.155 86.6539 43.3232 86.6616C43.1627 86.6616 43.0022 86.7074 42.8722 86.7915C42.8034 86.8374 42.7652 86.9062 42.7117 86.9673C42.5818 87.0055 42.3754 87.0667 42.0467 87.1737L42.0314 87.1278C42.0314 87.1278 39.9906 87.7928 39.9371 87.8157C39.7843 87.8157 39.662 87.8539 39.5702 87.8922C39.5702 87.8922 39.5473 87.9227 39.5091 87.961C39.4174 87.961 39.2569 87.9992 38.6683 88.1903C38.5613 87.6476 38.4925 87.1202 38.4925 86.6233C38.4925 86.1571 38.5537 85.6526 38.653 85.1405C38.9511 85.2399 39.4403 85.4004 39.4403 85.4004L39.4862 85.3622H39.4785ZM43.5143 86.6081C43.5143 86.6081 43.5754 86.6386 43.6289 86.6616C43.6136 86.6616 43.5448 86.6845 43.499 86.7074C43.4531 86.7074 43.4073 86.6616 43.3614 86.6616C43.4073 86.6616 43.4608 86.6234 43.5066 86.6157L43.5143 86.6081ZM44.248 84.5214C44.248 84.5214 44.271 84.5596 44.2863 84.5825C44.2863 84.5825 44.2175 84.5596 44.1945 84.552C44.1792 84.5367 44.1716 84.5061 44.1563 84.4908C44.1869 84.5061 44.2251 84.5061 44.2557 84.5214H44.248ZM44.2328 88.7406C44.2328 88.7406 44.2939 88.7253 44.3245 88.7177C44.3245 88.7177 44.2863 88.7712 44.2786 88.7788C44.248 88.7941 44.2098 88.7864 44.1869 88.8094C44.2022 88.7941 44.2175 88.7635 44.2328 88.7406ZM40.1894 90.1623C40.1894 90.1623 40.2047 90.1164 40.2123 90.1088C40.2352 90.1088 40.2964 90.1241 40.2964 90.1241C40.434 90.0935 40.5104 90.0171 40.6021 89.9483C40.7473 89.9253 41.0454 89.8412 42.0773 89.5049L42.727 89.2909L42.7117 89.2527C42.941 89.1763 43.392 89.031 43.4073 89.031C43.4761 89.0463 43.5296 89.0845 43.6136 89.0769C43.7971 89.0693 43.9729 88.9852 44.1257 88.8705C43.9805 88.9775 43.8582 89.1075 43.7894 89.2756C43.7894 89.2756 43.7512 89.4591 43.7359 89.5432C43.6519 89.6502 43.5296 89.8107 43.3385 90.0782L43.3079 90.0553C43.3079 90.0553 41.9703 91.8973 41.9626 91.905C41.8862 91.9738 41.8021 92.0349 41.7563 92.119C41.7563 92.119 41.741 92.1649 41.7257 92.226C41.6569 92.2872 41.5346 92.4324 41.2289 92.8528C40.4875 92.1496 39.8913 91.3317 39.4403 90.4145C39.7155 90.3228 40.1894 90.1699 40.1894 90.1699V90.1623ZM45.9984 90.2464C46.0213 90.1699 46.0519 90.0935 46.0672 90.0094C46.0748 89.9941 46.0901 89.9865 46.0978 89.9712V90.0247C46.0595 90.0935 46.0213 90.1699 45.9984 90.2464Z" fill="#004F9E"/>
<path d="M52.6021 92.0573L52.5793 91.9814L52.5945 92.0573H52.6021Z" fill="#004F9E"/>
<path d="M54.666 87.7163L54.7494 87.8149H54.757L54.666 87.7163Z" fill="#004F9E"/>
<path d="M60.2688 90.2769L60.1847 90.1852C60.0012 89.9788 59.0687 89.6119 58.4343 89.7724C58.3961 89.7342 58.2662 89.6043 58.2662 89.6043C58.2356 89.589 58.0216 89.5125 57.9299 89.4896C58.1821 88.5418 58.335 87.5788 58.3579 86.631C58.3579 85.645 58.2127 84.6513 57.9452 83.6729C58.0292 83.6424 58.205 83.5889 58.205 83.5889C58.2356 83.5736 58.3655 83.4436 58.4038 83.4054C59.0458 83.5659 59.9783 83.1914 60.1541 82.985L60.2382 82.901C60.3834 82.7557 60.5439 82.6029 60.4293 82.2665C60.3223 81.9379 60.1006 81.8997 59.9095 81.8691L59.7872 81.8462C59.5197 81.785 58.549 82.0372 58.1286 82.5341C58.0751 82.5341 57.8916 82.5035 57.8916 82.5035C57.8611 82.5035 57.6776 82.5647 57.5936 82.5952C56.8827 80.7531 55.6903 79.1327 54.154 77.8945C54.2075 77.8181 54.3145 77.6728 54.3145 77.6728C54.3298 77.6423 54.3604 77.4512 54.368 77.4053C54.9795 77.1607 55.5145 76.3123 55.5375 76.0448L55.5527 75.9148C55.5604 75.8537 55.5757 75.7849 55.5757 75.7237C55.5757 75.5862 55.5298 75.4333 55.3387 75.2957C55.0559 75.097 54.8572 75.1963 54.6814 75.2804L54.5667 75.3339C54.3145 75.4409 53.6801 76.2206 53.6342 76.8703C53.5884 76.8932 53.4202 76.9773 53.4202 76.9773C53.3973 76.9926 53.2826 77.1531 53.2368 77.2219C51.5858 76.1518 49.6749 75.5403 47.6876 75.4486V75.1734C47.6876 75.1734 47.5959 74.967 47.573 74.9212C47.7564 74.6231 47.8328 74.2027 47.8328 73.8358C47.8328 73.5148 47.7793 73.2396 47.7182 73.1326L47.6647 73.0256C47.573 72.8498 47.4736 72.6434 47.122 72.6434C46.7704 72.6434 46.671 72.8422 46.587 73.018L46.5258 73.125C46.4647 73.232 46.4112 73.5071 46.4112 73.8282C46.4112 74.1951 46.4876 74.6154 46.671 74.9135C46.6481 74.9594 46.564 75.1276 46.564 75.1276C46.564 75.1276 46.564 75.3492 46.564 75.4486C44.5691 75.5556 42.6582 76.1824 41.0225 77.2601C40.969 77.1913 40.8697 77.0461 40.8697 77.0461C40.8467 77.0231 40.6786 76.9314 40.6251 76.9085C40.5792 76.2511 39.9448 75.4868 39.6849 75.3721L39.5779 75.3186C39.4021 75.2269 39.2034 75.1276 38.9206 75.3263C38.7295 75.4639 38.6836 75.6091 38.6836 75.7543C38.6836 75.8231 38.6913 75.8919 38.7066 75.9531L38.7218 76.0754C38.7448 76.3505 39.2798 77.1913 39.8913 77.4359C39.8989 77.4894 39.9295 77.6728 39.9295 77.6728C39.9372 77.6958 40.0518 77.8563 40.1053 77.9327C38.5766 79.1786 37.3995 80.8067 36.704 82.664C36.6199 82.6334 36.4441 82.5799 36.4441 82.5799C36.4135 82.5799 36.2224 82.6029 36.1689 82.6105C35.7485 82.1137 34.7778 81.8614 34.5103 81.9226L34.388 81.9455C34.1893 81.9761 33.9676 82.0143 33.8606 82.343C33.7536 82.6793 33.9141 82.8398 34.0517 82.9774L34.1358 83.0615C34.3116 83.2678 35.2441 83.6424 35.8861 83.4819C35.9243 83.5201 36.0543 83.65 36.0543 83.65C36.0772 83.6653 36.2683 83.7264 36.3524 83.757C36.0925 84.7201 35.9626 85.6832 35.9626 86.631C35.9626 87.5788 36.1078 88.603 36.3753 89.5813C36.2912 89.6119 36.1154 89.6654 36.1154 89.6654C36.0849 89.6807 35.9549 89.8106 35.9167 89.8489C35.2823 89.6883 34.3498 90.0552 34.1663 90.2616L34.0823 90.3533C33.9447 90.4909 33.7842 90.6514 33.8912 90.9801C33.9982 91.3164 34.2199 91.347 34.4186 91.3776L34.5409 91.4005C34.8084 91.4616 35.7791 91.2094 36.1995 90.7049C36.253 90.7049 36.4365 90.7431 36.4365 90.7431C36.467 90.7431 36.6505 90.682 36.7345 90.6514C37.4454 92.4935 38.6378 94.1139 40.1741 95.3522C40.1206 95.4286 40.0136 95.5738 40.0136 95.5738C39.9983 95.6044 39.9677 95.7955 39.9601 95.8413C39.3486 96.0936 38.8136 96.9344 38.7906 97.2019L38.7754 97.3242C38.7677 97.3853 38.7524 97.4541 38.7524 97.5229C38.7524 97.6681 38.7983 97.8134 38.9894 97.9509C39.2722 98.1573 39.4709 98.0579 39.6467 97.9662L39.7614 97.9127C40.0136 97.8057 40.648 97.0337 40.7015 96.3764C40.7474 96.3535 40.9155 96.2694 40.9155 96.2694C40.9385 96.2464 41.0531 96.0936 41.1066 96.0248C42.7576 97.0949 44.6685 97.7063 46.6558 97.7981V98.0732C46.6558 98.0732 46.7475 98.2796 46.7704 98.3255C46.587 98.6236 46.5105 99.044 46.5105 99.4185C46.5105 99.7319 46.564 100.007 46.6252 100.114L46.6863 100.229C46.778 100.404 46.8774 100.603 47.229 100.603C47.5806 100.603 47.68 100.404 47.7717 100.229L47.8328 100.122C47.894 100.015 47.9475 99.7395 47.9475 99.4261C47.9475 99.0592 47.8711 98.6388 47.6876 98.3331C47.7106 98.2872 47.7946 98.1191 47.7946 98.1191C47.7946 98.1191 47.7946 97.8974 47.7946 97.8057C49.8049 97.6987 51.7157 97.0796 53.3438 96.0019C53.3973 96.0706 53.4967 96.2082 53.4967 96.2082C53.5196 96.2312 53.6877 96.3152 53.7336 96.3382C53.7795 96.9879 54.4139 97.7675 54.6661 97.8745L54.7808 97.928C54.9566 98.0197 55.1553 98.1191 55.4381 97.9127C55.6292 97.7751 55.675 97.6299 55.675 97.4923C55.675 97.4235 55.6674 97.3547 55.6521 97.2936L55.6368 97.1637C55.6139 96.8885 55.0789 96.0477 54.4674 95.7955C54.4597 95.742 54.4292 95.5585 54.4292 95.5585C54.4215 95.5356 54.3145 95.3904 54.261 95.3139C55.7591 94.0833 56.9209 92.44 57.6241 90.5597C57.7159 90.5903 57.9222 90.6591 57.9222 90.6591C57.9528 90.6591 58.1439 90.6285 58.1974 90.6209C58.6178 91.1177 59.5885 91.3776 59.856 91.3164L59.986 91.2935C60.177 91.2629 60.3987 91.2247 60.5057 90.896C60.6127 90.5674 60.4522 90.4068 60.3146 90.2693L60.2688 90.2769ZM52.075 92.3559C52.0215 92.2566 51.8992 92.2183 51.7769 92.1954C51.7845 92.1419 51.7922 92.0808 51.7922 92.0808C51.7769 92.0196 50.9667 90.896 50.9667 90.896L50.9208 90.8272L50.852 90.8731C50.7985 90.9113 50.7374 90.896 50.6915 90.8731C50.5998 90.8349 50.531 90.7432 50.5233 90.6667V90.6514C50.5233 90.6514 50.5386 90.5826 50.5769 90.5597L50.6456 90.5139L50.0953 89.7571C50.0953 89.7571 50.0036 89.7189 49.9501 89.696C49.9883 89.6425 50.0418 89.5966 50.0418 89.5355C50.0418 89.4973 50.0342 89.459 50.0189 89.4208C49.9654 89.2909 49.8125 89.1686 49.5756 89.161C49.5756 89.1227 49.5832 89.0845 49.5832 89.0845C49.5679 89.031 48.8571 88.045 48.7654 87.9151C48.8112 87.8463 48.9029 87.7163 48.9488 87.6476C49.0558 87.6781 50.2329 88.0679 50.2329 88.0679C50.2711 88.0679 50.3246 88.0374 50.3781 88.0144C50.4546 88.2285 50.6074 88.3584 50.745 88.366C50.8444 88.366 50.9055 88.282 50.9667 88.2055C51.0049 88.2514 51.0431 88.3125 51.0431 88.3125C51.0813 88.3431 51.8992 88.6106 51.8992 88.6106L51.9756 88.6336L51.9985 88.5571C52.0368 88.4501 52.1361 88.4654 52.1973 88.4807C52.3119 88.5189 52.4113 88.6259 52.3807 88.7253L52.3578 88.8017L53.7489 89.2527C53.7948 89.2527 53.8712 89.2145 53.917 89.1915C53.9782 89.2985 54.0393 89.4055 54.1464 89.4285C54.2304 89.4514 54.3145 89.4055 54.3909 89.3597C54.4215 89.4208 54.4597 89.5049 54.4597 89.5049C54.498 89.5431 55.4381 89.8489 55.6674 89.9253C55.0788 91.3546 54.1616 92.6311 53.0075 93.6247C52.9081 93.4872 52.289 92.6387 52.289 92.6387C52.2584 92.6158 52.1667 92.6005 52.0979 92.5852C52.0979 92.5623 52.1208 92.5317 52.1208 92.5088C52.1208 92.4476 52.1055 92.3941 52.075 92.333V92.3559ZM47.6112 94.3585C47.6723 94.305 47.7488 94.2515 47.7641 94.1598C47.7641 94.1445 47.7641 94.1368 47.7641 94.1216C47.7641 94.0222 47.6876 93.9381 47.6112 93.854C47.6418 93.8235 47.6953 93.77 47.6953 93.77L47.7182 92.3253V92.2413H47.6418C47.5424 92.2413 47.466 92.1113 47.466 91.9967C47.466 91.9355 47.4812 91.8362 47.5959 91.8362H47.68V90.896C47.68 90.896 47.6188 90.789 47.5806 90.7431C47.6723 90.7049 47.7793 90.682 47.8099 90.5826C47.8099 90.5521 47.8176 90.5291 47.8176 90.4986C47.8176 90.3763 47.7411 90.2387 47.5959 90.124C47.6265 90.0935 47.6571 90.0629 47.6571 90.0629C47.6571 90.0629 47.68 88.7482 47.68 88.6412C47.7564 88.6106 47.9093 88.5571 47.9857 88.5342C48.0469 88.6183 48.7806 89.6272 48.7806 89.6272C48.8112 89.6425 48.8724 89.6578 48.9182 89.6731C48.9029 89.7342 48.88 89.7954 48.88 89.8489C48.88 89.9941 48.9412 90.1087 49.0176 90.1699C49.094 90.2387 49.1934 90.2387 49.2928 90.2081C49.2928 90.254 49.2928 90.2998 49.2928 90.2998C49.308 90.3457 49.8125 91.0412 49.8125 91.0412L49.8584 91.11L49.9195 91.0642C49.9577 91.0336 49.996 91.026 50.0418 91.0489C50.1106 91.0795 50.1717 91.1788 50.187 91.2705C50.187 91.2782 50.187 91.2858 50.187 91.2935C50.187 91.3393 50.1718 91.3852 50.1335 91.4158L50.0647 91.4616L50.9285 92.654C50.9285 92.654 51.0202 92.6846 51.0737 92.6999C51.0737 92.7228 51.0584 92.7534 51.0584 92.7763C51.0584 92.8757 51.089 92.9674 51.1501 93.0362C51.2113 93.105 51.2953 93.1356 51.3794 93.1356C51.3718 93.2043 51.3565 93.2731 51.3565 93.2731C51.3718 93.3266 51.9603 94.1445 52.1056 94.3356C50.7985 95.2146 49.308 95.7267 47.7641 95.8413V94.5343C47.7488 94.4884 47.6647 94.4044 47.6188 94.3585H47.6112ZM54.4827 83.5965C54.4827 83.5965 54.3986 83.7188 54.368 83.78C54.2916 83.7341 54.2151 83.6882 54.1234 83.7112C54.0088 83.7341 53.9476 83.8411 53.8941 83.9481C53.8483 83.9252 53.7871 83.8946 53.7871 83.8946C53.726 83.8946 52.4036 84.315 52.4036 84.315L52.3272 84.3379L52.3501 84.4144C52.3731 84.4755 52.3349 84.529 52.3043 84.5672C52.2355 84.6437 52.1285 84.6819 52.0597 84.6666C52.0138 84.659 51.9909 84.6284 51.9756 84.5825L51.9527 84.5061L51.0584 84.7965C51.0584 84.7965 50.982 84.8883 50.9437 84.9341C50.8826 84.8577 50.8214 84.766 50.7144 84.7736C50.5692 84.7812 50.424 84.9112 50.3476 85.1252C50.3093 85.1023 50.2635 85.0793 50.2635 85.0793C50.21 85.0793 49.0558 85.4462 48.9029 85.4997C48.8571 85.4386 48.7577 85.3086 48.7119 85.2399C48.773 85.1558 49.4991 84.1545 49.4991 84.1545C49.4991 84.1392 49.4991 84.1239 49.4991 84.101C49.4991 84.0628 49.4991 84.0551 49.4991 84.0169C49.7361 84.0169 49.8889 83.8946 49.9424 83.757C49.9577 83.7188 49.9654 83.6806 49.9654 83.6424C49.9654 83.5812 49.9119 83.5354 49.8813 83.4895C49.9348 83.4742 49.9883 83.4513 49.9883 83.4513C50.0265 83.4207 50.531 82.7328 50.531 82.7328L50.5769 82.6717L50.5157 82.6258C50.5157 82.6258 50.4622 82.5646 50.4622 82.5341C50.4622 82.5341 50.4622 82.5264 50.4622 82.5188C50.4698 82.4424 50.5463 82.3506 50.6304 82.3124C50.6762 82.2971 50.7374 82.2818 50.7909 82.3124L50.8597 82.3583L51.7234 81.1735C51.7234 81.1735 51.7234 81.143 51.7234 81.12C51.7234 81.0742 51.7234 81.0359 51.7157 80.9977C51.838 80.9748 51.9603 80.9366 52.0138 80.8372C52.0444 80.7837 52.0597 80.7226 52.0597 80.6614C52.0597 80.6309 52.0444 80.6079 52.0368 80.585C52.1055 80.5773 52.1743 80.5621 52.1743 80.5621C52.2202 80.5315 52.8622 79.6601 53.0075 79.4614C54.2151 80.455 55.1553 81.7315 55.7362 83.1838C55.5757 83.2373 54.4903 83.5889 54.4903 83.5889L54.4827 83.5965ZM47.6494 78.7658C47.6494 78.7658 47.6647 77.5582 47.6723 77.3977C49.2393 77.4894 50.7527 77.9709 52.075 78.8041C51.9756 78.9416 51.303 79.8665 51.303 79.8665C51.303 79.8741 51.303 79.8894 51.303 79.9124C51.303 79.9582 51.303 80.0194 51.3183 80.0652C51.2342 80.0652 51.1501 80.1034 51.089 80.1722C51.0278 80.241 50.9973 80.3328 50.9973 80.4321C50.9973 80.4551 51.0049 80.4856 51.0125 80.5086C50.9667 80.5086 50.9208 80.5238 50.9208 80.5238C50.8673 80.5544 50.0571 81.678 50.0571 81.678L50.0112 81.7468L50.08 81.7927C50.1182 81.8232 50.1335 81.8691 50.1335 81.915C50.1335 81.9226 50.1335 81.9302 50.1335 81.9455C50.1259 82.0372 50.0647 82.1366 49.9959 82.1672C49.9577 82.1825 49.9195 82.1825 49.8813 82.1519L49.8125 82.106L49.2622 82.8627C49.2622 82.8627 49.2545 82.9468 49.2545 83.0003C49.1552 82.9774 49.0558 82.9774 48.9794 83.0385C48.9029 83.1073 48.8418 83.222 48.8418 83.3672C48.8418 83.4207 48.8647 83.4819 48.88 83.5354C48.8341 83.543 48.7883 83.5507 48.7883 83.5507C48.7424 83.5812 48.0316 84.5519 47.9399 84.6819C47.8634 84.659 47.7029 84.6131 47.6265 84.5902V83.2449C47.6265 83.2449 47.573 83.1685 47.5348 83.1226C47.68 83.008 47.7641 82.8704 47.7641 82.7481C47.7641 82.7175 47.7641 82.6869 47.7488 82.664C47.7259 82.5646 47.6188 82.5417 47.5271 82.5035C47.5653 82.4576 47.6112 82.3965 47.6112 82.3965L47.6265 81.4946V81.4105H47.55C47.4354 81.4105 47.4201 81.3111 47.4201 81.25C47.4201 81.1353 47.4889 81.0054 47.5959 81.0054H47.6723V79.5378C47.6571 79.4996 47.6035 79.4385 47.5653 79.4003C47.6418 79.3238 47.7182 79.2397 47.7182 79.1327C47.7182 79.1174 47.7182 79.1098 47.7182 79.0945C47.7106 79.0028 47.6341 78.9569 47.5653 78.8958C47.6112 78.8499 47.6876 78.7735 47.6876 78.7735L47.6494 78.7658ZM54.5056 88.366C54.3986 88.3202 54.2763 88.3431 54.1616 88.4042C54.1387 88.3584 54.1158 88.3125 54.1158 88.3125C54.0699 88.2743 52.7476 87.8463 52.7476 87.8463L52.6712 87.8233L52.6482 87.8998C52.6253 87.9609 52.5718 87.9839 52.5259 87.9991C52.4342 88.0221 52.3196 87.9915 52.2661 87.9304C52.2355 87.8998 52.2278 87.8616 52.2431 87.8157L52.2661 87.7393L51.3718 87.4488C51.3718 87.4488 51.2953 87.4641 51.2418 87.4794C51.2418 87.38 51.196 87.2883 51.1043 87.2272C50.9896 87.1507 50.7985 87.1813 50.6074 87.3036C50.5845 87.2577 50.5616 87.2119 50.5616 87.2119C50.5157 87.1737 49.1552 86.7303 49.1552 86.7303C49.2163 86.7533 49.2316 86.631 49.2316 86.631C49.2316 86.631 49.2087 86.4093 49.2087 86.4017C49.2698 86.4017 50.4928 86.0119 50.4928 86.0119C50.5234 85.9889 50.5539 85.9278 50.5845 85.8819C50.7679 86.0042 50.9667 86.0271 51.0813 85.9507C51.1654 85.8972 51.2113 85.8055 51.2113 85.7061C51.2495 85.7214 51.2877 85.729 51.2877 85.729C51.3412 85.729 52.1514 85.4615 52.1514 85.4615L52.2278 85.4386L52.2049 85.3622C52.1896 85.3163 52.1973 85.2781 52.2278 85.2475C52.2813 85.1864 52.396 85.1634 52.4877 85.1787C52.5336 85.1863 52.5871 85.2093 52.61 85.2704L52.633 85.3469L54.0317 84.8959C54.0317 84.8959 54.1005 84.8118 54.1234 84.7583C54.2381 84.8195 54.3527 84.8424 54.4597 84.7965C54.5438 84.7583 54.5667 84.6742 54.5973 84.5978C54.6585 84.6284 54.7502 84.6742 54.7502 84.6742C54.8037 84.6742 55.8279 84.3456 56.0649 84.2691C56.2712 85.0564 56.3859 85.8437 56.3859 86.6157C56.363 87.3495 56.233 88.0985 56.019 88.8629C55.8661 88.8094 54.8419 88.4807 54.8419 88.4807C54.7961 88.4807 54.689 88.5342 54.6279 88.5648C54.5973 88.4883 54.5667 88.3966 54.4903 88.366H54.5056ZM42.2149 80.8831C42.2761 80.9824 42.3907 81.0207 42.513 81.0436C42.513 81.0971 42.4977 81.1582 42.4977 81.1582C42.513 81.2194 43.3308 82.343 43.3308 82.343L43.3767 82.4041L43.4455 82.3583C43.499 82.32 43.5602 82.3353 43.5984 82.3583C43.6901 82.3965 43.7589 82.4882 43.7665 82.5646C43.7665 82.5646 43.7665 82.5723 43.7665 82.5799C43.7665 82.6182 43.7512 82.6487 43.713 82.6717L43.6519 82.7175L44.2022 83.4742C44.2022 83.4742 44.2939 83.5124 44.3474 83.5354C44.3169 83.5889 44.2634 83.6347 44.2634 83.6959C44.2634 83.7341 44.2634 83.7723 44.2863 83.8105C44.3398 83.9405 44.4927 84.0628 44.722 84.0704C44.722 84.1086 44.7067 84.1468 44.7067 84.1468C44.722 84.2003 45.4328 85.1864 45.5245 85.3163C45.4787 85.3851 45.3869 85.515 45.3411 85.5838C45.2341 85.5532 44.057 85.1634 44.057 85.1634C44.0188 85.1634 43.9576 85.194 43.9118 85.2169C43.8353 85.0029 43.6901 84.873 43.5449 84.8653C43.4455 84.8653 43.3844 84.9494 43.3232 85.0258C43.285 84.9723 43.2468 84.9188 43.2468 84.9188C43.2086 84.8883 42.3907 84.6284 42.3907 84.6284L42.3143 84.6054L42.2913 84.6819C42.2531 84.7889 42.1538 84.7736 42.0926 84.7583C41.978 84.7201 41.8786 84.6131 41.9092 84.5214L41.9321 84.4449L40.5334 83.994C40.4875 83.994 40.4111 84.0322 40.3652 84.0551C40.304 83.9481 40.2429 83.8335 40.1282 83.8105C40.0442 83.7952 39.9677 83.8335 39.8913 83.8793C39.8607 83.8182 39.8149 83.7341 39.8149 83.7341C39.7766 83.6959 38.7448 83.3596 38.5155 83.2831C39.0887 81.8232 40.0136 80.5315 41.2136 79.5302C41.313 79.6678 41.9856 80.6003 41.9856 80.6003C42.0238 80.6232 42.1079 80.6385 42.1767 80.6538C42.1767 80.6767 42.1538 80.7073 42.1538 80.7302C42.1538 80.7914 42.169 80.8449 42.1996 80.8984L42.2149 80.8831ZM46.6863 78.8881C46.6252 78.9416 46.5488 78.9951 46.5411 79.0869C46.5411 79.1022 46.5411 79.1098 46.5411 79.1251C46.5411 79.2245 46.6175 79.3085 46.694 79.385C46.6558 79.4232 46.6099 79.469 46.6099 79.469L46.587 80.9137V80.9977H46.671C46.7704 80.9977 46.8392 81.1277 46.8392 81.2423C46.8392 81.3035 46.8239 81.4028 46.7093 81.4028H46.6328V82.3353C46.6328 82.3353 46.694 82.4424 46.7322 82.4959C46.6405 82.5341 46.5335 82.557 46.5029 82.6564C46.5029 82.6793 46.4952 82.7099 46.4952 82.7404C46.4952 82.8627 46.5793 83.0003 46.7169 83.115C46.6863 83.1455 46.6558 83.1761 46.6558 83.1761C46.6558 83.1761 46.6328 84.4908 46.6328 84.5978C46.5564 84.6207 46.4035 84.6819 46.3271 84.7048C46.2659 84.6131 45.5322 83.6118 45.5322 83.6118C45.5016 83.5965 45.4405 83.5812 45.3946 83.5659C45.4099 83.5048 45.4328 83.4436 45.4328 83.3901C45.4328 83.2449 45.3717 83.1303 45.2952 83.0615C45.2111 82.9927 45.1194 82.9927 45.0201 83.0233C45.0201 82.9774 45.0201 82.9315 45.0201 82.9315C45.0048 82.8857 44.5003 82.1901 44.5003 82.1901L44.4544 82.1213L44.3933 82.1672C44.3016 82.236 44.2251 82.1672 44.1946 82.1137C44.1563 82.0602 44.1334 81.999 44.1334 81.9379C44.1334 81.8844 44.1487 81.8385 44.1869 81.8156L44.2481 81.7697L43.3844 80.585C43.3844 80.585 43.2926 80.5544 43.2391 80.5391C43.2391 80.5162 43.2544 80.4856 43.2544 80.4627C43.2544 80.3633 43.2238 80.2716 43.1551 80.2028C43.0939 80.134 43.0098 80.1035 42.9257 80.0958C42.941 80.027 42.9487 79.9582 42.9487 79.9582C42.9334 79.9047 42.299 79.0257 42.1614 78.827C43.4684 77.9862 44.9818 77.4894 46.5488 77.3824V78.6894C46.564 78.7353 46.6481 78.8193 46.694 78.8652L46.6863 78.8881ZM39.7919 84.8806C39.8989 84.9265 40.0136 84.8959 40.1282 84.8424C40.1512 84.8883 40.1741 84.9341 40.1741 84.9341C40.22 84.9723 41.5423 85.4004 41.5423 85.4004L41.6187 85.4233L41.6416 85.3469C41.6646 85.2857 41.7181 85.2628 41.7639 85.2551C41.8557 85.2322 41.9703 85.2628 42.0238 85.3239C42.0544 85.3545 42.062 85.3927 42.0468 85.4386L42.0238 85.515L42.9181 85.8055C42.9181 85.8055 42.9945 85.7902 43.048 85.7749C43.048 85.8743 43.0939 85.966 43.1856 86.0195C43.3003 86.0959 43.4914 86.073 43.6825 85.9507C43.7054 85.9966 43.7283 86.0424 43.7283 86.0424C43.7742 86.0806 45.1347 86.524 45.1347 86.524C45.0736 86.501 45.0659 86.6233 45.0659 86.6233C45.0659 86.6233 45.0812 86.8373 45.0888 86.8373C45.0506 86.8373 43.8124 87.2424 43.8124 87.2424C43.7818 87.2654 43.7512 87.3265 43.7207 87.3724C43.5296 87.2501 43.3385 87.2272 43.2162 87.3036C43.1321 87.3571 43.0863 87.4488 43.0863 87.5482C43.048 87.5329 43.0098 87.5176 43.0098 87.5176C42.9563 87.5176 42.1461 87.7775 42.1461 87.7775L42.0697 87.8004L42.0926 87.8768C42.1308 87.9839 42.0315 88.0297 41.978 88.0527C41.8633 88.0909 41.7181 88.0603 41.6875 87.9609L41.6646 87.8845L40.2735 88.3431C40.2735 88.3431 40.2047 88.4272 40.1817 88.4807C40.0671 88.4195 39.9448 88.3966 39.8378 88.4425C39.7537 88.4807 39.7308 88.5648 39.7002 88.6412C39.6391 88.6106 39.5473 88.5648 39.5473 88.5648C39.4938 88.5648 38.462 88.8934 38.2327 88.9699C38.0263 88.1826 37.9116 87.3953 37.9116 86.6233C37.9116 85.8513 38.0186 85.1176 38.2097 84.3532C38.3702 84.4067 39.4556 84.7583 39.4556 84.7583C39.5015 84.7583 39.6085 84.7048 39.6696 84.6742C39.7079 84.7583 39.7308 84.8424 39.8149 84.8806H39.7919ZM39.8149 89.6501C39.8149 89.6501 39.8989 89.5278 39.9295 89.4667C40.0059 89.5126 40.0824 89.5584 40.1741 89.5355C40.2811 89.5125 40.3499 89.4055 40.4034 89.2985C40.4493 89.3215 40.5181 89.3597 40.5181 89.3597C40.5792 89.3597 41.9015 88.9393 41.9015 88.9393L41.978 88.9164L41.955 88.8399C41.9245 88.7406 42.0238 88.6336 42.1385 88.5953C42.192 88.58 42.299 88.5648 42.3296 88.6718L42.3525 88.7482L43.2391 88.4578C43.2391 88.4578 43.3156 88.3737 43.3538 88.3202C43.4149 88.3966 43.4761 88.4883 43.5831 88.4807C43.7283 88.473 43.8735 88.3431 43.95 88.1291C43.9882 88.152 44.0341 88.1749 44.0341 88.1749C44.0876 88.1749 45.2417 87.8081 45.3946 87.7546C45.4405 87.8157 45.5398 87.9456 45.5933 88.0144C45.5322 88.0985 44.7984 89.1074 44.7984 89.1074C44.7984 89.1227 44.7984 89.138 44.7984 89.1533C44.7984 89.1915 44.7984 89.2068 44.806 89.2374C44.5691 89.2374 44.4086 89.3597 44.3627 89.4973C44.3474 89.5355 44.3398 89.5737 44.3398 89.6119C44.3398 89.6731 44.3933 89.7189 44.4239 89.7648C44.3704 89.7801 44.3169 89.7954 44.3169 89.7954C44.2786 89.8259 43.7742 90.5139 43.7742 90.5139L43.7283 90.575L43.7971 90.6209C43.7971 90.6209 43.8506 90.682 43.8506 90.7126V90.7279C43.843 90.8043 43.7665 90.896 43.6825 90.9342C43.6366 90.9572 43.5754 90.9648 43.5219 90.9342L43.4608 90.8884L42.6047 92.0731C42.6047 92.0731 42.6047 92.1037 42.6047 92.119C42.6047 92.1725 42.6124 92.2031 42.62 92.2413C42.4977 92.2642 42.3754 92.3024 42.3143 92.4018C42.2837 92.4553 42.2684 92.5164 42.2684 92.5699C42.2684 92.6005 42.2837 92.6234 42.2913 92.6464C42.2225 92.654 42.1538 92.6693 42.1538 92.6693C42.1079 92.6999 41.4658 93.5712 41.3283 93.77C40.1206 92.7763 39.1805 91.4998 38.5996 90.0399C38.7601 89.9864 39.8531 89.6348 39.8531 89.6348L39.8149 89.6501ZM46.6405 94.4808C46.6405 94.4808 46.6252 95.6885 46.6175 95.849C45.0506 95.7573 43.5296 95.2757 42.2149 94.4502C42.3143 94.3126 42.9869 93.3878 42.9869 93.3878C42.9869 93.3801 42.9869 93.3649 42.9869 93.3496C42.9869 93.3037 42.9869 93.2426 42.9716 93.1891C43.0557 93.1891 43.1474 93.1508 43.2086 93.0821C43.2697 93.0133 43.3003 92.9215 43.3003 92.8298C43.3003 92.8069 43.2926 92.7763 43.285 92.7534C43.3309 92.7534 43.3767 92.7381 43.3767 92.7381C43.4302 92.7075 44.2404 91.5839 44.2404 91.5839L44.2863 91.5228L44.2251 91.4769C44.1869 91.4464 44.1716 91.4005 44.1716 91.3546C44.1716 91.2935 44.1946 91.2323 44.2328 91.1788C44.271 91.1253 44.3398 91.0565 44.4315 91.1253L44.4927 91.1712L45.043 90.4145C45.043 90.4145 45.0506 90.3304 45.0506 90.2693C45.15 90.2998 45.2494 90.2922 45.3334 90.231C45.4175 90.1622 45.471 90.0476 45.471 89.9024C45.471 89.8489 45.4481 89.7877 45.4328 89.7342C45.4787 89.7342 45.5169 89.7189 45.5169 89.7189C45.5627 89.6884 46.2736 88.71 46.3653 88.58C46.4417 88.603 46.6023 88.6488 46.6787 88.6718V90.017C46.6787 90.017 46.7322 90.0935 46.7704 90.1393C46.6252 90.254 46.5411 90.3916 46.5411 90.5139C46.5411 90.5444 46.5411 90.575 46.5488 90.5979C46.5717 90.6973 46.6787 90.7202 46.7781 90.7584C46.7398 90.8043 46.694 90.8654 46.694 90.8654L46.6787 91.775V91.8515H46.7551C46.8698 91.8515 46.8851 91.9508 46.8851 92.012C46.8851 92.1266 46.8163 92.2566 46.7093 92.2566H46.6328V93.7241C46.6481 93.7623 46.7016 93.8235 46.7398 93.8617C46.6634 93.9381 46.587 94.0298 46.587 94.1292C46.587 94.1445 46.587 94.1521 46.587 94.1674C46.5946 94.2591 46.6711 94.305 46.7322 94.3585C46.6863 94.4044 46.6099 94.4808 46.6099 94.4808H46.6405Z" fill="#FFDB00"/>
<path d="M58.2509 63.2878L52.9387 66.4293C52.9387 66.4293 54.2381 66.6509 54.5361 66.7044C54.5132 66.9337 54.475 67.2165 54.475 67.2165C54.475 67.2165 54.3833 67.7439 54.3833 67.7592L54.2228 68.2102L54.0164 68.6611C54.0164 68.6611 53.7642 69.0739 53.7642 69.0815C53.7642 69.0815 53.4814 69.4408 53.4814 69.4484L53.1603 69.7771L52.7858 70.1211L52.4342 70.4115C52.4342 70.4115 52.0673 70.6714 52.0597 70.6714L51.624 70.9083L51.1883 71.13L50.7756 71.3134C50.7908 71.3134 50.3322 71.4816 50.3322 71.4816C50.3322 71.4816 49.9271 71.6345 49.9042 71.6421C49.9042 71.6421 49.8507 71.6421 49.8125 71.6497V57.3488H59.642V53.2749H50.7756C51.9144 52.2506 52.6024 50.8137 52.6024 49.262C52.6024 46.2582 50.1564 43.8123 47.1526 43.8123C44.1487 43.8123 41.7028 46.2582 41.7028 49.262C41.7028 50.8213 42.3907 52.2506 43.5296 53.2749H34.6708V57.3488H44.3092V71.6421C43.9805 71.5962 43.5296 71.5274 43.5296 71.5274C43.5296 71.5274 43.0633 71.3746 43.0633 71.3669C43.0633 71.3669 42.5741 71.1606 42.5741 71.1529C42.5741 71.1529 42.1614 70.916 42.1614 70.9083L41.7869 70.6179C41.7869 70.6179 41.3817 70.3274 41.3665 70.3198C41.3665 70.3121 41.0913 69.9911 41.0913 69.9911L40.7779 69.6089C40.7779 69.6089 40.5333 69.2421 40.5257 69.2344L40.3117 68.814L40.1282 68.3936L39.9524 67.9427C39.9524 67.9427 39.8301 67.4993 39.8225 67.4917L39.7613 67.056C39.7613 67.056 39.746 66.8649 39.7384 66.7197C40.0059 66.6739 41.3818 66.4369 41.3818 66.4369L36.0619 63.2954L32.5459 68.0726C32.5459 68.0726 33.9064 67.8357 34.258 67.7669C34.3039 68.1796 34.4186 69.1733 34.4186 69.1733C34.4338 69.2421 34.8084 70.2739 34.8084 70.2739C34.8313 70.3198 35.374 71.237 35.374 71.237C35.3969 71.2676 36.0466 72.0854 36.0466 72.0854C36.0695 72.116 36.8568 72.8651 36.8568 72.8651C36.8798 72.888 37.7587 73.5606 37.7587 73.5606C37.774 73.5759 38.7295 74.195 38.7295 74.195C38.7448 74.2027 39.7613 74.7836 39.7613 74.7836L40.7856 75.3645C40.7932 75.3645 41.848 75.8995 41.848 75.8995L42.8952 76.4575L43.8735 77.0308L44.8748 77.6116L45.7232 78.2613L46.4799 78.9493L47.0608 79.4767L48.4749 78.2461L49.3692 77.6193C49.3539 77.6269 50.3322 77.046 50.3322 77.046L51.3488 76.5263L52.3883 76.0065L53.4584 75.4485L54.475 74.9135C54.4826 74.9135 55.4686 74.3326 55.4686 74.3326C55.4839 74.3326 56.4317 73.7058 56.4317 73.7058C56.4623 73.6829 57.3031 73.0026 57.3031 73.0026C57.326 72.9797 58.0904 72.1848 58.0904 72.1848C58.1133 72.1542 58.7553 71.2905 58.7553 71.2905C58.7706 71.2599 59.3286 70.2663 59.3286 70.2663C59.3515 70.2128 59.6878 69.1045 59.6878 69.1045C59.6955 69.0663 59.9019 67.8127 59.9019 67.8051C59.9019 67.8051 59.9171 67.7592 59.9171 67.7439C60.2305 67.7974 61.7898 68.0726 61.7898 68.0726L58.2738 63.2954L58.2509 63.2878ZM47.1449 50.8748C46.2506 50.8748 45.5169 50.1487 45.5169 49.2468C45.5169 48.3448 46.243 47.6187 47.1449 47.6187C48.0468 47.6187 48.773 48.3448 48.773 49.2468C48.773 50.1487 48.0392 50.8748 47.1449 50.8748Z" fill="#004F9E"/>
<path d="M50.0265 76.5569C50.0265 76.5569 51.0584 76.0295 51.0584 76.0218C51.0584 76.0218 52.1055 75.4944 52.0979 75.5021L53.1603 74.9518C53.1603 74.9518 54.1769 74.4167 54.1693 74.4167L55.14 73.8511C55.14 73.8511 56.0725 73.2473 56.0725 73.2549L56.8903 72.5899L57.6241 71.8256L58.2432 70.9848L58.7706 70.0446C58.7706 70.037 59.0916 68.9746 59.0993 68.9746C59.0993 68.9746 59.3057 67.7134 59.3133 67.6905L59.4662 67.0637L59.856 67.1478C59.856 67.1478 60.1541 67.2013 60.4445 67.2548C59.8636 66.4599 58.3273 64.3732 58.0904 64.0522C57.7464 64.2509 55.4839 65.5962 54.5744 66.1312C54.6967 66.1541 55.1629 66.2306 55.1629 66.2306C55.1629 66.2306 55.0483 67.2854 55.0406 67.3006C55.0406 67.3006 54.9489 67.8586 54.9336 67.9045C54.9336 67.9045 54.7578 68.4013 54.7502 68.4242C54.7502 68.4242 54.5361 68.8981 54.5209 68.9287C54.5209 68.9287 54.2533 69.372 54.2304 69.4026C54.2304 69.4026 53.9247 69.7924 53.9094 69.8154C53.9094 69.8154 53.5731 70.167 53.5578 70.1746C53.5578 70.1746 53.168 70.5262 53.1603 70.5338C53.1603 70.5338 52.8011 70.8319 52.7781 70.8472C52.7781 70.8472 52.3883 71.1224 52.3578 71.1377C52.3578 71.1377 51.8915 71.3899 51.8839 71.3899C51.8839 71.3899 51.4405 71.6116 51.4329 71.6192C51.4329 71.6192 51.0125 71.8103 50.9896 71.8179C50.9896 71.8179 50.531 71.9937 50.5233 71.9937C50.5233 71.9937 50.0877 72.1543 50.0265 72.1695L49.2316 72.2689V56.7374H59.0611V53.8176H49.0405L49.8354 53.2902C51.2036 52.3806 52.0215 50.8672 52.0215 49.2315C52.0215 46.541 49.8354 44.355 47.1449 44.355C44.4544 44.355 42.276 46.541 42.276 49.2315C42.276 50.8672 43.0939 52.3883 44.4621 53.2902L45.257 53.8176H35.2364V56.7374H44.8748V72.2766L44.5461 72.2307C44.5461 72.2307 43.4302 72.0625 43.3843 72.0549C43.3843 72.0549 42.8722 71.8867 42.8493 71.8791C42.8493 71.8791 42.3372 71.6574 42.3066 71.6421C42.3066 71.6421 41.8633 71.3823 41.8251 71.367L41.42 71.0612C41.42 71.0612 41.0072 70.7631 40.9537 70.7173C40.9537 70.7173 40.6327 70.3504 40.625 70.3428C40.625 70.3428 40.304 69.9529 40.2887 69.93C40.2887 69.93 40.0212 69.5325 40.0059 69.5096C40.0059 69.5096 39.769 69.0663 39.7613 69.0434C39.7613 69.0434 39.5702 68.6 39.5626 68.5924C39.5626 68.5924 39.3792 68.1261 39.3715 68.1032C39.3715 68.1032 39.2339 67.6217 39.2263 67.5835C39.2263 67.5835 39.1575 67.1096 39.1575 67.0943C39.1575 67.0943 39.1193 66.5898 39.1193 66.5669V66.4599L39.1651 66.2076C39.1651 66.2076 39.5855 66.1388 39.7078 66.1159C38.7983 65.5809 36.5281 64.2356 36.1918 64.0369C35.9549 64.3579 34.4262 66.4446 33.8376 67.2395C34.1281 67.186 34.4262 67.1325 34.4262 67.1325L34.7396 67.0713L34.7701 67.3771C34.7701 67.3771 34.946 68.9593 34.946 69.0281C34.946 69.0281 35.2976 69.9988 35.2976 70.0141L35.8173 70.8931C35.8173 70.8931 36.4441 71.6727 36.4441 71.6804C36.4441 71.6804 37.2008 72.4065 37.2008 72.4141L38.0568 73.0715L38.9893 73.6829L40.0059 74.2638C40.0059 74.2638 41.0302 74.8371 41.0225 74.8371C41.0225 74.8371 42.0697 75.3645 42.0773 75.3721C42.0773 75.3721 43.1321 75.9301 43.1474 75.9378L44.1334 76.5187C44.1334 76.5187 45.1347 77.0996 45.1653 77.1149C45.1653 77.1149 46.0443 77.7875 46.0672 77.8028C46.0672 77.8028 46.9385 78.5977 47.0379 78.6894C47.3819 78.3913 48.0698 77.7951 48.0851 77.7798C48.0851 77.7798 49.0023 77.1378 49.0176 77.1301C49.0176 77.1301 49.9959 76.5492 50.0112 76.534L50.0265 76.5569ZM47.1449 51.4634C45.922 51.4634 44.936 50.4697 44.936 49.2544C44.936 48.0391 45.9296 47.0455 47.1449 47.0455C48.3602 47.0455 49.3615 48.0391 49.3615 49.2544C49.3615 50.4697 48.3679 51.4634 47.1449 51.4634Z" fill="#FFDB00"/>
<path d="M33.7001 23.9928C33.7001 23.3736 33.7688 22.7774 34.3192 22.3953H30.3599C30.9102 22.7774 30.979 23.3813 30.979 23.9928V30.7572C30.979 31.3687 30.9025 31.9649 30.3599 32.3471H34.3192C33.7688 31.9649 33.7001 31.3687 33.7001 30.7572V24.0004V23.9928Z" fill="#FFDB00"/>
<path d="M49.4379 27.7763H49.8736C50.9666 27.7763 52.4265 27.8298 52.6635 28.3266V26.2858H52.6559C52.5259 26.3393 52.3577 26.3622 52.0749 26.3622H49.4456V23.7864H50.2176C51.1424 23.7787 53.0227 23.7634 53.4813 24.3902V22.2959C53.3055 22.38 53.0686 22.3876 52.8469 22.3876H46.113C46.6634 22.7622 46.7322 23.3583 46.7322 23.9698V30.7419C46.7322 31.3534 46.6557 31.9572 46.113 32.3394H50.1106C49.4609 31.7126 49.4532 30.9865 49.4532 30.161V27.7763H49.4379Z" fill="#FFDB00"/>
<path d="M60.4445 31.0324C58.3502 31.0324 57.0967 29.5878 57.0967 27.1648C57.0967 24.7418 58.0445 23.5877 59.833 23.5877C60.712 23.5877 61.5681 23.8552 62.3324 24.3444C62.3248 24.1839 62.2331 22.4182 62.2331 22.3342C62.0114 22.3189 59.9706 22.1431 59.9706 22.1431C58.2585 22.1431 56.7603 22.6246 55.7438 23.4883C54.7272 24.3902 54.0928 25.8425 54.0928 27.2871C54.0928 28.8617 54.7272 30.2681 55.8814 31.2388C56.9514 32.1636 58.1285 32.5382 59.94 32.5382C61.0789 32.5382 62.0649 32.4235 62.9439 32.1789C62.9592 32.1331 63.5936 30.291 63.6624 30.0846C62.8063 30.5356 61.698 31.0324 60.4521 31.0324H60.4445Z" fill="#FFDB00"/>
<path d="M44.3397 23.9928C44.3397 23.3736 44.4085 22.7774 44.9588 22.3953H41.0377C41.588 22.7774 41.6568 23.3813 41.6568 24.0004V28.9763C41.6568 29.496 41.6339 29.9852 41.3052 30.4285C41.0759 30.7343 40.6861 30.9177 40.2734 30.9177H40.1205C39.7077 30.9177 39.3179 30.7343 39.0886 30.4209C38.7676 29.9699 38.737 29.4808 38.737 28.961V24.0004C38.737 23.3813 38.8058 22.7851 39.3561 22.3953H35.4351C35.9854 22.7774 36.0618 23.3813 36.0618 24.0004V29.3585C36.0618 30.3062 36.1077 31.0247 36.765 31.705C37.4529 32.4158 38.3396 32.5611 38.9587 32.5611H41.4352C42.0543 32.5611 42.9409 32.4158 43.6288 31.705C44.2862 31.0171 44.332 30.2986 44.332 29.3508V23.9928H44.3397Z" fill="#FFDB00"/>
</svg>
