<svg width="106" height="91" viewBox="0 0 106 91" fill="none" xmlns="http://www.w3.org/2000/svg">
<g clip-path="url(#clip0_32_308)">
<path d="M26.3527 -0.189941L-0.154541 45.2876L26.3527 90.8101H79.3976L105.845 45.4884L79.3976 -0.189941H26.3527Z" fill="#1C235A"/>
<path d="M43.5046 8.90991V6.9917H30.236L7.74658 45.4883L30.236 83.9849H75.1699L97.4792 45.4883L75.2597 6.9917H61.7888L61.7661 8.90991L72.5611 10.382L92.9366 45.4883L72.9507 80.0146H32.6198L12.4692 45.4883L32.71 10.382L43.5046 8.90991Z" fill="#E8343D"/>
<path d="M52.4105 6.2334C50.618 10.3614 48.322 14.2563 45.5739 17.8313C46.7132 19.9576 47.6729 22.0726 48.8126 24.1989V26.6635L52.4109 32.9533L56.0991 26.6635V24.1989L59.2924 17.8313C57.7768 16.0594 56.0906 13.9002 54.5697 11.0508C53.7395 9.49587 53.0181 7.88628 52.4105 6.2334ZM36.9078 14.7389L39.3066 23.6605L46.3232 30.3813L46.9232 24.5525L43.9244 18.4859L36.9078 14.7389ZM68.0119 14.7389L65.6128 23.6605L58.5961 30.3813L57.9965 24.5525L60.9949 18.4859L68.0119 14.7389ZM30.3257 31.794L41.5257 28.5376L37.6126 24.6118L30.3257 31.794Z" fill="white"/>
<path d="M27.852 35.7639L24.2537 47.8079L38.467 41.7859L25.783 53.0719L35.9258 71.4503L43.5044 57.2647L52.8603 71.4503H68.7826L47.9123 45.4884L51.4208 35.0503L48.2048 30.0766L47.9799 34.091L42.3801 29.0952L27.852 35.7639Z" fill="white"/>
<path d="M80.9719 41.8752L74.7648 39.5108L72.0209 32.5074L64.0147 27.7791L57.1328 34.024L56.638 30.3812L52.8596 43.8231L57.2675 50.0087L61.6754 43.7041L63.6846 46.1723L68.7823 44.8638L60.3561 53.3689L69.8018 70.7066L67.6729 57.6812L70.1918 54.499L76.7586 58.3651V53.9045L79.6372 50.5439V46.5591L81.5261 45.7858L80.9719 41.8752ZM70.492 39.2879L64.465 34.6486H70.8068L69.5024 37.3248L70.492 39.2879Z" fill="white"/>
</g>
<defs>
<clipPath id="clip0_32_308">
<rect width="106" height="91" fill="white"/>
</clipPath>
</defs>
</svg>
