<svg width="23" height="24" viewBox="0 0 23 24" fill="none" xmlns="http://www.w3.org/2000/svg">
<g clip-path="url(#clip0_52_542)">
<path d="M22.671 6.13914L21.9329 5.20827C21.9313 5.20558 18.029 0.32251 18.029 0.32251L17.2729 0.617997C17.2729 0.617997 16.9414 0.747891 16.9299 0.75187C16.9076 0.762407 14.6474 1.6136 11.4963 1.63123C8.3574 1.6136 6.09217 0.761225 6.07265 0.75187C6.0766 0.753805 5.73276 0.61875 5.73276 0.61875L4.97896 0.32294L0.328979 6.1357L1.04857 7.0856C1.05493 7.09657 2.31769 8.85014 3.21556 12.6084L3.20515 12.5522C4.22922 18.2158 9.1124 22.01 10.5841 23.038L11.5014 23.6773L12.4172 23.038C13.8909 22.0095 18.7737 18.2158 19.8053 12.5268L19.7921 12.5827C20.6868 8.84981 21.9468 7.09388 21.962 7.07786L22.671 6.13914Z" fill="#D1D1D1"/>
<path d="M17.3325 1.74449C17.3059 1.7547 14.9033 2.67773 11.501 2.6988C8.10143 2.6773 5.69651 1.75384 5.67294 1.74449L5.3291 1.61029L1.69836 6.15411L1.92248 6.45035C1.93673 6.46949 3.30946 8.32026 4.27652 12.3655C5.22406 17.6275 9.8259 21.199 11.2161 22.1674L11.5014 22.3681L11.7883 22.1674C13.1764 21.2002 17.7755 17.6302 18.7342 12.3388C19.6929 8.31994 21.0656 6.46906 21.0835 6.45035L21.3075 6.15411L21.0736 5.86378L17.6764 1.60986L17.3325 1.74449Z" fill="#2B3137"/>
<path d="M20.6865 6.16193C20.6865 6.16193 19.2549 8.0369 18.2476 12.2573C17.2766 17.6149 12.3133 21.2064 11.5011 21.7732C10.69 21.2065 5.72564 17.6129 4.75288 12.2573C3.74767 8.0369 2.31726 6.16193 2.31726 6.16193L5.49001 2.1936C5.49001 2.1936 7.95151 3.16189 11.5007 3.18297C15.0487 3.16189 17.5146 2.19371 17.5146 2.19371L20.6865 6.16193Z" fill="black"/>
<path d="M16.9975 8.22192C16.6735 8.55956 16.1694 9.15237 15.7363 9.97044C15.3001 10.8486 14.9953 11.8099 14.9451 13.0378C13.1092 11.2697 13.6955 9.31624 13.6955 9.31624C13.6955 9.31624 12.0092 9.51022 10.9251 9.35882C10.9251 9.35882 10.7986 11.0344 12.5975 12.3064C15.3929 14.2751 15.2986 15.7121 14.7724 16.8089C14.343 17.7136 12.6767 19.2678 11.505 20.2217C11.505 20.2217 6.2564 16.3663 5.7323 11.5402C5.7323 11.5402 6.53226 13.2888 8.79157 14.1049C8.79157 14.1049 11.3912 15.0385 11.0139 17.0189C13.1956 15.5541 12.3328 13.4714 10.1559 12.1768C8.46286 11.1679 7.58144 9.80764 7.10931 8.68989C7.10931 8.68989 6.70933 7.90923 6.14423 7.75708C6.44674 7.7773 6.92741 7.97751 7.16271 8.03375C7.40757 8.10111 7.65437 8.16149 7.9028 8.21483C12.3138 8.98839 15.6778 8.3316 16.8717 8.02988C17.1742 7.953 17.432 7.85418 17.432 7.85418C17.432 7.85418 17.2033 8.01149 16.9975 8.22192Z" fill="#FB342E"/>
<path d="M9.06011 12.5141C7.43991 11.4708 7.0169 10.8178 6.4586 9.57313C6.00204 8.5615 5.37971 7.69569 3.81323 6.97998C4.71297 7.70085 4.90002 8.15397 5.33706 9.26678C5.33706 9.27184 5.7434 10.4212 6.23931 11.0676C6.67668 11.6577 7.30428 12.1811 8.16312 12.5569C8.71989 12.8009 9.86566 13.2494 10.5394 13.6533C10.5394 13.6533 9.54057 12.7826 9.06011 12.5141Z" fill="#FAA74A"/>
<path d="M8.41584 3.94333L8.48426 3.95784C8.54873 3.96989 8.55991 3.98118 8.53524 4.09795C8.51332 4.18849 8.49468 4.20484 8.43251 4.19118L8.36409 4.1772L8.41584 3.94333ZM8.33186 4.32828L8.39512 4.34032C8.65618 4.3957 8.75212 4.37075 8.78106 4.22312L8.81418 4.06634C8.84718 3.91795 8.7724 3.85946 8.51014 3.80516L8.17572 3.7373L8.00073 4.56549L8.27046 4.62097L8.33186 4.32828ZM9.58387 4.17398C9.58979 4.13849 9.61249 4.12795 9.66863 4.13699C9.724 4.14279 9.74669 4.16075 9.74308 4.19118L9.67861 4.66538C9.6774 4.70011 9.65032 4.70871 9.59418 4.70215C9.54045 4.69506 9.51622 4.67947 9.52258 4.64785L9.58387 4.17398ZM9.24793 4.61387C9.23005 4.77044 9.334 4.82431 9.57466 4.85624C9.81347 4.88517 9.92728 4.85818 9.95206 4.7014L10.0129 4.22559C10.0368 4.06785 9.92695 4.01483 9.68891 3.9843C9.44978 3.95473 9.33071 3.98118 9.31207 4.13731L9.24793 4.61387ZM10.5685 4.08699L10.8419 4.09634L10.8259 4.42344L10.9868 4.42731L10.9966 4.10226L11.2745 4.11236L11.2454 4.95463L10.9685 4.94721L10.9812 4.58269L10.8259 4.57764L10.812 4.93893L10.5355 4.9328L10.5685 4.08699ZM12.1771 4.25484H12.1835L12.248 4.65452L12.1142 4.65602L12.1771 4.25484ZM12.0613 4.95936L12.0883 4.8099L12.2778 4.80786L12.3136 4.95506L12.5974 4.95108L12.3534 4.11043L11.9885 4.11623L11.7804 4.9656L12.0613 4.95936ZM13.638 4.00892L13.8964 3.97688L13.994 4.81882L13.6544 4.85753L13.3476 4.29731H13.3443L13.4124 4.88323L13.1536 4.91173L13.0563 4.07333L13.4021 4.0343L13.7025 4.59904H13.7085L13.638 4.00892ZM15.2864 4.58538L15.1099 4.62054L15.06 4.56592C15.0167 4.62947 14.9753 4.66344 14.8575 4.68732C14.7018 4.71689 14.586 4.67947 14.5622 4.57409L14.4611 4.07333C14.4321 3.93516 14.516 3.8587 14.7588 3.80946C15.0219 3.7587 15.1261 3.79817 15.1547 3.93559L15.1655 3.98634L14.8961 4.03903L14.887 3.98903C14.8805 3.95784 14.8539 3.95075 14.799 3.96096C14.7433 3.96989 14.7225 3.98785 14.7289 4.01989L14.8272 4.48903C14.8327 4.52183 14.8579 4.52989 14.9148 4.51946C14.9701 4.50817 14.9916 4.49022 14.984 4.45774L14.9454 4.28215L14.8663 4.29774L14.8365 4.14591L15.183 4.07763L15.2864 4.58538Z" fill="#2B3137"/>
<path d="M19.1315 7.19336C19.1315 7.19336 15.7018 9.8806 15.7152 14.581C15.7152 14.581 16.6127 13.8375 17.2232 11.0558C17.2228 11.0562 17.8871 8.41273 19.1315 7.19336Z" fill="#FAA74A"/>
<path d="M8.35178 5.24705L8.34224 5.26651L8.32195 5.35038L8.35178 5.35985C8.51416 5.40501 8.56032 5.41834 8.55714 5.48705C8.55604 5.50458 8.55319 5.52533 8.54519 5.55178L8.52929 5.61275L8.51383 5.67673L8.11615 7.23094L9.44865 7.41084L9.47606 7.20159L9.42836 7.19729L9.0706 7.16374L8.81425 7.13148C8.75219 7.12083 8.7068 7.11578 8.69255 7.09901C8.6909 7.09395 8.6909 7.0846 8.6909 7.07008C8.6909 7.05212 8.69244 7.02406 8.70242 6.99481C8.70242 6.99481 8.83969 6.42491 8.86403 6.3262C8.89945 6.33158 9.09604 6.35588 9.09604 6.35588L9.46575 6.40663L9.50797 6.22007L9.13266 6.17512C9.13266 6.17512 8.96984 6.15362 8.90855 6.14588L9.03628 5.60103C9.05985 5.51436 9.05985 5.51049 9.1923 5.52652L9.34153 5.54555L9.7312 5.60652L9.77977 5.61512L9.80762 5.42619L9.76223 5.42071L8.35178 5.24705ZM10.8057 5.68372L10.9558 5.69039L11.3466 5.7205C11.3578 5.7205 11.4036 5.7248 11.4036 5.7248V5.53619L9.91661 5.46909L9.91266 5.49017L9.90071 5.57727L9.93097 5.58264C10.1463 5.62329 10.1678 5.62953 10.1642 5.76329C10.1642 5.75953 10.1558 5.82308 10.1558 5.82308L10.1507 5.88824L10.0177 7.47052L11.384 7.56149L11.3852 7.33869C11.3852 7.33869 11.3275 7.34492 11.3255 7.34492L10.9661 7.32965L10.6899 7.30503C10.5814 7.29729 10.5642 7.29492 10.5642 7.23084C10.5642 7.2161 10.5693 7.19933 10.5693 7.17815C10.5693 7.17815 10.6083 6.60567 10.6135 6.49986C10.6565 6.49986 10.8503 6.5061 10.8503 6.5061L11.234 6.52524L11.2411 6.33319L10.8595 6.32308C10.8595 6.32308 10.6907 6.31835 10.6274 6.31771C10.633 6.27276 10.6645 5.76931 10.6645 5.76931C10.6728 5.68028 10.6728 5.67673 10.8057 5.68372ZM14.7111 7.18019L14.3597 7.236L14.1042 7.26568C13.9609 7.28202 13.9582 7.28202 13.9343 7.16062C13.9343 7.16062 13.8288 6.57169 13.81 6.46007C13.8511 6.45534 14.0378 6.4405 14.0378 6.4405L14.4186 6.40932L14.38 6.22158L14.0078 6.25792C14.0078 6.25792 13.8344 6.27233 13.7758 6.27781C13.7683 6.23878 13.6788 5.7263 13.6788 5.7263C13.6716 5.70878 13.6716 5.68996 13.6704 5.6763C13.6704 5.66458 13.6716 5.65759 13.6788 5.64942C13.6871 5.63501 13.7316 5.62953 13.7922 5.62523L13.9418 5.61351L14.3374 5.59006H14.3899L14.3373 5.40426L14.3187 5.40662L12.8661 5.52813L12.8824 5.63501L12.9111 5.63609C13.1358 5.65093 13.1597 5.65136 13.1817 5.78447L13.1959 5.84684C13.1959 5.85114 13.2083 5.91405 13.2083 5.91405L13.4759 7.53299L14.8039 7.37449L14.7545 7.17127L14.7111 7.18019ZM12.9167 7.36353L12.4072 7.36912C12.3921 7.36912 12.383 7.36707 12.3778 7.36008C12.3701 7.35148 12.3706 7.33396 12.3706 7.32729L12.3356 5.57447V5.55189H12.295L11.5663 5.54243L11.5603 5.6291L11.589 5.63146C11.8031 5.66587 11.8266 5.67318 11.8342 5.7806L11.8401 5.82931L11.8266 7.58331L13.2449 7.56224L13.2418 7.35901H13.1956L12.9167 7.36353ZM18.5401 5.75867C18.2651 5.36684 17.8292 5.31372 17.4404 5.26651H17.4324C17.1364 5.23028 16.8531 5.19705 16.7417 5.00737C16.6983 4.93404 16.6854 4.86963 16.7057 4.8192C16.7345 4.74468 16.8228 4.70876 16.8578 4.70016C16.9366 4.6764 17.0245 4.66231 17.1237 4.65296C17.2375 4.64866 17.366 4.65844 17.5005 4.76694C17.4966 4.76027 17.5352 4.79425 17.5352 4.79425L17.5435 4.80436L17.5555 4.7993L17.6653 4.76694L17.372 4.3708H17.3596L17.3298 4.3751C17.2346 4.38564 17.0122 4.41102 16.797 4.47188C16.5227 4.55145 16.3401 4.67995 16.2772 4.84339C16.2242 4.96522 16.2402 5.10027 16.321 5.24425C16.5279 5.61781 16.9427 5.672 17.3521 5.72555C17.6856 5.76845 17.988 5.80749 18.1413 6.04362C18.2241 6.1634 18.2527 6.26878 18.2241 6.35276C18.197 6.43631 18.1194 6.50298 17.9952 6.54706C17.729 6.64309 17.3755 6.60137 17.1901 6.56814L17.0898 6.54986L17.333 6.98857L17.405 6.98384C17.5396 6.97019 17.84 6.94083 18.1 6.84879C18.3291 6.7633 18.618 6.6076 18.6917 6.34416C18.7438 6.1705 18.6928 5.97534 18.5401 5.75867ZM8.22086 5.3063L8.25825 5.17597L6.78135 4.85081L6.77587 4.86532L6.69145 5.00941L7.11094 5.10802C7.11094 5.10802 7.17421 5.12253 7.21072 5.13027C7.19372 5.1764 6.56843 6.63491 6.56843 6.63491L6.33401 7.19729L6.43356 7.14352C6.49836 7.11578 6.63454 7.03922 6.74517 6.96589H6.73881C6.75109 6.96126 6.76984 6.94954 6.82159 6.90933L6.8387 6.89879C6.90283 6.85112 6.96118 6.79639 7.01259 6.73567C7.01456 6.73567 7.09581 6.62513 7.09581 6.62513C7.09735 6.61857 7.10535 6.61223 7.10535 6.61223L7.18133 6.46943C7.18133 6.46943 7.62824 5.38404 7.68723 5.23501C7.7131 5.24114 7.78667 5.2564 7.78667 5.2564L8.20968 5.3478L8.22086 5.3063ZM16.1028 6.11233C16.2804 6.0319 16.3663 5.91673 16.3583 5.7634C16.3567 5.70598 16.3408 5.64243 16.315 5.57716C16.1199 5.07285 15.5039 5.17866 15.3001 5.21544L14.4894 5.35673L14.4958 5.38124L14.5257 5.47028L14.5492 5.46909C14.7433 5.46404 14.7848 5.46555 14.8205 5.54049C14.8205 5.54243 14.8309 5.56705 14.8309 5.56705C14.8309 5.56705 14.8325 5.57092 15.5616 7.72654L15.5763 7.77493L15.6297 7.68869C15.6297 7.68869 15.7152 7.53923 15.7662 7.40923C15.7682 7.40578 15.7904 7.33041 15.7904 7.33041L15.7988 7.31406C15.8188 7.24416 15.8292 7.17194 15.8298 7.09933L15.8234 6.96976C15.8228 6.96508 15.8212 6.96057 15.8187 6.95653L15.7865 6.79954C15.7865 6.79804 15.7813 6.79309 15.5847 6.23093C15.5998 6.22556 15.6146 6.22437 15.6146 6.22437C15.6336 6.23953 16.508 7.03105 16.508 7.03105L17.0166 6.93621L16.9569 6.87696C16.9569 6.87696 16.1498 6.15168 16.1028 6.11233ZM15.5162 5.40737C15.6781 5.37888 15.7948 5.46555 15.874 5.67673C15.8872 5.71342 15.8959 5.75155 15.8998 5.79028C15.8998 5.83716 15.892 5.88168 15.8708 5.91792C15.8398 5.9734 15.7864 6.00727 15.7148 6.02093C15.7148 6.02093 15.5564 6.04996 15.5202 6.05609C15.5094 6.02093 15.3467 5.55221 15.3467 5.55221C15.3419 5.546 15.3392 5.53848 15.339 5.53071C15.339 5.4706 15.3709 5.43286 15.5162 5.40737ZM6.77576 4.53005L6.73081 4.50618C6.65724 4.46564 6.45977 4.3579 6.23533 4.28844C5.75103 4.13704 5.33187 4.25327 5.11346 4.6022C4.87663 4.97533 5.09668 5.23802 5.30972 5.49286C5.48153 5.70017 5.63799 5.89254 5.50861 6.12244C5.33318 6.42298 5.08758 6.41405 4.91127 6.35276C4.65855 6.26652 4.48586 6.05813 4.40308 5.93824L4.35845 5.87695L4.11768 6.26534L4.16943 6.3019C4.25023 6.35975 4.45921 6.5062 4.70789 6.59395C5.05765 6.71459 5.69654 6.82029 6.05705 6.17943C6.28664 5.76329 6.03238 5.46404 5.82384 5.2278L5.82022 5.2235C5.65192 5.02963 5.50861 4.86135 5.62527 4.6678C5.76858 4.43048 5.98501 4.47693 6.04586 4.49532C6.13052 4.52218 6.21132 4.55955 6.28631 4.6065C6.36668 4.66317 6.4499 4.73532 6.42677 4.89532C6.42841 4.88877 6.41602 4.9336 6.41602 4.9336L6.41492 4.95231L6.43159 4.95737L6.53345 4.99059L6.77576 4.53005Z" fill="#D1D1D1"/>
<path d="M8.59413 7.0861C8.58416 7.04277 8.59962 7.0033 8.59962 7.0033L8.69325 6.61147L8.87822 5.85587L8.94313 5.5892C8.94313 5.5892 8.94861 5.54942 8.97613 5.5163C8.9985 5.48393 9.03468 5.46791 9.03468 5.46791C9.03468 5.46791 8.9599 5.46404 8.92284 5.50028C8.89335 5.52877 8.88502 5.58264 8.88502 5.58264L8.81814 5.84727L8.63317 6.60212L8.53602 6.99513C8.53602 6.99513 8.51651 7.05255 8.52966 7.0904C8.55039 7.13954 8.6279 7.15524 8.6279 7.15524C8.6279 7.15524 8.59929 7.12836 8.59413 7.0861ZM10.4753 7.27428C10.4599 7.23363 10.4706 7.18997 10.4706 7.18997L10.5013 6.79147L10.5633 6.02372L10.5809 5.75834C10.5809 5.75834 10.5809 5.72082 10.598 5.68458C10.6183 5.6506 10.6561 5.63028 10.6561 5.63028C10.6561 5.63028 10.5771 5.63028 10.5443 5.67049C10.5196 5.7006 10.5172 5.75598 10.5172 5.75598L10.5013 6.02136L10.4371 6.78717L10.4046 7.18761C10.4046 7.18761 10.3949 7.2489 10.4161 7.28589C10.4424 7.33234 10.5239 7.33976 10.5239 7.33976C10.5239 7.33976 10.491 7.31557 10.4754 7.27417L10.4753 7.27428ZM13.8677 7.27815C13.8422 7.23868 13.8371 7.19739 13.8371 7.19739L13.7655 6.76803L13.629 6.0062L13.5796 5.73684C13.5796 5.73684 13.5701 5.69813 13.5796 5.66071C13.5872 5.62286 13.6198 5.60135 13.6198 5.60135C13.6198 5.60135 13.5422 5.61232 13.5211 5.65372C13.5064 5.68727 13.5195 5.74114 13.5195 5.74114L13.57 6.01082L13.703 6.77309L13.7762 7.20481C13.7762 7.20481 13.783 7.26524 13.814 7.29761C13.8546 7.33782 13.9342 7.33514 13.9342 7.33514C13.9342 7.33514 13.8943 7.31557 13.8677 7.27815ZM18.296 5.62329C18.5468 5.81727 18.8166 6.31878 18.3275 6.63964C18.54 6.34717 18.6303 6.04716 18.296 5.62329ZM16.8164 5.20952C16.6512 5.05844 16.4248 4.8079 16.796 4.62994C16.5386 4.66736 16.342 4.96479 16.8164 5.20952ZM6.67461 6.88545C6.92657 6.71997 7.00935 6.61502 7.07228 6.49513C7.13829 6.37727 7.60954 5.19124 7.60954 5.19124L7.55581 5.17866L7.07546 6.34727C7.00299 6.50459 6.86451 6.73287 6.67461 6.88545ZM15.1652 5.48393C15.1544 5.51985 15.1815 5.57103 15.1815 5.57103L15.1823 5.58425L15.5914 6.74459C15.6455 6.90932 15.6869 7.16374 15.6372 7.37299C15.7298 7.12868 15.7267 7.00373 15.7012 6.87696C15.6714 6.74685 15.2392 5.57447 15.2392 5.57447L15.2356 5.56275C15.2356 5.56275 15.2209 5.52533 15.2241 5.48468C15.2241 5.44952 15.2539 5.42458 15.2539 5.42458C15.2539 5.42458 15.1816 5.44103 15.1652 5.48393ZM6.03626 5.94566C6.00282 6.21222 5.66095 6.67588 5.03577 6.59083C5.4568 6.53738 5.81862 6.40426 6.03626 5.94566ZM5.47237 4.84736C5.5137 4.64865 5.62367 4.34263 6.07058 4.40628C5.848 4.29779 5.40592 4.41564 5.47237 4.84736ZM15.9552 6.09437C16.2528 5.95813 16.2341 5.76641 16.2341 5.76641C16.1952 5.93899 15.9583 6.0506 15.8644 6.08534L16.7451 6.9019L16.8164 6.88793L15.9552 6.09437ZM12.1684 5.70006L12.1914 7.30352C12.1914 7.30352 12.1846 7.3675 12.2117 7.40266C12.2408 7.4475 12.3248 7.4475 12.3248 7.4475C12.3248 7.4475 12.2897 7.42567 12.2706 7.38621C12.2519 7.34449 12.2551 7.29997 12.2551 7.29997L12.2336 5.69823L12.1684 5.70006Z" fill="#707070"/>
</g>
<defs>
<clipPath id="clip0_52_542">
<rect width="23" height="24" fill="white"/>
</clipPath>
</defs>
</svg>
