<svg width="110" height="150" viewBox="0 0 110 150" fill="none" xmlns="http://www.w3.org/2000/svg">
<g opacity="0.5">
<path d="M51.3218 123.969C50.5811 123.969 49.9021 124.277 49.3906 124.789C49.2319 124.948 49.0908 125.124 48.9762 125.318C48.5441 126.059 48.3501 126.993 48.3501 127.84C48.3501 128.686 48.5441 129.701 49.0379 130.45C49.1437 130.6 49.2584 130.741 49.3906 130.865C49.9021 131.358 50.5899 131.649 51.3042 131.649C52.2301 131.649 53.059 131.094 53.5704 130.344C54.0554 129.595 54.2406 128.66 54.2406 127.761C54.2406 126.861 54.0554 125.882 53.5087 125.097C52.9796 124.366 52.2389 123.969 51.3306 123.969H51.3218ZM51.2601 130.3C50.3694 130.3 50.2901 128.545 50.2901 127.963C50.2901 127.381 50.2901 126.623 50.5017 126.076C50.6252 125.741 50.9073 125.283 51.313 125.283C52.2389 125.283 52.2565 126.993 52.2565 127.619C52.2565 128.246 52.186 130.309 51.2689 130.309L51.2601 130.3Z" fill="white"/>
<path d="M57.9796 123.969C57.0096 123.969 56.1366 124.489 55.6251 125.318C55.1842 126.059 54.999 126.993 54.999 127.84C54.999 128.686 55.2018 129.701 55.6868 130.45C56.1895 131.2 57.0625 131.649 57.9531 131.649C58.7203 131.649 59.4169 131.261 59.9284 130.697C60.0254 130.582 60.1224 130.468 60.2106 130.344C60.7044 129.595 60.8807 128.66 60.8807 127.761C60.8807 126.861 60.7044 125.882 60.1488 125.097C60.0783 125 60.0077 124.912 59.9372 124.833C59.4257 124.269 58.7644 123.969 57.9796 123.969ZM57.9179 130.3C57.0272 130.3 56.9479 128.545 56.9479 127.963C56.9479 127.381 56.9655 126.623 57.1595 126.076C57.2829 125.741 57.5651 125.283 57.9619 125.283C58.8967 125.283 58.9143 126.993 58.9143 127.619C58.9143 128.246 58.8349 130.309 57.909 130.309L57.9179 130.3Z" fill="white"/>
<path d="M60.6427 87.7704C60.9513 87.9203 61.2511 88.079 61.5421 88.2465C61.5421 88.2377 61.5598 88.2289 61.5598 88.2289C61.692 87.7527 61.9566 87.2854 62.2388 86.9238L61.9301 87.0914C61.9301 87.0914 60.7044 87.7263 60.6956 87.7351L60.6427 87.7615V87.7704Z" fill="white"/>
<path d="M46.7628 86.668C47.1508 87.0471 47.5565 87.6644 47.7328 88.2905C48.0767 88.0877 48.4295 87.9025 48.791 87.7261C48.6587 87.6556 48.5617 87.6027 48.5617 87.6115C48.5617 87.6115 47.3537 86.9942 47.336 86.9854L46.7628 86.668Z" fill="white"/>
<path d="M30.4845 89.0753C32.3187 90.1158 33.2005 89.3751 33.2711 89.3046C33.4651 89.2517 34.1617 89.0665 34.338 89.0047C35.6167 88.9783 36.7366 88.4316 36.7366 88.4316C36.4103 88.1229 35.4403 87.4175 35.4403 87.4175C34.3204 87.4439 32.1688 87.9289 31.7367 88.1317L31.7014 88.1494L30.3963 88.2817C28.9766 88.5374 30.4933 89.0753 30.4933 89.0753H30.4845Z" fill="white"/>
<path d="M30.996 87.9642C31.2429 87.8142 32.6538 87.4792 32.6538 87.4792C31.4105 87.488 30.414 86.6679 30.414 86.6679L29.5498 86.5356C28.5534 86.4033 29.0825 87.2763 29.0825 87.2763C29.7262 87.9818 30.5198 88.0347 30.996 87.9642Z" fill="white"/>
<path d="M30.176 86.2977C30.176 86.2977 30.4582 86.2271 30.6345 86.2536C31.631 87.691 35.1847 87.0913 35.1847 87.0913C34.929 86.6328 35.0877 86.2712 35.1582 86.139C34.2059 85.9361 33.086 85.7774 32.0102 85.5658C31.8426 85.46 31.4899 85.3982 31.3135 85.2924C31.3488 85.3101 30.4405 84.8603 30.4758 84.8692C29.1795 84.3312 28.2183 83.3877 28.2183 83.3877C28.1478 83.7228 28.2536 84.0226 28.4035 84.2695C28.4565 84.3489 28.1919 84.6399 28.1919 84.6399C28.527 86.3418 30.1848 86.2977 30.1848 86.2977H30.176Z" fill="white"/>
<path d="M29.4617 80.4158C29.4617 80.4158 29.2854 80.8126 29.6293 81.3064C29.6293 81.3064 30.0349 82.2059 32.4863 83.5463C32.4863 83.5463 33.5357 84.0577 34.0295 84.3399C34.0295 84.3399 34.8055 83.5903 35.8813 83.8108C35.2552 83.3875 33.9149 82.4704 33.3946 82.0119C32.989 81.571 32.795 81.5445 32.5833 81.377C31.4899 80.6451 29.8145 79.6574 29.4705 80.4158H29.4617Z" fill="white"/>
<path d="M32.2835 90.892C33.4563 91.5975 34.4792 90.5569 34.4792 90.5569C34.4087 90.5569 35.5286 90.1337 35.5286 90.1337C36.9395 89.8867 37.8566 89.2695 37.8566 89.2695L37.2746 88.6963C36.8513 88.9167 35.996 89.2166 35.996 89.2166C35.0965 89.34 34.2323 89.631 34.2323 89.631C34.1971 89.6575 33.5533 89.6927 33.5533 89.6927L32.4775 90.0367C31.631 90.4511 32.2835 90.892 32.2835 90.892Z" fill="white"/>
<path d="M31.7103 90.2656C30.6962 90.6889 28.9502 91.2356 27.7068 91.606C26.8691 91.8529 26.2606 92.0293 26.2606 92.0293C23.5094 92.8846 26.34 92.8405 26.34 92.8405C26.8162 92.8758 27.2747 92.8935 27.7068 92.8758C31.0225 92.7876 33.0947 91.412 33.0947 91.412C31.6221 91.4914 31.7191 90.2568 31.7191 90.2568L31.7103 90.2656Z" fill="white"/>
<path d="M28.2976 81.7916C27.839 83.1408 30.3434 84.4459 31.3575 84.9661C31.2781 84.8868 34.1793 85.6275 34.7877 85.7862C34.0646 85.3718 34.0029 84.6575 34.0029 84.6575L31.1811 83.3348C30.8813 83.1231 30.2552 82.7175 30.2552 82.7175C29.6996 82.356 29.4616 81.8445 29.4616 81.8445C28.6944 81.0773 28.3064 81.7916 28.3064 81.7916H28.2976Z" fill="white"/>
<path d="M28.2448 91.1301C28.2448 91.1301 30.9256 90.1337 31.4811 89.9044C31.4811 89.9044 29.4882 89.4106 29.3119 88.6875C28.9944 88.7933 28.4477 88.9873 27.6981 89.2871C27.2131 89.4811 26.6399 89.7192 25.9962 90.0014C25.9962 90.0014 20.9699 91.8179 23.5536 91.7915C23.5536 91.7915 26.1549 91.6945 27.7069 91.2977C27.9098 91.2448 28.0861 91.1918 28.2448 91.1301Z" fill="white"/>
<path d="M29.0648 88.3786C29.0648 88.3786 29.2677 88.2023 29.4705 88.0788C29.2324 87.9377 28.4828 87.4792 28.4211 87.1353C28.4211 87.1353 28.1566 87.1353 27.7068 87.1882C26.631 87.294 24.5147 87.585 22.6188 88.4051C22.6188 88.4051 17.5924 89.9218 21.4107 89.5955C21.4107 89.5955 25.2907 89.331 27.7068 88.7931C28.2536 88.6696 28.7298 88.5373 29.0648 88.3786Z" fill="white"/>
<path d="M41.2692 87.4352L39.5144 87.3823C39.0647 87.3999 38.6414 87.3646 38.2534 87.3029C36.869 87.1001 35.9607 86.5534 35.9607 86.5534C35.22 86.1654 35.6785 86.8973 35.6785 86.8973C36.3135 87.9114 37.3011 88.3258 38.2534 88.4581C39.7437 88.6609 41.1811 88.1759 41.1811 88.1759C41.3662 87.8937 41.2692 87.4264 41.2692 87.4264V87.4352Z" fill="white"/>
<path d="M41.0046 86.2533C40.6254 86.1916 39.1263 85.5478 38.2445 85.1598C37.8565 84.9835 37.5831 84.86 37.5831 84.86C36.0311 83.9341 34.9729 84.2427 34.9729 84.2427C33.562 84.4456 35.405 85.8829 35.405 85.8829C36.4808 86.4737 37.442 86.8 38.2445 86.9675C40.0257 87.3467 41.0663 86.9675 41.0663 86.9675C41.4543 86.5619 41.0046 86.2445 41.0046 86.2445V86.2533Z" fill="white"/>
<path d="M38.2534 82.3115C37.4157 82.3027 36.6044 82.3909 36.6044 82.3909C35.5991 82.4703 36.3222 83.1757 36.3222 83.1757C36.7896 83.8988 37.5126 84.4367 38.2534 84.8335C39.5849 85.5478 40.9517 85.8035 40.9517 85.8035C40.7048 84.7454 39.5232 82.4526 39.5232 82.4526C39.1793 82.3468 38.7119 82.3116 38.2534 82.3027V82.3115Z" fill="white"/>
<path d="M40.9164 88.5991C40.2992 88.8989 38.9235 88.8019 38.2445 88.7314C38.0065 88.7049 37.8566 88.6873 37.8566 88.6873C37.9712 88.7402 38.1123 88.846 38.2445 88.9695C38.562 89.2517 38.8794 89.622 38.8794 89.622C39.5761 90.5303 40.599 90.4686 40.599 90.4686C40.7225 90.3187 40.8195 89.8248 40.8195 89.8248C40.7665 89.816 40.9517 89.4192 41.0223 89.2869C41.1369 89.2605 40.9164 88.6079 40.9164 88.6079V88.5991Z" fill="white"/>
<path d="M42.2127 91.6235C43.2003 90.142 44.5495 89.8687 45.5548 89.9216C45.5901 89.8951 45.6165 89.8598 45.6518 89.8334C45.6518 89.8246 45.6518 89.8069 45.6518 89.8069C44.8846 89.3043 44.2938 88.396 44.2497 87.9199C44.2497 87.9199 44.2321 87.7876 44.2321 87.7788L44.1968 87.4525C44.1968 87.0292 44.3996 86.6677 44.77 86.3943C45.158 86.1121 45.5107 86.0945 45.7841 86.1562V86.1298C45.4313 85.927 44.9728 85.6712 44.9552 85.6624C44.9552 85.6624 43.8617 84.9481 43.8353 84.9305C43.8353 84.9305 42.8212 84.1633 42.8035 84.1281C42.8035 84.1281 41.8953 83.2639 41.8688 83.2374C41.8688 83.2374 41.1193 82.2939 41.084 82.2586C41.084 82.2586 40.4579 81.2004 40.4314 81.1475C40.4314 81.1475 39.9994 79.9571 39.9729 79.8689C39.9729 79.8689 39.8494 78.7313 39.7965 78.2463C39.5232 78.2993 38.7472 78.4315 38.2534 78.5197C38.0065 78.5638 37.8301 78.5903 37.8301 78.5903L38.2534 78.0083L39.7613 75.9536C39.338 75.4069 38.8354 74.7896 38.2534 74.1018C36.5956 72.153 34.3028 69.6928 31.3223 66.9944C31.3223 66.9944 29.735 65.6188 27.7069 63.8022C24.9115 61.2891 21.2784 57.9294 19.8764 56.1834C19.8764 56.1834 17.6894 53.7407 16.5607 51.1041C16.111 50.0636 15.8288 48.9878 15.917 48.0266C15.917 48.0266 16.2345 46.21 16.5607 45.1166V43.45C16.4373 43.1325 16.1992 42.8503 15.7847 42.7269C15.7847 42.7269 14.656 42.3212 14.0564 44.0672C14.0564 44.0672 12.4426 47.3387 13.4744 50.0812C13.4744 50.0812 14.5943 53.0529 16.5607 55.9188C17.4073 57.1534 18.4126 58.3702 19.5589 59.3138C19.5589 59.3138 22.9892 61.8093 27.7069 66.3683C27.9097 66.5623 28.1213 66.7651 28.333 66.9679C28.333 66.9679 31.966 70.3629 35.4404 75.4951C35.4404 75.4951 36.8601 77.4792 38.2534 79.6484C39.2939 81.2622 40.3168 82.9729 40.7225 84.0399C40.7225 84.0399 42.3714 87.7611 41.4014 89.7364C40.4403 91.7205 39.5849 92.5229 39.5849 92.5229C39.1087 92.5758 38.6678 92.6023 38.2622 92.6023C35.3257 92.6199 33.9678 91.5441 33.9678 91.5441C32.8919 92.47 29.5763 93.0167 29.5763 93.0167C28.0508 93.3254 27.8303 93.8104 27.8303 93.8104C27.8303 93.8104 27.7774 93.8545 27.7157 93.8986C27.6628 93.9426 27.5922 93.9956 27.5305 94.0397C27.557 94.0661 27.6099 94.1014 27.7157 94.1455C27.9891 94.2601 28.6151 94.41 30.0701 94.4541C30.123 94.4629 34.6556 95.2918 36.9924 94.9567C37.0012 94.9567 37.5303 94.798 38.2534 94.4894C39.4879 93.9691 41.3044 93.0167 42.2127 91.6411V91.6235Z" fill="white"/>
<path d="M37.8478 79.9573C37.8478 79.9573 37.5832 79.3401 37.3628 78.9962L34.4969 74.834C34.4969 74.834 33.2359 74.7017 33.7826 76.9327C33.668 77.3207 32.4511 76.6153 32.5922 77.1884C32.7509 77.841 34.2941 78.8551 35.0965 79.7545C35.0613 79.6752 36.2076 81.236 36.7896 81.8533L37.7684 81.8709L38.2534 81.915H38.3328L39.3028 82.0913C38.9589 81.3153 38.5444 80.7598 38.2534 80.4071C37.9977 80.0984 37.8213 79.9485 37.8478 79.9573Z" fill="white"/>
<path d="M38.2534 92.0648C38.7913 92.056 39.1705 92.0295 39.1705 92.0295C39.7878 91.6768 40.2904 90.9713 40.2904 90.9713C40.1405 90.8214 39.9465 90.7509 39.9465 90.7509C39.3645 90.5392 38.3504 89.6927 38.2534 89.6045L38.2446 89.5957L36.5162 90.2394L34.3734 91.1918C34.2764 92.0295 36.8337 92.0912 38.2534 92.0648Z" fill="white"/>
<path d="M14.3562 58.194C14.947 59.1904 15.7318 60.2927 16.5607 61.3773C18.8182 64.3226 21.4372 67.1268 21.4372 67.1268C21.6135 67.162 21.8605 68.0615 21.8605 68.0615C23.8093 71.0508 25.7669 72.7086 25.7669 72.7086C25.714 72.6557 26.5958 73.2113 27.7069 73.9167C29.4882 75.0543 31.8602 76.5886 31.8602 76.5886L33.3946 76.6504C33.0683 76.0772 33.2271 75.0366 33.2271 75.0366C33.3064 74.5075 34.2147 74.437 34.2147 74.437C33.2006 72.9644 29.7792 69.0844 29.7792 69.0844C28.1831 67.4089 27.7598 67.0562 27.7598 67.0562C27.7422 67.0386 27.7245 67.0209 27.7157 67.0033C26.0315 65.028 22.1338 61.8535 22.1338 61.8535C19.5325 59.8077 16.9929 57.3298 16.9929 57.3298C16.8518 57.1799 16.7107 57.0212 16.5696 56.836C14.9029 54.7373 13.1217 50.628 13.1217 50.628C11.8254 49.8256 11.1729 50.9366 11.1729 50.9366C10.7143 51.3687 11.8871 53.5645 11.8871 53.5645C12.2487 54.2082 14.3562 58.1852 14.3562 58.1852V58.194Z" fill="white"/>
<path d="M16.5608 66.5362C16.8165 66.9242 17.0281 67.2328 17.1692 67.4092C19.6824 69.8518 19.5589 70.037 20.6788 70.7777L21.8076 72.171L22.9539 73.8553C24.1885 75.0369 26.1373 76.1215 27.7069 76.8799C29.0914 77.5501 30.176 77.9733 30.176 77.9733C30.7315 77.7617 31.3929 78.1585 31.3929 78.1585C32.1689 78.4583 31.5428 77.7 31.5428 77.7C31.4987 77.6912 31.4723 77.2943 31.4723 77.2943L31.5869 76.7564C29.9379 75.9275 28.6328 75.1604 27.7069 74.5695C26.684 73.917 26.1373 73.5026 26.1373 73.5026C24.6029 72.6648 23.6594 71.7125 23.6946 71.6243C23.6946 71.6243 21.1903 68.2293 20.9522 67.2769C20.9522 67.2769 18.8447 65.1518 16.5608 62.2065C15.6525 61.0337 14.7178 59.7286 13.8712 58.3794C13.8712 58.3794 12.2487 55.055 11.7813 54.1996C11.7813 54.1996 10.9613 52.4007 10.7055 53.9792C10.7055 53.9792 10.0971 55.8663 12.4956 59.8168C12.4956 59.8168 15.1675 64.3934 16.552 66.5186L16.5608 66.5362Z" fill="white"/>
<path d="M16.4284 71.0425C16.4284 71.0425 16.4813 71.0866 16.5606 71.1571C17.0103 71.5539 18.5447 72.8854 19.4001 73.4498C20.4759 74.4727 20.423 74.1024 21.3665 75.4692C21.3665 75.4692 23.1919 77.1711 27.7068 78.8994C28.4034 79.164 29.1529 79.4373 29.9818 79.6931L30.0083 79.3403C30.0083 79.3403 29.585 78.5643 29.9554 78.3086C29.9554 78.3086 28.9237 77.8853 27.7068 77.3474C26.3929 76.7654 24.8585 76.06 24.1795 75.6103L23.6063 75.2928L21.8956 73.5027C21.6752 73.3264 21.0579 71.8273 19.0562 70.1695C19.0562 70.1695 17.9892 69.3317 16.5694 67.8856C14.8852 66.1748 12.7071 63.6088 11.1992 60.54C11.1992 60.54 10.5026 58.4766 9.72656 58.6001C9.72656 58.6001 8.16576 59.1644 10.432 62.9386C10.432 62.9386 14.1092 69.1201 16.4372 71.0248L16.4284 71.0425Z" fill="white"/>
<path d="M27.7069 85.8039C28.1214 85.8216 28.3594 85.8304 28.3594 85.8304L27.7951 84.6223C27.7951 84.6223 27.7334 84.6223 27.6981 84.6223C24.8851 84.8692 20.3349 84.1814 20.3349 84.1814C18.8976 84.058 17.6189 83.8728 16.5608 83.6876C14.4444 83.3172 13.1746 82.9204 13.1746 82.9204C9.76198 83.5289 12.7513 83.8375 12.7513 83.8375C13.5891 84.2255 14.9647 84.5341 16.5608 84.7987C20.5289 85.4336 25.8639 85.7158 27.7069 85.7951V85.8039Z" fill="white"/>
<path d="M28.0419 86.6858C28.2447 86.3595 28.6415 86.2272 28.6415 86.2272C28.5093 86.1919 28.1654 86.1567 27.7068 86.1214C25.6786 85.945 21.2695 85.7334 21.2695 85.7334C19.8763 85.7775 17.1515 86.2889 17.1515 86.2889C16.931 86.3066 16.737 86.3154 16.5607 86.333C13.9858 86.5447 15.5201 86.8709 16.5607 87.0385C16.9575 87.1002 17.2838 87.1443 17.2838 87.1443C22.4159 87.7528 26.5252 87.0208 27.698 86.7739C27.9184 86.7298 28.0331 86.6946 28.0331 86.6946L28.0419 86.6858Z" fill="white"/>
<path d="M16.5607 83.37C20.767 84.1636 25.0614 84.2518 25.0614 84.2518C25.8462 84.1901 27.1866 84.1989 27.7068 84.2077C27.8391 84.2077 27.9185 84.2077 27.9185 84.2077C27.7421 83.7492 27.8832 83.1319 27.8832 83.1319C27.8215 83.1231 27.7597 83.1143 27.698 83.1054C24.6381 82.594 21.5341 80.9097 21.5341 80.9097L21.0932 80.9274C19.9204 81.1919 17.7864 80.7422 17.7864 80.7422C17.9452 80.8921 16.7018 80.7334 16.5519 80.7157H16.5342L11.067 80.6011C8.43038 80.6628 11.5873 81.9414 11.5873 81.9414C13.007 82.5763 14.7706 83.0349 16.5431 83.3612L16.5607 83.37Z" fill="white"/>
<path d="M16.4373 77.9116C16.4373 77.9116 16.5078 77.8675 16.5607 77.8764C16.693 77.8764 16.887 77.9646 16.887 77.9646C17.9805 78.5642 18.5096 78.7053 18.5096 78.7053C22.2573 81.483 26.6928 82.5235 27.7069 82.7352C27.848 82.7616 27.9185 82.7793 27.9185 82.7793C27.751 82.2854 27.9185 81.3507 27.9185 81.3507C27.848 81.3331 27.7774 81.3066 27.7069 81.289C21.64 79.4813 19.5677 77.5501 19.5677 77.5501C19.2944 77.5148 17.8218 76.3949 17.8218 76.3949C17.5131 76.2186 17.0546 75.9981 16.5696 75.76C15.4144 75.2133 14.0828 74.6313 14.0828 74.6313C10.3528 72.7618 8.50097 70.3898 8.50097 70.3898C7.03716 68.829 8.1218 71.0599 8.1218 71.0599C10.8642 75.5396 16.4461 77.9205 16.4461 77.9205L16.4373 77.9116Z" fill="white"/>
<path d="M16.5607 80.3192C18.0245 80.3721 20.8111 80.5397 20.8111 80.5397C20.4936 80.3898 18.3508 79.0494 18.3508 79.0494C18.148 79.0494 17.4513 78.5908 17.4513 78.5908C17.1603 78.5379 16.8605 78.4674 16.5695 78.388C12.9188 77.3739 9.12701 74.1553 9.12701 74.1553C7.8572 73.3088 8.50093 75.0812 8.50093 75.0812C10.3968 78.388 15.6877 80.3104 15.6877 80.3104C15.6524 80.2839 16.0228 80.2839 16.5695 80.3104L16.5607 80.3192Z" fill="white"/>
<path d="M10.7585 69.2519C13.254 72.3912 15.2734 74.1284 16.552 75.0543C17.5396 75.7686 18.104 75.989 18.104 75.989C18.0863 75.9361 19.9382 77.2941 19.9382 77.2941C23.1568 79.7367 26.0844 80.6185 27.6981 80.9272C28.5182 81.0859 29.0032 81.1035 29.0032 81.1035C28.4212 80.2129 29.1796 79.8602 29.1796 79.8602C28.6946 79.7455 28.2007 79.5956 27.6981 79.4193C24.7088 78.3787 21.6753 76.4916 21.6753 76.4916C21.6048 76.4564 21.5607 76.4211 21.499 76.3858C21.1021 75.9273 19.6824 74.3488 19.6824 74.3488L18.7565 73.4053C17.9717 72.9027 17.2398 72.3824 16.552 71.8621C11.7902 68.2202 9.60328 64.4284 9.60328 64.4284C8.23647 62.8059 8.30701 64.2609 8.30701 64.2609C8.50983 66.9945 10.7496 69.2343 10.7496 69.2343L10.7585 69.2519Z" fill="white"/>
<path d="M31.9308 78.8463C31.9308 78.8463 28.959 77.603 30.9696 79.9486L33.5268 81.624C33.5268 81.624 34.9289 82.55 35.8636 83.2642C35.5286 82.6999 35.3346 82.0297 36.3398 81.968L35.4845 80.6805C35.4845 80.6805 30.9255 75.8482 32.3276 78.2379C32.3276 78.2379 33.0418 79.4107 31.9219 78.8463H31.9308Z" fill="white"/>
<path d="M97.5377 54.2171C97.0792 55.0725 95.4566 58.397 95.4566 58.397C94.6101 59.7461 93.6665 61.0512 92.7583 62.224C90.4744 65.1605 88.3757 67.2945 88.3757 67.2945C88.1464 68.238 85.6332 71.6418 85.6332 71.6418C85.6685 71.73 84.7249 72.6912 83.1906 73.5201C83.1906 73.5201 82.6439 73.9433 81.621 74.5871C80.695 75.1691 79.3988 75.9451 77.7498 76.774L77.8556 77.3119C77.8556 77.3119 77.8292 77.7087 77.7763 77.7175C77.7763 77.7175 77.1502 78.4759 77.9261 78.176C77.9261 78.176 78.5875 77.7704 79.1519 77.9909C79.1519 77.9909 80.2277 77.5764 81.6122 76.9062C83.1818 76.1479 85.1394 75.0632 86.3739 73.8816L87.5291 72.1973L88.6402 70.8041C89.7689 70.0634 89.6543 69.8694 92.1586 67.4356C92.2997 67.2592 92.5026 66.9505 92.7583 66.5626C94.1339 64.4462 96.8146 59.8519 96.8146 59.8519C99.2132 55.9014 98.6135 54.0143 98.6135 54.0143C98.3578 52.4359 97.5289 54.2348 97.5289 54.2348L97.5377 54.2171Z" fill="white"/>
<path d="M92.7583 67.9031C91.3385 69.3493 90.2627 70.187 90.2627 70.187C88.2698 71.8448 87.6526 73.3439 87.4409 73.5202L85.7302 75.3103L85.157 75.6278C84.478 76.0775 82.9348 76.7918 81.6209 77.3649C80.404 77.9028 79.3723 78.3261 79.3723 78.3261C79.7515 78.5819 79.3282 79.3579 79.3282 79.3579L79.3459 79.7106C80.166 79.446 80.9243 79.1815 81.6209 78.9169C86.127 77.1886 87.9524 75.4867 87.9524 75.4867C88.9048 74.1287 88.843 74.499 89.9188 73.4673C90.783 72.903 92.3085 71.5714 92.7583 71.1746C92.8376 71.1041 92.8905 71.06 92.8905 71.06C95.2273 69.1464 98.8957 62.9737 98.8957 62.9737C101.171 59.1996 99.61 58.6352 99.61 58.6352C98.834 58.5118 98.1373 60.5752 98.1373 60.5752C96.6294 63.6439 94.4425 66.21 92.7583 67.9207V67.9031Z" fill="white"/>
<path d="M45.0081 130.327L45.1404 130.124L46.4543 128.069C46.807 127.399 47.3184 126.588 47.3184 125.821C47.3184 124.586 46.0751 123.96 44.9816 123.96C44.3291 123.96 43.6236 124.075 43.0064 124.33L42.5302 125.865C43.0328 125.503 43.6677 125.124 44.3114 125.124C44.7435 125.124 45.1051 125.397 45.1051 125.865C45.1051 126.261 44.8317 126.782 44.6377 127.126L43.7824 128.695L42.0717 131.508H47.3537L47.874 129.877C47.1862 130.212 46.6395 130.415 45.8723 130.415C45.5725 130.415 45.2903 130.397 44.9905 130.327H45.0081Z" fill="white"/>
<path d="M64.3286 125.918C64.3286 126.826 63.4644 126.949 62.7678 126.949H62.5297V127.946H63.0588C63.4908 127.946 63.9141 127.955 64.2845 128.237C64.5843 128.475 64.7342 128.792 64.7342 129.18C64.7342 130 64.0728 130.547 63.2704 130.547C62.706 130.547 62.0358 130.362 61.5332 130.08L61.8507 131.438C62.4062 131.57 62.9882 131.641 63.5614 131.641C65.0428 131.641 66.8858 130.944 66.8858 129.189C66.8858 128.166 66.1627 127.443 65.2016 127.231C65.907 127.046 66.4449 126.447 66.4449 125.706C66.4449 125.106 66.0305 124.612 65.5455 124.339C65.0693 124.083 64.4785 123.969 63.9494 123.969C63.3321 123.969 62.706 124.066 62.1152 124.233L61.736 125.485C62.1769 125.265 62.7678 125.027 63.2616 125.027C63.8259 125.027 64.3462 125.283 64.3462 125.918H64.3286Z" fill="white"/>
<path d="M70.1573 92.0295C70.1573 92.0295 70.5365 92.056 71.0744 92.0648C72.4941 92.0912 75.0514 92.0295 74.9544 91.1918C74.9544 91.1918 72.7763 90.2571 72.8204 90.2394L71.0832 89.5957C71.0832 89.5957 71.0832 89.5957 71.0832 89.6045C70.9862 89.6839 69.9633 90.5304 69.3901 90.7509C69.3901 90.7509 69.1873 90.8214 69.0551 90.9713C69.0551 90.9713 69.5489 91.6768 70.1661 92.0295H70.1573Z" fill="white"/>
<path d="M68.7112 90.469C68.7112 90.469 69.7341 90.5308 70.4307 89.6225C70.4307 89.6225 70.7482 89.2521 71.0656 88.9699C71.1979 88.8553 71.339 88.7495 71.4536 88.6966C71.4536 88.6966 71.3037 88.7142 71.0656 88.7407C70.3954 88.8112 69.0198 88.9082 68.3937 88.6084C68.3937 88.6084 68.1821 89.2609 68.2967 89.2874C68.3585 89.4197 68.5525 89.8165 68.4907 89.8253C68.4907 89.8253 68.5877 90.3191 68.7024 90.469H68.7112Z" fill="white"/>
<path d="M68.1469 88.1847C68.1469 88.1847 69.5842 88.6697 71.0745 88.4669C72.0357 88.3346 73.0057 87.9202 73.6494 86.9061C73.6494 86.9061 74.0991 86.1742 73.3584 86.5622C73.3584 86.5622 72.4501 87.1001 71.0745 87.3117C70.6865 87.3734 70.2632 87.3999 69.8047 87.3911L68.0675 87.444C68.0675 87.444 67.9441 87.9113 68.1381 88.1935L68.1469 88.1847Z" fill="white"/>
<path d="M68.3673 85.8125C68.3673 85.8125 69.7429 85.5568 71.0745 84.8425C71.8152 84.4457 72.5383 83.9078 72.9968 83.1847C72.9968 83.1847 73.7288 82.4792 72.7147 82.3999C72.7147 82.3999 71.9034 82.3029 71.0745 82.3205C70.6159 82.3205 70.1486 82.3646 69.7958 82.4704C69.7958 82.4704 68.6142 84.7631 68.3673 85.8213V85.8125Z" fill="white"/>
<path d="M68.2527 86.9768C68.2527 86.9768 69.2933 87.356 71.0745 86.9768C71.877 86.8093 72.8293 86.4742 73.9051 85.8922C73.9051 85.8922 75.757 84.4548 74.3549 84.252C74.3549 84.252 73.2879 83.9434 71.7359 84.8693C71.7359 84.8693 71.4714 84.9928 71.0834 85.1603C70.2015 85.5483 68.7024 86.2008 68.3233 86.2626C68.3233 86.2626 67.8735 86.58 68.2615 86.9856L68.2527 86.9768Z" fill="white"/>
<path d="M74.8222 74.834L71.9475 78.9962C71.7359 79.3401 71.4713 79.9574 71.4713 79.9574C71.5066 79.9486 71.3302 80.0985 71.0745 80.4071C70.7747 80.7598 70.3691 81.3242 70.0251 82.0914L70.9863 81.915H71.0745L71.5595 81.8621L72.5472 81.8445C73.1203 81.236 74.2755 79.6664 74.2402 79.7457C75.0427 78.8463 76.5858 77.8322 76.7446 77.1797C76.8857 76.6065 75.6688 77.3031 75.5629 76.9239C76.1185 74.6929 74.8398 74.8252 74.8398 74.8252L74.8222 74.834Z" fill="white"/>
<path d="M81.621 91.6065C80.3776 91.2361 78.6317 90.6894 77.6176 90.2661C77.6176 90.2661 77.7234 91.4918 76.2419 91.4213C76.2419 91.4213 78.3142 92.7969 81.6298 92.8851C82.0619 92.8939 82.5204 92.8851 82.9966 92.8498C82.9966 92.8498 85.8273 92.8851 83.0672 92.0386C83.0672 92.0386 82.4675 91.871 81.6298 91.6241L81.621 91.6065Z" fill="white"/>
<path d="M73.8258 80.6805L72.9705 81.9679C73.9757 82.0296 73.7906 82.6998 73.4466 83.2642C74.3902 82.5411 75.8011 81.5887 75.7834 81.624L78.3319 79.9486C80.3513 77.6029 77.3884 78.8463 77.3884 78.8463C76.2685 79.4195 76.9651 78.2378 76.9651 78.2378C78.376 75.8393 73.8258 80.6805 73.8258 80.6805Z" fill="white"/>
<path d="M79.0636 82.7087C79.0636 82.7087 78.4287 83.1143 78.1465 83.326L75.3159 84.6487C75.3159 84.6487 75.2542 85.3542 74.5399 85.7774C75.1572 85.6187 78.0495 84.878 77.9614 84.9573C78.9754 84.4371 81.4798 83.132 81.0213 81.7828C81.0213 81.7828 80.6333 81.0685 79.8661 81.8357C79.8661 81.8357 79.6192 82.3472 79.0725 82.7087H79.0636Z" fill="white"/>
<path d="M76.7533 81.386C76.5417 81.5535 76.3389 81.58 75.9421 82.0209C75.4306 82.4794 74.0814 83.3965 73.4465 83.8198C74.5312 83.5905 75.316 84.3489 75.316 84.3489C75.7922 84.0667 76.8415 83.5552 76.8415 83.5552C79.293 82.2237 79.6986 81.3154 79.6986 81.3154C80.0425 80.8216 79.8661 80.4248 79.8661 80.4248C79.5311 79.6664 77.8556 80.6629 76.7622 81.386H76.7533Z" fill="white"/>
<path d="M81.136 84.6399C81.136 84.6399 80.8538 84.3577 80.9067 84.2695C81.0655 84.0138 81.1625 83.7228 81.0919 83.3877C81.0919 83.3877 80.1307 84.3401 78.8345 84.8692C78.8697 84.8515 77.9615 85.3101 77.9968 85.2924C77.8292 85.3982 77.4765 85.46 77.3178 85.5658C76.2331 85.7774 75.1132 85.9361 74.1609 86.139C74.2314 86.2712 74.3901 86.6328 74.1344 87.0913C74.1344 87.0913 77.6881 87.6821 78.6846 86.2536C78.8609 86.2271 79.1431 86.2977 79.1431 86.2977C79.1431 86.2977 80.8009 86.3418 81.136 84.6399Z" fill="white"/>
<path d="M78.9403 88.2817L77.6264 88.1494C77.6264 88.1494 77.6088 88.1494 77.5911 88.1317H77.5823C77.1502 87.9289 75.0074 87.4439 73.8875 87.4175C73.8875 87.4175 72.9087 88.1229 72.5824 88.4316C72.5824 88.4316 73.7023 88.9783 74.9809 89.0047C75.1485 89.0665 75.8363 89.2605 76.0303 89.3046C76.1185 89.3663 76.9915 90.1158 78.8257 89.0753C78.8257 89.0753 80.3512 88.5374 78.9315 88.2817H78.9403Z" fill="white"/>
<path d="M77.0443 90.892C77.0443 90.892 77.688 90.4511 76.8503 90.0367L75.7833 89.6927C75.7833 89.6927 75.1308 89.6486 75.0955 89.631C75.0955 89.631 74.2313 89.34 73.3319 89.2166C73.3319 89.2166 72.4677 88.9167 72.0356 88.6963L71.4536 89.2695C71.4536 89.2695 72.3619 89.8867 73.7816 90.1337C73.7816 90.1337 74.9103 90.5569 74.8398 90.5569C74.8398 90.5569 75.8627 91.5975 77.0443 90.892Z" fill="white"/>
<path d="M80.0073 88.6875C79.8221 89.4106 77.8468 89.9044 77.8468 89.9044C78.4023 90.1337 81.0831 91.1301 81.0831 91.1301C81.2418 91.1918 81.4182 91.2448 81.6122 91.2977C83.1553 91.6945 85.7567 91.7915 85.7567 91.7915C88.3316 91.8268 83.3141 90.0014 83.3141 90.0014C82.6615 89.7104 82.0972 89.4723 81.6122 89.2871C80.8626 88.9873 80.3159 88.7933 79.9984 88.6875H80.0073Z" fill="white"/>
<path d="M79.7692 86.5356L78.905 86.6679C78.905 86.6679 77.9085 87.488 76.6652 87.4792C76.6652 87.4792 78.0937 87.8142 78.323 87.9642C78.808 88.0347 79.5928 87.9818 80.2453 87.2763C80.2453 87.2763 80.7656 86.4033 79.778 86.5356H79.7692Z" fill="white"/>
<path d="M79.7604 92.9909C79.7604 92.9909 76.4448 92.4441 75.3602 91.5182C75.3602 91.5182 74.011 92.5941 71.0746 92.5676C70.6689 92.5676 70.228 92.5411 69.7518 92.4882C69.7518 92.4882 68.8788 91.6858 67.9265 89.7017C66.9653 87.7176 68.6055 84.0052 68.6055 84.0052C69.0111 82.9382 70.034 81.2275 71.0746 79.6137C72.4678 77.4533 73.8875 75.4692 73.8875 75.4692C77.3795 70.3459 81.0038 66.9421 81.0038 66.9421C81.2154 66.7393 81.4182 66.5452 81.6211 66.3424C86.3299 61.7834 89.769 59.2791 89.769 59.2791C90.9066 58.3356 91.9118 57.1275 92.7584 55.8929C94.7336 53.027 95.8447 50.0553 95.8447 50.0553C96.8853 47.3129 95.2539 44.0413 95.2539 44.0413C94.6631 42.2953 93.5344 42.701 93.5344 42.701C93.1111 42.8244 92.8818 43.1154 92.7584 43.4417C92.5203 44.0854 92.7055 44.8879 92.7055 44.8879C92.7231 44.9408 92.7407 45.0025 92.7584 45.0554C93.0758 46.1489 93.4109 48.0007 93.4109 48.0007C93.4991 48.9707 93.2081 50.0465 92.7584 51.087C91.6297 53.7148 89.4516 56.1487 89.4516 56.1487C88.0495 57.8946 84.4164 61.2544 81.6211 63.7675C79.5929 65.5841 78.0056 66.9597 78.0056 66.9597C75.0251 69.658 72.7324 72.1183 71.0834 74.0671C70.5102 74.7373 70.0164 75.3458 69.6019 75.8837L71.0834 77.8942L71.5684 78.5468C71.5684 78.5468 71.3656 78.5115 71.0834 78.4586C70.519 78.3616 69.646 78.2028 69.3991 78.1588C69.3903 78.1764 69.3903 78.2381 69.3903 78.2381C69.3903 78.2381 69.1522 79.6931 69.1434 79.7372C69.1434 79.7372 68.7554 81.007 68.7201 81.0864C68.7201 81.0864 68.0764 82.2327 68.0588 82.268C68.0588 82.268 67.318 83.2821 67.2916 83.3085C67.2916 83.3085 66.4274 84.2168 66.3921 84.2521C66.3921 84.2521 65.4133 85.0369 65.3868 85.0545C65.3868 85.0545 64.2758 85.7688 64.2669 85.7776C64.2669 85.7776 64.0553 85.9011 63.8172 86.0422C64.0289 86.051 64.2758 86.1215 64.5403 86.3067C64.9107 86.5713 65.1047 86.9416 65.1047 87.3649C65.1047 87.3649 65.0694 87.7 65.0694 87.6735C65.0694 87.6735 65.0518 87.8058 65.0518 87.7882C65.0077 88.2996 64.408 89.2343 63.6409 89.7193C63.7026 89.7723 63.7555 89.8252 63.8172 89.8781C64.8137 89.834 66.1364 90.125 67.1152 91.5888C67.7501 92.5411 68.8083 93.2819 69.8136 93.8286C69.9547 93.8727 70.1134 93.9432 70.2721 94.0667C70.5631 94.2078 70.8365 94.3312 71.0834 94.437C71.8065 94.7457 72.3179 94.9044 72.3267 94.9044C74.6812 95.2307 79.2225 94.4106 79.3107 94.4018C80.7392 94.3577 81.3565 94.2078 81.6299 94.0931C81.7357 94.049 81.7886 94.0138 81.8151 93.9873C81.7533 93.9432 81.6828 93.8903 81.6299 93.8462C81.5682 93.8021 81.5241 93.7669 81.5152 93.7669C81.5152 93.7669 81.3036 93.2819 79.7693 92.9732L79.7604 92.9909Z" fill="white"/>
<path d="M92.3351 57.3303C92.3351 57.3303 89.7867 59.8082 87.1941 61.854C87.1941 61.854 83.2877 65.0285 81.6123 67.0038C81.5946 67.0214 81.577 67.039 81.5681 67.0567C81.5681 67.0567 81.1361 67.4094 79.5488 69.0849C79.5488 69.0849 76.145 72.9737 75.1133 74.4375C75.1133 74.4375 76.0215 74.508 76.1097 75.0371C76.1097 75.0371 76.2596 76.0776 75.9245 76.6508L77.4677 76.5891C77.4677 76.5891 79.831 75.0636 81.6123 73.926C82.7233 73.2118 83.614 72.6562 83.5611 72.7091C83.5611 72.7091 85.5099 71.0513 87.4587 68.0619C87.4587 68.0619 87.7056 67.1625 87.8908 67.1272C87.8908 67.1272 90.4921 64.3319 92.7496 61.3866C93.5785 60.302 94.3633 59.1909 94.9541 58.1944C94.9541 58.1944 97.0705 54.2175 97.432 53.5737C97.432 53.5737 98.6048 51.3868 98.1463 50.9459C98.1463 50.9459 97.4937 49.8348 96.2063 50.6373C96.2063 50.6373 94.425 54.7466 92.7496 56.8453C92.6085 57.0216 92.4674 57.1804 92.3351 57.3303Z" fill="white"/>
<path d="M99.707 64.4465C99.707 64.4465 97.5201 68.2383 92.7495 71.8802C92.0705 72.4004 91.3474 72.9119 90.5626 73.4145L89.6367 74.3581C89.6367 74.3581 88.217 75.9365 87.8114 76.3951C87.7496 76.4303 87.6967 76.4656 87.6438 76.5009C87.6438 76.5009 84.6104 78.388 81.6122 79.4285C81.1096 79.6049 80.6157 79.7548 80.1307 79.8694C80.1307 79.8694 80.8891 80.2221 80.3071 81.1128C80.3071 81.1128 80.7921 81.0951 81.6122 80.9364C83.2259 80.6189 86.1623 79.7459 89.3898 77.3033C89.3898 77.3033 91.2328 75.9453 91.2064 75.9982C91.2064 75.9982 91.7619 75.7778 92.7495 75.0635C94.037 74.1464 96.0563 72.4004 98.5519 69.2612C98.5519 69.2612 100.792 67.0214 101.003 64.2877C101.003 64.2877 101.056 62.8327 99.707 64.4553V64.4465Z" fill="white"/>
<path d="M80.9067 87.1353C80.8361 87.4704 80.0954 87.9377 79.8573 88.0788C80.0513 88.2023 80.2541 88.3786 80.2541 88.3786C80.5892 88.5285 81.0654 88.6696 81.6209 88.7843C84.0371 89.3222 87.9171 89.5867 87.9171 89.5867C91.7354 89.913 86.709 88.3963 86.709 88.3963C84.8131 87.5762 82.6967 87.2852 81.6209 87.1794C81.18 87.1353 80.9067 87.1265 80.9067 87.1265V87.1353Z" fill="white"/>
<path d="M96.1444 82.938C96.1444 82.938 94.8746 83.326 92.7582 83.7052C91.7001 83.8903 90.4214 84.0755 88.9929 84.199C88.9929 84.199 84.4427 84.878 81.6209 84.6399C81.5856 84.6399 81.5592 84.6399 81.5239 84.6399L80.9684 85.848C80.9684 85.848 81.2065 85.848 81.6209 85.8215C83.4551 85.7422 88.7901 85.46 92.7582 84.8251C94.3543 84.5693 95.73 84.2519 96.5677 83.8639C96.5677 83.8639 99.557 83.5553 96.1444 82.9468V82.938Z" fill="white"/>
<path d="M95.245 74.6225C95.245 74.6225 93.9046 75.2045 92.7583 75.76C92.2733 75.9893 91.8235 76.2097 91.5149 76.3861C91.5149 76.3861 90.0334 77.506 89.7601 77.5413C89.7601 77.5413 87.6966 79.4724 81.6298 81.289C81.5592 81.3066 81.4975 81.3331 81.4269 81.3507C81.4269 81.3507 81.5857 82.2854 81.4093 82.7793C81.4093 82.7793 81.4887 82.7704 81.6298 82.7352C82.6527 82.5235 87.0882 81.483 90.8271 78.7141C90.8271 78.7141 91.3562 78.5642 92.4496 77.9734C92.4496 77.9734 92.6348 77.8852 92.7671 77.8852C92.82 77.8852 92.8641 77.8852 92.8817 77.9205C92.8817 77.9205 98.4724 75.5396 101.224 71.0599C101.224 71.0599 102.308 68.829 100.845 70.3898C100.845 70.3898 98.9839 72.7707 95.2538 74.6313L95.245 74.6225Z" fill="white"/>
<path d="M98.2255 80.6099L92.7759 80.7245C92.7759 80.7245 92.7759 80.7245 92.7583 80.7245C92.5996 80.7421 91.3739 80.9009 91.5326 80.751C91.5326 80.751 89.4074 81.2007 88.2258 80.9361L87.7849 80.9185C87.7849 80.9185 84.6897 82.6028 81.621 83.1142C81.5592 83.123 81.4975 83.1318 81.4358 83.1407C81.4358 83.1407 81.5769 83.7579 81.4005 84.2165C81.4005 84.2165 81.4887 84.2165 81.621 84.2165C82.1412 84.2077 83.4816 84.19 84.2664 84.2606C84.2664 84.2606 88.552 84.1724 92.7583 83.3876C94.5396 83.0525 96.3032 82.5939 97.7317 81.959C97.7317 81.959 100.88 80.6892 98.2255 80.6187V80.6099Z" fill="white"/>
<path d="M92.7583 86.3242C92.5819 86.3066 92.3879 86.2978 92.1763 86.2801C92.1763 86.2801 89.4603 85.7775 88.0582 85.7246C88.0582 85.7246 83.6403 85.9451 81.621 86.1126C81.1624 86.1479 80.8185 86.192 80.6951 86.2184C80.6951 86.2184 81.0831 86.3507 81.2947 86.677C81.2947 86.677 81.4093 86.7034 81.621 86.7475C82.7761 86.9944 86.8942 87.7351 92.0352 87.1267C92.0352 87.1267 92.3615 87.0914 92.7583 87.0209C93.8076 86.8533 95.342 86.5271 92.7583 86.3154V86.3242Z" fill="white"/>
<path d="M100.21 74.1636C100.21 74.1636 96.4002 77.3911 92.7583 78.3963C92.4673 78.4757 92.1763 78.5462 91.8853 78.5903C91.8853 78.5903 91.1799 79.0489 90.9682 79.0489C90.9682 79.0489 88.8342 80.3892 88.4991 80.5391C88.4991 80.5391 91.2769 80.3716 92.7495 80.3187C93.2962 80.3011 93.6666 80.2922 93.6401 80.3187C93.6401 80.3187 98.931 78.3875 100.818 75.0895C100.818 75.0895 101.453 73.3171 100.201 74.1636H100.21Z" fill="white"/>
<path d="M69.4168 94.4898L69.2669 94.4633C68.967 94.3928 67.8383 94.6838 67.3621 95.2658C67.3004 95.2482 67.08 95.2217 67.08 95.2217C67.0535 95.2217 66.8419 95.2923 66.7361 95.3275C66.0306 93.4934 64.9019 91.8444 63.4733 90.5128C63.3852 90.4335 63.297 90.3541 63.2088 90.2747C63.1206 90.1954 63.0324 90.116 62.9354 90.0455C62.8825 90.0014 62.8208 89.9573 62.7679 89.9132C62.8208 89.825 62.9531 89.6575 62.9531 89.6575C62.9531 89.6134 63.006 89.4017 63.0148 89.34C63.7203 89.0578 64.3375 88.079 64.364 87.7616L64.3816 87.6205C64.3904 87.5499 64.4081 87.4794 64.4081 87.4C64.4081 87.2325 64.3551 87.0649 64.1347 86.9062C63.8084 86.6681 63.5703 86.7916 63.3851 86.8798H63.3675L63.2441 86.9503C62.9531 87.0738 62.2212 87.9644 62.1594 88.7139C62.1065 88.7404 61.9213 88.8374 61.9213 88.8374C61.8861 88.8727 61.7538 89.0402 61.7009 89.1196C61.1365 88.758 60.5457 88.4406 59.9373 88.176C59.9196 88.176 59.902 88.1584 59.8755 88.1496L59.4875 88.3436C59.4875 88.3436 58.3235 88.9432 58.3147 88.9432C58.3147 88.9432 57.1948 89.631 57.2036 89.6046C57.2036 89.6046 57.2036 89.6046 57.186 89.6222C58.1472 89.8515 59.0731 90.2218 59.9284 90.7068C60.0695 90.7862 60.2194 90.8744 60.3605 90.9625C60.3076 91.0331 60.1224 91.2888 59.9284 91.5534C59.6992 91.8708 59.4699 92.1883 59.4699 92.1883C59.4699 92.2059 59.4699 92.2147 59.4699 92.2324C59.4699 92.2853 59.4699 92.3558 59.4787 92.4087C59.3817 92.4175 59.2935 92.444 59.2142 92.5322C59.1348 92.6115 59.0995 92.7085 59.0995 92.8232C59.0995 92.8496 59.126 92.8849 59.126 92.9114C59.0731 92.9114 59.0202 92.929 59.0202 92.929C58.9585 92.9643 58.0237 94.2605 58.0237 94.2605L57.9532 94.3399L58.0325 94.3928C58.0766 94.4281 58.0943 94.481 58.0943 94.5339C58.0943 94.5427 58.0943 94.5603 58.0943 94.5603C58.0854 94.6662 58.0149 94.7896 57.9355 94.8249C57.9003 94.8425 57.8474 94.8425 57.8033 94.8073L57.7327 94.7455L57.089 95.6185C57.089 95.6185 57.0802 95.7155 57.0802 95.7861C56.9744 95.7508 56.8509 95.7508 56.7539 95.8302C56.6745 95.9095 56.604 96.0418 56.604 96.2005C56.604 96.2711 56.6216 96.3328 56.6481 96.4034C56.604 96.4034 56.5511 96.4122 56.5511 96.4122C56.4894 96.4563 55.6693 97.5762 55.5635 97.7261C55.4841 97.6908 55.2989 97.6467 55.2107 97.6202V96.0683C55.2107 96.0683 55.149 95.9801 55.1049 95.9272C55.2725 95.7949 55.3606 95.645 55.3606 95.4951C55.3606 95.4686 55.3606 95.4333 55.3606 95.3981C55.3254 95.2834 55.2019 95.257 55.0961 95.2129C55.1402 95.16 55.1931 95.0894 55.1931 95.0894L55.2195 94.0489V93.9519H55.1225C54.9903 93.9519 54.9815 93.8285 54.9815 93.7579C54.9815 93.6256 55.052 93.4757 55.1755 93.4757H55.2636V91.7826C55.246 91.7385 55.2019 91.668 55.1402 91.6327C55.2195 91.5357 55.3254 91.4387 55.3254 91.3329C55.3254 91.3153 55.3165 91.2976 55.3165 91.28C55.3165 91.2271 55.2901 91.183 55.2548 91.1477L54.5758 91.7385L54.0203 91.2183C54.0203 91.2183 54.0026 91.2535 53.9938 91.28C53.9938 91.2976 53.9938 91.3153 53.9938 91.3329C53.9938 91.4387 54.0908 91.5445 54.179 91.6327C54.1437 91.668 54.082 91.7297 54.082 91.7297L54.0556 93.3964V93.4934H54.1525C54.2672 93.4934 54.3377 93.6433 54.3377 93.7755C54.3377 93.8461 54.3201 93.9695 54.1967 93.9695H54.0996V95.0542C54.0996 95.0542 54.1614 95.1688 54.2055 95.2305C54.1085 95.2746 53.985 95.3011 53.9409 95.4157C53.9409 95.4422 53.9409 95.4863 53.9409 95.5127C53.9409 95.6626 54.0291 95.8125 54.1967 95.9448C54.1614 95.9801 54.1173 96.0154 54.1173 96.0154C54.1173 96.0154 54.0996 97.5409 54.0996 97.6643C54.0115 97.6908 53.8263 97.7613 53.7469 97.779C53.6676 97.682 52.8298 96.518 52.8298 96.518C52.8034 96.5003 52.724 96.4827 52.6711 96.4739C52.6887 96.4122 52.724 96.3416 52.724 96.2711C52.724 96.1123 52.6535 95.9713 52.5653 95.8919C52.4683 95.8214 52.3536 95.8213 52.2478 95.8566V95.7508C52.2214 95.6891 51.6482 94.8954 51.6482 94.8954L51.5865 94.8249L51.5159 94.8778C51.4101 94.9572 51.3219 94.8778 51.2867 94.8161C51.2337 94.7632 51.2073 94.6838 51.2073 94.6133C51.2073 94.5603 51.2337 94.5074 51.2867 94.4633L51.3484 94.4193L50.3608 93.0436C50.3608 93.0436 50.2549 93.0084 50.1932 93.0084C50.1932 92.9731 50.2108 92.9466 50.2108 92.9114C50.2108 92.7967 50.1756 92.6909 50.0962 92.6115C50.0345 92.5322 49.9287 92.4969 49.8405 92.4881C49.8493 92.4175 49.8581 92.3294 49.8581 92.3294C49.8493 92.2941 49.6377 91.9943 49.4172 91.6768C49.2232 91.4035 49.0292 91.1301 48.9498 91.0243C49.0998 90.9273 49.2585 90.8303 49.4172 90.7421C50.2637 90.2571 51.1808 89.8867 52.1332 89.6575L52.0803 89.6222C52.0803 89.6222 50.9163 88.952 50.9163 88.9344L49.7876 88.273C49.7876 88.273 49.6906 88.2201 49.5583 88.1496C49.5054 88.1672 49.4613 88.1937 49.4172 88.2113C48.7911 88.4935 48.1915 88.8197 47.6183 89.1989C47.5654 89.1107 47.4331 88.952 47.4331 88.952C47.4155 88.9256 47.2215 88.8197 47.1598 88.7933C47.098 88.0437 46.3661 87.1531 46.0751 87.0297L46.0046 86.9944L45.9605 86.9768C45.7577 86.8709 45.5284 86.7475 45.1933 86.9768C44.9729 87.1355 44.9288 87.303 44.9288 87.4706C44.9288 87.5499 44.9288 87.6293 44.9552 87.6998L44.9729 87.8409C44.9993 88.1584 45.6078 89.1284 46.3132 89.4017C46.322 89.4723 46.3661 89.6927 46.3661 89.6927C46.3661 89.7192 46.5072 89.8956 46.5689 89.9926C46.5337 90.019 46.5072 90.0543 46.472 90.0807C46.3838 90.1601 46.2956 90.2395 46.2074 90.31C46.1192 90.3894 46.0222 90.4687 45.934 90.5481C44.4702 91.8973 43.3503 93.5727 42.6361 95.4422C42.5391 95.4069 42.3362 95.3452 42.3362 95.3452C42.2921 95.3452 42.0717 95.3716 42.0188 95.3804C41.5338 94.8073 40.4227 94.5163 40.1052 94.5868L39.9642 94.6044C39.7261 94.6485 39.4792 94.6838 39.3557 95.063C39.2322 95.451 39.4086 95.6274 39.5762 95.7949L39.6732 95.8919C39.876 96.1388 40.943 96.5621 41.6925 96.3769C41.7278 96.421 41.8865 96.5709 41.8865 96.5709C41.913 96.5885 42.1246 96.6591 42.2304 96.6943C41.9394 97.7966 41.7719 98.9253 41.7719 100.01C41.7719 101.095 41.9394 102.276 42.2569 103.414C42.1511 103.44 41.9571 103.511 41.9571 103.511C41.9218 103.528 41.7719 103.678 41.7278 103.722C40.9959 103.537 39.9201 103.96 39.7084 104.19L39.6114 104.304C39.4527 104.463 39.2675 104.648 39.391 105.027C39.5144 105.407 39.7702 105.451 39.9994 105.486L40.1405 105.512C40.458 105.574 41.5691 105.283 42.0541 104.71C42.1158 104.728 42.3274 104.745 42.3274 104.745C42.3539 104.745 42.5655 104.684 42.6713 104.639C43.4914 106.765 44.8582 108.643 46.6483 110.071C46.5866 110.151 46.4543 110.318 46.4543 110.318C46.4543 110.362 46.4014 110.574 46.4014 110.636C45.6871 110.918 45.0787 111.888 45.0434 112.205L45.0258 112.347C45.0169 112.426 45.017 112.505 45.017 112.576C45.017 112.743 45.0699 112.911 45.2815 113.07C45.6078 113.308 45.8371 113.184 46.0399 113.087L46.1721 113.026C46.4631 112.902 47.195 112.02 47.248 111.262C47.3009 111.235 47.4949 111.138 47.4949 111.138C47.5213 111.112 47.6359 110.936 47.7065 110.856C48.2532 111.209 48.8264 111.518 49.4172 111.782C50.881 112.435 52.4771 112.814 54.1085 112.893V113.22C54.1085 113.22 54.2143 113.458 54.2407 113.511C54.0291 113.863 53.9497 114.348 53.9497 114.772C53.9497 115.133 53.9938 115.459 54.082 115.565C54.082 115.583 54.1525 115.697 54.1525 115.697C54.2495 115.909 54.373 116.138 54.7698 116.138C55.1666 116.138 55.2901 115.909 55.3959 115.697L55.4576 115.565C55.5282 115.451 55.5987 115.133 55.5987 114.772C55.5987 114.348 55.5194 113.863 55.2989 113.511C55.3254 113.458 55.4224 113.264 55.4224 113.264C55.4224 113.264 55.4312 113.008 55.4312 112.902C57.0185 112.823 58.5616 112.452 59.9814 111.826C60.6251 111.544 61.2423 111.209 61.8331 110.821C61.8861 110.9 62.0007 111.059 62.0007 111.059C62.036 111.086 62.2211 111.183 62.2741 111.209C62.327 111.959 63.0677 112.858 63.3587 112.981L63.4822 113.043C63.685 113.149 63.9231 113.264 64.2405 113.026C64.4698 112.858 64.5139 112.699 64.5139 112.541C64.5139 112.461 64.4962 112.391 64.4874 112.311L64.4698 112.17C64.4522 111.853 63.8261 110.874 63.1382 110.592C63.1206 110.53 63.0853 110.318 63.0853 110.318C63.0677 110.283 62.9531 110.116 62.8825 110.036C64.6197 108.616 65.9512 106.721 66.7713 104.551C66.8683 104.578 67.1152 104.657 67.1152 104.657C67.1505 104.657 67.3709 104.631 67.4327 104.613C67.9177 105.186 69.0288 105.486 69.3462 105.415L69.5049 105.389C69.7254 105.354 69.9811 105.318 70.1046 104.93C70.228 104.551 70.0429 104.366 69.8753 104.207L69.7695 104.093C69.5578 103.855 68.482 103.431 67.7501 103.617C67.706 103.581 67.5649 103.431 67.5649 103.431C67.5297 103.414 67.2828 103.326 67.1681 103.299C67.4591 102.206 67.6355 101.095 67.6708 100.001C67.6708 98.8636 67.4944 97.7172 67.1858 96.5973C67.2916 96.5532 67.4856 96.4915 67.4856 96.4915C67.5209 96.4739 67.662 96.324 67.7237 96.2799C68.4556 96.4651 69.5226 96.033 69.743 95.7861L69.84 95.6891C70.0076 95.5215 70.1839 95.3364 70.0605 94.966C69.937 94.5692 69.6813 94.5339 69.4609 94.4986L69.4168 94.4898ZM47.8564 91.7738C47.971 91.9326 48.7558 92.9995 48.7558 92.9995C48.7999 93.0348 48.8969 93.0524 48.9763 93.0701C48.9763 93.1054 48.9498 93.1318 48.9498 93.1671C48.9498 93.2288 48.9763 93.2994 49.0028 93.3611C49.0733 93.4757 49.2056 93.511 49.3467 93.5551C49.329 93.5992 49.329 93.6785 49.329 93.6785C49.329 93.6874 49.3555 93.7226 49.3908 93.7844C49.6024 94.1018 50.2902 95.0453 50.2902 95.0453L50.3431 95.1247L50.4137 95.0718C50.4842 95.0277 50.5547 95.0365 50.59 95.0542C50.6958 95.1071 50.7752 95.2041 50.7928 95.3011V95.3187C50.7928 95.3187 50.7752 95.3893 50.7223 95.4245L50.6517 95.4774L51.2867 96.3504C51.2867 96.3504 51.3925 96.3945 51.463 96.421C51.4278 96.4827 51.3572 96.5356 51.3572 96.6062C51.3572 96.6503 51.3572 96.6855 51.3837 96.7296C51.4454 96.8883 51.6217 97.0206 51.8951 97.0206C51.8951 97.0647 51.8775 97.1088 51.8775 97.1088C51.8951 97.1705 52.7152 98.3081 52.821 98.4668C52.7769 98.5373 52.6623 98.6872 52.6094 98.7578C52.4859 98.7225 51.1279 98.2816 51.1279 98.2816C51.0927 98.2816 51.0221 98.3081 50.9604 98.3345C50.881 98.0876 50.7046 97.9289 50.5371 97.9289C50.4225 97.9201 50.3519 98.0259 50.2902 98.1229C50.2461 98.0612 50.202 97.9906 50.202 97.9906C50.1668 97.9642 49.6729 97.8054 49.3908 97.7172C49.2849 97.682 49.2056 97.6555 49.2056 97.6555L49.1174 97.6291L49.0821 97.7172C49.0468 97.8407 48.9234 97.8231 48.8617 97.7966C48.7294 97.7525 48.6059 97.6291 48.65 97.5144L48.6765 97.4262L47.0628 96.9148C47.0628 96.9148 46.9217 96.9589 46.8688 96.9942C46.807 96.8619 46.7277 96.7384 46.6042 96.712C46.4984 96.6767 46.4102 96.7384 46.3309 96.7913C46.2868 96.7208 46.2427 96.6238 46.2427 96.6238C46.1986 96.5797 45.0081 96.2005 44.7524 96.1035C45.4049 94.4193 46.4719 92.9202 47.8476 91.7738H47.8564ZM44.0029 99.9747C44.0029 99.1105 44.1263 98.2375 44.3556 97.3645C44.5408 97.4174 45.793 97.8231 45.793 97.8231C45.8459 97.8231 45.9781 97.7702 46.0399 97.7261C46.084 97.8231 46.1192 97.9201 46.2162 97.9553C46.3397 98.0082 46.4719 97.9818 46.6042 97.9201C46.6219 97.9642 46.6571 98.0259 46.6571 98.0259C46.71 98.07 48.2356 98.5638 48.2356 98.5638L48.3238 98.5991L48.359 98.5021C48.3678 98.4315 48.4472 98.4051 48.4913 98.3874C48.6059 98.361 48.7382 98.4051 48.7911 98.4668C48.8264 98.5021 48.8352 98.5462 48.8176 98.5991L48.7911 98.6961L49.4084 98.8989L49.814 99.0312C49.814 99.0312 49.9022 99.0135 49.9639 98.9959C49.9639 99.1105 50.0168 99.2075 50.1138 99.2781C50.2549 99.3662 50.4754 99.3486 50.6958 99.1987C50.7223 99.2428 50.7399 99.3045 50.7399 99.3045C50.7928 99.3486 52.3625 99.8601 52.3625 99.8601C52.2919 99.8336 52.2831 99.9747 52.2831 99.9747L52.3096 100.23C52.2566 100.23 50.8281 100.698 50.8281 100.698C50.7928 100.724 50.7576 100.786 50.7311 100.848C50.5195 100.698 50.2814 100.671 50.1491 100.768C50.0521 100.83 50.008 100.927 49.9992 101.051C49.9551 101.042 49.9022 101.006 49.9022 101.006C49.8757 101.006 49.6465 101.077 49.4084 101.156C49.1615 101.236 48.9058 101.315 48.9058 101.315L48.8176 101.342L48.844 101.43C48.8881 101.562 48.7911 101.624 48.7206 101.641C48.5883 101.685 48.4207 101.641 48.3855 101.536L48.359 101.456L46.7453 101.976C46.7453 101.976 46.6748 102.073 46.6395 102.126C46.516 102.056 46.3661 102.02 46.2427 102.082C46.1545 102.126 46.128 102.223 46.084 102.312C46.0222 102.267 45.9076 102.215 45.9076 102.215C45.8458 102.215 44.6554 102.594 44.3909 102.682C44.1528 101.774 44.0205 100.865 44.0205 99.9747H44.0029ZM47.9358 108.237C46.5337 107.091 45.449 105.618 44.7877 103.934C44.9817 103.863 46.2162 103.467 46.2162 103.467C46.2603 103.44 46.322 103.334 46.3661 103.255C46.4455 103.308 46.5425 103.37 46.6395 103.343C46.7718 103.308 46.8423 103.193 46.904 103.07C46.9569 103.096 47.0363 103.132 47.0363 103.132C47.1068 103.132 48.6236 102.647 48.6236 102.647L48.7118 102.611L48.6853 102.523C48.65 102.408 48.7735 102.294 48.8969 102.241C48.9587 102.223 49.0821 102.206 49.1262 102.329L49.1615 102.417L49.3996 102.338L50.1844 102.082C50.1844 102.082 50.2814 101.985 50.3166 101.924C50.3872 102.012 50.4666 102.118 50.5724 102.1C50.7311 102.1 50.9163 101.941 51.0045 101.703C51.0486 101.73 51.1015 101.756 51.1015 101.756C51.1632 101.756 52.4947 101.324 52.6623 101.28C52.7152 101.35 52.8298 101.491 52.9004 101.571C52.821 101.668 51.9833 102.823 51.9833 102.823C51.9833 102.841 51.9745 102.858 51.9745 102.885C51.9745 102.92 51.9833 102.946 51.9921 102.982C51.7099 102.982 51.5247 103.123 51.4718 103.281C51.4542 103.317 51.4454 103.361 51.4454 103.405C51.4454 103.475 51.5071 103.528 51.5512 103.59C51.4807 103.608 51.4189 103.625 51.4189 103.625C51.366 103.661 50.7928 104.463 50.7928 104.463L50.7311 104.534L50.8105 104.587C50.8105 104.587 50.881 104.657 50.881 104.701C50.8634 104.798 50.7752 104.904 50.687 104.957C50.6341 104.975 50.5636 104.992 50.5018 104.957L50.4225 104.895L49.4348 106.262V106.315C49.4348 106.368 49.4348 106.421 49.4348 106.456C49.426 106.456 49.4084 106.456 49.3996 106.456C49.2673 106.482 49.1438 106.535 49.0821 106.632C49.0468 106.703 49.038 106.756 49.038 106.835C49.038 106.862 49.0468 106.879 49.0557 106.923C48.9763 106.932 48.8881 106.95 48.8881 106.95C48.8352 106.985 48.1033 107.99 47.9358 108.22V108.237ZM54.2055 106.474H54.1261V108.167C54.1261 108.167 54.1966 108.273 54.2407 108.317C54.1437 108.414 54.0644 108.502 54.0644 108.616V108.661C54.0732 108.766 54.1614 108.828 54.2407 108.89C54.179 108.943 54.0908 109.022 54.0908 109.022C54.0908 109.022 54.082 110.415 54.0732 110.601C52.4154 110.512 50.8105 110.027 49.3819 109.216C49.2497 109.146 49.1174 109.066 48.9939 108.987C49.0468 108.916 49.2056 108.687 49.3819 108.449C49.62 108.123 49.8757 107.761 49.8757 107.761C49.8757 107.752 49.8757 107.726 49.8757 107.708C49.8757 107.655 49.8757 107.585 49.8757 107.523C49.9727 107.514 50.0698 107.488 50.1403 107.408C50.202 107.32 50.2461 107.223 50.2461 107.109C50.2461 107.082 50.2373 107.056 50.2373 107.012C50.2902 107.012 50.3431 107.003 50.3431 107.003C50.4048 106.967 51.3396 105.662 51.3396 105.662L51.3925 105.601L51.3131 105.548C51.3131 105.548 51.2602 105.46 51.2602 105.407C51.2602 105.336 51.2867 105.274 51.3308 105.204C51.3837 105.151 51.4542 105.063 51.56 105.142L51.6394 105.195L52.2743 104.322C52.2743 104.322 52.2919 104.225 52.2919 104.154C52.4066 104.19 52.5212 104.19 52.6182 104.11C52.7064 104.022 52.7769 103.899 52.7769 103.731C52.7769 103.678 52.7505 103.608 52.7328 103.537C52.7857 103.528 52.8298 103.52 52.8298 103.52C52.8916 103.484 53.7028 102.356 53.8087 102.206C53.8968 102.232 54.082 102.294 54.179 102.312V103.872C54.179 103.872 54.2319 103.952 54.2848 104.005C54.1173 104.137 54.0115 104.287 54.0115 104.437C54.0115 104.472 54.0115 104.498 54.0203 104.525C54.0556 104.648 54.179 104.684 54.2848 104.728C54.2495 104.781 54.1878 104.842 54.1878 104.842L54.1702 105.892V105.989H54.2584C54.3995 105.989 54.4171 106.103 54.4171 106.174C54.4171 106.315 54.3466 106.465 54.2143 106.465L54.2055 106.474ZM57.4064 97.1264C57.4064 97.1264 57.4064 97.0823 57.4064 97.0647C57.4064 97.0294 57.4064 97.003 57.3976 96.9677C57.671 96.9677 57.8474 96.8266 57.9179 96.6591C57.9179 96.615 57.9267 96.5797 57.9267 96.5356C57.9267 96.4563 57.8738 96.4122 57.8385 96.3504C57.9091 96.3328 57.9708 96.3152 57.9708 96.3152C58.0149 96.2711 58.5881 95.4774 58.5881 95.4774L58.6498 95.4069L58.5704 95.354C58.5704 95.354 58.5175 95.2923 58.5175 95.2482C58.5264 95.1423 58.6145 95.0365 58.7115 94.9924C58.7556 94.9748 58.835 94.9572 58.8967 94.9924L58.9761 95.0453L59.9549 93.6785C59.9549 93.6785 59.9549 93.6256 59.9549 93.608C59.9549 93.5639 59.9549 93.511 59.9549 93.4757C60.096 93.4493 60.2283 93.4052 60.2988 93.2905C60.3429 93.22 60.3605 93.1583 60.3605 93.0789C60.3605 93.0525 60.3341 93.026 60.3341 92.9907C60.4134 92.9731 60.5016 92.9643 60.5016 92.9643C60.5545 92.929 61.2953 91.9149 61.4628 91.6945C62.8472 92.832 63.9407 94.3134 64.6109 95.9977C64.4257 96.0506 63.1647 96.4563 63.1647 96.4563C63.1294 96.4915 63.0677 96.5973 63.0324 96.6679C62.9531 96.615 62.8561 96.5621 62.7591 96.5885C62.6356 96.6062 62.5562 96.7296 62.4945 96.8531C62.4416 96.8354 62.3622 96.7913 62.3622 96.7913C62.2917 96.7913 60.775 97.2852 60.775 97.2852L60.678 97.3116L60.7133 97.391C60.7397 97.4615 60.6956 97.5321 60.6603 97.5673C60.581 97.6555 60.4664 97.7172 60.3694 97.6908C60.3253 97.6732 60.29 97.6467 60.2723 97.5938L60.2371 97.5056L59.9549 97.5938L59.2054 97.8407C59.2054 97.8407 59.1172 97.9377 59.0731 98.0082C59.0025 97.9112 58.932 97.8142 58.8085 97.8142C58.6498 97.8231 58.4823 97.973 58.3853 98.2111C58.3412 98.1934 58.2794 98.1758 58.2794 98.1758C58.2177 98.1582 56.8862 98.5991 56.7098 98.652C56.6481 98.5726 56.5423 98.4315 56.4894 98.3433C56.5599 98.2375 57.4064 97.0912 57.4064 97.0912V97.1264ZM59.9373 109.163C58.544 110.001 56.9832 110.495 55.3871 110.609V109.101C55.3694 109.057 55.2725 108.96 55.2284 108.899C55.2989 108.837 55.3871 108.775 55.3959 108.669C55.3959 108.652 55.3959 108.643 55.3959 108.625C55.3959 108.519 55.3077 108.422 55.2195 108.325C55.2548 108.29 55.3165 108.22 55.3165 108.22L55.3342 106.571V106.482H55.246C55.1314 106.482 55.052 106.333 55.052 106.191C55.052 106.121 55.0696 106.006 55.2019 106.006H55.2989V104.922C55.2989 104.922 55.2284 104.807 55.1843 104.745C55.2989 104.701 55.4135 104.675 55.44 104.542C55.4488 104.516 55.4576 104.49 55.4576 104.454C55.4576 104.304 55.3606 104.163 55.1931 104.022C55.2372 103.987 55.2725 103.943 55.2725 103.943C55.2725 103.943 55.3077 102.426 55.3077 102.303C55.3871 102.267 55.5723 102.197 55.6516 102.179C55.7222 102.285 56.5687 103.44 56.5687 103.44C56.5952 103.458 56.6745 103.467 56.7275 103.484C56.701 103.555 56.6834 103.625 56.6834 103.696C56.6834 103.855 56.7451 103.987 56.8421 104.066C56.9303 104.128 57.0449 104.146 57.1595 104.102V104.216C57.1595 104.269 57.7592 105.072 57.7592 105.072L57.8121 105.142L57.8914 105.089C57.9355 105.054 57.9884 105.045 58.0325 105.072C58.1119 105.107 58.1913 105.213 58.2001 105.327V105.363C58.2001 105.407 58.1913 105.468 58.1384 105.495L58.059 105.548L59.0554 106.923C59.0554 106.923 59.1613 106.959 59.223 106.967C59.223 107.012 59.2054 107.029 59.2054 107.056C59.2054 107.17 59.2406 107.276 59.3112 107.355C59.3729 107.426 59.4787 107.461 59.5757 107.47C59.5757 107.549 59.5581 107.638 59.5581 107.638C59.5581 107.664 59.7521 107.937 59.9549 108.22C60.1401 108.484 60.3341 108.749 60.4134 108.863C60.2635 108.96 60.1136 109.057 59.9549 109.146L59.9373 109.163ZM61.4452 108.079C61.3305 107.92 60.6163 106.941 60.6163 106.941C60.581 106.923 60.484 106.906 60.3958 106.888C60.3958 106.862 60.4223 106.826 60.4223 106.791C60.4223 106.721 60.4046 106.659 60.3694 106.597C60.2988 106.482 60.1665 106.438 60.0254 106.412C60.0343 106.35 60.0431 106.28 60.0431 106.28C60.0431 106.271 59.999 106.2 59.9373 106.112C59.6903 105.751 59.0819 104.913 59.0819 104.913L59.029 104.833L58.9584 104.886C58.8967 104.93 58.8262 104.913 58.7732 104.886C58.6674 104.842 58.5881 104.736 58.5793 104.648V104.631C58.5793 104.631 58.5969 104.56 58.641 104.516L58.7203 104.472L58.0766 103.599C58.0766 103.599 57.9796 103.546 57.9179 103.528C57.9532 103.467 58.0237 103.405 58.0237 103.343C58.0237 103.299 58.0061 103.264 57.9884 103.211C57.9267 103.061 57.7592 102.929 57.4858 102.92C57.4858 102.876 57.4858 102.832 57.4858 102.832C57.4858 102.77 56.6481 101.624 56.5511 101.483C56.604 101.403 56.701 101.253 56.7539 101.183C56.8774 101.227 58.2354 101.668 58.2354 101.668C58.2706 101.668 58.3412 101.633 58.4029 101.615C58.4911 101.862 58.6674 102.012 58.8174 102.021C58.9408 102.021 59.0113 101.924 59.0819 101.835C59.126 101.897 59.1701 101.959 59.1701 101.959C59.2053 101.976 59.6551 102.135 59.9373 102.232C60.0695 102.276 60.1577 102.312 60.1577 102.312L60.2459 102.338L60.2723 102.25C60.3076 102.126 60.4399 102.135 60.5016 102.162C60.6251 102.206 60.7397 102.329 60.7044 102.444L60.678 102.532L62.2829 103.043C62.3358 103.043 62.424 102.999 62.4857 102.982C62.5386 103.105 62.6091 103.229 62.7502 103.255C62.8472 103.273 62.9354 103.229 63.0324 103.167C63.0677 103.237 63.1206 103.334 63.1206 103.334C63.1559 103.378 64.2493 103.731 64.505 103.819C63.826 105.477 62.7679 106.941 61.4452 108.087V108.079ZM64.9459 102.576C64.7696 102.514 63.5703 102.135 63.5703 102.135C63.5262 102.135 63.4028 102.188 63.3322 102.232C63.2882 102.135 63.2617 102.038 63.1647 101.994C63.0412 101.932 62.9001 101.976 62.7767 102.038C62.7591 101.985 62.7238 101.932 62.7238 101.932C62.6709 101.888 61.1453 101.394 61.1453 101.394L61.0572 101.368L61.0307 101.465C61.0043 101.518 60.9337 101.553 60.8896 101.571C60.7838 101.588 60.6427 101.562 60.581 101.483C60.5545 101.447 60.5369 101.412 60.5545 101.35L60.5898 101.262L59.9284 101.051L59.5581 100.936C59.5581 100.936 59.4699 100.962 59.417 100.971C59.417 100.848 59.3641 100.742 59.2671 100.68C59.1348 100.592 58.9143 100.636 58.6939 100.768C58.6674 100.724 58.641 100.663 58.641 100.663C58.5793 100.61 57.0273 100.107 57.0273 100.107C57.089 100.133 57.1066 99.9923 57.1066 99.9923L57.0802 99.7366C57.1595 99.7366 58.5528 99.2781 58.5528 99.2781C58.5969 99.2516 58.6322 99.1722 58.6674 99.1282C58.8791 99.2692 59.0995 99.3045 59.2406 99.2075C59.3288 99.1546 59.3817 99.0576 59.3817 98.9342C59.4258 98.9518 59.4787 98.9694 59.4787 98.9694C59.5052 98.9694 59.7168 98.9077 59.9373 98.8372C60.2018 98.749 60.4752 98.6608 60.4752 98.6608L60.5634 98.6343L60.5369 98.5462C60.5192 98.4932 60.5369 98.4492 60.5634 98.4051C60.6163 98.3433 60.7485 98.3081 60.872 98.3345C60.9161 98.3433 60.9866 98.3698 61.0043 98.4492L61.0395 98.5373L62.6444 98.0171C62.6444 98.0171 62.7238 97.9113 62.7502 97.8495C62.8825 97.9201 63.0236 97.9553 63.1471 97.8936C63.2441 97.8583 63.2705 97.7525 63.3146 97.6555C63.3763 97.6996 63.491 97.7525 63.491 97.7525C63.5615 97.7525 64.7343 97.3645 65.0077 97.2852C65.237 98.1934 65.3869 99.1105 65.3869 100.001C65.3516 100.848 65.1929 101.712 64.9548 102.594L64.9459 102.576Z" fill="white"/>
<path d="M54.6816 51.2456C52.2389 51.2456 50.1579 52.8152 49.3819 55.0021C49.179 55.5841 49.0644 56.219 49.0644 56.8716C49.0644 57.5241 49.179 58.1414 49.3819 58.741C49.7787 59.8786 50.5371 60.875 51.5776 61.5717L52.5035 62.1801H40.9429V65.5398H52.0626V83.4671L51.6834 83.4142C51.6834 83.4142 50.3959 83.2202 50.343 83.1937C50.343 83.1937 49.7434 83.0086 49.717 82.9997C49.717 82.9997 49.5494 82.9292 49.3907 82.8587C49.2496 82.7969 49.1173 82.7352 49.0997 82.7264C49.0997 82.7264 48.5882 82.4354 48.5529 82.4001L48.0856 82.0474C48.0856 82.0474 47.6094 81.7123 47.5477 81.6594C47.5477 81.6594 47.1861 81.2361 47.1773 81.2185C47.1773 81.2185 46.807 80.7776 46.7893 80.7423C46.7893 80.7423 46.4719 80.2926 46.4543 80.2573C46.4543 80.2573 46.1897 79.7459 46.1809 79.7282C46.1809 79.7282 45.9604 79.2168 45.9516 79.208C45.9516 79.208 45.7488 78.67 45.7312 78.6436C45.7312 78.6436 45.5812 78.088 45.5636 78.044C45.5636 78.044 45.4843 77.4972 45.4843 77.4796C45.4843 77.4796 45.4401 76.8976 45.4401 76.8711V76.7389L45.4931 76.4567C45.4931 76.4567 45.9781 76.3685 46.1103 76.3421C45.061 75.7248 42.4508 74.1816 42.0628 73.9523C41.8953 74.1816 41.1633 75.1604 40.4755 76.104C40.4138 76.1833 40.3609 76.2627 40.2992 76.3421C40.2639 76.395 40.2198 76.4479 40.1845 76.5008C39.8494 76.9505 39.5496 77.365 39.3468 77.6471C39.6819 77.5942 40.0258 77.5237 40.0258 77.5237L40.3874 77.462L40.4314 77.8147C40.4314 77.8147 40.6343 79.64 40.6343 79.7194L41.0399 80.8481C41.0399 80.8481 41.6395 81.8622 41.6395 81.8887L42.3626 82.7793C42.3626 82.7793 43.2444 83.617 43.2444 83.6258L44.2321 84.3842L45.3167 85.0897L45.5724 85.2307L46.4983 85.7598C46.4983 85.7598 47.68 86.4212 47.6623 86.4212L48.8792 87.0296C48.8792 87.0296 49.1349 87.1619 49.4083 87.3118C49.47 87.3471 49.523 87.3735 49.5847 87.4088C49.858 87.5587 50.105 87.691 50.1138 87.691L50.3519 87.8321L51.2513 88.3612C51.2513 88.3612 52.3977 89.0314 52.433 89.0578C52.433 89.0578 52.7151 89.2695 52.9885 89.4811C53.2354 89.6663 53.4647 89.8426 53.4735 89.8603C53.4735 89.8603 53.7204 90.0895 53.9938 90.3276C54.2583 90.5657 54.5405 90.8214 54.6022 90.8744C54.7874 90.7068 55.0608 90.4687 55.2989 90.2571C55.5634 90.0278 55.7926 89.8338 55.8015 89.825C55.8015 89.825 56.0572 89.6486 56.3129 89.4634C56.5863 89.2694 56.8596 89.0755 56.8773 89.0666C56.8773 89.0666 58.006 88.3965 58.0237 88.3876L59.0818 87.8497L59.2229 87.7792L59.8843 87.4441L59.9636 87.4088L60.4222 87.1796L61.6567 86.5446C61.6567 86.5446 62.8119 85.9186 62.8119 85.9274L63.7466 85.3807L63.9318 85.2748L65.0076 84.587L65.9512 83.811L66.8065 82.9292L67.5208 81.968C67.5208 81.9592 68.1292 80.8834 68.1292 80.8834C68.1381 80.8658 68.5172 79.64 68.5172 79.64C68.5172 79.64 68.7553 78.1939 68.7642 78.1586L68.9493 77.4443L69.3991 77.5501C69.3991 77.5501 69.743 77.6207 70.078 77.6736C69.8664 77.3914 69.5578 76.9593 69.2139 76.5008C69.1786 76.4479 69.1345 76.395 69.0992 76.3421C69.0463 76.2627 68.9846 76.1833 68.9229 76.104C68.2351 75.1692 67.5296 74.2081 67.3621 73.9876C66.9653 74.2169 64.3551 75.76 63.3057 76.3861C63.438 76.4038 63.9759 76.5096 63.9759 76.5096C63.9759 76.5096 63.8436 77.7177 63.8348 77.7353C63.8348 77.7353 63.7378 78.379 63.7113 78.432C63.7113 78.432 63.5174 79.0051 63.4997 79.0228C63.4997 79.0228 63.2528 79.5783 63.2352 79.6136C63.2352 79.6136 62.9265 80.1339 62.9001 80.1691C62.9001 80.1691 62.5562 80.6188 62.5297 80.6453C62.5297 80.6453 62.1329 81.0509 62.1153 81.0598C62.1153 81.0598 61.6744 81.4654 61.6744 81.483C61.6744 81.483 61.2511 81.8358 61.2246 81.8446C61.2246 81.8446 60.7661 82.162 60.7485 82.1885L60.2017 82.4707C60.2017 82.4707 60.1047 82.5236 59.9901 82.5853C59.849 82.6558 59.6903 82.744 59.6726 82.744C59.6726 82.744 59.1876 82.9645 59.17 82.9645C59.17 82.9645 58.6409 83.1673 58.6321 83.1761C58.6321 83.1761 58.1383 83.3525 58.0677 83.3701L57.133 83.4936V65.5751H68.482V62.2154H56.9214L57.8473 61.6069C58.8437 60.9367 59.5844 59.9844 59.9901 58.8997C60.2194 58.2737 60.3516 57.6035 60.3516 56.9157C60.3516 56.2279 60.2194 55.5577 59.9901 54.9404C59.1876 52.8152 57.133 51.2985 54.7345 51.2985L54.6816 51.2456ZM54.6816 59.42C53.2883 59.42 52.1331 58.2737 52.1331 56.8716C52.1331 55.4695 53.2883 54.3231 54.6816 54.3231C56.0748 54.3231 57.2477 55.4607 57.2477 56.8716C57.2477 58.2825 56.0925 59.42 54.6816 59.42Z" fill="white"/>
<path d="M40.1229 37.3656V37.3126C39.2764 36.7659 39.391 35.7959 39.391 34.8788V28.3622C39.391 27.454 39.2764 26.4663 40.1229 25.9196V25.8667H35.4229V25.9196C36.2782 26.4663 36.1636 27.454 36.1636 28.3622V34.8788C36.1636 35.7959 36.2782 36.7659 35.4229 37.3126V37.3656H40.1229Z" fill="white"/>
<path d="M58.1559 37.3131C57.4152 36.6076 57.3887 35.8228 57.3887 34.8087V32.1192L57.7415 32.1368C58.1206 32.1368 59.1347 32.128 59.9372 32.2603C60.4663 32.3484 60.9072 32.5072 60.9954 32.7717H61.0835V30.3203H60.9954C60.8366 30.3908 60.6074 30.3996 60.3428 30.3996H57.3887V27.569H57.9531C58.3499 27.569 59.1524 27.5426 59.9372 27.6043C60.8278 27.6748 61.7008 27.8512 61.9477 28.2833H62.0094V25.7437H61.9477C61.7537 25.8583 61.4804 25.8583 61.2158 25.8583H53.4117V25.9112C54.2759 26.4315 54.1613 27.4279 54.1613 28.3362V34.8528C54.1613 35.7875 54.2759 36.7575 53.4117 37.3042V37.3571H58.1471V37.3042L58.1559 37.3131Z" fill="white"/>
<path d="M72.8292 37.1804L73.7023 34.6231C72.8734 35.0817 72.0003 35.4609 71.0744 35.646C70.7041 35.7166 70.3249 35.7607 69.9369 35.7607C67.3267 35.7607 66.1539 33.7942 66.1539 31.3869C66.1539 29.2705 66.8417 27.3482 69.2315 27.3482C69.8664 27.3482 70.4924 27.4716 71.0744 27.6921C71.4536 27.842 71.824 28.0272 72.1591 28.2476L72.0356 25.805L71.0744 25.7168L69.3814 25.5669C67.6795 25.5669 65.8453 25.9813 64.5049 27.1189C63.2792 28.2035 62.6002 29.8966 62.6002 31.5015C62.6002 33.2828 63.3233 34.9318 64.6637 36.0605C66.0481 37.2686 67.5648 37.5684 69.3373 37.5684C69.9193 37.5684 70.4924 37.5419 71.0656 37.4802C71.6564 37.4185 72.2385 37.3127 72.8204 37.1539L72.8292 37.1804Z" fill="white"/>
<path d="M59.3993 113.07V123.264C59.8137 123.44 60.1929 123.696 60.528 124.031V112.603C60.4663 112.629 60.4046 112.664 60.3428 112.691C60.0342 112.823 59.7167 112.946 59.3993 113.061V113.07Z" fill="white"/>
<path d="M48.985 112.655C48.9321 112.629 48.8792 112.602 48.8263 112.576V123.969C49.1614 123.66 49.5406 123.413 49.955 123.254V113.043C49.6287 112.928 49.3025 112.796 48.985 112.655Z" fill="white"/>
<path d="M60.528 29.4296V28.6712C60.3517 28.6448 60.14 28.6095 59.8667 28.5919C59.7167 28.5831 59.558 28.5742 59.3993 28.5654V29.4296H60.3516C60.431 29.4296 60.4839 29.4296 60.528 29.4296Z" fill="white"/>
<path d="M60.528 53.8117V33.627C60.3957 33.5564 60.2811 33.4506 60.1929 33.3272C60.1224 33.3007 59.9989 33.2654 59.7785 33.2302C59.655 33.2125 59.5316 33.1949 59.3993 33.1772V52.2597C59.849 52.7183 60.2282 53.2385 60.528 53.8117Z" fill="white"/>
<path d="M37.7067 38.3447V71.986C38.0947 72.418 38.465 72.8413 38.8354 73.2734V38.3447H37.7067Z" fill="white"/>
<path d="M49.955 52.2772V38.2651C49.8668 38.3004 49.7787 38.3445 49.6817 38.371C49.4083 38.4591 49.1261 38.5209 48.8263 38.5561V53.8468C49.1261 53.2648 49.5053 52.7357 49.955 52.2772Z" fill="white"/>
<path d="M49.5318 81.8445C49.5759 81.8622 49.8139 81.968 49.955 82.0297V66.5098H48.8263V81.386C48.9321 81.4653 49.0644 81.5623 49.1173 81.5976C49.2055 81.6505 49.4436 81.7916 49.5406 81.8445H49.5318Z" fill="white"/>
<path d="M71.1804 38.4768C70.9511 38.5032 70.7131 38.5209 70.475 38.5297V73.282C70.8453 72.8499 71.2157 72.4266 71.6037 71.9945V38.415C71.4626 38.4327 71.3215 38.4591 71.1804 38.4768Z" fill="white"/>
<path d="M93.2609 22.2251C92.8906 21.7048 92.5114 21.2022 92.1322 20.6995C89.1252 16.749 85.7832 13.2658 82.1854 10.347C81.815 10.0472 81.4358 9.74738 81.0566 9.45639C78.0673 7.16367 74.9104 5.25013 71.6124 3.75104C71.2421 3.5835 70.8629 3.41596 70.4837 3.25723C65.475 1.15851 60.1665 0.0297852 54.6639 0.0297852C49.1614 0.0297852 43.8529 1.15851 38.8442 3.25723C38.465 3.41596 38.0858 3.5835 37.7155 3.75104C34.3998 5.25013 31.2341 7.17248 28.236 9.47402C27.8568 9.76502 27.4776 10.0648 27.1072 10.3647C23.483 13.3099 20.1233 16.8284 17.0986 20.8142C16.7371 21.2903 16.3844 21.7753 16.0316 22.2603C6.30523 35.8138 0.300049 54.4466 0.300049 75.0193C0.300049 95.592 6.30523 114.216 16.0316 127.769C16.3844 128.263 16.7371 128.739 17.0986 129.216C20.1233 133.201 23.483 136.72 27.1072 139.665C27.4776 139.965 27.8568 140.265 28.236 140.556C31.2341 142.857 34.3998 144.78 37.7155 146.279C38.0858 146.446 38.465 146.614 38.8442 146.773C42.054 148.122 45.3961 149.065 48.8351 149.568C49.2143 149.621 49.5847 149.674 49.9639 149.718C51.5158 149.903 53.0855 150 54.6639 150C56.2424 150 57.8385 149.903 59.3993 149.718C59.7785 149.674 60.1576 149.621 60.528 149.568C63.9494 149.056 67.2739 148.113 70.4749 146.773C70.854 146.614 71.2332 146.446 71.6036 146.279C74.9016 144.788 78.0673 142.875 81.0478 140.582C81.427 140.291 81.8062 139.991 82.1765 139.692C85.7832 136.764 89.1164 133.29 92.1234 129.339C92.5026 128.836 92.8818 128.325 93.2521 127.814C102.996 114.26 109.019 95.6097 109.019 75.0193C109.019 54.4289 102.996 35.7697 93.2521 22.2162L93.2609 22.2251ZM92.9082 87.9996C92.485 88.0702 92.1411 88.1054 92.1411 88.1054H92.1322V118.801C89.2575 123.731 85.9066 128.087 82.1854 131.72V94.9307C82.1236 94.9659 82.0619 95.0012 81.9914 95.0277C81.7533 95.1247 81.4446 95.204 81.0566 95.2658V132.796C78.1114 135.503 74.9457 137.769 71.6124 139.524V95.7243C71.4096 95.6538 71.2156 95.5744 71.0128 95.495C70.9158 95.9448 70.6248 96.2358 70.4925 96.368L70.4749 96.3857V103.458L70.5366 103.52C70.7394 103.722 71.2773 104.296 70.9863 105.221C70.8717 105.583 70.6777 105.83 70.4749 105.997V140.106C67.2915 141.658 63.9671 142.751 60.528 143.333V131.5C60.1841 131.843 59.8049 132.117 59.3993 132.302V143.501C57.8473 143.713 56.2688 143.827 54.6727 143.827C53.0767 143.827 51.507 143.721 49.9639 143.51V132.373C49.5494 132.214 49.1702 131.976 48.8351 131.676V143.342C45.3784 142.751 42.0364 141.658 38.8442 140.097V105.997C38.6766 105.839 38.5267 105.627 38.4297 105.318C38.1387 104.437 38.6237 103.881 38.8442 103.652V96.4474C38.6766 96.2798 38.4033 95.9712 38.3415 95.495C38.1035 95.592 37.8918 95.6714 37.7155 95.7331V139.515C34.3646 137.743 31.19 135.468 28.236 132.752V95.257C27.8656 95.1952 27.5658 95.1247 27.3365 95.0277C27.2483 94.9924 27.1778 94.9483 27.1072 94.913V131.685C23.3507 128.016 19.9822 123.616 17.0986 118.634V88.1054C16.9752 88.0878 16.7106 88.0525 16.4108 88.0084C16.2874 87.9908 16.1551 87.9643 16.0316 87.9467V116.72C9.80603 105.16 6.1024 90.7156 6.1024 75.0458C6.1024 59.3759 9.79721 44.923 16.0316 33.3536V41.7661C16.0316 41.7661 16.0757 41.7749 16.0934 41.7837C16.499 41.9072 16.8429 42.1364 17.0986 42.4362V31.44C19.9822 26.4578 23.3595 22.0575 27.1072 18.3892V61.942C27.4688 62.2771 27.848 62.6122 28.236 62.9649V17.3222C31.19 14.6062 34.3646 12.3311 37.7155 10.5587V24.897H38.8442V9.98547C42.0364 8.42466 45.3784 7.33121 48.8351 6.74039V24.897H49.9639V6.56403C51.5158 6.3524 53.0855 6.24658 54.6727 6.24658C56.26 6.24658 57.8473 6.35239 59.3993 6.57285V24.897H60.528V6.74039C63.9671 7.32239 67.3003 8.42466 70.4749 9.97665V24.7118L71.6036 24.8088V10.5498C74.9457 12.3135 78.1114 14.5797 81.0478 17.2781V62.9913C81.4358 62.6386 81.815 62.3035 82.1765 61.9684V18.3451C85.8978 21.9782 89.2487 26.3343 92.1234 31.2637V42.5773C92.3968 42.1982 92.7671 41.9336 93.2257 41.7925C93.2257 41.7925 93.2433 41.7925 93.2521 41.7925V33.283C99.5042 44.8612 103.225 59.3406 103.225 75.0546C103.225 90.7685 99.513 105.239 93.2521 116.817V87.9643C93.1375 87.982 93.014 87.9996 92.8994 88.0172L92.9082 87.9996Z" fill="white"/>
<path d="M59.3993 66.5098V81.7211C59.3993 81.7211 59.4698 81.6858 59.4963 81.677L60.1753 81.3243C60.2547 81.2625 60.3693 81.1832 60.5368 81.0685V66.5098H59.4081H59.3993Z" fill="white"/>
<path d="M71.6037 34.4913V29.0681C71.3303 28.883 71.0305 28.7331 70.7219 28.6184C70.6425 28.5832 70.5543 28.5655 70.475 28.5391V34.7559C70.6072 34.7382 70.7395 34.7206 70.8806 34.6941C71.1187 34.65 71.3568 34.5795 71.6037 34.5001V34.4913Z" fill="white"/>
<path d="M41.9834 28.371V33.8912C41.9834 34.9582 42.0363 35.8136 42.8035 36.6248C43.4913 37.3215 44.4172 37.6213 45.3696 37.6213H48.1913C48.597 37.6213 49.0026 37.5596 49.3906 37.4361C49.8933 37.2774 50.3606 37.0128 50.7398 36.6248C51.5158 35.8136 51.5687 34.9582 51.5687 33.8912V28.371C51.5687 27.4628 51.4452 26.4663 52.3094 25.9196V25.8667H47.6534V25.9196C48.5088 26.4663 48.3942 27.4628 48.3942 28.371V33.1505C48.3942 33.8383 48.4294 34.5085 48.0062 35.0817C47.7416 35.4344 47.3095 35.6196 46.8774 35.6196H46.6923C46.2602 35.6196 45.8281 35.4344 45.5547 35.0817C45.1403 34.5085 45.1667 33.8383 45.1667 33.1505V28.371C45.1667 27.4628 45.0433 26.4663 45.8986 25.9196V25.8667H41.2515V25.9196C42.1156 26.4663 41.9834 27.4628 41.9834 28.371Z" fill="white"/>
</g>
</svg>
